<svg version="1.1" viewBox="0 0 16 16" xmlns="http://www.w3.org/2000/svg">
  <defs>
   <style id="current-color-scheme" type="text/css">
   .ColorScheme-Text { color:#5c616c; } .ColorScheme-Highlight { color:#5294e2; }
  </style>
 </defs>
    <g transform="translate(-393.0002,443)" label="status">
        <path d="m394.0002-433.49658c9.7e-4 0.79399 0.0333 0.78072 1.03125 0.53125l4.96875-1.625v4.5l-1.78125 1.21875c-0.20883 0.13926-0.21873 0.1227-0.21875 0.34375v0.21875c0 0.42773 0.4375 0.28125 0.4375 0.28125l2.5625-0.28125 2.5625 0.28125s0.43749 0.13986 0.4375-0.25v-0.25c0-0.21159-9e-3 -0.20422-0.21875-0.34375l-1.78125-1.21875v-4.5l4.9375 1.625c1.04691 0.26171 1.06251 0.2647 1.0625-0.53125 0-0.43199-0.0117-0.43388-0.5-0.71875l-5.5-3.6875v-3.09375c0-0.554-0.446-1-1-1s-1 0.446-1 1v3.09375l-5.5 3.6875c-0.45685 0.2665-0.49822 0.28331-0.5 0.65625v0.0625z" class="ColorScheme-Text" fill="currentColor"/>
    </g>
</svg>
