<svg version="1.1" viewBox="0 0 16 16.072405" xmlns="http://www.w3.org/2000/svg">
  <defs>
   <style id="current-color-scheme" type="text/css">
   .ColorScheme-Text { color:#5c616c; } .ColorScheme-Highlight { color:#5294e2; }
  </style>
 </defs>
    <g transform="translate(-473.0004,402)" class="ColorScheme-Text" fill="currentColor">
        <path d="m480.40625-396a0.50005 0.50005 0 0 0-0.40625 0.5v2.5h-1.5a0.50005 0.50005 0 1 0 0 1h2a0.50005 0.50005 0 0 0 0.5-0.5v-3a0.50005 0.50005 0 0 0-0.59375-0.5z" style="block-progression:tb;text-indent:0;text-transform:none"/>
        <path d="m480.47488-398.93748c-3.5601 0-6.44332 2.91421-6.44332 6.4743s2.88322 6.4743 6.44332 6.4743c3.56009 0 6.4743-2.91421 6.4743-6.4743s-2.91421-6.4743-6.4743-6.4743zm0 1.98256c2.48864 0 4.49174 2.0031 4.49174 4.49174s-2.0031 4.49174-4.49174 4.49174-4.46076-2.0031-4.46076-4.49174 1.97212-4.49174 4.46076-4.49174z" style="block-progression:tb;text-indent:0;text-transform:none"/>
        <path d="m477.28165-401c-1.80617 0-3.28125 1.47507-3.28125 3.28125 0 0.40491 0.0842 0.76711 0.21875 1.125 1.20599-1.82226 3.18396-3.10226 5.46875-3.34375-0.59771-0.64999-1.4536-1.0625-2.40625-1.0625zm6.4375 0c-0.95265 0-1.80854 0.41251-2.40625 1.0625 2.28729 0.25122 4.27051 1.54101 5.46875 3.375 0.14145-0.3658 0.21875-0.74054 0.21875-1.15625 0-1.80618-1.47508-3.28125-3.28125-3.28125z"/>
        <path d="m476.90625-389.09375a1.0001 1.0001 0 0 0-0.46875 0.28125l-1.125 1.09375a1.0001 1.0001 0 1 0 1.375 1.4375l1.125-1.09375a1.0001 1.0001 0 0 0-0.90625-1.71875z" style="block-progression:tb;text-indent:0;text-transform:none"/>
        <path d="m483.9375-389a1.0001 1.0001 0 0 0-0.59375 1.65625l0.90625 1a1.0001 1.0001 0 1 0 1.5-1.3125l-0.90625-1a1.0001 1.0001 0 0 0-0.90625-0.34375z" style="block-progression:tb;text-indent:0;text-transform:none"/>
    </g>
</svg>
