<svg version="1.1" viewBox="0 0 16 16" xmlns="http://www.w3.org/2000/svg">
  <defs>
   <style id="current-color-scheme" type="text/css">
   .ColorScheme-Text { color:#5c616c; } .ColorScheme-Highlight { color:#5294e2; }
  </style>
 </defs>
    <g transform="translate(-453.0004,402)" class="ColorScheme-Text" fill="currentColor">
        <path d="m459.40625-397a0.50005 0.50005 0 0 0-0.40625 0.5v2.5h-1.5a0.50005 0.50005 0 1 0 0 1h2a0.50005 0.50005 0 0 0 0.5-0.5v-3a0.50005 0.50005 0 0 0-0.59375-0.5z" style="block-progression:tb;text-indent:0;text-transform:none"/>
        <path d="m464.00015-391h1.375l1.125 1.09375 1.09375-1.09375h1.40625v1.46875l-1.09375 1.0625 1.09375 1.0625v1.40625h-1.4375l-1.0625-1.0625-1.0625 1.0625h-1.4375v-1.40625l1.0625-1.0625-1.0625-1.0625v-1.46875z"/>
        <path d="m459.5004-400c-3.57801 0-6.5 2.92199-6.5 6.5s2.92199 6.5 6.5 6.5c1.29116 0 2.48506-0.37561 3.5-1.03125v-2.65625c-0.82069 1.02721-2.071 1.6875-3.5 1.6875-2.49713 0-4.5-2.00287-4.5-4.5 0-2.49712 2.00287-4.5 4.5-4.5 2.49712 0 4.5 2.00288 4.5 4.5 0 0.53296-0.11393 1.02721-0.28125 1.5h2.09375c0.11483-0.48186 0.1875-0.98435 0.1875-1.5 0-3.57801-2.922-6.5-6.5-6.5z" style="block-progression:tb;text-indent:0;text-transform:none"/>
    </g>
</svg>
