<svg version="1.1" viewBox="0 0 16 16" xmlns="http://www.w3.org/2000/svg">
  <defs>
   <style id="current-color-scheme" type="text/css">
   .ColorScheme-Text { color:#5c616c; } .ColorScheme-Highlight { color:#5294e2; }
  </style>
 </defs>
    <path d="m7.6259197 14.479729c-0.0722726-0.049044-0.3853637-0.310117-0.6957588-0.580159-0.3103956-0.270044-0.8278642-0.718576-1.1499296-0.996737-0.3220662-0.278163-0.9470583-0.819863-1.3888718-1.203775l-0.8032976-0.698025-3.5880619-0.0024v-2.9454245-2.9454243h1.8121447 1.8121451l0.2162058-0.1874364c0.1189129-0.1030185 0.7924253-0.6854092 1.4966928-1.2941295 0.7042684-0.6087221 1.4985169-1.2972512 1.7649984-1.5300652 0.2664814-0.2328128 0.5362094-0.4456878 0.5993967-0.473053 0.1506714-0.06525 0.5219584-0.063812 0.6502293 0.00251 0.1398684 0.07233 0.2783166 0.2459288 0.3222291 0.4040408 0.047215 0.1699877 0.050208 11.851371 0.00308 12.054515-0.039466 0.170161-0.1298335 0.2976-0.2867725 0.404412-0.1767227 0.120277-0.5810619 0.115596-0.7644391-0.0088zm3.8917343-1.518794c-0.133849-0.04005-0.302855-0.200005-0.365141-0.345579-0.06609-0.154471-0.06244-0.487776 0.0068-0.621716 0.03079-0.05955 0.13524-0.226239 0.2321-0.370423 0.519357-0.773103 0.864633-1.6816367 1.01707-2.6762375 0.0462-0.3015529 0.05579-0.5354457 0.04163-1.0175104-0.03653-1.2461014-0.373459-2.3103581-1.06278-3.3571596-0.122847-0.1865424-0.245024-0.3908671-0.271512-0.454056-0.13887-0.3312801 0.0385-0.7800132 0.355815-0.9002456 0.17661-0.066913 0.490899-0.045699 0.648934 0.043806 0.315775 0.1788395 1.013898 1.4187302 1.311933 2.3300418 0.288507 0.8821734 0.384222 1.5123288 0.384222 2.5295828 0 1.2893294-0.244771 2.3702195-0.784962 3.4663385-0.215089 0.436451-0.646619 1.128723-0.772509 1.239287-0.172921 0.15187-0.490106 0.209131-0.74159 0.133874zm-1.6854558-1.679523c-0.244386-0.07091-0.4068418-0.332428-0.4068418-0.654945 0-0.169443 0.028983-0.252345 0.2138088-0.611717 0.6710688-1.3047746 0.6696588-2.5420267-0.0043-3.8283277-0.2286841-0.4363814-0.2747636-0.6218816-0.2122109-0.8541894 0.0836792-0.3107483 0.3124779-0.4743066 0.6635067-0.4743066 0.376133 0 0.532715 0.1398527 0.838531 0.7489385 0.204994 0.4082813 0.375009 0.8885252 0.471018 1.3304884 0.06804 0.3132365 0.07976 0.4771276 0.08105 1.1337625 0.0016 0.8570371-0.02743 1.0810579-0.220489 1.6958514-0.139902 0.4455469-0.455216 1.1255599-0.603775 1.3021079-0.182044 0.21635-0.512014 0.301766-0.8202578 0.212337z" class="ColorScheme-Text" fill="currentColor"/>
</svg>
