<svg version="1.1" viewBox="0 0 16 16" xmlns="http://www.w3.org/2000/svg">
  <defs>
   <style id="current-color-scheme" type="text/css">
   .ColorScheme-Text { color:#5c616c; } .ColorScheme-Highlight { color:#5294e2; }
  </style>
 </defs>
    <path d="m7.625919 14.479809c-0.07227-0.04904-0.385362-0.310117-0.695758-0.580159-0.310395-0.270043-0.827864-0.718575-1.14993-0.996736-0.322066-0.278163-0.947058-0.819862-1.388871-1.203775l-0.803298-0.698027-3.588062-0.0024v-2.9454252-2.945424h1.812145 1.812145l0.216206-0.187436c0.118913-0.10309 0.792425-0.68548 1.496693-1.294201s1.498516-1.29725 1.764998-1.530064c0.266481-0.232814 0.53621-0.445688 0.599397-0.473053 0.150671-0.06525 0.521958-0.06382 0.65023 0.0025 0.139867 0.07233 0.278316 0.245928 0.322228 0.404039 0.04721 0.169988 0.0502 11.851373 0.0031 12.054517-0.03946 0.170161-0.129833 0.2976-0.286772 0.404412-0.176724 0.120277-0.581063 0.1156-0.76444-0.0088zm2.2062796-3.198317c-0.244387-0.0709-0.406842-0.332427-0.406842-0.654945 0-0.169443 0.02898-0.252345 0.213807-0.611717 0.6710694-1.3047737 0.6696604-2.5420262-0.0044-3.8283272-0.228663-0.436384-0.274744-0.621882-0.21219-0.85419 0.08368-0.310748 0.312478-0.474306 0.6635064-0.474306 0.376132 0 0.532713 0.139851 0.83853 0.748937 0.204995 0.408282 0.37501 0.888526 0.471018 1.33049 0.06805 0.313237 0.07976 0.477125 0.08105 1.133762 0.0017 0.8570375-0.02744 1.0810585-0.220489 1.6958505-0.139903 0.4455487-0.455217 1.1255597-0.603774 1.3021107-0.182045 0.216348-0.512014 0.301765-0.8202584 0.212335z" class="ColorScheme-Text" fill="currentColor"/>
</svg>
