<svg version="1.1" viewBox="0 0 16 16" xmlns="http://www.w3.org/2000/svg">
  <defs>
   <style id="current-color-scheme" type="text/css">
   .ColorScheme-Text { color:#5c616c; } .ColorScheme-Highlight { color:#5294e2; }
  </style>
 </defs>
    <path d="m7.626164 14.480077c-0.07227-0.04905-0.385375-0.310127-0.695781-0.580178-0.310405-0.270051-0.827891-0.718597-1.149966-0.996768-0.322077-0.278171-0.947089-0.819888-1.388917-1.203814l-0.803323-0.698048-3.588177-0.0024v-2.945519-2.9455183h1.812203 1.812203l0.216213-0.187442c0.118917-0.103093 0.79245-0.685503 1.496741-1.294243 0.70429-0.608741 1.498565-1.297291 1.765054-1.530113 0.26649-0.232822 0.536228-0.445702 0.599417-0.473068 0.150675-0.06526 0.521974-0.06382 0.65025 0.0025 0.139872 0.07233 0.278326 0.245936 0.322239 0.404052 0.04721 0.169993 0.05021 11.851752 0.0031 12.054902-0.03947 0.170167-0.129837 0.297609-0.286781 0.404425-0.176729 0.120281-0.581081 0.115604-0.764464-0.0088zm5.348802-0.01404c-0.240472-0.146639-0.359578-0.416832-0.317764-0.720855 0.01888-0.137245 0.07888-0.24913 0.298987-0.557474 0.396491-0.555442 0.577265-0.858407 0.837331-1.403309 0.370657-0.776618 0.577705-1.416849 0.744734-2.302859 0.07111-0.377185 0.08075-0.541626 0.08065-1.374576-7.9e-5 -0.8421493-0.0093-0.9951873-0.08397-1.3924273-0.281064-1.495913-0.816923-2.700101-1.760493-3.956198-0.09896-0.131735-0.11755-0.189458-0.129577-0.402305-0.01656-0.293117 0.02701-0.420244 0.194388-0.567208 0.230418-0.202309 0.614845-0.228513 0.870491-0.05933 0.1709 0.113095 0.720603 0.890229 1.051208 1.486126 0.849123 1.530495 1.239 3.069599 1.23905 4.8913463 3.6e-5 1.552474-0.263856 2.804733-0.880311 4.177281-0.378681 0.843138-1.137225 2.00674-1.420963 2.179748-0.157251 0.09588-0.56797 0.09704-0.72376 2e-3zm-1.456942-1.504802c-0.133855-0.04006-0.302865-0.200011-0.365154-0.345589-0.0661-0.154476-0.06243-0.487792 0.0068-0.621736 0.03079-0.05955 0.135243-0.226246 0.232107-0.370436 0.519374-0.773127 0.864662-1.681688 1.017104-2.676321 0.04622-0.301563 0.05579-0.535464 0.04164-1.0175433-0.03658-1.246143-0.373525-2.310433-1.062868-3.357268-0.122844-0.186549-0.245024-0.390881-0.271512-0.45407-0.138876-0.331292 0.03849-0.780039 0.355825-0.900276 0.176617-0.06692 0.490915-0.0457 0.648955 0.0438 0.315785 0.178846 1.013929 1.418777 1.311975 2.330119 0.288516 0.882199 0.384235 1.512376 0.384235 2.5296623 0 1.289371-0.244778 2.370296-0.784987 3.466451-0.215098 0.436464-0.646641 1.128759-0.772534 1.239327-0.172926 0.151874-0.490122 0.209135-0.741615 0.133877zm-1.685509-1.679577c-0.244396-0.0709-0.406856-0.332437-0.406856-0.654965 0-0.169449 0.02898-0.252353 0.213814-0.611737 0.671091-1.304815 0.669682-2.5421073-0.0044-3.8284493-0.228671-0.436397-0.274753-0.621902-0.212197-0.854217 0.08368-0.310758 0.312488-0.474322 0.663527-0.474322 0.376144 0 0.532731 0.139856 0.838558 0.748962 0.205001 0.408294 0.375021 0.888554 0.471033 1.330532 0.06805 0.313247 0.07976 0.477141 0.08105 1.1337993 0.0017 0.857064-0.02744 1.081092-0.220495 1.695904-0.139908 0.445562-0.455232 1.125595-0.603794 1.302151-0.182051 0.216356-0.51203 0.301775-0.820284 0.212342z" class="ColorScheme-Text" fill="currentColor"/>
</svg>
