<svg version="1.1" viewBox="0 0 1024 1024" xmlns="http://www.w3.org/2000/svg">
  <defs>
   <style id="current-color-scheme" type="text/css">
   .ColorScheme-Text { color:#5c616c; } .ColorScheme-Highlight { color:#5294e2; }
  </style>
 </defs>
    <g transform="translate(0,-28.362114)">
        <path d="m269.57544 1047.0664c-6.30029-6.9617-6.86115-46.3898-6.86115-482.33718 0-454.67056 0.32075-475.04599 7.58149-481.61689 6.5748-5.9501 19.78656-6.86117 99.49798-6.86117h91.91647v-22.8016-22.80163h68.40487 68.40486v22.80163 22.8016h96.78255c88.49632 0 97.37 0.64912 103.64372 7.58151 6.30034 6.96176 6.86117 46.389833 6.86117 482.3372 0 454.67053-0.32087 475.04603-7.58149 481.61683-6.88311 6.2292-31.26534 6.8612-264.6854 6.8612-243.813 0-257.45858-0.3919-263.96507-7.5815zm486.48298-481.61686v-439.44938h-221.79758-221.79757v439.44938 439.44936h221.79757 221.79758v-439.44936z" class="ColorScheme-Text" fill="currentColor"/>
    </g>
</svg>
