<svg version="1.1" viewBox="0 0 16 16.000004" xmlns="http://www.w3.org/2000/svg">
  <defs>
   <style id="current-color-scheme" type="text/css">
   .ColorScheme-Text { color:#5c616c; } .ColorScheme-Highlight { color:#5294e2; }
  </style>
 </defs>
    <g transform="translate(-373.0004,462)" class="ColorScheme-Text" fill="currentColor">
        <path d="m376.34415-450.47878c-1.20207 0.2879-1.99303 1.09829-2.1875 2.4375-0.0536 0.5628-0.28002 1.34482 0.25 1.71875 0.70817 0.42322 1.57418 0.35362 2.34375 0.21875 0.56137-0.14838 0.80163-0.2025 1.25-0.625 0 0-0.0518-1.07046 0.1875-1.65625 1.931-0.81073 3.81009-0.75064 5.6875 0 0.23926 0.58579 0.1875 1.65625 0.1875 1.65625 0.44837 0.4225 0.68863 0.47662 1.25 0.625 0.76957 0.13487 1.63558 0.20447 2.34375-0.21875 0.53002-0.37393 0.30355-1.15595 0.25-1.71875-0.19447-1.33921-0.98543-2.1496-2.1875-2.4375-3.13782-0.59102-6.2763-0.72425-9.375 0z" enable-background="new"/>
        <path d="m382.0004-460v0.78125a1.001098 1.001098 0 0 0 1.03125 1.21875h0.59375l-2.5625 2.5625-2.375-2.28125a1.0054782 1.0054782 0 0 0-0.71875-0.28125h-0.125-0.84375v0.75a1.0054782 1.0054782 0 0 0 0 0.0937 1.0054782 1.0054782 0 0 0 0.28125 0.875l3.09375 2.96875 0.6875 0.6875 0.71875-0.6875 3.21875-3.25v0.5625a1.0001 1.0001 0 0 0 1 1h1v-0.84375a1.0001 1.0001 0 0 0 0-0.1562v-3-1h-1-2.96875a1.0001 1.0001 0 0 0-0.0312 0h-1.00005z" opacity=".5" style="block-progression:tb;text-indent:0;text-transform:none"/>
    </g>
</svg>
