<svg version="1.1" viewBox="0 0 16 16" xmlns="http://www.w3.org/2000/svg">
  <defs>
   <style id="current-color-scheme" type="text/css">
   .ColorScheme-Text { color:#5c616c; } .ColorScheme-Highlight { color:#5294e2; }
  </style>
 </defs>
    <g transform="translate(-633.00035,462)">
        <path d="m636.4375-461c-1.37299 0-2.5 1.1012-2.5 2.46875v9.0625c0 1.36755 1.12701 2.46875 2.5 2.46875h9.125c1.37299 0 2.5-1.1012 2.5-2.46875v-9.0625c0-1.36755-1.12701-2.46875-2.5-2.46875h-9.125zm0 1h9.125c0.84376 0 1.5 0.64066 1.5 1.46875v9.0625c0 0.82809-0.65624 1.46875-1.5 1.46875h-9.125c-0.84376 0-1.5-0.64066-1.5-1.46875v-9.0625c0-0.82809 0.65624-1.46875 1.5-1.46875z" class="ColorScheme-Text" fill="currentColor" style="block-progression:tb;text-indent:0;text-transform:none"/>
    </g>
</svg>
