<svg version="1.1" viewBox="0 0 16 16" xmlns="http://www.w3.org/2000/svg">
  <defs>
   <style id="current-color-scheme" type="text/css">
   .ColorScheme-Text { color:#5c616c; } .ColorScheme-Highlight { color:#5294e2; }
  </style>
 </defs>
    <g transform="translate(-633.00037,422)" label="status">
        <path d="m636.5004-420.99998c-1.37635 0-2.5 1.12365-2.5 2.5v9c0 1.37635 1.12365 2.5 2.5 2.5h9c1.37635 0 2.5-1.12365 2.5-2.5v-9c0-1.37635-1.12365-2.5-2.5-2.5h-9zm0 1h9c0.83965 0 1.5 0.66035 1.5 1.5v0.9375 8.0625c0 0.83965-0.66035 1.5-1.5 1.5h-9c-0.83965 0-1.5-0.66035-1.5-1.5v-3.625-5.375c0-0.83965 0.66035-1.5 1.5-1.5zm-1.5 6.875 5.25 4.5 6.75-8.9375-2-1.8125-5.21875 6.59375-3.0625-2.65625-1.71875 2.3125z" class="ColorScheme-Text" fill="currentColor" style="block-progression:tb;text-indent:0;text-transform:none"/>
    </g>
</svg>
