<svg version="1.1" viewBox="0 0 16 16" xmlns="http://www.w3.org/2000/svg">
  <defs>
   <style id="current-color-scheme" type="text/css">
   .ColorScheme-Text { color:#5c616c; } .ColorScheme-Highlight { color:#5294e2; }
  </style>
 </defs>
    <g transform="translate(-455.0004,582)" class="ColorScheme-Text" fill="currentColor">
        <path d="m459.0004-581c-1.662 0-3 1.338-3 3v6c0 1.662 1.338 3 3 3h8c1.662 0 3-1.338 3-3v-6c0-1.662-1.338-3-3-3h-8zm2 3c0.55833 0 1.03125 0.47292 1.03125 1.03125v0.96875c0 0.55833-0.47292 1-1.03125 1s-1-0.44167-1-1v-0.96875c0-0.55833 0.44167-1.03125 1-1.03125zm4 0c0.55833 0 1 0.47292 1 1.03125v0.96875c0 0.55833-0.44167 1-1 1s-1-0.44167-1-1v-0.96875c0-0.55833 0.44167-1.03125 1-1.03125zm-2 4.03125c3.25585 0 5 0.87374 5 1.40625v0.5c-0.99656-0.6369-4.01648-0.90625-5-0.90625s-3.80457-0.0621-5 0.90625v-0.5c0-0.68098 1.74415-1.40625 5-1.40625z"/>
        <path d="m463.0004-568c-5 0-5 1-5 1 0 1 1 1 1 1h8c1 0 1-1 1-1s0-1-5-1z"/>
    </g>
</svg>
