<svg version="1.1" viewBox="0 0 16.000002 16" xmlns="http://www.w3.org/2000/svg">
  <defs>
   <style id="current-color-scheme" type="text/css">
   .ColorScheme-Text { color:#5c616c; } .ColorScheme-Highlight { color:#5294e2; }
  </style>
 </defs>
    <g transform="translate(-553.00012,522)">
        <path d="m561.00012-522c-4.42352 0-8 3.57648-8 8s3.57648 8 8 8 8-3.57648 8-8-3.57648-8-8-8zm0 1c3.87058 0 7 3.12942 7 7s-3.12942 7-7 7-7-3.12942-7-7 3.12942-7 7-7zm0.875 2.0625c-0.98888-0.0131-1.34699 1.571-0.40625 1.96875 0.74902 0.2769 1.49651-0.49475 1.3125-1.25-2e-3 -9e-3 2e-3 -0.0222 0-0.0312-0.0881-0.41059-0.48041-0.71901-0.90625-0.6875zm-0.1875 2.84375c-0.17371-7e-3 -0.35599 0.0522-0.53125 0.1875l-2.09375 1.5c-0.0571 0.0495-0.0933 0.12314-0.0625 0.21875 0.0515 0.12622 0.13609 0.25471 0.28125 0.34375 0.0726 0.0445 0.16086 0.0677 0.25 0.0312l0.875-0.59375-0.71875 3.71875c-0.081 0.46046-0.01 0.75048 0.25 0.96875 0.25877 0.21743 0.68098 0.27527 1.03125 0.0312l1.8125-1.25c0.0651-0.0521 0.10036-0.13035 0.0625-0.21875-0.0397-0.0886-0.10849-0.23035-0.21875-0.34375-0.0551-0.0567-0.14359-0.11624-0.25-0.0937l-0.75 0.53125c-0.16426 0.0948-0.21547 0.13562-0.1875 0.0312l0.84375-3.84375c0.077-0.34697 0.094-0.55018 0-0.78125-0.0974-0.23945-0.31906-0.42578-0.59375-0.4375z" class="ColorScheme-Text" fill="currentColor" opacity=".9" style="block-progression:tb;text-indent:0;text-transform:none"/>
    </g>
</svg>
