<svg version="1.1" viewBox="0 0 16 16" xmlns="http://www.w3.org/2000/svg">
  <defs>
   <style id="current-color-scheme" type="text/css">
   .ColorScheme-Text { color:#5c616c; } .ColorScheme-Highlight { color:#5294e2; }
  </style>
 </defs>
    <g transform="translate(-593.0002,522)">
        <path d="m600.90645-521.90625c-0.5255-0.0286-1.03823 0.28305-1.4375 0.96875l-6.25 11.59375c-0.53347 0.96339 0.0482 2.34375 1.09375 2.34375h13.15625c0.98172 0 1.90311-1.15939 1.21875-2.34375l-6.3125-11.53125c-0.39872-0.64617-0.94325-1.00262-1.46875-1.03125zm-0.03125 3.90625c0.10791-0.0187 0.23472-6.3e-4 0.34375 0.0312 0.44133 0.10154 0.6411 0.58205 0.5625 1-0.15418 1.76507-0.36749 3.54524-0.5 5.3125h-0.5c-0.15975-1.84029-0.37484-3.66689-0.5625-5.5 0-0.0574-0.01-0.1309 0-0.1875 0.0435-0.33826 0.33251-0.6001 0.65625-0.65625zm-0.0625 7.46875c0.36065-0.0841 0.76666 0.0936 0.9375 0.4375 0.25446 0.44359-3e-3 1.06078-0.5 1.1875-0.51262 0.17299-1.11355-0.26685-1.09375-0.8125-6e-3 -0.25485 0.11827-0.49668 0.3125-0.65625 0.0961-0.0877 0.22353-0.12823 0.34375-0.15625z" enable-background="new" class="ColorScheme-Text" fill="currentColor"/>
    </g>
</svg>
