<svg version="1.1" viewBox="0 0 16.000002 16" xmlns="http://www.w3.org/2000/svg">
  <defs>
   <style id="current-color-scheme" type="text/css">
   .ColorScheme-Text { color:#5c616c; } .ColorScheme-Highlight { color:#5294e2; }
  </style>
 </defs>
    <g transform="translate(-573.00043,522)">
        <path d="m581.00043-522c-4.42352 0-8 3.57648-8 8s3.57648 8 8 8 8-3.57648 8-8-3.57648-8-8-8zm0 1c3.87058 0 7 3.12942 7 7s-3.12942 7-7 7-7-3.12942-7-7 3.12942-7 7-7zm0.0625 2c-1.25185-0.0235-2.56366 0.46921-2.96875 1.4375-0.2348 0.53822-7e-3 1.5 0.78125 1.5 0.46089 0 0.65272-0.31442 0.6875-0.59375 0.0263-0.21135-0.0438-0.38792-0.0937-0.5625-0.0569-0.19892 0.17281-0.59292 0.4375-0.75 0.22118-0.13126 0.46589-0.17909 0.5-0.1875 0.7943-0.19579 1.57589 0.25488 1.90625 0.78125 0.33036 0.52636-0.0397 1.31735-0.5625 2.09375-0.52281 0.77641-1.06474 1.65709-1.0625 2.59375 0 0.35659-0.0533 0.48073-0.0312 0.625 0.0176 0.11526 0.40252 0.11656 0.6875 0.0625-0.0248-0.90722 0.16431-1.81366 1-2.4375 0.8827-0.70553 1.74609-1.58448 1.65625-2.625-0.0196-1.00348-1.17801-1.79319-2.40625-1.90625-0.1727-0.0245-0.35242-0.0279-0.53125-0.0312zm-0.34375 8.21875c-0.60317 0.14838-0.96173 0.91395-0.5625 1.40625 0.40746 0.6212 1.55419 0.45344 1.75-0.25 0.20357-0.54702-0.30702-1.16535-0.9375-1.15625-0.0949-5e-3 -0.16383-0.0212-0.25 0z" class="ColorScheme-Text" fill="currentColor" opacity=".9" style="block-progression:tb;text-indent:0;text-transform:none"/>
    </g>
</svg>
