<svg version="1.1" viewBox="0 0 16 16" xmlns="http://www.w3.org/2000/svg">
  <defs>
   <style id="current-color-scheme" type="text/css">
   .ColorScheme-Text { color:#5c616c; } .ColorScheme-Highlight { color:#5294e2; }
  </style>
 </defs>
    <g transform="translate(-313.00021,462)">
        <path d="m320.7502-460c-0.1385 0-0.25 0.1115-0.25 0.25v1.5c0 0.1385 0.1115 0.25 0.25 0.25h0.5c0.1385 0 0.25-0.1115 0.25-0.25v-1.5c0-0.1385-0.1115-0.25-0.25-0.25h-0.5zm-3.625 1.5c-0.0639 0-0.13853 0.0448-0.1875 0.0937l-0.34375 0.34375c-0.0979 0.0979-0.0979 0.24582 0 0.34375l1.0625 1.0625c0.0979 0.0979 0.24582 0.0979 0.34375 0l0.34375-0.3437c0.0979-0.0979 0.0979-0.24582 0-0.34375l-1.0625-1.0625c-0.049-0.049-0.0924-0.0937-0.15625-0.0937zm7.75 0c-0.0639 0-0.10728 0.0448-0.15625 0.0937l-1.0625 1.0625c-0.0979 0.0979-0.0979 0.24582 0 0.34375l0.34375 0.34375c0.0979 0.0979 0.24582 0.0979 0.34375 0l1.0625-1.0625c0.0979-0.0979 0.0979-0.24582 0-0.34375l-0.34375-0.34375c-0.049-0.049-0.1236-0.0937-0.1875-0.0937zm-3.875 1.5c-1.65685 0-3 1.34315-3 3s1.34315 3 3 3 3-1.34315 3-3-1.34315-3-3-3zm0 1c1.10457 0 2 0.89543 2 2s-0.89543 2-2 2-2-0.89543-2-2 0.89543-2 2-2zm-5.75 1.5c-0.1385 0-0.25 0.1115-0.25 0.25v0.5c0 0.1385 0.1115 0.25 0.25 0.25h1.5c0.1385 0 0.25-0.1115 0.25-0.25v-0.5c0-0.1385-0.1115-0.25-0.25-0.25h-1.5zm10 0c-0.1385 0-0.25 0.1115-0.25 0.25v0.5c0 0.1385 0.1115 0.25 0.25 0.25h1.5c0.1385 0 0.25-0.1115 0.25-0.25v-0.5c0-0.1385-0.1115-0.25-0.25-0.25h-1.5zm-7.4375 3.09375c-0.0639 0-0.10728 0.0135-0.15625 0.0625l-1.0625 1.0625c-0.0979 0.0979-0.0979 0.24582 0 0.34375l0.34375 0.34375c0.0979 0.0979 0.24582 0.0979 0.34375 0l1.0625-1.0625c0.0979-0.0979 0.0979-0.24582 0-0.34375l-0.34375-0.34375c-0.049-0.049-0.1236-0.0625-0.1875-0.0625zm6.375 0c-0.0639 0-0.13853 0.0135-0.1875 0.0625l-0.34375 0.34375c-0.0979 0.0979-0.0979 0.24582 0 0.34375l1.0625 1.0625c0.0979 0.0979 0.24582 0.0979 0.34375 0l0.34375-0.34375c0.0979-0.0979 0.0979-0.24582 0-0.34375l-1.0625-1.0625c-0.049-0.049-0.0923-0.0625-0.15625-0.0625zm-3.4375 1.40625c-0.1385 0-0.25 0.1115-0.25 0.25v1.5c0 0.1385 0.1115 0.25 0.25 0.25h0.5c0.1385 0 0.25-0.1115 0.25-0.25v-1.5c0-0.1385-0.1115-0.25-0.25-0.25h-0.5z" enable-background="new" class="ColorScheme-Text" fill="currentColor"/>
    </g>
</svg>
