<svg version="1.0" viewBox="0 0 18 16" xmlns="http://www.w3.org/2000/svg">
  <defs>
   <style id="current-color-scheme" type="text/css">
   .ColorScheme-Text { color:#5c616c; } .ColorScheme-Highlight { color:#5294e2; }
  </style>
 </defs>
    <path d="m7.5 1c-4.14 0-7.5 3.36-7.5 7.5s3.36 7.5 7.5 7.5c1.9648 0 3.7561-0.76222 5.0938-2h5.406l-3.344-3.344c0.208-0.6874 0.344-1.4008 0.344-2.156 0-4.14-3.36-7.5-7.5-7.5zm4.5 9h-9v-2h9v2z" fill-rule="evenodd" opacity=".3"/>
    <path d="m7.5 0c-4.14 0-7.5 3.36-7.5 7.5s3.36 7.5 7.5 7.5c1.9648 0 3.7561-0.76222 5.0938-2h5.406l-3.344-3.3438c0.208-0.6876 0.344-1.401 0.344-2.1562 0-4.14-3.36-7.5-7.5-7.5zm4.5 9h-9v-2h9v2z" fill="#dfdbd2" fill-rule="evenodd"/>
</svg>
