<svg version="1.1" viewBox="0 0 16.036167 16" xmlns="http://www.w3.org/2000/svg">
  <defs>
   <style id="current-color-scheme" type="text/css">
   .ColorScheme-Text { color:#5c616c; } .ColorScheme-Highlight { color:#5294e2; }
  </style>
 </defs>
    <g transform="translate(-312.98225,362)" class="ColorScheme-Text" fill="currentColor" label="status">
        <path d="m314.7635-361.00191c-0.40685 0-0.75 0.34315-0.75 0.75v0.21875h-0.25c-0.40685 0-0.75 0.34315-0.75 0.75v3.5c0 0.40685 0.34315 0.75 0.75 0.75h14.5c0.40685 0 0.75-0.34315 0.75-0.75v-3.5c0-0.40685-0.34315-0.75-0.75-0.75h-6.25v-0.21875c0-0.40685-0.34315-0.75-0.75-0.75h-6.5zm0.25 1h6v0.46875 0.5h0.5 6.5v3h-14v-3h0.5 0.5v-0.5-0.46875z" style="block-progression:tb;text-indent:0;text-transform:none"/>
        <path d="m313.3885-356.03316c-0.20652 0.0677-0.35453 0.28294-0.34375 0.5-3e-3 0.0312-3e-3 0.0626 0 0.0937-1e-3 2.41311-0.0625 6.73555-0.0625 7.90625 3e-5 0.26179 0.23821 0.49997 0.5 0.5 1.52148 0 9.70378 0.0488 14.96875 0.0312 0.011-4e-5 0.0203 4e-5 0.0312 0 1e-3 -7.7e-4 -2e-3 -0.0301 0-0.0312 0.0612-0.035 0.40613-0.21854 0.40625-0.21875 1.3e-4 -2.2e-4 0.056-0.10297 0.0625-0.125 0.013-0.0441-2e-3 -0.0489 0-0.0625 4e-3 -0.0272 0.0303-0.0494 0.0312-0.0625 2e-3 -0.0261-1e-3 -0.0323 0-0.0625 2e-3 -0.0604-2e-3 -0.14682 0-0.25 4e-3 -0.20637-4e-3 -0.49169 0-0.84375 7e-3 -0.70411 0.0256-1.66205 0.0312-2.625 0.0114-1.92589 0-3.90177 0-4.21875-3e-5 -0.26179-0.23821-0.49997-0.5-0.5-0.56337 0-13.78614-0.0306-14.8125-0.0312-0.0108-1e-5 -0.1482 0-0.15625 0-0.0517-8e-3 -0.10459-8e-3 -0.15625 0z" style="block-progression:tb;text-indent:0;text-transform:none"/>
    </g>
</svg>
