<svg version="1.0" viewBox="0 0 20 16" xmlns="http://www.w3.org/2000/svg">
  <defs>
   <style id="current-color-scheme" type="text/css">
   .ColorScheme-Text { color:#5c616c; } .ColorScheme-Highlight { color:#5294e2; }
  </style>
 </defs>
    <g transform="translate(-2,-4)" fill="none" opacity=".4" stroke-linecap="round" stroke-width="1.7">
        <path d="m2.85 11.144409s2.8977535-3.294409 9.131958-3.294409c6.203557 0 9.168042 3.3 9.168042 3.3" opacity=".3" stroke="#000"/>
        <path d="m2.85 10.144409s2.8977535-3.2944092 9.131958-3.2944092c6.203557 0 9.168042 3.3000002 9.168042 3.3000002" stroke="#dfdbd2"/>
    </g>
    <g fill="none" stroke-linecap="round" stroke-width="1.6999999">
        <path d="m3.3499998 9.752608s2.1468917-2.21577 6.6500012-2.136936c4.54046 0.07949 6.649999 2.172525 6.649999 2.172525" opacity=".3" stroke="#000"/>
        <path d="m3.3499998 8.752608s2.1468917-2.215771 6.6500012-2.136937c4.54046 0.07949 6.649999 2.172526 6.649999 2.172526" stroke="#dfdbd2"/>
        <path d="m6.3499999 12.191046s0.9668981-1.071983 3.5986811-1.092208c2.598976-0.01997 3.701319 1.092208 3.701319 1.092208" opacity=".3" stroke="#000"/>
        <path d="m6.3499999 11.191046s0.9668981-1.071983 3.5986811-1.092208c2.598976-0.01997 3.701319 1.092208 3.701319 1.092208" stroke="#dfdbd2"/>
    </g>
    <path d="m9.145105 14c-0.471902 0-0.854895 0.298667-0.854895 0.666667 0 0.136758 0.0529 0.263941 0.143587 0.369778l1.007602 0.801438c0.14986 0.101003 0.345135 0.162117 0.558602 0.162117 0.253303 0 0.480993-0.08605 0.63758-0.222693l0.900909-0.710397c0.107541-0.111488 0.1713-0.250094 0.1713-0.400243 0-0.368-0.382993-0.666667-0.854895-0.666667h-1.70979z" fill-rule="evenodd" opacity=".3"/>
    <path d="m9.145105 13c-0.471902 0-0.854895 0.298667-0.854895 0.666667 0 0.136758 0.0529 0.263941 0.143587 0.369778l1.007602 0.801438c0.14986 0.101003 0.345135 0.162117 0.558602 0.162117 0.253303 0 0.480993-0.08605 0.63758-0.222693l0.900909-0.710397c0.107541-0.111488 0.1713-0.250094 0.1713-0.400243 0-0.368-0.382993-0.666667-0.854895-0.666667h-1.70979z" fill="#dfdbd2" fill-rule="evenodd"/>
</svg>
