<svg version="1.1" viewBox="0 0 16 16" xmlns="http://www.w3.org/2000/svg">
  <defs>
   <style id="current-color-scheme" type="text/css">
   .ColorScheme-Text { color:#5c616c; } .ColorScheme-Highlight { color:#5294e2; }
  </style>
 </defs>
    <g transform="translate(-413.00015,422)" label="status">
        <path d="m415.57396-415.06359c-2.07343 2.07342-2.07343 5.4351 0 7.50852 2.07342 2.07343 5.4351 2.07343 7.50852 0l4.43686-4.43685c0.37815-0.37816 0.37815-0.98703 0-1.36519-0.37816-0.37816-0.98703-0.37816-1.36519 0l-4.43686 4.43686c-1.31945 1.31945-3.4587 1.31945-4.77815 0s-1.31945-3.45871 0-4.77816l5.80204-5.80204c0.0142 3.2e-4 0.0284 3.2e-4 0.0427 0 0.76136-0.76136 1.95041-0.77996 2.70904-0.0213 0.75858 0.75857 0.76137 1.96901 0 2.73037-1.71359 1.7136-5.14078 5.14078-5.14078 5.14078-0.19658 0.19658-0.48601 0.19658-0.68259 0s-0.19658-0.48601 0-0.68259l3.07167-3.07167c0.37816-0.37816 0.37816-0.98703 0-1.36519-0.37815-0.37815-0.98703-0.37815-1.36518 0l-3.07167 3.07167c-0.9344 0.93441-0.9344 2.47857 0 3.41297s2.47856 0.9344 3.41296 0l5.14078-5.14078c1.50048-1.50048 1.49509-3.96566 0-5.46075-1.4665-1.4665-3.84701-1.47974-5.35409-0.064-0.0433 0.0309-0.089 0.0464-0.12798 0.0853z" class="ColorScheme-Text" fill="currentColor" style="block-progression:tb;text-indent:0;text-transform:none"/>
    </g>
</svg>
