<svg version="1.1" viewBox="0 0 16.000048 16" xmlns="http://www.w3.org/2000/svg">
  <defs>
   <style id="current-color-scheme" type="text/css">
   .ColorScheme-Text { color:#5c616c; } .ColorScheme-Highlight { color:#5294e2; }
  </style>
 </defs>
    <g transform="translate(-353.00015,482)" label="status">
        <path d="m363.0002-481v2h1c2.77 0 5 2.23 5 5s-2.23 5-5 5v-2c1.662 0 3-1.338 3-3s-1.338-3-3-3h-1v2l-4-3 4-3zm-5 2v2c-1.662 0-3 1.338-3 3s1.338 3 3 3h1v-2l4 3-4 3v-2h-1c-2.77 0-5-2.23-5-5s2.23-5 5-5z" class="ColorScheme-Text" fill="currentColor" opacity=".35"/>
    </g>
</svg>
