<svg version="1.1" viewBox="0 0 16 16" xmlns="http://www.w3.org/2000/svg">
  <defs>
   <style id="current-color-scheme" type="text/css">
   .ColorScheme-Text { color:#5c616c; } .ColorScheme-Highlight { color:#5294e2; }
  </style>
 </defs>
    <g transform="translate(-373.00021,562)" class="ColorScheme-Text" fill="currentColor" label="status">
        <path d="m386.0004-561c-1.10457 0-2 0.89543-2 2s0.89543 2 2 2 2-0.89543 2-2-0.89543-2-2-2zm0 1c0.55228 0 1 0.44771 1 1 0 0.55228-0.44772 1-1 1s-1-0.44772-1-1c0-0.55229 0.44772-1 1-1z" opacity=".5"/>
        <path transform="matrix(1.0322581,0,0,1.0322551,580.06492,-738.99946)" d="m-186.0625 184.0625a1.9375 1.9375 0 1 1-3.875 0 1.9375 1.9375 0 1 1 3.875 0z"/>
        <path d="m386.0004-556c-1.10457 0-2 0.89543-2 2s0.89543 2 2 2 2-0.89543 2-2-0.89543-2-2-2zm0 1c0.55228 0 1 0.44772 1 1s-0.44772 1-1 1-1-0.44772-1-1 0.44772-1 1-1z" opacity=".5"/>
        <path d="m378.5002-561c-1.385 0-2.5 1.115-2.5 2.5v4.5 0.5c0 1.385 1.115 2.5 2.5 2.5s2.5-1.115 2.5-2.5v-0.5-4.5c0-1.385-1.115-2.5-2.5-2.5zm-4 6c-0.27614 0-0.5 0.22386-0.5 0.5v0.96875c0 1.96838 1.25801 3.62455 3 4.25v1.28125h-0.5c-0.277 0-0.5 0.223-0.5 0.5s0.223 0.5 0.5 0.5h0.5 3 0.5c0.277 0 0.5-0.223 0.5-0.5s-0.223-0.5-0.5-0.5h-0.5v-1.28125c1.74199-0.62545 3-2.28162 3-4.25v-0.96875c0-0.27614-0.22386-0.5-0.5-0.5s-0.5 0.22386-0.5 0.5c0 0.069 6e-3 0.12768 0.0312 0.1875v0.78125c0 1.96415-1.57895 3.53125-3.53125 3.53125s-3.5-1.5671-3.5-3.53125l5e-5 -0.96875c0-0.27614-0.22386-0.5-0.5-0.5z" style="block-progression:tb;text-indent:0;text-transform:none"/>
    </g>
</svg>
