<svg version="1.1" viewBox="0 0 16.00025 16" xmlns="http://www.w3.org/2000/svg">
  <defs>
   <style id="current-color-scheme" type="text/css">
   .ColorScheme-Text { color:#5c616c; } .ColorScheme-Highlight { color:#5294e2; }
  </style>
 </defs>
    <g transform="translate(-273.00015,542)">
        <path d="m275.06265-542c-1.15073 0-2.0625 0.91177-2.0625 2.0625v11.875c0 1.15073 0.91177 2.0625 2.0625 2.0625h11.875c1.15073 0 2.0625-0.91177 2.0625-2.0625v-11.875c0-1.15073-0.91177-2.0625-2.0625-2.0625h-11.875zm4.0625 3.03125h3.78125 0.0625c3e-3 -1e-4 -3e-3 0.0314 0 0.0312 0.52731-0.0204 1.07254 0.076 1.5 0.46875 0.41475 0.38112 0.59343 1.00751 0.5625 1.59375h0.0312v0.125 0.75h-2v-0.875-0.0625-0.0312c-0.0176-2e-3 3e-3 -2e-3 -0.0312 0h-0.0312-0.0312-3.84375c-0.0276 0-0.022 2e-3 -0.0312 0-6e-3 4e-3 -0.0292-3e-3 -0.0312 0-7e-3 0.0224 7e-3 0.0466 0 0.0625v0.0312 5.8125c-0.0237-0.0217-3e-3 0.0605 0 0.0625h3.90625c7e-3 -0.0193 0.0294-0.016 0.0312 0 8.8e-4 8e-3 0-0.0554 0-0.0312v-1.9375h-2v-2h3 1v1 2.9375c0 0.56264-0.22708 0.99952-0.5625 1.375-0.31592 0.35364-0.85192 0.632-1.46875 0.625v0.0312h-0.0937-3.8125c-0.6248 0-0.99413-0.24123-1.34375-0.5625-0.33105-0.30421-0.64392-0.78987-0.625-1.4375 6e-5 -2e-3 -0.0313 2e-3 -0.0312 0v-0.0937-5.8125-0.0937-0.0625c0.0625-0.43728 0.20536-0.88912 0.5625-1.28125s0.94608-0.625 1.5-0.625z" class="ColorScheme-Text" fill="currentColor"/>
    </g>
</svg>
