<svg version="1.1" viewBox="0 0 16.000004 16" xmlns="http://www.w3.org/2000/svg">
  <defs>
   <style id="current-color-scheme" type="text/css">
   .ColorScheme-Text { color:#5c616c; } .ColorScheme-Highlight { color:#5294e2; }
  </style>
 </defs>
    <g transform="translate(-493.0004,412)" class="ColorScheme-Text" fill="currentColor" label="status">
        <path d="m498.0002-409v4h2 1 2v-4zm1 1h3v2h-3zm-5 4v1h2c0-0.3661 0.11087-0.70545 0.28125-1zm11.71875 0c0.11578 0.20016 0.20929 0.41944 0.25 0.65625 0.17226-0.0355 0.34759-0.0625 0.53125-0.0625 0.17069 0 0.33762 0.0314 0.5 0.0625v-0.65625zm-10.71875 2v4h5v-3h-1v2h-3v-2h2c-0.7419 0-1.37347-0.40309-1.71875-1zm6 1v3h2v-1h-1v-2z" opacity=".35"/>
        <path d="m506.5004-402.40315c-0.92333 0-1.66667 0.72897-1.66667 1.6258v0.77538c-0.46166 0-0.83333 0.35698-0.83333 0.80039v2.40119c0 0.44341 0.37167 0.80039 0.83333 0.80039h3.33334c0.46166 0 0.83333-0.35698 0.83333-0.80039v-2.40119c0-0.44341-0.37167-0.80039-0.83333-0.80039v-0.77538c0-0.89683-0.74334-1.6258-1.66667-1.6258zm0 0.80039c0.46167 0 0.83333 0.35407 0.83333 0.8004v0.80039h-1.66666v-0.80039c0-0.44633 0.37166-0.8004 0.83333-0.8004z" opacity=".35"/>
        <path d="m498.03872-404.04255c-0.55228 0-1 0.44772-1 1s0.44772 1 1 1 1-0.44772 1-1-0.44772-1-1-1zm3 0c-0.55228 0-1 0.44772-1 1s0.44772 1 1 1 1-0.44772 1-1-0.44772-1-1-1zm3 0c-0.55228 0-1 0.44772-1 1s0.44772 1 1 1 1-0.44772 1-1-0.44772-1-1-1z"/>
    </g>
</svg>
