<svg version="1.1" viewBox="0 0 16 16" xmlns="http://www.w3.org/2000/svg">
  <defs>
   <style id="current-color-scheme" type="text/css">
   .ColorScheme-Text { color:#5c616c; } .ColorScheme-Highlight { color:#5294e2; }
  </style>
 </defs>
    <g transform="translate(-433.0004,582)">
        <path d="m440.0004-581c-1.662 0-3 1.338-3 3v3c-0.554 0-1 0.446-1 1v6c0 0.554 0.446 1 1 1h8c0.554 0 1-0.446 1-1v-6c0-0.554-0.446-1-1-1v-3c0-1.662-1.338-3-3-3zm0 2h2c0.554 0 1 0.446 1 1v3h-4v-3c0-0.554 0.446-1 1-1z" class="ColorScheme-Text" fill="currentColor"/>
    </g>
</svg>
