<svg version="1.1" viewBox="0 0 16.000004 16" xmlns="http://www.w3.org/2000/svg">
  <defs>
   <style id="current-color-scheme" type="text/css">
   .ColorScheme-Text { color:#5c616c; } .ColorScheme-Highlight { color:#5294e2; }
  </style>
 </defs>
    <g transform="translate(-413.0004,502)" class="ColorScheme-Text" fill="currentColor" label="status">
        <path d="m426.5002-499c-0.277 0-0.5 0.223-0.5 0.5v6.5h2v-6.5c0-0.277-0.223-0.5-0.5-0.5h-1zm-4 3c-0.277 0-0.5 0.223-0.5 0.5v8c0 0.277 0.223 0.5 0.5 0.5h0.5v-5h1v-3.5c0-0.277-0.223-0.5-0.5-0.5h-1zm-4 3c-0.277 0-0.5 0.223-0.5 0.5v5c0 0.277 0.223 0.5 0.5 0.5h1c0.277 0 0.5-0.223 0.5-0.5v-5c0-0.277-0.223-0.5-0.5-0.5h-1zm-4 3c-0.277 0-0.5 0.223-0.5 0.5v2c0 0.277 0.223 0.5 0.5 0.5h1c0.277 0 0.5-0.223 0.5-0.5v-2c0-0.277-0.223-0.5-0.5-0.5h-1z" opacity=".35"/>
        <path d="m424.0004-491h1.375l1.125 1.09375 1.09375-1.09375h1.40625v1.46875l-1.09375 1.0625 1.09375 1.0625v1.40625h-1.4375l-1.0625-1.0625-1.0625 1.0625h-1.4375v-1.40625l1.0625-1.0625-1.0625-1.0625v-1.46875z"/>
    </g>
</svg>
