<svg version="1.1" viewBox="0 0 16 16" xmlns="http://www.w3.org/2000/svg">
  <defs>
   <style id="current-color-scheme" type="text/css">
   .ColorScheme-Text { color:#5c616c; } .ColorScheme-Highlight { color:#5294e2; }
  </style>
 </defs>
    <g transform="translate(-293.0004,582)" class="ColorScheme-Text" fill="currentColor" label="status">
        <path d="m301.0004-579c-2.85342 0-5.46832 1.11106-7.5 2.9375l1.28125 1.4375c1.81172-1.58845 3.73233-2.375 6.21875-2.375s4.32027 0.73946 6.21875 2.40625l1.28125-1.46875c-2.03168-1.82644-4.64658-2.9375-7.5-2.9375zm0 4c-1.84789 0-3.51419 0.75032-4.875 1.875l1.34375 1.40625c0.90637-0.64917 2.29864-1.28125 3.46875-1.28125 1.19842 0 2.67452 0.63427 3.59375 1.3125l1.375-1.46875c-1.36081-1.12468-3.05836-1.84375-4.90625-1.84375zm0 4c-0.88378 0-1.7648 0.47731-2.125 0.875l2.125 2.28125 2.125-2.28125c-0.3602-0.41825-1.24122-0.875-2.125-0.875z" opacity=".35"/>
        <path d="m301.0004-575c-1.84789 0-3.51419 0.75032-4.875 1.875l1.34375 1.40625c0.90637-0.64917 2.29864-1.28125 3.46875-1.28125 1.19842 0 2.67452 0.63427 3.59375 1.3125l1.375-1.46875c-1.36081-1.12468-3.05836-1.84375-4.90625-1.84375zm0 4c-0.88378 0-1.7648 0.47731-2.125 0.875l2.125 2.28125 2.125-2.28125c-0.3602-0.41825-1.24122-0.875-2.125-0.875z"/>
        <path d="m306.5002-572.40316c-0.92333 0-1.66667 0.72897-1.66667 1.6258v0.77539c-0.46166 0-0.83333 0.35698-0.83333 0.80039v2.40119c0 0.44341 0.37167 0.80039 0.83333 0.80039h3.33334c0.46166 0 0.83333-0.35698 0.83333-0.80039v-2.40119c0-0.44341-0.37167-0.80039-0.83333-0.80039v-0.77539c0-0.89683-0.74334-1.6258-1.66667-1.6258zm0 0.80039c0.46167 0 0.83333 0.35407 0.83333 0.8004v0.80039h-1.66666v-0.80039c0-0.44633 0.37166-0.8004 0.83333-0.8004z"/>
    </g>
</svg>
