<svg version="1.1" viewBox="0 0 16.000004 16" xmlns="http://www.w3.org/2000/svg">
  <defs>
   <style id="current-color-scheme" type="text/css">
   .ColorScheme-Text { color:#5c616c; } .ColorScheme-Highlight { color:#5294e2; }
  </style>
 </defs>
    <g transform="translate(-653.0004,602)" class="ColorScheme-Text" fill="currentColor" label="status">
        <path d="m664.0004-591h1.375l1.125 1.09375 1.09375-1.09375h1.40625v1.46875l-1.09375 1.0625 1.09375 1.0625v1.40625h-1.4375l-1.0625-1.0625-1.0625 1.0625h-1.4375v-1.40625l1.0625-1.0625-1.0625-1.0625v-1.46875z"/>
        <path d="m658.0002-599v4h2v1h-6v1h3v1h-2v4h5v-4h-2v-1h5v1h1v-1h3v-1h-6v-1h2v-4h-5zm5 7h-2v4h2v-1h-1v-2h1v-1zm-4-6h3v2h-3v-2zm-3 7h3v2h-3v-2z" opacity=".35"/>
    </g>
</svg>
