<svg version="1.1" viewBox="0 0 16 16" xmlns="http://www.w3.org/2000/svg">
  <defs>
   <style id="current-color-scheme" type="text/css">
   .ColorScheme-Text { color:#5c616c; } .ColorScheme-Highlight { color:#5294e2; }
  </style>
 </defs>
    <g transform="translate(-513.00037,602)" class="ColorScheme-Text" fill="currentColor">
        <path d="m518.0002-599v3c0.63155 0 1.1317 0.34574 1.5 0.8125 0.3683-0.46676 0.86845-0.8125 1.5-0.8125h-2v-2h3v2h-1c0.63155 0 1.1317 0.34574 1.5 0.8125 0.14267-0.18081 0.31778-0.33732 0.5-0.46875v-3.34375h-5zm-4 5v1h2.28125c-0.17206-0.29452-0.28125-0.63895-0.28125-1h-2zm12 0c0 0.36105-0.10919 0.70548-0.28125 1h1.28125v-1h-1zm-3 1.65625v0.34375h-2v4h5v-4h-2c-0.3869 0-0.71183-0.1359-1-0.34375zm-6 0.0625v0.28125h-2v4h5v-4h-2c-0.36105 0-0.70548-0.10919-1-0.28125zm-1 1.28125h3v2h-3v-2zm6 0h3v2h-3v-2z" opacity=".35"/>
        <path d="m518.0002-595c-0.55228 0-1 0.44772-1 1s0.44772 1 1 1 1-0.44772 1-1-0.44772-1-1-1zm3 0c-0.55228 0-1 0.44772-1 1s0.44772 1 1 1 1-0.44772 1-1-0.44772-1-1-1zm3 0c-0.55228 0-1 0.44772-1 1s0.44772 1 1 1 1-0.44772 1-1-0.44772-1-1-1z"/>
    </g>
</svg>
