<svg version="1.1" viewBox="0 0 16.000299 16" xmlns="http://www.w3.org/2000/svg">
  <defs>
   <style id="current-color-scheme" type="text/css">
   .ColorScheme-Text { color:#5c616c; } .ColorScheme-Highlight { color:#5294e2; }
  </style>
 </defs>
    <g transform="translate(-293.0001,542)">
        <path d="m295.0626-542c-1.15073 0-2.0625 0.91177-2.0625 2.0625v11.875c0 1.15073 0.91177 2.0625 2.0625 2.0625h11.875c1.15073 0 2.0625-0.91177 2.0625-2.0625v-11.875c0-1.15073-0.91177-2.0625-2.0625-2.0625h-11.875zm3.9375 3h0.0937 5.90625v2h-6v2h6v2h-6v2c-3.6e-4 -4.5e-4 0.0315 1e-4 0.0312 0h5.96875v2h-6c-0.6248 0-0.99413-0.24118-1.34375-0.5625-0.33108-0.30424-0.64399-0.78976-0.625-1.4375h-0.0312v-0.0937-5.84375-0.0625h0.0312c-0.013-0.4751 0.11013-0.99964 0.46875-1.40625 0.35357-0.40089 0.93419-0.583 1.5-0.5625v-0.0313z" class="ColorScheme-Text" fill="currentColor"/>
    </g>
</svg>
