<svg version="1.1" viewBox="0 0 16 16" xmlns="http://www.w3.org/2000/svg">
  <defs>
   <style id="current-color-scheme" type="text/css">
   .ColorScheme-Text { color:#5c616c; } .ColorScheme-Highlight { color:#5294e2; }
  </style>
 </defs>
    <g transform="translate(-373.0004,502)" class="ColorScheme-Text" fill="currentColor" label="status">
        <path d="m386.5002-499c-0.277 0-0.5 0.223-0.5 0.5v6.5 4.5c0 0.277 0.223 0.5 0.5 0.5h1c0.277 0 0.5-0.223 0.5-0.5v-11c0-0.277-0.223-0.5-0.5-0.5h-1zm-4 3c-0.277 0-0.5 0.223-0.5 0.5v1.84375c0.18222 0.13143 0.35733 0.28794 0.5 0.46875 0.3683-0.46676 0.86845-0.8125 1.5-0.8125v-1.5c0-0.277-0.223-0.5-0.5-0.5h-1zm-3 5.1875c-0.3683 0.46676-0.86845 0.8125-1.5 0.8125v2.5c0 0.277 0.223 0.5 0.5 0.5h1c0.277 0 0.5-0.223 0.5-0.5v-2.84375c-0.18222-0.13143-0.35733-0.28794-0.5-0.46875zm3 0c-0.14267 0.18081-0.31778 0.33732-0.5 0.46875v2.84375c0 0.277 0.223 0.5 0.5 0.5h1c0.277 0 0.5-0.223 0.5-0.5v-2.5c-0.63155 0-1.1317-0.34574-1.5-0.8125zm-8 0.8125c-0.277 0-0.5 0.223-0.5 0.5v2c0 0.277 0.223 0.5 0.5 0.5h1c0.277 0 0.5-0.223 0.5-0.5v-2c0-0.277-0.223-0.5-0.5-0.5h-1z" opacity=".35"/>
        <path d="m378.0002-493c-0.55228 0-1 0.44772-1 1s0.44772 1 1 1 1-0.44772 1-1-0.44772-1-1-1zm3 0c-0.55228 0-1 0.44772-1 1s0.44772 1 1 1 1-0.44772 1-1-0.44772-1-1-1zm3 0c-0.55228 0-1 0.44772-1 1s0.44772 1 1 1 1-0.44772 1-1-0.44772-1-1-1z"/>
    </g>
</svg>
