<svg version="1.1" viewBox="0 0 16 16" xmlns="http://www.w3.org/2000/svg">
  <defs>
   <style id="current-color-scheme" type="text/css">
   .ColorScheme-Text { color:#5c616c; } .ColorScheme-Highlight { color:#5294e2; }
  </style>
 </defs>
    <g transform="translate(-573.0004,602)" class="ColorScheme-Text" fill="currentColor">
        <path d="m578.0002-599v4h2v1h-6v1h3v1h-2v4h5v-4h-2v-1h5v1h-2v4h5v-4h-2v-1h3v-1h-6v-1h2v-4zm1 1h3v2h-3zm-3 7h3v2h-3zm6 0h3v2h-3z" opacity=".35"/>
        <path d="m578.0002-599v4h2v1h-6v1h13v-1h-6v-1h2v-4h-5zm1 1h3v2h-3v-2z"/>
    </g>
</svg>
