<svg version="1.1" viewBox="0 0 16 16" xmlns="http://www.w3.org/2000/svg">
  <defs>
   <style id="current-color-scheme" type="text/css">
   .ColorScheme-Text { color:#5c616c; } .ColorScheme-Highlight { color:#5294e2; }
  </style>
 </defs>
    <g transform="translate(-393.0004,602)" class="ColorScheme-Text" fill="currentColor">
        <path d="m401.0002-599c-2.85342 0-5.46832 1.11106-7.5 2.9375l2.75 3c-0.15116-0.28036-0.25-0.60081-0.25-0.9375 0-0.22879 0.0521-0.45035 0.125-0.65625l-1.125-1.21875c1.73319-1.29243 3.74766-2.15625 6-2.15625s4.26681 0.86382 6 2.15625l-1.125 1.21875c0.0729 0.2059 0.125 0.42746 0.125 0.65625 0 0.33669-0.0988 0.65714-0.25 0.9375l2.75-3c-2.03168-1.82644-4.64658-2.9375-7.5-2.9375zm-4.09375 6.6875 4.09375 4.46875 4.09375-4.46875c-0.31243 0.20299-0.69877 0.3125-1.09375 0.3125-0.16847 0-0.31899-0.0176-0.46875-0.0625l-2.53125 2.78125-2.53125-2.78125c-0.14976 0.0449-0.30028 0.0625-0.46875 0.0625-0.39498 0-0.78132-0.10951-1.09375-0.3125z" opacity=".35"/>
        <path d="m398.0002-595c-0.55228 0-1 0.44772-1 1s0.44772 1 1 1 1-0.44772 1-1-0.44772-1-1-1zm3 0c-0.55228 0-1 0.44772-1 1s0.44772 1 1 1 1-0.44772 1-1-0.44772-1-1-1zm3 0c-0.55228 0-1 0.44772-1 1s0.44772 1 1 1 1-0.44772 1-1-0.44772-1-1-1z"/>
    </g>
</svg>
