<svg version="1.1" viewBox="0 0 16 16" xmlns="http://www.w3.org/2000/svg">
  <defs>
   <style id="current-color-scheme" type="text/css">
   .ColorScheme-Text { color:#5c616c; } .ColorScheme-Highlight { color:#5294e2; }
  </style>
 </defs>
    <g transform="translate(-533.0004,602)" class="ColorScheme-Text" fill="currentColor">
        <path d="m536.0004-601c-1.108 0-2 0.892-2 2v10c0 1.108 0.892 2 2 2h3.4375c-0.19602-0.29943-0.3125-0.64826-0.3125-1.03125 0-0.65623 0.39455-1.12163 0.90625-1.46875-0.21873-0.13975-0.41072-0.30386-0.5625-0.5h-1.46875v1h-1c-0.554 0-1-0.446-1-1v-6c0-0.554 0.446-1 1-1h1v-1c0-0.554 0.446-1 1-1h4c0.554 0 0.96747 0.44696 1 1v1h1c0.554 0 1 0.446 1 1v6c0 0.554-0.446 1-1 1h-1v-1h-1.5c-0.11489 0.19937-0.25784 0.36525-0.46875 0.5 0.5117 0.34712 0.90625 0.81252 0.90625 1.46875 0 0.38299-0.11648 0.73182-0.3125 1.03125h3.375c1.108 0 2-0.892 2-2v-10c0-1.108-0.892-2-2-2h-10z" opacity=".35"/>
        <path d="m540.84841-597.03125c1.64243-0.092 3.0955 1.17008 3.1875 2.8125-1e-4 1.40136-0.37771 1.92177-1.59375 2.84375-0.19093 0.14364-0.3256 0.2506-0.375 0.3125-0.0494 0.0621-0.0312 0.0332-0.0312 0.0312 7e-3 0.52831-0.47163 1-1 1s-1.007-0.47169-1-1c0-0.50239 0.22424-0.94342 0.46875-1.25 0.24451-0.30663 0.4913-0.51638 0.71875-0.6875 0.20405-0.16056 0.46083-0.38454 0.6875-0.65625 0.0935-0.1121 0.129-0.30766 0.125-0.4375v-0.0312c-0.0316-0.56324-0.49926-0.9691-1.0625-0.9375s-0.9691 0.43676-0.9375 1h-2c-0.092-1.64243 1.17007-2.9079 2.8125-3zm0.1875 8c0.55228 0 1 0.44772 1 1s-0.44772 1-1 1-1-0.44772-1-1 0.44772-1 1-1z"/>
    </g>
</svg>
