<svg version="1.1" viewBox="0 0 16 16" xmlns="http://www.w3.org/2000/svg">
  <defs>
   <style id="current-color-scheme" type="text/css">
   .ColorScheme-Text { color:#5c616c; } .ColorScheme-Highlight { color:#5294e2; }
  </style>
 </defs>
    <g transform="translate(-433.0004,602)" class="ColorScheme-Text" fill="currentColor" label="status">
        <path d="m441.0002-599c-2.85342 0-5.46832 1.11106-7.5 2.9375l1.28125 1.4375c0.9522-0.83486 1.9213-1.44969 3-1.84375 0.40522-0.529 0.96049-0.95762 1.59375-1.21875v-0.0312c0.01-4e-3 0.0213 4e-3 0.0312 0 0.44564-0.18521 0.90432-0.2863 1.375-0.3125 1.35844-0.10028 2.6135 0.53585 3.40625 1.5625 1.0628 0.39117 2.0362 1.00139 3.03125 1.875l1.2813-1.4688c-2.03168-1.82644-4.64658-2.9375-7.5-2.9375zm-3.96875 5.1875c-0.32056 0.20392-0.61285 0.44501-0.90625 0.6875l1.34375 1.40625c0.58234-0.41709 1.36054-0.82263 2.15625-1.0625 0.0604-0.0856 0.1218-0.17347 0.1875-0.25h-1.78125-0.90625l-0.0937-0.78125zm7.96875 0.0312c-0.0341 0.67946-0.20692 1.37144-0.65625 1.96875 0.0597 0.0407 0.13168 0.0838 0.1875 0.125l1.375-1.46875c-0.2821-0.23315-0.59687-0.4295-0.90625-0.625zm-5.78125 3.375c-0.12973 0.0921-0.26182 0.19079-0.34375 0.28125l0.6875 0.75c0.0598-0.0624 0.11728-0.13133 0.1875-0.1875 4e-3 -3e-3 0.0273 3e-3 0.0312 0 8e-3 -7e-3 -9e-3 -0.0242 0-0.0312 8e-3 -6e-3 0.0232 6e-3 0.0312 0-0.2673-0.23125-0.46675-0.50474-0.59375-0.8125zm3.625 0.0312c-0.12489 0.3756-0.32089 0.70628-0.625 0.9375 0.0456 0.0375 0.0821 0.0854 0.125 0.125l0.78125-0.8125c-0.0694-0.0806-0.17692-0.17012-0.28125-0.25z" opacity=".35"/>
        <path d="m440.84841-597.03125c1.45771-0.1076 2.89139 0.99003 3.14157 2.43499 0.13108 0.84636-0.0141 1.80447-0.63935 2.43541-0.38274 0.43089-0.92315 0.75333-1.31467 1.12955 0.0195 0.68897-0.80696 1.23928-1.42431 0.8973-0.46455-0.2159-0.6825-0.77853-0.53683-1.26145 0.1574-0.78388 0.80138-1.31151 1.39607-1.77991 0.26174-0.24723 0.61068-0.51318 0.56507-0.91839-9e-3 -0.60177-0.63973-1.05935-1.21653-0.91894-0.46305 0.0669-0.83029 0.51159-0.78347 0.98144h-2c-0.0946-1.16905 0.64933-2.32055 1.73288-2.75213 0.34166-0.14509 0.70937-0.22728 1.07957-0.24787zm0.1875 8c0.64898-0.0248 1.1713 0.6849 0.95504 1.29737-0.16908 0.62256-0.99287 0.91258-1.51415 0.53184-0.54689-0.33995-0.5889-1.21008-0.077-1.60086 0.17703-0.14708 0.40592-0.22927 0.63609-0.22835z"/>
    </g>
</svg>
