<svg version="1.1" viewBox="0 0 16 16" xmlns="http://www.w3.org/2000/svg">
  <defs>
   <style id="current-color-scheme" type="text/css">
   .ColorScheme-Text { color:#5c616c; } .ColorScheme-Highlight { color:#5294e2; }
  </style>
 </defs>
    <g transform="translate(-393.0004,502)" class="ColorScheme-Text" fill="currentColor" label="status">
        <path d="m406.5002-499c-0.277 0-0.5 0.223-0.5 0.5v11c0 0.277 0.223 0.5 0.5 0.5h1c0.277 0 0.5-0.223 0.5-0.5v-11c0-0.277-0.223-0.5-0.5-0.5h-1zm-4.125 3.625c0.29131 0.29965 0.54615 0.66948 0.59375 1.125-5e-3 -0.0732 0.0427-0.114 0.0312-0.1875-0.0634-0.36625-0.33991-0.66005-0.625-0.9375zm-3.875 2.375c-0.277 0-0.5 0.223-0.5 0.5v5c0 0.277 0.223 0.5 0.5 0.5h0.84375c-0.51609-0.8066-0.40909-1.91036 0.40625-2.5625 4e-3 -3e-3 0.0273 3e-3 0.0312 0 8e-3 -7e-3 -9e-3 -0.0242 0-0.0312 8e-3 -6e-3 0.0232 6e-3 0.0312 0-0.58587-0.50684-0.87744-1.24943-0.6875-2h-0.0312c5e-3 -0.0257 0.0252-0.0372 0.0312-0.0625 3e-3 -0.0103-3e-3 -0.021 0-0.0312 0.11915-0.49919 0.35319-0.91098 0.625-1.25-0.0743-0.0439-0.157-0.0626-0.2499-0.0626h-1zm4.15625 0.0312c-0.20678 0.26793-0.4003 0.43705-0.5 0.53125 0.1384-0.11041 0.3543-0.2813 0.4375-0.375l0.0312-0.0312v-0.0312c0.0198-0.0199 0.0128-0.0716 0.0312-0.0937zm1.34375 1.56255c-0.42986 0.45142-0.85254 0.71212-1.125 0.9375-0.12255 0.41731-0.32573 0.77995-0.65625 1.03125 0.59303 0.48713 0.97497 1.15659 0.71875 1.96875-7e-3 4e-3 2e-3 0.0233 0 0.0312-2e-3 8e-3 3e-3 0.0233 0 0.0312h-0.0312c-0.0471 0.1454-0.11378 0.28255-0.1875 0.40625h0.78125c0.277 0 0.5-0.223 0.5-0.5v-3.90625zm-9.5 1.40625c-0.277 0-0.5 0.223-0.5 0.5v2c0 0.277 0.223 0.5 0.5 0.5h1c0.277 0 0.5-0.223 0.5-0.5v-2c0-0.277-0.223-0.5-0.5-0.5h-1z" opacity=".35"/>
        <path d="m400.84841-497.03125c1.64243-0.092 3.0955 1.17008 3.1875 2.8125-1e-4 1.40136-0.37771 1.92177-1.59375 2.84375-0.19093 0.14364-0.3256 0.2506-0.375 0.3125-0.0494 0.0621-0.0312 0.0332-0.0312 0.0312 7e-3 0.52831-0.47163 1-1 1s-1.007-0.47169-1-1c0-0.50239 0.22424-0.94342 0.46875-1.25 0.24451-0.30663 0.4913-0.51638 0.71875-0.6875 0.20405-0.16056 0.46083-0.38454 0.6875-0.65625 0.0935-0.1121 0.129-0.30766 0.125-0.4375v-0.0312c-0.0316-0.56324-0.49926-0.9691-1.0625-0.9375s-0.9691 0.43676-0.9375 1h-2c-0.092-1.64243 1.17007-2.9079 2.8125-3zm0.1875 8c0.55228 0 1 0.44772 1 1s-0.44772 1-1 1-1-0.44772-1-1 0.44772-1 1-1z"/>
    </g>
</svg>
