<svg version="1.1" viewBox="0 0 16.000004 16" xmlns="http://www.w3.org/2000/svg">
  <defs>
   <style id="current-color-scheme" type="text/css">
   .ColorScheme-Text { color:#5c616c; } .ColorScheme-Highlight { color:#5294e2; }
  </style>
 </defs>
    <g transform="translate(-473.0004,412)" class="ColorScheme-Text" fill="currentColor" label="status">
        <path d="m478.0002-409v4h2v1h-6v1h3v1h-2v4h5v-4h-2v-1h5v1h-2v4h2v-1h-1v-2h1.875c0.0305-0.35511 0.12087-0.69917 0.28125-1h-0.15625v-1h1.09375c0.41184-0.25882 0.88851-0.40625 1.40625-0.40625 0.17069 0 0.33762 0.0314 0.5 0.0625v-0.65625h-6v-1h2v-4h-5zm1 1h3v2h-3v-2zm-3 7h3v2h-3v-2zm9 2v1h1v-1h-0.15625-0.1875-0.65625z"/>
        <path d="m486.5004-402.40315c-0.92333 0-1.66667 0.72897-1.66667 1.6258v0.77538c-0.46166 0-0.83333 0.35698-0.83333 0.80039v2.40119c0 0.44341 0.37167 0.80039 0.83333 0.80039h3.33334c0.46166 0 0.83333-0.35698 0.83333-0.80039v-2.40119c0-0.44341-0.37167-0.80039-0.83333-0.80039v-0.77538c0-0.89683-0.74334-1.6258-1.66667-1.6258zm0 0.80039c0.46167 0 0.83333 0.35407 0.83333 0.8004v0.80039h-1.66666v-0.80039c0-0.44633 0.37166-0.8004 0.83333-0.8004z"/>
    </g>
</svg>
