<svg version="1.0" viewBox="0 0 16 16" xmlns="http://www.w3.org/2000/svg">
  <defs>
   <style id="current-color-scheme" type="text/css">
   .ColorScheme-Text { color:#5c616c; } .ColorScheme-Highlight { color:#5294e2; }
  </style>
 </defs>
    <g fill="none" stroke-linecap="round" stroke-width="1.36">
        <path d="m0.68 6.5155s2.3182-2.6355 7.3056-2.6355c4.9628 0 7.3344 2.64 7.3344 2.64" opacity=".3" stroke="#000"/>
        <path d="m0.68 5.7155s2.3182-2.6355 7.3056-2.6355c4.9624 0 7.3344 2.64 7.3344 2.64" stroke="#dfdbd2"/>
        <path d="m2.68 8.6021s1.7175-1.7726 5.32-1.7095c3.632 0.0635 5.32 1.738 5.32 1.738" opacity=".3" stroke="#000"/>
        <path d="m2.68 7.8021s1.7175-1.7726 5.32-1.7095c3.632 0.0635 5.32 1.738 5.32 1.738" stroke="#dfdbd2"/>
        <path d="m5.08 10.553s0.77352-0.85759 2.8789-0.87377c2.0791-0.0161 2.9611 0.8738 2.9611 0.8738" opacity=".3" stroke="#000"/>
        <path d="m5.08 9.7528s0.77352-0.85759 2.8789-0.87377c2.0791-0.0159 2.9611 0.8738 2.9611 0.8738" stroke="#dfdbd2"/>
    </g>
    <path d="m7.3161 12c-0.37752 0-0.68392 0.23893-0.68392 0.53333 0 0.10941 0.04232 0.21115 0.11487 0.29582l0.80608 0.64115c0.11989 0.0808 0.27611 0.12969 0.44688 0.12969 0.20264 0 0.38479-0.06884 0.51006-0.17815l0.72073-0.56832c0.086033-0.08919 0.13704-0.20008 0.13704-0.32019 0-0.294-0.3064-0.533-0.6839-0.533h-1.3678z" fill-rule="evenodd" opacity=".3"/>
    <path d="m7.3161 11.2c-0.37752 0-0.68392 0.23893-0.68392 0.53333 0 0.10941 0.04232 0.21115 0.11487 0.29582l0.80608 0.64115c0.11989 0.0808 0.27611 0.12969 0.44688 0.12969 0.20264 0 0.38479-0.06884 0.51006-0.17815l0.72073-0.56832c0.086033-0.08919 0.13704-0.20008 0.13704-0.32019 0-0.2944-0.30639-0.53333-0.68392-0.53333h-1.3678z" fill="#dfdbd2" fill-rule="evenodd"/>
</svg>
