<svg version="1.0" viewBox="0 0 16 16" xmlns="http://www.w3.org/2000/svg">
  <defs>
   <style id="current-color-scheme" type="text/css">
   .ColorScheme-Text { color:#5c616c; } .ColorScheme-Highlight { color:#5294e2; }
  </style>
 </defs>
    <g transform="matrix(.8 0 0 .8 -1.6 -2.4)" fill="none" opacity=".4" stroke-linecap="round" stroke-width="1.7">
        <path d="m2.85 11.144s2.8978-3.2944 9.132-3.2944c6.2036 0 9.168 3.3 9.168 3.3" opacity=".3" stroke="#000"/>
        <path d="m2.85 10.144s2.8978-3.2944 9.132-3.2944c6.204 4e-4 9.168 3.3004 9.168 3.3004" stroke="#dfdbd2"/>
    </g>
    <g transform="matrix(.8 0 0 .8 -1.6 -2.4)" fill="none" opacity=".4" stroke-linecap="round" stroke-width="1.7">
        <path d="m5.35 13.753s2.1469-2.2158 6.65-2.1369c4.5405 0.07949 6.65 2.1725 6.65 2.1725" opacity=".3" stroke="#000"/>
        <path d="m5.35 12.753s2.1469-2.2158 6.65-2.1369c4.5405 0.07949 6.65 2.1725 6.65 2.1725" stroke="#dfdbd2"/>
    </g>
    <g transform="matrix(.8 0 0 .8 -1.6 -2.4)" fill="none" opacity=".5" stroke-linecap="round" stroke-width="1.7">
        <path d="m8.35 16.191s0.9669-1.072 3.5987-1.0922c2.599-0.01997 3.7013 1.0922 3.7013 1.0922" opacity=".3" stroke="#000"/>
        <path d="m8.35 15.191s0.9669-1.072 3.5987-1.0922c2.599-0.01997 3.7013 1.0922 3.7013 1.0922" stroke="#dfdbd2"/>
    </g>
    <path d="m7.3161 12c-0.37752 0-0.68392 0.23893-0.68392 0.53333 0 0.10941 0.04232 0.21115 0.11487 0.29582l0.80608 0.64115c0.11989 0.0808 0.27611 0.12969 0.44688 0.12969 0.20264 0 0.38479-0.06884 0.51006-0.17815l0.72073-0.56832c0.08603-0.08919 0.13704-0.20008 0.13704-0.32019 0-0.294-0.3064-0.533-0.6839-0.533h-1.3678z" fill-rule="evenodd" opacity=".3"/>
    <path d="m7.3161 11.2c-0.37752 0-0.68392 0.23893-0.68392 0.53333 0 0.10941 0.04232 0.21115 0.11487 0.29582l0.80608 0.64115c0.11989 0.0808 0.27611 0.12969 0.44688 0.12969 0.20264 0 0.38479-0.06884 0.51006-0.17815l0.72073-0.56832c0.08603-0.08919 0.13704-0.20008 0.13704-0.32019 0-0.2944-0.30639-0.53333-0.68392-0.53333h-1.3678z" fill="#dfdbd2" fill-rule="evenodd"/>
</svg>
