<svg version="1.0" viewBox="0 0 16 16" xmlns="http://www.w3.org/2000/svg">
  <defs>
   <style id="current-color-scheme" type="text/css">
   .ColorScheme-Text { color:#5c616c; } .ColorScheme-Highlight { color:#5294e2; }
  </style>
 </defs>
    <g transform="matrix(.8 0 0 .8 -1.6 -2.4)" fill="none" opacity=".4" stroke-linecap="round" stroke-width="1.7">
        <path d="m2.85 11.144s2.8978-3.2944 9.132-3.2944c6.2036 0 9.168 3.3 9.168 3.3" opacity=".3" stroke="#000"/>
        <path d="m2.85 10.144s2.8978-3.2944 9.132-3.2944c6.204 4e-4 9.168 3.3004 9.168 3.3004" stroke="#dfdbd2"/>
    </g>
    <g fill="none" stroke-linecap="round" stroke-width="1.36">
        <path d="m2.68 8.6021s1.7175-1.7726 5.32-1.7095c3.632 0.0635 5.32 1.738 5.32 1.738" opacity=".3" stroke="#000"/>
        <path d="m2.68 7.8021s1.7175-1.7726 5.32-1.7095c3.632 0.0635 5.32 1.738 5.32 1.738" stroke="#dfdbd2"/>
        <path d="m5.08 10.553s0.77352-0.85758 2.8789-0.87377c2.0791-0.0161 2.9611 0.8738 2.9611 0.8738" opacity=".3" stroke="#000"/>
        <path d="m5.08 9.7528s0.77352-0.85758 2.8789-0.87377c2.0791-0.0159 2.9611 0.8738 2.9611 0.8738" stroke="#dfdbd2"/>
    </g>
    <path d="m7.3161 12c-0.37752 0-0.68392 0.23895-0.68392 0.53335 0 0.1094 0.04232 0.21114 0.11487 0.29582l0.80608 0.64116c0.11989 0.0808 0.27611 0.12968 0.44688 0.12968 0.20264 0 0.38479-0.06885 0.51006-0.17816l0.72073-0.56832c0.086-0.089 0.137-0.2 0.137-0.32 0-0.294-0.3064-0.533-0.6839-0.533h-1.3678z" fill-rule="evenodd" opacity=".3"/>
    <path d="m7.3161 11.2c-0.37752 0-0.68392 0.23895-0.68392 0.53335 0 0.1094 0.04232 0.21114 0.11487 0.29582l0.80608 0.64116c0.1199 0.081 0.2761 0.13 0.4469 0.13 0.20264 0 0.38479-0.06885 0.51006-0.17816l0.72073-0.56832c0.086004-0.08913 0.13703-0.20006 0.13703-0.32017 0-0.2944-0.30639-0.53335-0.68391-0.53335h-1.3678z" fill="#dfdbd2" fill-rule="evenodd"/>
</svg>
