<svg version="1.1" viewBox="0 0 16 16" xmlns="http://www.w3.org/2000/svg">
  <defs>
   <style id="current-color-scheme" type="text/css">
   .ColorScheme-Text { color:#5c616c; } .ColorScheme-Highlight { color:#5294e2; }
  </style>
 </defs>
    <g transform="translate(-293.0004,402)">
        <path d="m301.0004-401.48516-2 5.5h-5.5l4.25 3.5-2 5.75 5.25-2.5 5.25 2.5-2-5.75 4.25-3.5h-5.5l-2-5.5zm0 2.9375 1.0625 2.90625a0.98599047 0.98599047 0 0 0 0.9375 0.65625h2.75l-2.125 1.75a0.98599047 0.98599047 0 0 0-0.3125 1.0625l1.21875 3.53125-3.09375-1.46875a0.98599047 0.98599047 0 0 0-0.875 0l-3.09375 1.46875 1.21875-3.53125a0.98599047 0.98599047 0 0 0-0.3125-1.0625l-2.125-1.75h2.75a0.98599047 0.98599047 0 0 0 0.9375-0.65625l1.0625-2.90625z" class="ColorScheme-Text" fill="currentColor"/>
    </g>
</svg>
