<svg version="1.1" viewBox="0 0 16 16" xmlns="http://www.w3.org/2000/svg">
  <defs>
   <style id="current-color-scheme" type="text/css">
   .ColorScheme-Text { color:#5c616c; } .ColorScheme-Highlight { color:#5294e2; }
  </style>
 </defs>
    <g transform="translate(-333.00018,422)" label="status">
        <path d="m342.59395-420.875c-0.25424 0.11867-0.45328 0.33403-0.53125 0.625-3e-3 0.0105 2e-3 0.0208 0 0.0312-1.78508-0.0144-3.41627 1.17138-3.90625 3-6e-3 0.0206-0.0261 0.0419-0.0312 0.0625-0.51898 1.93691-1.52877 5.80495-3.25 5.34375-0.11466-0.0307-0.2454 0.0537-0.28125 0.1875l-0.125 0.46875c-0.0358 0.13378 0.0103 0.28177 0.125 0.3125l11.1875 2.96875c0.11467 0.0307 0.24541-0.0225 0.28125-0.15625l0.125-0.5c0.0358-0.13378-0.0416-0.25052-0.15625-0.28125-1.72795-0.463-0.67515-4.34469-0.15625-6.28125 6e-3 -0.0204-5e-3 -0.0419 0-0.0625 0.12115-0.45213 0.15537-0.90892 0.125-1.34375-1.93948 0-3.5-1.56051-3.5-3.5 0-0.29885 0.0235-0.59799 0.0937-0.875zm-2.59375 12.5c0.0827 0.77146 0.95012 1.375 2 1.375 0.57062 0 1.07313-0.18127 1.4375-0.46875l-3.4375-0.90625z" class="ColorScheme-Text" fill="currentColor"/>
        <path d="m348.0002-420a2 2 0 0 1-4 0 2 2 0 1 1 4 0z" fill="#009dff"/>
    </g>
</svg>
