<svg version="1.0" viewBox="0 0 16 16" xmlns="http://www.w3.org/2000/svg">
  <defs>
   <style id="current-color-scheme" type="text/css">
   .ColorScheme-Text { color:#5c616c; } .ColorScheme-Highlight { color:#5294e2; }
  </style>
 </defs>
    <defs>
        <style type="text/css">.ColorScheme-Text { color:#5c616c; } .ColorScheme-Highlight { color:#5294e2; }</style>
    </defs>
    <g transform="translate(-4,-5)">
        <path d="m8 5c-0.554 0-1 1.446-1 2v2h-2.25c-0.4155 0-0.75 0.3345-0.75 0.75v5.5c0 0.4155 0.3345 0.75 0.75 0.75h2.25v4c0 0.554 0.446 1 1 1h8c0.554 0 1-0.446 1-1v-4h2.25c0.4155 0 0.75-0.3345 0.75-0.75v-5.5c0-0.4155-0.3345-0.75-0.75-0.75h-2.25v-2c0-0.554-0.446-2-1-2zm0.75 2h6.5c0.4155 0 0.75 0.3345 0.75 0.75v2.25h-8v-2.25c0-0.4155 0.3345-0.75 0.75-0.75zm-0.75 7h8v5h-8z" opacity=".3"/>
        <path d="m8 5c-0.554 0-1 0.446-1 1v2h-2c-0.4155 0-1 0.5845-1 1v5c0 0.4155 0.5845 1 1 1h2v4c0 0.554 0.446 1 1 1h8c0.554 0 1-0.446 1-1v-4h2c0.4155 0 1-0.5845 1-1v-5c0-0.4155-0.5845-1-1-1h-2v-2c0-0.554-0.446-1-1-1zm0.75 1h6.5c0.4155 0 0.75 0.3345 0.75 0.75v2.25h-8v-2.25c0-0.4155 0.3345-0.75 0.75-0.75zm4.25 4h1v1h-1zm2 0h1v1h-1zm2 0h1v1h-1zm-9 3h8v6h-8zm1 2v1h6v-1zm0 2v1h4v-1z" fill="currentColor" class="ColorScheme-Text"/>
    </g>
</svg>
