<svg version="1.1" viewBox="0 0 16.000017 16.010412" xmlns="http://www.w3.org/2000/svg">
  <defs>
   <style id="current-color-scheme" type="text/css">
   .ColorScheme-Text { color:#5c616c; } .ColorScheme-Highlight { color:#5294e2; }
  </style>
 </defs>
    <g transform="translate(-533.00018,502.00693)" label="status">
        <path d="m536.9377-502c-0.36035 0.0469-0.9375 0.25-0.9375 1v2s-1 0-1 1v3h-1s-1 0-1 1v5.5c0 0.5 0.5 0.5 0.5 0.5h0.5c0 1 1 1 1 1s0 1 1 1h6.71875c-0.35881-0.28632-0.67958-0.61919-0.9375-1h-5.78125v-1h5.28125c-0.11445-0.31903-0.17941-0.65306-0.21875-1h-7.0625v-4.4375c0-0.42187 0.37793-0.53613 0.5625-0.5625 0.0615-9e-3 0.0937 0 0.0937 0h1.34375 9.5 0.5 1.34375s0.65625 0 0.65625 0.5625v0.21875c0.38081 0.25792 0.71368 0.57869 1 0.9375l5e-5 -1.71875c0-1-1-1-1-1h-1v-3c0-1-1-1-1-1v-2c0-1-1-1-1.1875-1h-7.625c-0.0469 0-0.12988-0.0156-0.25 0zm0.0625 1h8v6h-8v-6zm9 13v0.9375c0.57011-0.13423 1.0522-0.48288 1.40625-0.9375h-1.40625z" class="ColorScheme-Text" fill="currentColor" style="block-progression:tb;text-indent:0;text-transform:none"/>
        <path d="m536.0002-494v4h5.0625c0.25376-2.23794 2.13503-4 4.4375-4h-9.5zm9.5 0c0.17096 0 0.33383 0.0437 0.5 0.0625v-0.0625h-0.5zm0 2c-0.79303 0-1.41877 0.40232-1.875 0.96875h2.375v-0.90625c-0.1599-0.0372-0.3235-0.0625-0.5-0.0625z" class="ColorScheme-Text" fill="currentColor" opacity=".5"/>
        <path class="error" d="m545.5002-493c-1.93299 0-3.5 1.56701-3.5 3.5s1.56701 3.5 3.5 3.5 3.5-1.56701 3.5-3.5-1.56701-3.5-3.5-3.5zm-2.5 2.96875h5v1.03125h-5v-1.03125z" fill="#ef2929"/>
    </g>
</svg>
