<svg version="1.1" viewBox="0 0 16 16" xmlns="http://www.w3.org/2000/svg">
  <defs>
   <style id="current-color-scheme" type="text/css">
   .ColorScheme-Text { color:#5c616c; } .ColorScheme-Highlight { color:#5294e2; }
  </style>
 </defs>
    <g transform="translate(-613.00035,422)" label="status">
        <path d="m621.00032-421c-3.86007 0-7 3.13993-7 7s3.13993 7 7 7 7-3.13993 7-7c0-1.3044-0.37885-2.51316-1-3.5625-1.21699-2.05593-3.44433-3.4375-6-3.4375zm0 1c1.33584 0 2.56855 0.45429 3.5625 1.1875l-4.78125 6.03125-3.0625-2.65625-1.65625 2.21875c-0.0328-0.25332-0.0625-0.51882-0.0625-0.78125 0-3.31963 2.68037-6 6-6zm5.34375 3.28125c0.41788 0.81824 0.65625 1.73323 0.65625 2.71875 0 3.31963-2.68037 6-6 6-3.00225 0-5.45555-2.18917-5.90625-5.0625l5.15625 4.4375 6.09375-8.09375z" class="ColorScheme-Text" fill="currentColor"/>
    </g>
</svg>
