<svg version="1.1" viewBox="0 0 16.044992 16.062601" xmlns="http://www.w3.org/2000/svg">
  <defs>
   <style id="current-color-scheme" type="text/css">
   .ColorScheme-Text { color:#5c616c; } .ColorScheme-Highlight { color:#5294e2; }
  </style>
 </defs>
    <g transform="translate(-433.0004,422.0626)" class="ColorScheme-Text" fill="currentColor">
        <path d="m439.3129-422.0625c-0.51427 6.7e-4 -1.02062 0.17688-1.40625 0.5625l-4.25 4.25c-0.77127 0.77127-0.75662 2.07334 0 2.84375l2.375 2.40625h2.84375l-3.8125-3.84375 4.25-4.21875 7.71875 7.78125c0.0152 0.0154 0.0435 0.0191 0.0312 0.0312l-4.25 4.25-3.8125-3.84375v2.8125l2.375 2.40625 0.0312 0.0312c0.77124 0.77124 2.04126 0.77124 2.8125 0l4.25-4.25c0.77125-0.77125 0.76539-2.04156 0-2.8125l-7.75-7.84375c-0.38574-0.38831-0.89198-0.56317-1.40625-0.5625z" enable-background="new" style="block-progression:tb;text-indent:0;text-transform:none"/>
        <path d="m433.0004-411h1.375l1.125 1.09375 1.09375-1.09375h1.40625v1.46875l-1.09375 1.0625 1.09375 1.0625v1.40625h-1.4375l-1.0625-1.0625-1.0625 1.0625h-1.4375v-1.40625l1.0625-1.0625-1.0625-1.0625v-1.46875z"/>
    </g>
</svg>
