<svg version="1.0" viewBox="0 0 16 16" xmlns="http://www.w3.org/2000/svg">
  <defs>
   <style id="current-color-scheme" type="text/css">
   .ColorScheme-Text { color:#5c616c; } .ColorScheme-Highlight { color:#5294e2; }
  </style>
 </defs>
    <path d="m2.5 13c1.5-1.5 3.5-1.5 5.5 0 2.0669 1.5502 4 1.5 5.5 2e-6m-11-3.9999c1.5-1.5 3.5-1.5 5.5 0 2.0669 1.5502 4 1.5 5.5 1e-6m-11-4c1.5-1.5 3.5-1.5 5.5 0 2.0669 1.5502 4 1.5 5.5 0" fill="none" opacity=".3" stroke="#000" stroke-linecap="round" stroke-width="1.5"/>
    <path d="m2.5 12c1.5-1.5 3.5-1.5 5.5 0 2.0669 1.5502 4 1.5 5.5 2e-6m-11-3.9999c1.5-1.5 3.5-1.5 5.5 0 2.0669 1.5502 4 1.5 5.5 1e-6m-11-4c1.5-1.5 3.5-1.5 5.5 0 2.0669 1.5502 4 1.5 5.5 0" fill="none" stroke="#dfdbd2" stroke-linecap="round" stroke-width="1.5"/>
</svg>
