<svg version="1.0" viewBox="0 0 18 16" xmlns="http://www.w3.org/2000/svg">
  <defs>
   <style id="current-color-scheme" type="text/css">
   .ColorScheme-Text { color:#5c616c; } .ColorScheme-Highlight { color:#5294e2; }
  </style>
 </defs>
    <path d="m10.5 2c-1.6895 0-3.1368 1.0625-3.9062 2.5938-0.4333-0.3605-0.9866-0.5938-1.5938-0.5938-1.38 0-2.5 1.12-2.5 2.5 0 0.30993 0.05301 0.60104 0.15625 0.875-1.5695 0.7013-2.6562 2.289-2.6562 4.125 0 2.493 2.007 4.5 4.5 4.5h9c2.493 0 4.5-2.007 4.5-4.5 0-1.9747-1.269-3.641-3.031-4.25 4e-3 -0.0854 0.031-0.1635 0.031-0.25 0-2.76-2.016-5-4.5-5zm-1.5 3c0.554 0 1 0.446 1 1v5c0 0.554-0.446 1-1 1s-1-0.446-1-1v-5c0-0.554 0.446-1 1-1zm-0.5 8h1c0.277 0 0.5 0.223 0.5 0.5v1c0 0.277-0.223 0.5-0.5 0.5h-1c-0.277 0-0.5-0.223-0.5-0.5v-1c0-0.277 0.223-0.5 0.5-0.5z" fill-rule="evenodd" opacity=".3"/>
    <path d="m10.5 0.99955c-1.6895 0-3.1368 1.0625-3.9062 2.5938-0.4333-0.3605-0.9866-0.5938-1.5938-0.5938-1.38 0-2.5 1.12-2.5 2.5 0 0.3099 0.053 0.601 0.1562 0.875-1.5695 0.7012-2.6562 2.289-2.6562 4.1254 0 2.493 2.007 4.5 4.5 4.5h9c2.493 0 4.5-2.007 4.5-4.5 0-1.9747-1.2687-3.641-3.0312-4.25 4e-3 -0.0859 0.031-0.1639 0.031-0.2504 0-2.76-2.016-5-4.5-5zm-1.5 3c0.554 0 1 0.446 1 1v5c0 0.554-0.446 1-1 1s-1-0.446-1-1v-5c0-0.554 0.446-1 1-1zm-0.5 8h1c0.277 0 0.5 0.223 0.5 0.5v1c0 0.277-0.223 0.5-0.5 0.5h-1c-0.277 0-0.5-0.223-0.5-0.5v-1c0-0.277 0.223-0.5 0.5-0.5z" fill="#df382c" fill-rule="evenodd"/>
</svg>
