<svg version="1.0" viewBox="0 0 18 16" xmlns="http://www.w3.org/2000/svg">
  <defs>
   <style id="current-color-scheme" type="text/css">
   .ColorScheme-Text { color:#5c616c; } .ColorScheme-Highlight { color:#5294e2; }
  </style>
 </defs>
    <path d="m10.5 2c-1.6895 0-3.1368 1.0625-3.9062 2.5938-0.4333-0.3605-0.9866-0.5938-1.5938-0.5938-1.38 0-2.5 1.12-2.5 2.5 0 0.30993 0.05301 0.60104 0.15625 0.875-1.5695 0.7013-2.6562 2.289-2.6562 4.125 0 2.493 2.007 4.5 4.5 4.5h9c2.493 0 4.5-2.007 4.5-4.5 0-1.9747-1.269-3.641-3.031-4.25 4e-3 -0.0854 0.031-0.1635 0.031-0.25 0-2.76-2.016-5-4.5-5z" fill-rule="evenodd" opacity=".3"/>
    <path d="m10.5 1c-1.6895 1e-7 -3.1368 1.0625-3.9062 2.5938-0.4333-0.3605-0.9866-0.5938-1.5938-0.5938-1.38 0-2.5 1.12-2.5 2.5 0 0.3099 0.053 0.601 0.1562 0.875-1.5695 0.7013-2.6562 2.289-2.6562 4.125 0 2.493 2.007 4.5 4.5 4.5h9c2.493 0 4.5-2.007 4.5-4.5 0-1.9747-1.269-3.641-3.031-4.25 4e-3 -0.0854 0.031-0.1635 0.031-0.25 0-2.76-2.016-5-4.5-5z" fill="#dfdbd2" fill-rule="evenodd"/>
</svg>
