<svg version="1.1" viewBox="0 0 16.000048 16" xmlns="http://www.w3.org/2000/svg">
  <defs>
   <style id="current-color-scheme" type="text/css">
   .ColorScheme-Text { color:#5c616c; } .ColorScheme-Highlight { color:#5294e2; }
  </style>
 </defs>
    <g transform="translate(-293.00015,402)" label="status">
        <path d="m298.0002-400c-2.77 0-5 2.23-5 5s2.23 5 5 5h3.34375l2.65625 3v-3c2.77 0 5-2.23 5-5s-2.23-5-5-5h-6zm0 2h1c0.27614 0 0.53779 0.10029 0.71875 0.28125l1.28125 1.28125 1.28125-1.28125c0.18096-0.18096 0.44261-0.28125 0.71875-0.28125h1v1c0 0.27614-0.10029 0.53779-0.28125 0.71875l-1.28125 1.28125 1.28125 1.28125c0.18096 0.18096 0.28125 0.44261 0.28125 0.71875v1h-1c-0.27614 0-0.53779-0.10029-0.71875-0.28125l-1.28125-1.28125-1.28125 1.28125c-0.18096 0.18096-0.44261 0.28125-0.71875 0.28125h-1v-1c0-0.27614 0.10029-0.53779 0.28125-0.71875l1.28125-1.28125-1.28125-1.28125c-0.18096-0.18096-0.28125-0.44261-0.28125-0.71875v-1z" class="ColorScheme-Text" fill="currentColor"/>
    </g>
</svg>
