<svg version="1.1" viewBox="0 0 16.000048 16" xmlns="http://www.w3.org/2000/svg">
  <defs>
   <style id="current-color-scheme" type="text/css">
   .ColorScheme-Text { color:#5c616c; } .ColorScheme-Highlight { color:#5294e2; }
  </style>
 </defs>
    <g transform="translate(-393.00015,402)" class="ColorScheme-Text" fill="currentColor" label="status">
        <path d="m398.0002-400c-2.77 0-5 2.23-5 5s2.23 5 5 5h3.34375l2.65625 3v-3c2.77 0 5-2.23 5-5s-2.23-5-5-5zm0 3h6c1.108 0 2 0.892 2 2s-0.892 2-2 2h-6c-1.108 0-2-0.892-2-2s0.892-2 2-2z" opacity=".35"/>
        <path d="m398.0002-396c-0.55228 0-1 0.44772-1 1s0.44772 1 1 1 1-0.44772 1-1-0.44772-1-1-1zm3 0c-0.55228 0-1 0.44772-1 1s0.44772 1 1 1 1-0.44772 1-1-0.44772-1-1-1zm3 0c-0.55228 0-1 0.44772-1 1s0.44772 1 1 1 1-0.44772 1-1-0.44772-1-1-1z"/>
    </g>
</svg>
