<svg version="1.1" viewBox="0 0 16.000711 16" xmlns="http://www.w3.org/2000/svg">
  <defs>
   <style id="current-color-scheme" type="text/css">
   .ColorScheme-Text { color:#5c616c; } .ColorScheme-Highlight { color:#5294e2; }
  </style>
 </defs>
    <g transform="translate(-292.99969,442)" class="ColorScheme-Text" fill="currentColor">
        <path d="m294.34375-432.03125a1.50015 1.50015 0 0 0-1.34375 1.53125v2.96875a1.50015 1.50015 0 1 0 3 0v-2.96875a1.50015 1.50015 0 0 0-1.65625-1.53125z" style="block-progression:tb;text-indent:0;text-transform:none"/>
        <path d="m294.4375-440.03125a0.50005 0.50005 0 0 0-0.4375 0.53125v7.5a0.50005 0.50005 0 1 0 1 0v-7.5a0.50005 0.50005 0 0 0-0.5625-0.53125z" style="block-progression:tb;text-indent:0;text-transform:none"/>
        <path d="m301.46915-439c-1.04662 1-4.32199 1.0552-6.68972 1l0.0582 1s0.46857-0.0468 0.49595 0.0138c0.45625 1.00895 1.48268 2.4081 3.66677 2.4081 2.0614 0 2.5-1.92188 2.5-1.92188s0.5952 1.89063 2.5 1.89063c3.50937 0 4-3.39063 4-3.39063-2.60242 0.14829-5.44365 0-6.53125-1zm-2.9375 2c0.95939 8e-3 1.46875 0.5 1.46875 0.5s-0.19816 0.5-1.375 0.5c-1.12331 0-1.625-0.6875-1.625-0.6875s0.96014-0.31722 1.53125-0.3125zm5.9375 0c0.57111-5e-3 1.53125 0.3125 1.53125 0.3125s-0.40794 0.6875-1.625 0.6875c-1.14559 0-1.375-0.5-1.375-0.5s0.50936-0.492 1.46875-0.5z"/>
    </g>
</svg>
