<svg version="1.1" viewBox="0 0 16 16" xmlns="http://www.w3.org/2000/svg">
  <defs>
   <style id="current-color-scheme" type="text/css">
   .ColorScheme-Text { color:#5c616c; } .ColorScheme-Highlight { color:#5294e2; }
  </style>
 </defs>
    <g transform="translate(-533.00018,482)" fill-rule="evenodd" label="status">
        <path d="m542.00018-480c-1.1263 0-2.08079 0.59376-2.59375 1.46875-0.28885-0.20595-0.6577-0.3125-1.0625-0.3125-0.92 0-1.6875 0.61768-1.6875 1.40625 0 0.1771 0.0562 0.34346 0.125 0.5-1.04634 0.40073-1.78125 1.32588-1.78125 2.375 0 1.42457 1.338 2.5625 3 2.5625h1v-3.96875c0-0.51187 0.42563-0.9375 0.9375-0.9375h2.125c0.51187 0 0.9375 0.42563 0.9375 0.9375v3.96875h1c1.662 0 3-1.13793 3-2.5625 0-1.12838-0.85624-2.08952-2.03125-2.4375 3e-3 -0.0488 0.0312-0.10682 0.0312-0.15625 0-1.57714-1.344-2.84375-3-2.84375z" class="ColorScheme-Text" fill="currentColor"/>
        <path class="error" d="m541.00022-476c-0.554 0-1 0.446-1 1v5c0 0.554 0.446 1 1 1s1-0.446 1-1v-5c0-0.554-0.446-1-1-1zm-0.5 8c-0.277 0-0.5 0.223-0.5 0.5v0.5 0.5c0 0.277 0.223 0.5 0.5 0.5h0.5 0.5c0.277 0 0.5-0.223 0.5-0.5v-0.5-0.5c0-0.277-0.223-0.5-0.5-0.5h-0.5-0.5z" fill="#d33636"/>
    </g>
</svg>
