<svg version="1.1" viewBox="0 0 16 16" xmlns="http://www.w3.org/2000/svg">
  <defs>
   <style id="current-color-scheme" type="text/css">
   .ColorScheme-Text { color:#5c616c; } .ColorScheme-Highlight { color:#5294e2; }
  </style>
 </defs>
    <g transform="translate(-493.00021,482)" label="status">
        <path d="m501.00024-480c-1.55098 0.26033-2.96141 1.18239-3.875 2.46875-0.88324 1.24377-1.27204 2.83074-1.0625 4.34375 0.14081-0.0258 0.29127-0.0312 0.4375-0.0312 0.21151 0 0.32041 0.10592 0.5 0.15625 0.59758-0.57375 1.34686-1 2.25-1 1.61511 0 2.92489 1.18713 3.1875 2.71875 0.89132 0.51002 1.625 1.3059 1.625 2.40625 0 0.19505-0.0246 0.38036-0.0625 0.5625 1.14938-0.41425 2.19632-1.15664 2.90625-2.15625 0.91369-1.28637-4.30352 0.0276-4.5625-1.53125 0.0711-1.96431-1.16604-2.51595-1.5-2.8125-1.17827-1.04656 1.70733-5.38533 0.15625-5.125zm-1.75 7c-0.84473 0-1.55278 0.46876-1.9375 1.125-0.21663-0.15446-0.5089-0.28125-0.8125-0.28125-0.69 0-1.25 0.50232-1.25 1.09375 0 0.13283 0.0421 0.25759 0.0937 0.375-0.78475 0.30055-1.34375 0.96316-1.34375 1.75 0 1.06843 1.0035 1.9375 2.25 1.9375h4.5c1.2465 0 2.25-0.86907 2.25-1.9375 0-0.84629-0.64999-1.55151-1.53125-1.8125 2e-3 -0.0366 0.0312-0.0567 0.0312-0.0937 0-1.18286-1.008-2.15625-2.25-2.15625z" class="ColorScheme-Text" fill="currentColor" fill-rule="evenodd"/>
    </g>
</svg>
