<svg version="1.1" viewBox="0 0 16 16.092968" xmlns="http://www.w3.org/2000/svg">
  <defs>
   <style id="current-color-scheme" type="text/css">
   .ColorScheme-Text { color:#5c616c; } .ColorScheme-Highlight { color:#5294e2; }
  </style>
 </defs>
    <g transform="translate(-553.00018,482)" class="ColorScheme-Text" fill="currentColor" label="status">
        <path d="m562.00018-480.01387c-1.1263 0-2.0912 0.60715-2.60417 1.48214-0.28884-0.20595-0.6577-0.33928-1.0625-0.33928-0.92 0-1.66666 0.64-1.66666 1.42857 0 0.1771 0.0353 0.34345 0.10416 0.49999-1.04634 0.40074-1.77083 1.30802-1.77083 2.35715 0 1.42457 1.338 2.57143 3 2.57143h6c1.662 0 3-1.14686 3-2.57143 0-1.12839-0.84582-2.08059-2.02083-2.42857 3e-3 -0.0488 0.0208-0.0934 0.0208-0.14286 0-1.57714-1.344-2.85714-3-2.85714z" fill-rule="evenodd"/>
        <path d="m556.375-471a0.50004997 0.50004997 0 0 0-0.3125 0.28125l-0.5 1a0.50004997 0.50004997 0 1 0 0.875 0.4375l0.5-1a0.50004997 0.50004997 0 0 0-0.5625-0.71875zm4 0a0.50004997 0.50004997 0 0 0-0.3125 0.28125l-0.5 1a0.50004997 0.50004997 0 1 0 0.875 0.4375l0.5-1a0.50004997 0.50004997 0 0 0-0.5625-0.71875zm4 0a0.50004997 0.50004997 0 0 0-0.3125 0.28125l-0.5 1a0.50004997 0.50004997 0 1 0 0.875 0.4375l0.5-1a0.50004997 0.50004997 0 0 0-0.5625-0.71875zm-9.5 3a0.50004997 0.50004997 0 0 0-0.3125 0.28125l-0.5 1a0.50004997 0.50004997 0 1 0 0.875 0.4375l0.5-1a0.50004997 0.50004997 0 0 0-0.5625-0.71875zm4 0a0.50004997 0.50004997 0 0 0-0.3125 0.28125l-0.5 1a0.50004997 0.50004997 0 1 0 0.875 0.4375l0.5-1a0.50004997 0.50004997 0 0 0-0.5625-0.71875zm4 0a0.50004997 0.50004997 0 0 0-0.3125 0.28125l-0.5 1a0.50004997 0.50004997 0 1 0 0.875 0.4375l0.5-1a0.50004997 0.50004997 0 0 0-0.5625-0.71875z" style="block-progression:tb;text-indent:0;text-transform:none"/>
    </g>
</svg>
