<svg version="1.1" viewBox="0 0 16 16" xmlns="http://www.w3.org/2000/svg">
  <defs>
   <style id="current-color-scheme" type="text/css">
   .ColorScheme-Text { color:#5c616c; } .ColorScheme-Highlight { color:#5294e2; }
  </style>
 </defs>
    <g transform="translate(-593.00018,482)" label="status">
        <path d="m602.00016-480c-1.1263 0-2.08079 0.59376-2.59375 1.46875-0.28885-0.20595-0.6577-0.3125-1.0625-0.3125-0.92 0-1.6875 0.61768-1.6875 1.40625 0 0.1771 0.0562 0.34346 0.125 0.5-1.04634 0.40073-1.78125 1.32588-1.78125 2.375 0 1.12709 0.85836 2.05728 2.03125 2.40625-0.0159-0.11379-0.0312-0.22559-0.0312-0.34375 0-1.38071 1.11929-2.5 2.5-2.5s2.5 1.11929 2.5 2.5c0 0.17259-0.0292 0.33726-0.0625 0.5h2.0625c1.662 0 3-1.13793 3-2.5625 0-1.12838-0.85624-2.08952-2.03125-2.4375 3e-3 -0.0488 0.0312-0.10682 0.0312-0.15625 0-1.57714-1.344-2.84375-3-2.84375zm-1 10.5c0 0.82843 0.67157 1.5 1.5 1.5s1.5-0.67157 1.5-1.5-0.67157-1.5-1.5-1.5-1.5 0.67157-1.5 1.5zm-3-3c0 0.82843 0.67157 1.5 1.5 1.5s1.5-0.67157 1.5-1.5-0.67157-1.5-1.5-1.5-1.5 0.67157-1.5 1.5zm-1 5c0 0.82843 0.67157 1.5 1.5 1.5s1.5-0.67157 1.5-1.5-0.67157-1.5-1.5-1.5-1.5 0.67157-1.5 1.5z" class="ColorScheme-Text" fill="currentColor" fill-rule="evenodd"/>
    </g>
</svg>
