<svg version="1.1" viewBox="0 0 16.062216 16.038502" xmlns="http://www.w3.org/2000/svg">
  <defs>
   <style id="current-color-scheme" type="text/css">
   .ColorScheme-Text { color:#5c616c; } .ColorScheme-Highlight { color:#5294e2; }
  </style>
 </defs>
    <g transform="translate(-432.95203,482.02426)" class="ColorScheme-Text" fill="currentColor" label="status">
        <path transform="translate(433.0002,-482)" d="m12.012945 8.0064726a4.0064726 4.0064726 0 1 1-8.012945 0 4.0064726 4.0064726 0 1 1 8.012945 0z"/>
        <path d="m440.78125-482a1.0001 1.0001 0 0 0-0.78125 1v1a1.0001 1.0001 0 1 0 2 0v-1a1.0001 1.0001 0 0 0-1.21875-1zm-4.84375 2.03125a1.0001 1.0001 0 0 0-0.59375 1.71875l0.5625 0.5625a1.0001 1.0001 0 1 0 1.40625-1.40625l-0.5625-0.5625a1.0001 1.0001 0 0 0-0.8125-0.3125zm10 0a1.0001 1.0001 0 0 0-0.6875 0.3125l-0.5 0.5a1.0001 1.0001 0 1 0 1.40625 1.40625l0.5-0.5a1.0001 1.0001 0 0 0-0.71875-1.71875zm-12.03125 4.96875a1.001098 1.001098 0 1 0 0.0937 2h1a1.0001 1.0001 0 1 0 0-2h-1a1.0001 1.0001 0 0 0-0.0937 0zm13 0a1.001098 1.001098 0 1 0 0.0937 2h1a1.0001 1.0001 0 1 0 0-2h-1a1.0001 1.0001 0 0 0-0.0937 0zm-1.625 4.375a1.0001 1.0001 0 0 0-0.59375 1.71875l0.5625 0.5625a1.0001 1.0001 0 1 0 1.40625-1.40625l-0.5625-0.5625a1.0001 1.0001 0 0 0-0.8125-0.3125zm-8.75 0.0625a1.0001 1.0001 0 0 0-0.6875 0.3125l-0.5 0.5a1.0054782 1.0054782 0 1 0 1.4375 1.40625l0.46875-0.5a1.0001 1.0001 0 0 0-0.71875-1.71875zm4.28125 1.5625a1.0001 1.0001 0 0 0-0.8125 1v1a1.0001 1.0001 0 1 0 2 0v-1a1.0001 1.0001 0 0 0-1.1875-1z" style="block-progression:tb;text-indent:0;text-transform:none"/>
    </g>
</svg>
