<svg version="1.1" viewBox="0 0 16 16" xmlns="http://www.w3.org/2000/svg">
  <defs>
   <style id="current-color-scheme" type="text/css">
   .ColorScheme-Text { color:#5c616c; } .ColorScheme-Highlight { color:#5294e2; }
  </style>
 </defs>
    <g transform="translate(-633.00018,482)" label="status">
        <path d="m638.0625-479.875c-1.1375 0-2.2259 0.4759-3.09375 1.34375a0.75130096 0.75130096 0 1 0 1.0625 1.0625c0.63215-0.63215 1.29375-0.90625 2.03125-0.90625s1.596 0.29075 2.5 0.96875c1.12634 0.84475 2.27169 1.28891 3.40625 1.28125 1.13456-8e-3 2.20155-0.4828 3.0625-1.34375a0.75130096 0.75130096 0 1 0-1.0625-1.0625c-0.63905 0.63905-1.27628 0.90137-2 0.90625-0.72372 5e-3 -1.59069-0.29458-2.53125-1-1.096-0.822-2.2375-1.25-3.375-1.25zm0 4c-1.1375 0-2.2259 0.4759-3.09375 1.34375a0.75130096 0.75130096 0 1 0 1.0625 1.0625c0.63215-0.63214 1.29375-0.90625 2.03125-0.90625s1.596 0.29075 2.5 0.96875c1.12634 0.84476 2.27169 1.28891 3.40625 1.28125 1.13456-8e-3 2.20155-0.4828 3.0625-1.34375a0.75130096 0.75130096 0 1 0-1.0625-1.0625c-0.63905 0.63905-1.27628 0.90137-2 0.90625-0.72372 5e-3 -1.59069-0.29458-2.53125-1-1.096-0.82199-2.2375-1.25-3.375-1.25zm0 4c-1.1375 0-2.2259 0.4759-3.09375 1.34375a0.75130096 0.75130096 0 1 0 1.0625 1.0625c0.63215-0.63215 1.29375-0.90625 2.03125-0.90625s1.596 0.29075 2.5 0.96875c1.12634 0.84475 2.27169 1.28891 3.40625 1.28125 1.13456-8e-3 2.20155-0.4828 3.0625-1.34375a0.75130096 0.75130096 0 1 0-1.0625-1.0625c-0.63905 0.63905-1.27628 0.90137-2 0.90625-0.72372 5e-3 -1.59069-0.29458-2.53125-1-1.096-0.822-2.2375-1.25-3.375-1.25z" class="ColorScheme-Text" fill="currentColor" opacity=".35" style="block-progression:tb;text-indent:0;text-transform:none"/>
    </g>
</svg>
