<svg version="1.1" viewBox="0 0 16.112377 16.02512" xmlns="http://www.w3.org/2000/svg">
  <defs>
   <style id="current-color-scheme" type="text/css">
   .ColorScheme-Text { color:#5c616c; } .ColorScheme-Highlight { color:#5294e2; }
  </style>
 </defs>
    <g transform="translate(-472.90196,482.02513)" class="ColorScheme-Text" fill="currentColor" label="status">
        <path d="m480.78125-481a1.0001 1.0001 0 0 0-0.78125 1v1a1.0001 1.0001 0 1 0 2 0v-1a1.0001 1.0001 0 0 0-1.21875-1zm-4.84375 2.03125a1.0001 1.0001 0 0 0-0.59375 1.71875l0.5625 0.5625a1.0001 1.0001 0 1 0 1.40625-1.40625l-0.5625-0.5625a1.0001 1.0001 0 0 0-0.8125-0.3125zm10 0a1.0001 1.0001 0 0 0-0.6875 0.3125l-0.5 0.5a1.0001 1.0001 0 1 0 1.40625 1.40625l0.5-0.5a1.0001 1.0001 0 0 0-0.71875-1.71875zm-12.03125 4.96875a1.001098 1.001098 0 1 0 0.0937 2h1a1.0001 1.0001 0 1 0 0-2h-1a1.0001 1.0001 0 0 0-0.0937 0zm13 0a1.001098 1.001098 0 1 0 0.0937 2h1a1.0001 1.0001 0 1 0 0-2h-1a1.0001 1.0001 0 0 0-0.0937 0zm-1.625 4.375a1.0001 1.0001 0 0 0-0.59375 1.71875l0.5625 0.5625a1.0001 1.0001 0 1 0 1.40625-1.40625l-0.5625-0.5625a1.0001 1.0001 0 0 0-0.8125-0.3125z" style="block-progression:tb;text-indent:0;text-transform:none"/>
        <path d="m481.0003-477c-2.20913 0-4 1.79086-4 4 0 0.28674 0.0364 0.5741 0.0937 0.84375 0.58105-0.52754 1.30125-0.90625 2.15625-0.90625 1.61511 0 2.92489 1.18713 3.1875 2.71875 0.30803 0.17626 0.5659 0.41093 0.8125 0.65625 5e-3 5e-3 0.026-5e-3 0.0312 0 1.05239-0.72058 1.71875-1.94074 1.71875-3.3125 0-2.20914-1.79087-4-4-4zm-1.75 5c-0.84473 0-1.5684 0.45537-1.95313 1.11161-0.21663-0.15446-0.49327-0.25448-0.79687-0.25448-0.69 0-1.25 0.48-1.25 1.07143 0 0.13284 0.0265 0.25759 0.0781 0.375-0.78475 0.30055-1.32812 0.98102-1.32812 1.76786 0 1.06843 1.0035 1.92857 2.25 1.92857h4.5c1.2465 0 2.25-0.86014 2.25-1.92857 0-0.84629-0.63437-1.56044-1.51563-1.82143 2e-3 -0.0366 0.0156-0.0701 0.0156-0.10714 0-1.18286-1.008-2.14286-2.25-2.14286z"/>
    </g>
</svg>
