<svg version="1.1" viewBox="0 0 16 16" xmlns="http://www.w3.org/2000/svg">
  <defs>
   <style id="current-color-scheme" type="text/css">
   .ColorScheme-Text { color:#5c616c; } .ColorScheme-Highlight { color:#5294e2; }
  </style>
 </defs>
    <g transform="translate(-513.00018,482)" label="status">
        <path d="m521.00018-481c-1.1263 0-2.08079 0.59376-2.59375 1.46875-0.28885-0.20595-0.6577-0.3125-1.0625-0.3125-0.92 0-1.6875 0.61768-1.6875 1.40625 0 0.1771 0.0562 0.34345 0.125 0.5-1.04634 0.40073-1.78125 1.32588-1.78125 2.375 0 1.3309 1.17868 2.39386 2.6875 2.53125 0.3082-1.13934 1.45981-1.875 2.65625-1.875 0.27246 0 0.51793 0.14835 0.78125 0.21875 0.7394-0.78437 1.70149-1.375 2.875-1.375 1.13165 0 2.14696 0.47058 2.875 1.21875 0.0791-0.23117 0.125-0.46506 0.125-0.71875 0-1.12838-0.85624-2.08952-2.03125-2.4375 3e-3 -0.0488 0.0312-0.10682 0.0312-0.15625 0-1.57714-1.344-2.84375-3-2.84375zm2 6c-1.1263 0-2.0912 0.60715-2.60417 1.48214-0.28884-0.20594-0.6577-0.33928-1.0625-0.33928-0.92 0-1.66666 0.64-1.66666 1.42857 0 0.1771 0.0353 0.34345 0.10416 0.5-1.04634 0.40073-1.77083 1.30802-1.77083 2.35714 0 1.42457 1.338 2.57143 3 2.57143h6c1.662 0 3-1.14686 3-2.57143 0-1.12838-0.84582-2.08059-2.02083-2.42857 3e-3 -0.0488 0.0208-0.0934 0.0208-0.14286 0-1.57714-1.344-2.85714-3-2.85714z" class="ColorScheme-Text" fill="currentColor" fill-rule="evenodd"/>
    </g>
</svg>
