<svg version="1.1" viewBox="0 0 16 16" xmlns="http://www.w3.org/2000/svg">
  <defs>
   <style id="current-color-scheme" type="text/css">
   .ColorScheme-Text { color:#5c616c; } .ColorScheme-Highlight { color:#5294e2; }
  </style>
 </defs>
    <g transform="translate(-613.00018,482)" label="status">
        <path d="m622.00018-482c-1.1263 0-2.08079 0.59376-2.59375 1.46875-0.28885-0.20595-0.6577-0.3125-1.0625-0.3125-0.92 0-1.6875 0.61768-1.6875 1.40625 0 0.1771 0.0562 0.34346 0.125 0.5-1.04634 0.40073-1.78125 1.32588-1.78125 2.375 0 0.94112 0.58924 1.71788 1.46875 2.15625l6.28125-6.28125c0.14314-0.14723 0.32902-0.24563 0.53125-0.28125 0.35161-0.0591 0.71637 0.0641 0.9375 0.34375 0.22113 0.27967 0.26356 0.67149 0.125 1l-1.46875 3.65625h1.5625c0.38772-7e-3 0.74375 0.21041 0.90625 0.5625s0.10074 0.77211-0.15625 1.0625l-0.15625 0.1875c1.1421-0.3605 1.96875-1.29802 1.96875-2.40625 0-1.12838-0.85624-2.08952-2.03125-2.4375 3e-3 -0.0488 0.0312-0.10682 0.0312-0.15625 0-1.57714-1.344-2.84375-3-2.84375zm1.4375 2-7 7h4l-3 6 7-8h-3l2-5z" class="ColorScheme-Text" fill="currentColor" fill-rule="evenodd"/>
    </g>
</svg>
