<?xml version="1.0" encoding="UTF-8" standalone="no"?>
<!-- Created with Inkscape (http://www.inkscape.org/) -->

<svg
   xmlns:dc="http://purl.org/dc/elements/1.1/"
   xmlns:cc="http://creativecommons.org/ns#"
   xmlns:rdf="http://www.w3.org/1999/02/22-rdf-syntax-ns#"
   xmlns:svg="http://www.w3.org/2000/svg"
   xmlns="http://www.w3.org/2000/svg"
   xmlns:xlink="http://www.w3.org/1999/xlink"
   xmlns:sodipodi="http://sodipodi.sourceforge.net/DTD/sodipodi-0.dtd"
   xmlns:inkscape="http://www.inkscape.org/namespaces/inkscape"
   width="256mm"
   height="256mm"
   viewBox="0 0 907.08661 907.08661"
   id="svg2"
   version="1.1"
   inkscape:version="0.91 r13725"
   sodipodi:docname="screenshot.svg"
   inkscape:export-filename="/home/administrator/Desktop/screenshot.svg.png"
   inkscape:export-xdpi="12.7"
   inkscape:export-ydpi="12.7">
  <defs
     id="defs4">
    <linearGradient
       inkscape:collect="always"
       id="linearGradient4157">
      <stop
         id="stop4161"
         offset="0"
         style="stop-color:#0055d4;stop-opacity:1" />
      <stop
         id="stop4159"
         offset="1"
         style="stop-color:#006aff;stop-opacity:1" />
    </linearGradient>
    <linearGradient
       inkscape:collect="always"
       xlink:href="#linearGradient4157"
       id="linearGradient4163"
       x1="28.571428"
       y1="883.79071"
       x2="30.000051"
       y2="250.93359"
       gradientUnits="userSpaceOnUse"
       gradientTransform="translate(1.472e-4,26)" />
  </defs>
  <sodipodi:namedview
     id="base"
     pagecolor="#ffffff"
     bordercolor="#666666"
     borderopacity="1.0"
     inkscape:pageopacity="0.0"
     inkscape:pageshadow="2"
     inkscape:zoom="1.4142136"
     inkscape:cx="165.94"
     inkscape:cy="231.33171"
     inkscape:document-units="px"
     inkscape:current-layer="layer1"
     showgrid="false"
     inkscape:window-width="1366"
     inkscape:window-height="698"
     inkscape:window-x="0"
     inkscape:window-y="0"
     inkscape:window-maximized="1" />
  <metadata
     id="metadata7">
    <rdf:RDF>
      <cc:Work
         rdf:about="">
        <dc:format>image/svg+xml</dc:format>
        <dc:type
           rdf:resource="http://purl.org/dc/dcmitype/StillImage" />
        <dc:title />
      </cc:Work>
    </rdf:RDF>
  </metadata>
  <g
     inkscape:label="Layer 1"
     inkscape:groupmode="layer"
     id="layer1"
     transform="translate(0,-145.27559)">
    <rect
       style="fill:url(#linearGradient4163);fill-opacity:1;fill-rule:evenodd;stroke:none;stroke-width:1px;stroke-linecap:butt;stroke-linejoin:miter;stroke-opacity:1"
       id="rect4147"
       width="857.14288"
       height="634.28571"
       x="27.143"
       y="279.79077" />
    <rect
       style="fill:#0b0b0b;fill-opacity:0.5098038;stroke:none"
       id="rect4171"
       width="857.14301"
       height="67.328003"
       x="27.142857"
       y="846.96417"
       ry="0" />
    <path
       style="fill:#fefefe"
       d="m 246.52708,805.32588 c -16.70481,-6.88991 -33.27373,-18.42463 -41.91914,-29.18268 -9.15359,-11.39043 -18.97153,-32.69313 -21.70121,-47.08663 -2.79578,-14.74212 -2.89174,-186.70539 -0.11761,-210.83172 4.49768,-39.11638 26.72877,-67.39736 64.13216,-81.58489 12.42209,-4.71182 19.22872,-5.69433 46.32265,-6.68637 l 31.76085,-1.16295 7.90787,-14.22696 c 4.34931,-7.82483 11.67161,-20.22315 16.27177,-27.55185 13.06981,-20.82201 10.55778,-20.37593 110.49167,-19.62018 73.55254,0.55625 84.79383,1.081 90.52897,4.22605 4.54238,2.49097 11.47052,11.8865 22.61698,30.67177 l 16.06872,27.08082 20.46298,0.0653 c 45.70199,0.14604 68.57769,7.95017 92.12069,31.42754 14.87788,14.83639 24.8138,33.10434 28.45858,52.32326 3.06733,16.17392 2.91767,203.34819 -0.17448,218.22141 -6.2559,30.09088 -26.51353,55.84754 -54.99654,69.92562 l -16.7175,8.26282 -199.35769,0.50488 -199.35771,0.50487 -12.80199,-5.28018 z m 245.43373,-41.10409 c 45.84166,-10.91959 88.65524,-50.96118 104.64135,-97.86634 6.75427,-19.81783 8.21377,-56.9226 3.07414,-78.15417 -22.11135,-91.34109 -123.67655,-139.78461 -206.79939,-98.63703 -39.80943,19.70652 -68.88519,55.80776 -79.88853,99.19173 -5.6377,22.22831 -3.39786,58.5562 4.99797,81.06222 8.56606,22.96237 19.4937,39.7167 37.07862,56.84919 37.38674,36.42484 85.83819,49.71645 136.89584,37.5544 z M 430.81383,721.1089 c -17.91934,-4.81912 -35.54551,-15.29096 -48.37196,-28.73815 -33.69975,-35.33067 -38.16214,-87.4247 -10.99487,-128.35393 10.50863,-15.83193 22.38842,-25.81829 41.89289,-35.21588 14.82194,-7.14145 18.02125,-7.84805 38.77196,-8.56303 18.91943,-0.65188 24.88695,-0.0129 36.50174,3.90634 71.83923,24.24327 94.17653,113.29865 42.10977,167.8852 -25.85892,27.11039 -64.93767,38.48455 -99.90953,29.07945 z M 274.45427,514.61768 c 9.87263,-4.12504 15.46503,-15.33145 12.61323,-25.27516 -2.22006,-7.74085 -13.61338,-16.85206 -21.0565,-16.83882 -7.85181,0.0151 -17.92384,7.78681 -20.60085,15.89821 -3.27518,9.92386 1.61696,21.03829 11.37931,25.85267 8.45894,4.17158 8.5456,4.17335 17.66481,0.3631 z"
       id="path4188"
       inkscape:connector-curvature="0" />
  </g>
</svg>
