<svg version="1.1" viewBox="0 0 16 16" xmlns="http://www.w3.org/2000/svg">
  <defs>
   <style id="current-color-scheme" type="text/css">
   .ColorScheme-Text { color:#5c616c; } .ColorScheme-Highlight { color:#5294e2; }
  </style>
 </defs>
    <path d="m7 1c-1.6447 0-3 1.3553-3 3v1.78125h-1v-0.0019531c-0.554 0-1 0.5804483-1 1.3007812v0.6914063 7.1093746h12v-7.1093746-0.6894532c0-0.720333-0.446-1.3007812-1-1.3007812h-1v-1.78125c0-1.6447-1.3553-3-3-3h-2zm0 2h2c0.5713 0 1 0.4287 1 1v1.78125h-4v-1.78125c0-0.5713 0.4287-1 1-1zm0.4882812 3.6425781h1.1191407l2.7773441 7.2890629h-1.025391l-0.6640625-1.869141h-3.2851563l-0.6640624 1.869141h-1.0410157l2.7832031-7.2890629zm0.5566407 0.9707031-1.3378907 3.6289068h2.6816407l-1.34375-3.6289068z" class="ColorScheme-Text" fill="currentColor"/>
    <path d="m18.434103 6.2601619h1.375l1.125 1.0938 1.09-1.09h1.41v1.4688l-1.0938 1.0625 1.09 1.06v1.4100001h-1.44l-1.06-1.06-1.06 1.06h-1.44v-1.4062001l1.0625-1.0625-1.06-1.06v-1.47z" class="ColorScheme-Text" fill="currentColor"/>
</svg>
