<svg version="1.1" viewBox="0 0 16 16" xmlns="http://www.w3.org/2000/svg">
    <defs>
        <style type="text/css">.ColorScheme-Text { color:#5c616c; } .ColorScheme-Highlight { color:#5294e2; }</style>
    </defs>
    <path class="ColorScheme-Text" d="m9 1v2h4v8h-4v-2h-0.5312l-2.3125 2.5938c-0.0933 0.082-0.1563 0.237-0.1563 0.406 0 0.16873 0.062938 0.32375 0.15625 0.40625l2.25 2.594h0.5938v-2h4c1.108 0 2-0.892 2-2v-8c0-1.108-0.892-2-2-2h-4z" color="#5c616c" fill="currentColor"/>
    <path class="ColorScheme-Text" transform="matrix(1.3333 0 0 1.3333 -.33333 -4.6667)" d="m4 12.5a1.5 1.5 0 1 1-3 0 1.5 1.5 0 1 1 3 0z" fill="currentColor"/>
</svg>
