<svg version="1.1" viewBox="0 0 16 16" xmlns="http://www.w3.org/2000/svg">
  <defs>
   <style id="current-color-scheme" type="text/css">
   .ColorScheme-Text { color:#5c616c; } .ColorScheme-Highlight { color:#5294e2; }
  </style>
 </defs>
    <path d="m7 1c-1.6447 0-3 1.3553-3 3v0.015625h2v-0.015625c0-0.5713 0.4287-1 1-1h2c0.5713 0 1 0.4287 1 1v1.78125h-4v-0.0019531h-2v0.0019531h-1v-0.0019531c-0.554 0-1 0.5804483-1 1.3007812v0.6914063 7.1093746h12v-7.1093746-0.6894532c0-0.720333-0.446-1.3007812-1-1.3007812h-1v-1.78125c0-1.6447-1.3553-3-3-3h-2zm0.671875 5.7617188h0.9863281v6.4589842h1.6113279v0.830078h-4.1992185v-0.830078h1.6113281v-5.5605468l-1.7519531 0.3515626v-0.8984376l1.7421875-0.3515624z" class="ColorScheme-Text" fill="currentColor"/>
    <path d="m18.434103 6.2601619h1.375l1.125 1.0938 1.09-1.09h1.41v1.4688l-1.0938 1.0625 1.09 1.06v1.4100001h-1.44l-1.06-1.06-1.06 1.06h-1.44v-1.4062001l1.0625-1.0625-1.06-1.06v-1.47z" class="ColorScheme-Text" fill="currentColor"/>
</svg>
