<svg version="1.1" viewBox="0 0 16 16" xmlns="http://www.w3.org/2000/svg">
  <defs>
   <style id="current-color-scheme" type="text/css">
   .ColorScheme-Text { color:#5c616c; } .ColorScheme-Highlight { color:#5294e2; }
  </style>
 </defs>
    <path d="m7 1c-1.6447 0-3 1.3553-3 3v0.0137h2v-0.0137c0-0.5713 0.4287-1 1-1h2c0.5713 0 1 0.4287 1 1v1.7812h-4v-0.0039h-2v0.0039h-1v-0.0019c-0.554 0-1 0.5804-1 1.3008v7.8009h12v-7.799c0-0.7203-0.446-1.3008-1-1.3008h-1v-1.7812c0-1.6447-1.355-3-3-3h-2zm1 6.873a1.5 1.5 0 0 1 1.5 1.5 1.5 1.5 0 0 1-1 1.412v1.715h-1v-1.713a1.5 1.5 0 0 1-1-1.414 1.5 1.5 0 0 1 1.5-1.5z" class="ColorScheme-Text" fill="currentColor"/>
    <path d="m18.434 6.2602h1.375l1.125 1.0938 1.09-1.09h1.41v1.4688l-1.0938 1.0625 1.09 1.06v1.41h-1.44l-1.06-1.06-1.06 1.06h-1.44v-1.4062l1.0625-1.0625-1.06-1.06v-1.47z" class="ColorScheme-Text" fill="currentColor"/>
</svg>
