<svg version="1.1" viewBox="0 0 16 16" xmlns="http://www.w3.org/2000/svg">
  <defs>
   <style id="current-color-scheme" type="text/css">
   .ColorScheme-Text { color:#5c616c; } .ColorScheme-Highlight { color:#5294e2; }
  </style>
 </defs>
    <g transform="translate(-43 -649)" class="ColorScheme-Text" fill="currentColor">
        <path d="m56.289 658.69c-0.49379 0.47964-1.0774 0.69712-1.7883 0.69712-0.71086 0-1.2972-0.22349-1.791-0.70313-0.77657 0.27945-1.7052 0.99058-1.7063 2.2326l-0.0027 2.3167c0 0.42 0.313 0.76 0.7 0.76h5.6c0.3878 0 0.7-0.34309 0.7-0.76924v-2.3077c0-1.0667-0.77162-1.966-1.7117-2.2356z"/>
        <path transform="matrix(.92307 0 0 .92307 8.8082 340.15)" d="m52 342.5a2.5 2.5 0 1 1-5 0 2.5 2.5 0 1 1 5 0z"/>
        <path d="m49.289 654.69c-0.49379 0.47964-1.0774 0.69712-1.7883 0.69712-0.71086 0-1.2972-0.22349-1.791-0.70313-0.77657 0.27945-1.7052 0.99058-1.7063 2.2326l-0.0027 2.3167c0 0.42 0.313 0.76 0.7 0.76h5.7354c0.06219-0.3952 0.26162-0.72266 0.56465-1v-2.0769c0-1.0667-0.77162-1.966-1.7117-2.2356z"/>
        <path transform="matrix(.92307 0 0 .92307 1.8082 336.15)" d="m52 342.5a2.5 2.5 0 1 1-5 0 2.5 2.5 0 1 1 5 0z"/>
    </g>
</svg>
