<svg version="1.1" viewBox="0 0 16 16" xmlns="http://www.w3.org/2000/svg">
  <defs>
   <style id="current-color-scheme" type="text/css">
   .ColorScheme-Text { color:#5c616c; } .ColorScheme-Highlight { color:#5294e2; }
  </style>
 </defs>
    <path d="m0 3.001v10c0 1.291 0.7984 2 2 2h12c1.202 0 2-0.709 2-2v-10c0-1.3899-0.67795-2-2-2-3.8868 0.0113-9.027 2e-7 -12 0-1.2712 0-2 0.71185-2 2zm14 0v10h-12v-10zm-10.75 4.3125c-0.1555 0.1375-0.25 0.4063-0.25 0.6875s0.0945 0.55 0.25 0.6875l3.75 3.3125h1v-8l-0.9166 2e-4z" class="ColorScheme-Text" fill="currentColor"/>
</svg>
