<svg version="1.1" viewBox="0 0 16 16" xmlns="http://www.w3.org/2000/svg">
  <defs>
   <style id="current-color-scheme" type="text/css">
   .ColorScheme-Text { color:#5c616c; } .ColorScheme-Highlight { color:#5294e2; }
  </style>
 </defs>
    <g class="ColorScheme-Text" fill="currentColor">
        <path transform="matrix(1.25 0 0 1.25 -1 -.25)" d="m6 3a2 2 0 1 1-4 0 2 2 0 1 1 4 0z"/>
        <path transform="matrix(.75 0 0 .75 10.5 5.25)" d="m6 3a2 2 0 1 1-4 0 2 2 0 1 1 4 0z"/>
        <path transform="matrix(.75 0 0 .75 6.5 8.25)" d="m6 3a2 2 0 1 1-4 0 2 2 0 1 1 4 0z"/>
        <path transform="matrix(.75 0 0 .75 10.5 11.25)" d="m6 3a2 2 0 1 1-4 0 2 2 0 1 1 4 0z"/>
        <rect x="3" y="7" width="10" height="1"/>
        <rect x="3" y="4" width="2" height="10"/>
        <rect x="4" y="13" width="9" height="1"/>
        <rect x="4" y="10" width="5" height="1"/>
    </g>
</svg>
