<svg version="1.1" viewBox="0 0 16 16" xmlns="http://www.w3.org/2000/svg">
  <defs>
   <style id="current-color-scheme" type="text/css">
   .ColorScheme-Text { color:#5c616c; } .ColorScheme-Highlight { color:#5294e2; }
  </style>
 </defs>
    <path d="m2 1c-1.322 0-2 0.6101-2 2v10c0 1.291 0.798 2 2 2h12c1.2016 0 2-0.709 2-2v-10c0-1.2882-0.729-2-2-2-2.973 0-8.1132 0.0113-12 0zm0 2h2v10h-2v-10zm4 0h8v10h-8v-10zm2 1v8h1l3.75-3.3125c0.156-0.1375 0.25-0.4063 0.25-0.6875s-0.094-0.55-0.25-0.6875l-3.8438-3.3125h-0.9062z" class="ColorScheme-Text" fill="currentColor"/>
</svg>
