<svg version="1.1" viewBox="0 0 16 16" xmlns="http://www.w3.org/2000/svg">
  <defs>
   <style id="current-color-scheme" type="text/css">
   .ColorScheme-Text { color:#5c616c; } .ColorScheme-Highlight { color:#5294e2; }
  </style>
 </defs>
    <path d="m2 1c-0.554 0-1 0.446-1 1v12c0 0.554 0.446 1 1 1h11c0.554 0 0.82481-0.47443 1-1v-3h-2v1c0 0.554-0.446 1-1 1h-7c-0.554 0-1-0.446-1-1v-8c0-0.554 0.446-1 1-1h7c0.554 0 1 0.47267 1 1v1h-2v1l3 3 3-3v-1h-2v-3c0-0.554-0.446-1-1-1z" class="ColorScheme-Text" fill="currentColor"/>
</svg>
