<svg version="1.1" viewBox="0 0 16 16" xmlns="http://www.w3.org/2000/svg">
  <defs>
   <style id="current-color-scheme" type="text/css">
   .ColorScheme-Text { color:#5c616c; } .ColorScheme-Highlight { color:#5294e2; }
  </style>
 </defs>
    <g transform="matrix(1.3889 0 0 1.3889 -3.0104 -3.5159)" class="ColorScheme-Text" fill="currentColor">
        <g transform="matrix(.83485 0 0 1.0714 1.6978 -.28559)">
            <path d="m6.4896 12.037-0.58228-1.9116h-2.9279l-0.58228 1.9116h-1.8347l2.8345-8.064h2.0819l2.8455 8.064h-1.8347zm-0.9887-3.3396q-0.8075-2.5983-0.9119-2.9389-0.0989-0.3405-0.1428-0.5383-0.1813 0.7031-1.0382 3.4772h2.0929z"/>
        </g>
        <g transform="matrix(1.0956 0 0 1.2544 -.50361 -1.4228)">
            <path d="m12.111 11.109-0.23335-0.60117h-0.03164q-0.30454 0.38364-0.62885 0.53393-0.32036 0.14634-0.83847 0.14634-0.63676 0-1.0046-0.36386-0.36386-0.36386-0.36386-1.0362 0-0.704 0.49043-1.0362 0.49438-0.33618 1.4871-0.37177l0.76728-0.02373v-0.1938q0-0.67236-0.68818-0.67236-0.52998 0-1.2458 0.32036l-0.3996-0.8151q0.76332-0.39946 1.6928-0.39946 0.88988 0 1.3645 0.38759 0.4746 0.38759 0.4746 1.1786v2.9465h-0.84242zm-0.35595-2.0487-0.4667 0.01582q-0.52602 0.01582-0.7831 0.18984t-0.25708 0.52998q0 0.5102 0.58535 0.5102 0.41923 0 0.6684-0.24126 0.25312-0.24126 0.25312-0.64072v-0.36386z"/>
        </g>
    </g>
</svg>
