<svg version="1.1" viewBox="0 0 16 16" xmlns="http://www.w3.org/2000/svg">
  <defs>
   <style id="current-color-scheme" type="text/css">
   .ColorScheme-Text { color:#5c616c; } .ColorScheme-Highlight { color:#5294e2; }
  </style>
 </defs>
    <g transform="matrix(1.3889 0 0 1.3889 -3.0104 -3.5159)" class="ColorScheme-Text" fill="currentColor">
        <g transform="scale(1.1628 .86)" class="ColorScheme-Text" fill="currentColor">
            <path d="m9.9135 5.4552 1.8576-2e-7v2.841c0 2.0391-0.6318 3.0194-1.8576 3.0194l3e-7 -0.8372c0.33855-0.03113 0.57787-0.2446 0.71796-0.54034s0.21013-0.84054 0.21013-1.6344l-0.0051-0.33702h-0.92296z"/>
            <path d="m7.4368 5.4552 1.8576-2e-7v2.841c0 2.0391-0.6318 3.0194-1.8576 3.0194l3e-7 -0.8372c0.33855-0.03113 0.57787-0.2446 0.71796-0.54034s0.21013-0.84054 0.21013-1.6344l-0.0051-0.33702h-0.92296z"/>
            <path d="m6.1983 11.316h-1.8576v-2.841c0-2.0391 0.6318-3.0194 1.8576-3.0194l-3e-7 0.8372c-0.33855 0.03113-0.57787 0.2446-0.71796 0.54034s-0.21013 0.84054-0.21013 1.6344l0.0051 0.33702h0.92296z"/>
            <path d="m3.7216 11.316h-1.8576v-2.841c0-2.0391 0.6318-3.0194 1.8576-3.0194l-3e-7 0.8372c-0.33855 0.03113-0.57787 0.2446-0.71796 0.54034s-0.21013 0.84054-0.21013 1.6344l0.0051 0.33702h0.92296z"/>
        </g>
    </g>
</svg>
