<?xml version="1.0" encoding="UTF-8" standalone="no"?>
<!-- Created with Inkscape (http://www.inkscape.org/) -->
<svg id="svg4479" xmlns:rdf="http://www.w3.org/1999/02/22-rdf-syntax-ns#" xmlns="http://www.w3.org/2000/svg" height="90" viewBox="0 0 90 90.000001" width="90" version="1.1" xmlns:cc="http://creativecommons.org/ns#" xmlns:dc="http://purl.org/dc/elements/1.1/">
 <metadata id="metadata4484">
  <rdf:RDF>
   <cc:Work rdf:about="">
    <dc:format>image/svg+xml</dc:format>
    <dc:type rdf:resource="http://purl.org/dc/dcmitype/StillImage"/>
    <dc:title/>
   </cc:Work>
  </rdf:RDF>
 </metadata>
 <g id="layer1" transform="translate(833.57 -695.93)">
  <rect id="rect4801" style="fill:none" height="90" width="90" y="695.93" x="-833.57"/>
  <path id="path4185-2" style="fill:#808080" d="m-794.88 699c-0.41175-0.001-0.81243 0-1.1979 0.018-1.8503 0.059-3.3427 0.2707-4.0625 0.473-1.5251 0.4278-3.232 1.3057-4.1715 2.6564-0.63008 0.9021-1.0122 2.0612-1.0154 3.6759 0 0.9138 0.0128 3.0367 0.036 4.9495 0.0231 1.9187 0.0365 3.6642 0.0365 3.6759-0.001 1.7082-1.373 3.0912-3.0831 3.0933h-7.8351c-1.6733 0-2.9408 0.2825-3.9175 0.7276-0.97815 0.4456-1.6864 1.0365-2.2128 1.7471-1.0477 1.4113-1.2377 3.1359-1.2334 4.9131 0 0 0.0141 1.4831 0.36296 4.294 0.29 2.1749 2.6641 17.361 4.8969 21.981 0.86579 1.798 1.4182 2.556 3.1191 3.3484 3.7896 1.6277 12.448 3.4119 16.505 3.9304 4.0496 0.52 6.6103 1.6217 8.125-1.5647 0.007-0.012 0.27903-0.7772 0.68943-1.9287 1.3151-3.9982 1.5233-7.5504 1.5233-10.118 0-0.261 0.36244-0.273 0.36244 0 0 1.8124-0.33086 8.215 4.498 9.9355 1.9063 0.6783 5.8482 1.2743 9.8663 1.7467 3.6332 0.4188 6.2752 1.8572 6.2752 11.209 0 5.6898-1.2092 6.4777-7.4361 6.4777-5.0476 0-6.9641 0.1296-6.9641-3.894 0-3.2517 3.2101-2.9113 5.5858-2.9113 1.0611 0 0.29048-0.796 0.29048-2.8022 0-1.9957 1.2491-3.137 0.0725-3.1664-8.2151-0.2267-13.058-0.011-13.058 10.3 0 9.3578 3.5752 11.1 15.235 11.1 9.1417 0 12.367-0.2957 16.142-12.046 0.7472-2.3197 2.5703-9.4035 3.6636-21.29 0.69133-7.5152-0.67565-30.195-1.7408-35.92-0.62304-3.3462-2.5967-5.0293-4.3895-5.6777-1.9342-0.7013-5.8449-1.4189-10.773-2.0017-3.9645-0.4684-8.648-0.4148-11.463-0.3275-0.3378-2.3215-1.9561-4.4333-3.772-5.1675-2.646-1.0686-6.0766-1.4293-8.9589-1.4369zm-11.948 2.2713c-0.0301 0-0.0603 0.02-0.0902 0.05l-15.24 15.162c-0.0297 0.025-0.0485 0.057-0.0569 0.09 0.31518-0.1565 0.74608-0.3705 0.80702-0.3974 1.3269-0.6006 2.9361-0.9298 4.862-0.9299h0.001 0.005 6.9604c1.0995 0 1.6946-0.7082 1.6946-1.6973 0 0-0.0951-5.8645-0.0951-7.74v-0.023c0-1.5404 0.32202-2.8833 0.88327-4.0088l0.26846-0.5052zm36.443 32.566c0.10383 0.001 0.20999 0 0.31519 0.011 3.7267 0.1286 4.2307 3.6479 4.244 6.0416-1.5713-0.703-3.5036-1.163-5.6223-1.2376-1.1294-0.039-2.2151 0.056-3.2281 0.2185 0.26726-2.1657 1.1106-4.8005 3.99-5.0225 0.096-0.011 0.19736-0.011 0.30121-0.011z"/>
 </g>
</svg>
