<?xml version="1.0" encoding="UTF-8" standalone="no"?>
<!-- Created with Inkscape (http://www.inkscape.org/) -->
<svg id="svg7384" xmlns:rdf="http://www.w3.org/1999/02/22-rdf-syntax-ns#" xmlns="http://www.w3.org/2000/svg" height="16" width="16.059" version="1.1" xmlns:cc="http://creativecommons.org/ns#" xmlns:dc="http://purl.org/dc/elements/1.1/">
 <metadata id="metadata90">
  <rdf:RDF>
   <cc:Work rdf:about="">
    <dc:format>image/svg+xml</dc:format>
    <dc:type rdf:resource="http://purl.org/dc/dcmitype/StillImage"/>
    <dc:title>Gnome Symbolic Icon Theme</dc:title>
   </cc:Work>
  </rdf:RDF>
 </metadata>
 <title id="title9167">Gnome Symbolic Icon Theme</title>
 <g id="layer9" transform="translate(-143 -215)">
  <path id="path5472" style="color:#000000;fill:#bebebe" d="m146.09 221c-1.2774 0-2.3125 2.0251-2.3125 4.5s1.0351 4.375 2.3125 4.375c0.0306 0 0.0635-0.0292 0.0937-0.0312v0.0312l8.8125-0.875c-1.8125 0-3.0625-1.0986-3.0625-3.5 0-2.3894 1.0361-3.5 3.0625-3.5l-1.5859-0.9961c-3.2296-0.01-7.3203-0.004-7.3203-0.004zm0.0234 0.99219 4.9766 0.008c0.16968 0.00026 0.32247 0.18898 0.1875 0.375-0.84239 1.5156-0.89761 3.7818-0.35669 5.5694 0 0.17445-0.14283 0.3125-0.3125 0.3125l-5.0489 0.0139c-0.16969 0-0.25-0.20055-0.25-0.375-0.0858-1.7561-0.92131-4.1577 0.58529-5.8411 0 0 0.049-0.0628 0.21875-0.0625z"/>
  <path id="path5477" style="fill:#bebebe;fill-rule:evenodd" d="m150.01 217c-0.39473 0-0.70961 0.17025-0.88958 0.46259l-2.2824 3.6892-0.14046 0.27756h0.30433 1.1014 0.11704l0.0469-0.10414 1.4538-2.1706c0.0363-0.0581 0.15888-0.15034 0.28091-0.15034l7.3961 0.003c0.0786-0.005 0.079 0.10987 0.079 0.10987l-2.8725 5.7209-0.0937 0.16191 0.16385 0.0926 0.0698 0.70127 0.6942 0.36803 0.0936-0.1619 3.4697-7c0.13852-0.23162 0.005-1.3902-0.10814-1.5951-0.12605-0.22734-0.3837-0.41187-0.71398-0.40478h-8.1699z"/>
  <path id="path6840" style="color:#000000;fill:#bebebe" d="m35.562 31.953a1.7812 3.0469 0 1 1 -3.5625 0 1.7812 3.0469 0 1 1 3.5625 0z" transform="matrix(.49628 0 0 .49231 138.12 209.77)"/>
  <path id="rect337" style="color:#000000;fill-rule:evenodd;fill:#bebebe" d="m150.08 227.01s-2.9192-0.0221-3.105-0.0221c-0.18574 0-0.26784 0.0324-0.37159-0.14741-0.30689-0.42982-0.52143-1.1036-0.57752-1.7171-0.0109-0.11882-0.20696-0.12631-0.30151-0.12683h-2.56c-0.13341 0-0.15695 0.24121-0.15695 0.24121-0.0519 1.8998 0.71945 4.7556 2.8886 4.7473l7.89 0.01c-2.6792-0.16112-2.6311-1.3481-2.8421-2.4721-0.18112-0.35221-0.25941-0.52078-0.5697-0.52078z"/>
  <path id="path4320" style="block-progression:tb;text-indent:0;color:#000000;enable-background:new;text-transform:none;fill:#bebebe" d="m151.91 221a0.50219 0.50219 0 1 0 0.09 1h2.5c3.1068 0 3.5869 7 0 7h-2.9375a0.50005 0.50005 0 1 0 0 1h2.9375c4.851 0 4.5076-9 0-9h-2.5a0.50005 0.50005 0 0 0 -0.0937 0z"/>
 </g>
</svg>
