<svg version="1.1" viewBox="0 0 16.000004 16" xmlns="http://www.w3.org/2000/svg">
  <defs>
   <style id="current-color-scheme" type="text/css">
   .ColorScheme-Text { color:#5c616c; } .ColorScheme-Highlight { color:#5294e2; }
  </style>
 </defs>
    <g transform="translate(-273.0004,252)">
        <path d="m274.0004-249c-0.554 0-1 0.446-1 1v8c0 0.554 0.446 1 1 1h12c0.554 0 1-0.446 1-1v-2h1c0.554 0 1-0.446 1-1v-2c0-0.554-0.446-1-1-1h-1v-2c0-0.554-0.446-1-1-1h-12zm0.5 1h11c0.277 0 0.5 0.223 0.5 0.5v7c0 0.277-0.223 0.5-0.5 0.5h-11c-0.277 0-0.5-0.223-0.5-0.5v-7c0-0.277 0.223-0.5 0.5-0.5zm0.75 1c-0.1385 0-0.25 0.1115-0.25 0.25v0.75l4 2 0.0625-3h-3.8125zm3.8125 0 5.9375 5v-4.75c0-0.1385-0.1115-0.25-0.25-0.25h-5.6875zm5.9375 5-4-2v3h3.75c0.1385 0 0.25-0.1115 0.25-0.25v-0.75zm-4 1-6-5v4.75c0 0.1385 0.1115 0.25 0.25 0.25h5.75zm6-4h0.5c0.277 0 0.5 0.223 0.5 0.5v1c0 0.277-0.223 0.5-0.5 0.5h-0.5v-2z" class="ColorScheme-Text" fill="currentColor"/>
    </g>
</svg>
