<svg version="1.1" viewBox="0 0 16 16" xmlns="http://www.w3.org/2000/svg">
  <defs>
   <style id="current-color-scheme" type="text/css">
   .ColorScheme-Text { color:#5c616c; } .ColorScheme-Highlight { color:#5294e2; }
  </style>
 </defs>
    <g transform="translate(-393.0002,231)" class="ColorScheme-Text" fill="currentColor">
        <path d="m408.0002-223c0-3.22467-1.20472-5.98186-2.94601-7.24949l-1.1553 1.03977c1.49941 1.06176 2.54166 3.45264 2.54166 6.20972 0 2.75707-1.04225 5.14797-2.54166 6.20972l1.1553 1.03977c1.74129-1.26764 2.94601-4.02483 2.94601-7.24949z"/>
        <path d="m404.93866-223c0-2.18076-0.82876-4.08463-2.07953-5.28549l-1.06865 0.95312c0.96536 1.02666 1.58853 2.58275 1.58853 4.33237s-0.62317 3.3057-1.58853 4.33236l1.06865 0.95312c1.25077-1.20085 2.07953-3.10473 2.07953-5.28548z"/>
        <path d="m401.99266-223c0-1.32571-0.43938-2.54197-1.1553-3.49478l-1.09753 0.98201c0.43232 0.72272 0.69317 1.58815 0.69317 2.51277 0 0.92461-0.26085 1.79004-0.69317 2.51277l1.09753 0.982c0.71592-0.95281 1.1553-2.16906 1.1553-3.49477z"/>
        <path d="m393.0002-225v4h1.65207l3.34793 3.36924v-10.73848l-3.34793 3.36924z"/>
    </g>
</svg>
