<svg version="1.1" viewBox="0 0 16.000002 16.000919" xmlns="http://www.w3.org/2000/svg">
  <defs>
   <style id="current-color-scheme" type="text/css">
   .ColorScheme-Text { color:#5c616c; } .ColorScheme-Highlight { color:#5294e2; }
  </style>
 </defs>
    <g transform="translate(-313.0004,232.00092)" class="ColorScheme-Text" fill="currentColor">
        <path d="m320.96899-232.00092c-3.30546 0-6.02387 3.00835-5.96859 5.71875 0.0616 3.02218 0.93359 4.69547 1.125 5.28125h1.4005c-1.16149-2.29152-1.04906-5.1562-1.04906-5.1562 0-2.37255 2.00665-4.31249 4.49215-4.3125 2.48549 0 4.49978 1.92062 4.49214 4.375-0.0234 1.67413-0.17168 2.28358-1.00523 4.8125h1.57068c0.2245-0.64458 0.97382-2.06546 0.97382-4.90625 0-2.8298-2.72596-5.8125-6.03141-5.8125z"/>
        <rect transform="matrix(-.96317422 -.26887809 -.3026725 .95309462 0 0)" x="-243.96681" y="-304.3942" width="3.1448481" height="5.1319256" rx="1.8617905" ry="1.8614891"/>
        <rect transform="matrix(.96317422 -.26887809 .3026725 .95309462 0 0)" x="368.35071" y="-131.65269" width="3.1448481" height="5.1319256" rx="1.8617905" ry="1.8614891"/>
        <rect x="321.01144" y="-219" width="2" height="2" rx=".9921875" ry="1"/>
        <path d="m325.59375-222.59375a0.50005 0.50005 0 0 0-0.0625 0.96875l1.46875 0.53125-0.0312 1.75c-5e-3 0.53205-0.13589 0.86771-0.3125 1.0625s-0.40189 0.28125-0.71875 0.28125h-3.90625a0.50005 0.50005 0 1 0 0 1h3.90625c0.54756 0 1.09267-0.21022 1.46875-0.625s0.556-1.00902 0.5625-1.71875l0.0312-2.09375v-0.34375l-0.3125-0.125-1.78125-0.65625a0.50005 0.50005 0 0 0-0.3125-0.0312z" style="block-progression:tb;text-indent:0;text-transform:none"/>
    </g>
</svg>
