<svg version="1.1" viewBox="0 0 16.014242 16.014242" xmlns="http://www.w3.org/2000/svg">
  <defs>
   <style id="current-color-scheme" type="text/css">
   .ColorScheme-Text { color:#5c616c; } .ColorScheme-Highlight { color:#5294e2; }
  </style>
 </defs>
    <g transform="translate(-533.0002,252)" class="ColorScheme-Text" fill="currentColor">
        <g>
            <path d="m545.90625-251a1.0001 1.0001 0 0 0-0.90625 1v13a1.0001 1.0001 0 1 0 2 0v-12h1a1.0001 1.0001 0 1 0 0-2h-2a1.0001 1.0001 0 0 0-0.0937 0z" style="block-progression:tb;text-indent:0;text-transform:none"/>
            <path d="m546-246v0.5 2 0.5h0.5 2 0.5v-0.5-2-0.5h-0.5-2-0.5zm1 1h1v1h-1v-1z" enable-background="new" style="block-progression:tb;text-indent:0;text-transform:none"/>
            <path d="m546-242v0.5 2 0.5h0.5 2 0.5v-0.5-2-0.5h-0.5-2-0.5zm1 1h1v1h-1v-1z" enable-background="new" style="block-progression:tb;text-indent:0;text-transform:none"/>
            <path d="m533-248v1 10 1h1 8 1v-1-1h1v-2h-1-1-1v1 1h-6v-8h2 1v-2h-1-3-1z" style="block-progression:tb;text-indent:0;text-transform:none"/>
        </g>
        <path d="m539.0002-251 5.0002 4h-3.0002v4.53124h-2z"/>
        <path transform="matrix(.41157264 0 0 .4202381 537.03417 -336.49717)" d="m9.625 223.6875a6.0625 5.9375 0 1 1-12.125 0 6.0625 5.9375 0 1 1 12.125 0z"/>
    </g>
</svg>
