<svg version="1.1" viewBox="0 0 16 16" xmlns="http://www.w3.org/2000/svg">
  <defs>
   <style id="current-color-scheme" type="text/css">
   .ColorScheme-Text { color:#5c616c; } .ColorScheme-Highlight { color:#5294e2; }
  </style>
 </defs>
    <g transform="translate(-293.00021,252)">
        <path d="m300.5002-251c-1.385 0-2.5 1.115-2.5 2.5v4.5 0.5c0 1.385 1.115 2.5 2.5 2.5s2.5-1.115 2.5-2.5v-0.5-4.5c0-1.385-1.115-2.5-2.5-2.5zm-4 6c-0.27614 0-0.5 0.22386-0.5 0.5v0.96875c0 1.96838 1.25801 3.62455 3 4.25v1.28125h-0.5c-0.277 0-0.5 0.223-0.5 0.5s0.223 0.5 0.5 0.5h0.5 3 0.5c0.277 0 0.5-0.223 0.5-0.5s-0.223-0.5-0.5-0.5h-0.5v-1.28125c1.74199-0.62545 3-2.28162 3-4.25v-0.96875c0-0.27614-0.22386-0.5-0.5-0.5s-0.5 0.22386-0.5 0.5c0 0.069 6e-3 0.12768 0.0312 0.1875v0.78125c0 1.96415-1.57895 3.53125-3.53125 3.53125s-3.5-1.5671-3.5-3.53125v-0.96875c0-0.27614-0.22386-0.5-0.5-0.5z" class="ColorScheme-Text" fill="currentColor" style="block-progression:tb;text-indent:0;text-transform:none"/>
    </g>
</svg>
