<svg version="1.1" viewBox="0 0 16 16.009148" xmlns="http://www.w3.org/2000/svg">
  <defs>
   <style id="current-color-scheme" type="text/css">
   .ColorScheme-Text { color:#5c616c; } .ColorScheme-Highlight { color:#5294e2; }
  </style>
 </defs>
    <g transform="translate(146.9996,332.00915)" class="ColorScheme-Text" fill="currentColor">
        <path d="m-139.9371-332c-0.4543 0.0495-0.88397 0.2214-1.25 0.5-0.48804 0.37146-0.8125 0.95486-0.8125 1.6875v5.3125s0.23582 0.50712 0.5 0.50712 0.5-0.50712 0.5-0.50712v-5.3125c0-0.4491 0.17164-0.70389 0.4375-0.90625s0.66376-0.30023 1.0625-0.28125c0.39874 0.019 0.78428 0.15409 1.0625 0.40625s0.46875 0.5845 0.46875 1.125c0 2.1653 1.46382 3.50909 3 3.46875 0.85672-0.0225 1.68825-0.47696 2.25-1.3125l-0.5625-1c-0.37537 0.9157-1.06785 1.29541-1.71875 1.3125-0.96046 0.0252-1.96875-0.72975-1.96875-2.46875 0-0.79197-0.33682-1.44388-0.8125-1.875s-1.08104-0.62738-1.6875-0.65625c-0.15162-7e-3 -0.31732-0.0165-0.46875 0zm6.9375 2c0 0.0455 8.9e-4 0.0807 0 0.125l0.78125 1.375c0.0114-0.0408 0.0208-0.0833 0.0312-0.125zm0 0.34375c-6e-3 0.10599-0.0202 0.21386-0.0312 0.3125l0.71875 1.21875c0.0234-0.0625 0.0415-0.12233 0.0625-0.1875zm-0.0625 0.5c-0.0138 0.0899-0.0444 0.16659-0.0625 0.25l0.65625 1.125c0.0293-0.0609 0.067-0.12359 0.0937-0.1875zm-0.0937 0.4375c-0.0237 0.0889-0.0654 0.16899-0.0937 0.25l0.59375 1.03125c0.0401-0.0651 0.088-0.1182 0.125-0.1875z" style="block-progression:tb;text-indent:0;text-transform:none"/>
        <rect x="-144.99959" y="-326" width="7.0000138" height="7.9999976" rx=".7270034" ry=".7270034"/>
    </g>
</svg>
