<svg version="1.1" viewBox="0 0 16.000004 16" xmlns="http://www.w3.org/2000/svg">
  <defs>
   <style id="current-color-scheme" type="text/css">
   .ColorScheme-Text { color:#5c616c; } .ColorScheme-Highlight { color:#5294e2; }
  </style>
 </defs>
    <g transform="translate(-333.03181,232)" class="ColorScheme-Text" fill="currentColor">
        <path d="m334.02985-227c-0.55291 0-0.99804 0.5231-0.99804 1.15625v4.5625c0 0.63314 0.41568 1.28125 0.96859 1.28125h1c0 0.63315 0.47458 1 1.02749 1h0.99607c0.55291 0 0.97644-0.36685 0.97644-1h5.98822c0 0.63315 0.46672 1 1.01963 1h0.99411c0.55291 0 0.99804-0.36685 0.99804-1h1.00196c0.55292 0 0.99804-0.64811 0.99804-1.28125v-4.5625c0-0.63315-0.44512-1.15625-0.99804-1.15625zm0.49902 1.19211c0.2756 0 0.49902 0.92718 0.49902 2.30789s-0.22342 2.23803-0.49902 2.23803-0.49902-0.85732-0.49902-2.23803 0.22342-2.30789 0.49902-2.30789zm1.99607-1.8e-4c0.2756 0 0.49902 1.11929 0.49902 2.5s-0.25828 2.04082-0.53388 2.04082-0.46416-0.85204-0.46416-2.23275 0.22342-2.30807 0.49902-2.30807zm1.96121 0c0.2756 0 0.53388 0.92736 0.53388 2.30807s-0.22342 2.23275-0.49902 2.23275c-0.27559 0-0.49901-0.85204-0.49901-2.23275s0.18856-2.30807 0.46415-2.30807zm7.02112-0.19193c1.378 0 2.49509 1.11929 2.49509 2.5s-1.11709 2.5-2.49509 2.5-2.49509-1.11929-2.49509-2.5 1.11709-2.5 2.49509-2.5z"/>
        <path transform="matrix(.75 0 0 .75 440.7504 -417)" d="m-125 258a2 2 0 1 1-4 0 2 2 0 1 1 4 0z"/>
    </g>
</svg>
