<svg version="1.1" viewBox="0 0 16.007517 16.000071" xmlns="http://www.w3.org/2000/svg">
  <defs>
   <style id="current-color-scheme" type="text/css">
   .ColorScheme-Text { color:#5c616c; } .ColorScheme-Highlight { color:#5294e2; }
  </style>
 </defs>
    <g transform="translate(-413.00018,142.00007)">
        <path d="m415.5039-142.00007s-0.34949 3e-3 -0.71875 0.1875c-0.35482 0.17741-0.72007 0.62423-0.75 1.25-1e-3 0.0255-0.0312 0.0364-0.0312 0.0625l-1 10.4375c-5e-3 0.0414-5e-3 0.0836 0 0.125l0.5 3.5c0.0303 0.24032 0.25779 0.43938 0.5 0.4375h0.84375 0.25 11.78125 0.25 0.875c0.2333 4e-3 0.45627-0.17705 0.5-0.40625l0.5-2.5c5e-3 -0.0414 5e-3 -0.0836 0-0.125l-1-11.46875c0-0.0113 2.3e-4 -0.0203 0-0.0312-0.0135-0.64874-0.41828-1.09976-0.78125-1.28125-0.36926-0.18473-0.71875-0.1875-0.71875-0.1875h-11zm6.8125 1c0.0104-3.3e-4 0.0208-3.3e-4 0.0312 0 0.0516-8e-3 0.1046-8e-3 0.15625 0h3c0.2938-7e-3 0.5529 0.30092 0.5 0.59375 0 0-0.1273 0.71552-0.1875 1.4375-0.0297 0.36099-0.05 0.74355-0.0312 0.96875 5e-3 0.0548-7e-3 0.0606 0 0.0937 4e-4 2e-3 0.031-2e-3 0.0312 0 0.0351 0.0268 0.0667 0.0585 0.0937 0.0937 0 0 1.09375 1.43835 1.09375 3.0625 0 1.13058-0.75345 2.07448-1.84375 2.71875-1.09031 0.64427-2.55916 1.03125-4.15625 1.03125s-3.06594-0.38698-4.15625-1.03125c-1.0903-0.64427-1.84375-1.58817-1.84375-2.71875 0-1.10803 0.75163-1.93266 1.71875-2.53125 0.96712-0.5986 2.21795-1.07603 3.59375-1.6875 0.01-0.0109 0.0204-0.0213 0.0312-0.0312 0 0 1.27315-0.41317 1.6875-1.65625 0.0351-0.15004 0.14221-0.28099 0.28125-0.34375zm-5.65625 0.15625c0.0104-6.5e-4 0.0208-6.5e-4 0.0312 0 0.0207-3e-3 0.0418-3e-3 0.0625 0h2.5c0.0104-6.5e-4 0.0208-6.5e-4 0.0312 0 0.0329 4e-3 0.065 0.0147 0.0937 0.0312 0.0113 9e-3 0.0217 0.0199 0.0312 0.0312 0.0243 0.0169 0.0456 0.0382 0.0625 0.0625 0.0133 0.0192 0.0238 0.0404 0.0312 0.0625 3e-3 0.0207 3e-3 0.0418 0 0.0625v1c6.5e-4 0.0104 6.5e-4 0.0208 0 0.0312-8e-3 0.0465-0.0304 0.0904-0.0625 0.125-0.0221 0.0389-0.0548 0.0716-0.0937 0.0937l-3 1c-0.0207 3e-3 -0.0418 3e-3 -0.0625 0-0.0104 6.5e-4 -0.0208 6.5e-4 -0.0312 0-0.0207 3e-3 -0.0418 3e-3 -0.0625 0-0.0222-7e-3 -0.0433-0.0179-0.0625-0.0312-0.0243-0.0169-0.0456-0.0382-0.0625-0.0625-0.0113-9e-3 -0.0217-0.0199-0.0312-0.0312-0.0132-0.0192-0.0238-0.0404-0.0312-0.0625-3e-3 -0.0207-3e-3 -0.0418 0-0.0625-3e-3 -0.0207-3e-3 -0.0418 0-0.0625l0.5-2c7e-3 -0.0221 0.0179-0.0433 0.0312-0.0625 9e-3 -0.0113 0.0199-0.0217 0.0312-0.0312 0.0221-0.0389 0.0548-0.0716 0.0937-0.0937zm0.28125 0.5-0.3125 1.34375 2.375-0.78125v-0.5625zm5.78125 0.34375c-0.67963 1.34427-1.9111 1.9075-2 1.9375v0.0312c-1.39996 0.62221-2.66107 1.10575-3.5 1.625-0.83893 0.51926-1.21875 0.96935-1.21875 1.65625 0 0.66435 0.4747 1.31176 1.375 1.84375 0.9003 0.532 2.18452 0.90625 3.625 0.90625s2.7247-0.37425 3.625-0.90625c0.90031-0.53199 1.375-1.1794 1.375-1.84375 0-1.10603-0.8373-2.35055-0.875-2.40625-4e-4 -4.6e-4 -0.031 2.9e-4 -0.0312 0-7e-3 -6e-3 6e-3 -0.0252 0-0.0312-0.0858-0.0853-0.1544-0.13935-0.1875-0.21875-0.0711-0.17062-0.111-0.33136-0.125-0.5-0.0281-0.3373-9e-4 -0.73599 0.0312-1.125 0.0403-0.48375 0.0818-0.67629 0.125-0.96875zm-1.96875 3.90625c0.52912 0 1.03598 0.1977 1.40239 0.43325 0.36642 0.23556 0.59761 0.78159 0.59761 1.19175s-0.25858 0.7332-0.625 0.96875c-0.36641 0.23556-0.84588 0.40625-1.375 0.40625s-1.00858-0.17069-1.375-0.40625c-0.36641-0.23555-0.625-0.55859-0.625-0.96875s0.14902-0.81923 0.51543-1.05479c0.36642-0.23555 0.95545-0.57021 1.48457-0.57021zm0 0.75c-0.43738 0-0.82679 0.10964-1.09375 0.28125-0.26696 0.17162-0.40625 0.3826-0.40625 0.59375s0.13929 0.42213 0.40625 0.59375c0.26696 0.17161 0.65637 0.28125 1.09375 0.28125s0.82679-0.10964 1.09375-0.28125c0.26695-0.17162 0.40625-0.3826 0.40625-0.59375s-0.1393-0.42213-0.40625-0.59375c-0.26696-0.17161-0.65637-0.28125-1.09375-0.28125zm-5.25 4.34375c0.27614 0 0.5 0.22386 0.5 0.5s-0.22386 0.5-0.5 0.5-0.5-0.22386-0.5-0.5 0.22386-0.5 0.5-0.5zm11 0c0.27614 0 0.5 0.22386 0.5 0.5s-0.22386 0.5-0.5 0.5-0.5-0.22386-0.5-0.5 0.22386-0.5 0.5-0.5zm-11.40625 2h11.8125l-0.34375 2h-11.125z" class="ColorScheme-Text" fill="currentColor" style="block-progression:tb;text-indent:0;text-transform:none"/>
    </g>
</svg>
