<svg version="1.1" viewBox="0 0 16.0002 16" xmlns="http://www.w3.org/2000/svg">
  <defs>
   <style id="current-color-scheme" type="text/css">
   .ColorScheme-Text { color:#5c616c; } .ColorScheme-Highlight { color:#5294e2; }
  </style>
 </defs>
    <g transform="translate(-433.0002,232)" class="ColorScheme-Text" fill="currentColor">
        <path d="m435.5004-231c-1.385 0-2.5 1.115-2.5 2.5v8c0 1.385 1.115 2.5 2.5 2.5v-2c-0.277 0-0.5-0.223-0.5-0.5v-1.5h0.5 11 0.5v1.5c0 0.277-0.223 0.5-0.5 0.5v2c1.385 0 2.5-1.115 2.5-2.5v-8c0-1.385-1.115-2.5-2.5-2.5h-11z"/>
        <path d="m435.8754-220.96124c0 2.69092 2.29876 4.90426 5.11583 4.90426 2.81708 0 5.13418-2.21334 5.13418-4.90426h-2.017c0 1.65243-1.38729 2.97759-3.11718 2.97759-1.72988 0-3.09884-1.32516-3.09884-2.97759z" style="block-progression:tb;text-indent:0;text-transform:none"/>
        <path d="m439.0004-221c0 1.09864 0.90135 2 2 2s2-0.90136 2-2h-1c0 0.5582-0.44179 1-1 1s-1-0.4418-1-1h-1z" style="block-progression:tb;text-indent:0;text-transform:none"/>
    </g>
</svg>
