<svg version="1.1" viewBox="0 0 16 16" xmlns="http://www.w3.org/2000/svg">
  <defs>
   <style id="current-color-scheme" type="text/css">
   .ColorScheme-Text { color:#5c616c; } .ColorScheme-Highlight { color:#5294e2; }
  </style>
 </defs>
    <g transform="translate(-353.00021,252)">
        <path d="m356.00021-251c-1.108 0-2 0.892-2 2v10c0 1.108 0.892 2 2 2h10c1.108 0 2-0.892 2-2v-10c0-1.108-0.892-2-2-2zm0 1h10c0.554 0 1 0.446 1 1v9c0 0.554-0.446 1-1 1h-10c-0.554 0-1-0.446-1-1v-9c0-0.554 0.446-1 1-1zm6.65625 3.99413c-0.79027 0-1.54898 0.25699-2.28125 0.75l0.375 0.84962c0.31176-0.21025 0.61624-0.35999 0.90625-0.46875 0.29726-0.116 0.57049-0.15625 0.875-0.15625 0.44951 0 0.79199 0.1045 1.03125 0.34375 0.23925 0.23201 0.4375 0.54824 0.4375 0.96875v0.3065c-0.21026-0.0797-0.52025-0.144-0.78125-0.1875-0.26101-0.0507-0.513-0.0625-0.78125-0.0625-0.35526 0-0.67149 0.038-0.96875 0.125-0.29001 0.087-0.56375 0.2155-0.78125 0.375-0.21026 0.15951-0.35275 0.345-0.46875 0.5625-0.116 0.21751-0.1875 0.55025-0.1875 0.8185 0 0.25376 0.062 0.50125 0.15625 0.71875 0.1015 0.21751 0.20824 0.403 0.375 0.5625 0.174 0.1595 0.39299 0.28075 0.625 0.375 0.23925 0.087 0.50574 0.125 0.78125 0.125 0.42776 0 0.81774-0.076 1.1875-0.25 0.377-0.18125 0.68374-0.44774 0.9375-0.78125l0.0312 0.34375c0.029 0.18125 0.10274 0.32875 0.21875 0.4375 0.12325 0.10875 0.29924 0.173 0.53125 0.1875 0.0797 0 0.18699 7e-3 0.28125 0 0.1015-7e-3 0.19649-0.01 0.3125-0.0312v-1.03125c-0.12326-7e-3 -0.30318-0.0358-0.35393-0.0937-0.0508-0.058-0.11482-0.17475-0.11482-0.3125v-2.13087c0-0.74677-0.0962-1.31999-0.53125-1.71875-0.43502-0.39876-1.02948-0.625-1.8125-0.625zm-0.09 3.07022c0.2175 1e-5 0.60786 0.0503 0.83262 0.0937 0.232 0.0435 0.39816 0.1059 0.60117 0.18565v0.75c0 0.145-0.129 0.307-0.28125 0.4375-0.427 0.37916-0.94091 0.42943-1.4375 0.46875-0.32626 0-0.73453 0.0176-0.94478-0.17094-0.21026-0.19576-0.33647-0.4213-0.33647-0.70406 0-0.3045 0.29424-0.56874 0.5625-0.75 0.27551-0.1885 0.57595-0.31064 1.00371-0.31065z" class="ColorScheme-Text" fill="currentColor"/>
    </g>
</svg>
