<svg version="1.1" viewBox="0 0 16 16" xmlns="http://www.w3.org/2000/svg">
  <defs>
   <style id="current-color-scheme" type="text/css">
   .ColorScheme-Text { color:#5c616c; } .ColorScheme-Highlight { color:#5294e2; }
  </style>
 </defs>
    <g transform="translate(-553.0004,252)" class="ColorScheme-Text" fill="currentColor">
        <path d="m556.15665-248c-1.74549 0-3.15625 1.79086-3.15625 4s1.41076 4 3.15625 4 3.15625-1.79086 3.15625-4-1.41076-4-3.15625-4zm-0.15625 2h1v1h1v1h-1v1h-1v-1h-1v-1h1v-1z"/>
        <path d="m565.84415-248c-1.74549 0-3.15625 1.79086-3.15625 4s1.41076 4 3.15625 4 3.15625-1.79086 3.15625-4-1.41076-4-3.15625-4zm-1.34375 1.5c0.55228 0 1 0.44772 1 1s-0.44772 1-1 1-1-0.44772-1-1 0.44772-1 1-1zm2 2c0.55228 0 1 0.44772 1 1s-0.44772 1-1 1-1-0.44772-1-1 0.44772-1 1-1z"/>
        <path d="m556.0004-248v2h1v1h1v1h-1v1h-1v1h10l-0.0926-0.61304c-0.29201-0.17461-0.62963-0.53434-0.62963-0.89931 0-0.36496 0.35614-0.78025 0.64815-0.95486l0.07408-3.53279zm8.5 1.5c0.55228 0 1 0.44772 1 1s-0.44772 1-1 1-1-0.44772-1-1 0.44772-1 1-1z"/>
    </g>
</svg>
