<svg version="1.1" viewBox="0 0 16.53125 16" xmlns="http://www.w3.org/2000/svg">
  <defs>
   <style id="current-color-scheme" type="text/css">
   .ColorScheme-Text { color:#5c616c; } .ColorScheme-Highlight { color:#5294e2; }
  </style>
 </defs>
    <g transform="translate(-492.7504,232)" class="ColorScheme-Text" fill="currentColor">
        <path d="m501.0023-231.99621-1.0019 0.0275 0.0312 0.5c0.0471 0.46556-0.20254 0.96951-0.59375 1.21875-0.35305 0.24895-0.90493 0.1983-1.59375 0.21875-0.34855 3e-3 -0.70297 0.0839-1.03125 0.28125-0.32828 0.19733-0.64985 0.5469-0.71875 1-0.15832 0.89239 0.45382 1.63343 1.15625 1.78125 0.80729 0.17604 1.64453 0.0756 2.625 0 0.25579-0.0197 0.60056 0.0205 0.8125 0.125 0.33374 0.26075 0.28443 0.40291 0.28125 0.875h-4.90625-0.75l-0.21875 0.71875-1.96875 7-0.375 1.28125h1.34375 13.875 1.3125l-0.375-1.28125-1.90625-6.8125-1.46875 2.21875 1.125 3.875h-11.28125l1.4375-5h3.25c0.0102-0.0106 0.0207-0.0211 0.0312-0.0312l1.34375-0.875 0.53125-1.0625v-0.0312-0.46875c-3e-3 -0.61146-0.40574-1.09656-0.84375-1.3125s-0.93011-0.25063-1.34375-0.21875c-0.99591 0.0768-1.73951 0.12494-2.3125 0h-0.0312c-0.19949-0.042-0.41743-0.20971-0.34375-0.625 0.0189-0.12428 0.0777-0.19648 0.21875-0.28125 0.14101-0.0848 0.35246-0.15487 0.53125-0.15625h0.0312c0.56397-0.0167 1.37705 0.11764 2.09375-0.40625 0.81874-0.59848 1.15373-1.39515 1.0625-2.125z" enable-background="new" style="block-progression:tb;text-indent:0;text-transform:none"/>
        <path d="m506.12632-229.92954s-2.51922 3.50643-4.04033 5.96897l-1.40567 1.1673 0.0373 1.57392-0.76313 1.24524 0.69536-1e-3 0.74028-0.58334 1.67496-0.4626 0.5949-1.48097 4.18505-6.36462z" enable-background="new" style="block-progression:tb;text-indent:0;text-transform:none"/>
        <path transform="matrix(1.1306064,0,0,1.1306064,468.55015,-514.97013)" d="m34.648232 252.43883a0.57452428 0.57452428 0 1 1-1.149049 0 0.57452428 0.57452428 0 1 1 1.149049 0z" enable-background="new"/>
    </g>
</svg>
