<svg version="1.1" viewBox="0 0 16 16" xmlns="http://www.w3.org/2000/svg">
  <defs>
   <style id="current-color-scheme" type="text/css">
   .ColorScheme-Text { color:#5c616c; } .ColorScheme-Highlight { color:#5294e2; }
  </style>
 </defs>
    <g transform="translate(-493.0002,252)" class="ColorScheme-Text" fill="currentColor">
        <path d="m496.03165-251c-1.66919 0-3.03125 1.36206-3.03125 3.03125v7.9375c0 1.66919 1.36206 3.03125 3.03125 3.03125h8.9375c1.66919 0 3.03125-1.36206 3.03125-3.03125v-7.9375c0-1.66919-1.36206-3.03125-3.03125-3.03125h-8.9375zm0 2h8.9375c0.59578 0 1.03125 0.43547 1.03125 1.03125v5.96875h-11v-5.96875c0-0.59578 0.43547-1.03125 1.03125-1.03125zm-1.03125 8h5v2h-3.96875c-0.59578 0-1.03125-0.43547-1.03125-1.03125v-0.96875zm6 0h5v0.96875c0 0.59578-0.43547 1.03125-1.03125 1.03125h-3.96875v-2z" style="block-progression:tb;text-indent:0;text-transform:none"/>
        <rect x="495.0004" y="-249" width="11.000002" height="7" rx="0" ry="0" opacity=".35"/>
    </g>
</svg>
