<svg version="1.1" viewBox="0 0 16.0002 16" xmlns="http://www.w3.org/2000/svg">
  <defs>
   <style id="current-color-scheme" type="text/css">
   .ColorScheme-Text { color:#5c616c; } .ColorScheme-Highlight { color:#5294e2; }
  </style>
 </defs>
    <g transform="translate(-453.0002,212)">
        <path d="m455.5004-209c-1.385 0-2.5 1.115-2.5 2.5v6c0 1.385 1.115 2.5 2.5 2.5h11c1.385 0 2.5-1.115 2.5-2.5v-6c0-1.385-1.115-2.5-2.5-2.5h-11zm2 3c1.37479 0 2.5 1.12521 2.5 2.5 0 0.56453-0.21241 1.08026-0.53125 1.5h3.0625c-0.31884-0.41974-0.53125-0.93547-0.53125-1.5 0-1.37479 1.12521-2.5 2.5-2.5s2.5 1.12521 2.5 2.5-1.12521 2.5-2.5 2.5h-0.5-6-0.5c-1.37479 0-2.5-1.12521-2.5-2.5s1.12521-2.5 2.5-2.5zm0 1c-0.83435 0-1.5 0.66565-1.5 1.5s0.66565 1.5 1.5 1.5 1.5-0.66565 1.5-1.5-0.66565-1.5-1.5-1.5zm7 0c-0.83435 0-1.5 0.66565-1.5 1.5s0.66565 1.5 1.5 1.5 1.5-0.66565 1.5-1.5-0.66565-1.5-1.5-1.5z" class="ColorScheme-Text" fill="currentColor"/>
    </g>
</svg>
