<svg version="1.1" viewBox="0 0 16.000002 16" xmlns="http://www.w3.org/2000/svg">
  <defs>
   <style id="current-color-scheme" type="text/css">
   .ColorScheme-Text { color:#5c616c; } .ColorScheme-Highlight { color:#5294e2; }
  </style>
 </defs>
    <g transform="translate(-333.0004,212)" class="ColorScheme-Text" fill="currentColor">
        <path d="m335.96915-211c-1.07534 0-1.96875 0.89341-1.96875 1.96875v9.03125 0.4375l0.3125 0.28125 1.6875 1.6875v-11.40625h10v10h-2v2h2.03125c1.07534 0 1.96875-0.89341 1.96875-1.96875v-10.0625c0-1.07534-0.89341-1.96875-1.96875-1.96875z" style="block-progression:tb;text-indent:0;text-transform:none"/>
        <path d="m338.0004-203c-0.554 0-1 0.446-1 1v4c0 0.554 0.446 1 1 1h4c0.554 0 1-0.446 1-1v-4c0-0.554-0.446-1-1-1h-4zm0 1h2v4h-2v-4z"/>
    </g>
</svg>
