<svg version="1.1" viewBox="0 0 16 16" xmlns="http://www.w3.org/2000/svg">
  <defs>
   <style id="current-color-scheme" type="text/css">
   .ColorScheme-Text { color:#5c616c; } .ColorScheme-Highlight { color:#5294e2; }
  </style>
 </defs>
    <g transform="translate(-513.00043,231.00338)">
        <path d="m516.0002-230s-2 0-2 2v11c0 0.554 0.446 1 1 1h12c0.554 0 1-0.446 1-1v-11s0-2-2-2h-10zm0 1c-0.277 0-0.538 0.1005-0.71875 0.28125 0.18075-0.18075 0.44175-0.28125 0.71875-0.28125zm10 0c0.277 0 0.538 0.1005 0.71875 0.28125-0.18075-0.18075-0.44175-0.28125-0.71875-0.28125zm-10 1h1v3h8v-3h1v10h-10v-10z" class="ColorScheme-Text" fill="currentColor"/>
    </g>
</svg>
