<svg version="1.1" viewBox="0 0 16 16" xmlns="http://www.w3.org/2000/svg">
  <defs>
   <style id="current-color-scheme" type="text/css">
   .ColorScheme-Text { color:#5c616c; } .ColorScheme-Highlight { color:#5294e2; }
  </style>
 </defs>
    <g transform="translate(-393.0004,212)" class="ColorScheme-Text" fill="currentColor">
        <path d="m397.18309-212c-1.79783 1e-5 -3.15144 1.33801-3.15144 3v10c0 1.662 1.3536 3 3.15144 3h7.57212c1.79783-1e-5 3.24519-1.33801 3.24519-3v-6.58931l-1.97596 2.87722v3.71209c1e-5 0.554-0.48245 1-1.08173 1h-7.91587c-0.59928-1e-5 -1.01924-0.44601-1.01923-1v-10c-1e-5 -0.554 0.41995-0.99999 1.01923-1h7.66076l1.31836-1.75c-0.38069-0.14431-0.81253-0.25-1.25075-0.25z"/>
        <path d="m407.04073-210.96897s-2.51922 3.50643-4.04033 5.96897l-1.40567 1.1673 0.0373 1.57392-0.76313 1.24524 0.69536-1e-3 0.74028-0.58334 1.67496-0.4626 0.5949-1.48097 4.18505-6.36462z" enable-background="new" style="block-progression:tb;text-indent:0;text-transform:none"/>
    </g>
</svg>
