<svg version="1.1" viewBox="0 0 16.000004 16.006945" xmlns="http://www.w3.org/2000/svg">
  <defs>
   <style id="current-color-scheme" type="text/css">
   .ColorScheme-Text { color:#5c616c; } .ColorScheme-Highlight { color:#5294e2; }
  </style>
 </defs>
    <g transform="translate(-373.0002,251.00347)" class="ColorScheme-Text" fill="currentColor">
        <path d="m376.9377-250.99653c-0.36035 0.0469-0.9375 0.25-0.9375 1v2s-1 0-1 1v3h-1s-1 0-1 1v5.5c0 0.5 0.5 0.5 0.5 0.5h0.5c0 1 1 1 1 1s0 1 1 1h10c1 0 1-1 1-1s1 0 1-1h0.5c0.5 0 0.5-0.4192 0.5-0.5v-5.5c0-1-1-1-1-1h-1v-3c0-1-1-1-1-1v-2c0-1-1-1-1.1875-1h-7.625c-0.0469 0-0.12988-0.0156-0.25 0zm0.0625 1h8v6h-8v-6zm-2.4375 7c0.0615-9e-3 0.0937 0 0.0937 0h1.34375 10 1.34375s0.65625 0 0.65625 0.5625v4.4375h-14v-4.4375c0-0.42187 0.37793-0.53613 0.5625-0.5625zm1.4375 6h10v1h-10v-1z" style="block-progression:tb;text-indent:0;text-transform:none"/>
        <path d="m376.0002-242.99653v4h10v-4h-10z" opacity=".5"/>
    </g>
</svg>
