<svg version="1.1" viewBox="0 0 16 16" xmlns="http://www.w3.org/2000/svg">
  <defs>
   <style id="current-color-scheme" type="text/css">
   .ColorScheme-Text { color:#5c616c; } .ColorScheme-Highlight { color:#5294e2; }
  </style>
 </defs>
    <g transform="translate(-513.00043,252)" class="ColorScheme-Text" fill="currentColor">
        <path d="m516.0004-252c-0.57847 0-1.0598 0.19914-1.46875 0.5625-0.20447 0.18168-0.38952 0.41779-0.5 0.75s-0.11181 0.77424 0.0625 1.125l1 2c0.0882 0.17755 0.20315 0.42726 0.375 0.6875 0.24004-0.0728 0.4938-0.125 0.75-0.125h9.5625c0.2562 0 0.50996 0.0522 0.75 0.125 0.17185-0.26025 0.28676-0.50995 0.375-0.6875l1-2c0.17431-0.35076 0.17298-0.79279 0.0625-1.125s-0.29553-0.56832-0.5-0.75c-0.40895-0.36336-0.89028-0.5625-1.46875-0.5625h-10zm0.125 2h9.75l-0.78125 1.5625c-0.1179 0.23724-0.17682 0.37121-0.21875 0.4375h-7.75c-0.0419-0.0663-0.10085-0.20026-0.21875-0.4375l-0.78125-1.5625z" style="block-progression:tb;text-indent:0;text-transform:none"/>
        <path d="m517.0004-246c-0.4875 0-0.93518 0.14403-1.3125 0.4375s-0.6875 0.78189-0.6875 1.34375v8.21875h12v-8.21875c0-0.56186-0.31018-1.05028-0.6875-1.34375s-0.825-0.4375-1.3125-0.4375zm0 1h8v6h-8zm7 7h1v1h-1z" style="block-progression:tb;text-indent:0;text-transform:none"/>
        <rect transform="scale(1,-1)" x="516.00043" y="248" width="10.000013" height="2" rx="0" ry="0" opacity=".35"/>
        <rect x="518.00043" y="-240.96875" width="5.9999862" height="1" rx="0" ry="0"/>
        <path d="m518.00041-243.96875h5.99999v0.96875l-5.99999 1z" opacity=".35"/>
    </g>
</svg>
