<svg version="1.1" viewBox="0 0 16 16" xmlns="http://www.w3.org/2000/svg">
  <defs>
   <style id="current-color-scheme" type="text/css">
   .ColorScheme-Text { color:#5c616c; } .ColorScheme-Highlight { color:#5294e2; }
  </style>
 </defs>
    <path d="m8.1577554 1.3826068c-3.5898508 0-6.5000002 2.9101496-6.5000002 6.4999987 0 3.5898575 2.9101494 6.5000015 6.5000002 6.5000015 3.5898506 0 6.5000006-2.910144 6.5000006-6.5000015 0-3.5898491-2.91015-6.4999987-6.5000006-6.4999987zm0 0.5416666c2.7292946 0 5.0300006 1.8351338 5.7355726 4.3387491-0.607709 1.2534665-1.472437 2.3820302-2.525521 3.2940125-0.505889 0.4380999-1.058218 0.828655-1.6683331 1.103646-0.6101151 0.27499-1.2811968 0.431017-1.9493227 0.392708-0.5019763-0.02879-0.9978482-0.168621-1.4374479-0.412344 1.1650191-0.631285 2.2161942-1.4729767 3.076667-2.4808354 0.5647962-0.6615387 1.0589507-1.4133556 1.2492187-2.2621349 0.095134-0.424389 0.111256-0.8688467 0.022343-1.2945831-0.088912-0.4257364-0.285754-0.8314446-0.583645-1.1483331-0.2910216-0.3095801-0.6730656-0.5288738-1.0826566-0.6418749-0.409591-0.1129998-0.8454672-0.121749-1.2634375-0.0453646-0.8359408 0.152769-1.5822834 0.6386032-2.1808855 1.2417706-1.0551234 1.0631696-1.7074121 2.5633219-1.5877605 4.0564055 0.0598256 0.7465411 0.3100024 1.4801201 0.738698 2.0942209 0.0956911 0.137069 0.2008907 0.267638 0.3134896 0.391354-0.6245184 0.218563-1.2711556 0.374143-1.9269792 0.461771-0.5630693-0.909837-0.8883334-1.9822288-0.8883334-3.1308355 0-3.2906961 2.6676366-5.9583321 5.9583335-5.9583321zm0.0379166 1.2038539c0.4188471 5.417e-4 0.8405403 0.1273688 1.1747399 0.3798437 0.3010974 0.2274688 0.5242016 0.5510793 0.6506771 0.9066144 0.126475 0.355535 0.158933 0.7416254 0.115781 1.1165102-0.086303 0.7497708-0.4645409 1.4373691-0.92151 2.0380204-0.8091218 1.0635284-1.8846064 1.9147534-3.0807297 2.510627-0.1224326 0.060992-0.2468057 0.118964-0.3717187 0.174688-0.2602672-0.227758-0.4833446-0.4979002-0.6533855-0.7989612-0.3553059-0.6290861-0.4724763-1.3763774-0.4035416-2.0955725 0.0689346-0.7191937 0.315744-1.4123441 0.6472916-2.0542704 0.3844148-0.7442837 0.9084049-1.4492817 1.6419272-1.8538538 0.3667611-0.2022854 0.7816213-0.3242132 1.2004687-0.3236458zm5.866927 3.9568742c0.03491 0.2609208 0.05349 0.5271296 0.05349 0.797604 0 3.2906945-2.667637 5.9583345-5.9583336 5.9583345-1.8480889 0-3.4997678-0.841316-4.5926564-2.161926 0.6745619-0.153211 1.333864-0.373276 1.9662501-0.653386 0.2765471 0.210614 0.581961 0.383351 0.9066146 0.507813 0.9349387 0.358434 1.9964065 0.30657 2.9426046-0.02099 0.9461977-0.327559 1.7852617-0.915497 2.5167187-1.5992703 0.871354-0.8145608 1.606021-1.7746553 2.165312-2.8281792z" class="ColorScheme-Text" fill="currentColor"/>
</svg>
