<svg version="1.1" viewBox="0 0 16.000004 16" xmlns="http://www.w3.org/2000/svg">
  <defs>
   <style id="current-color-scheme" type="text/css">
   .ColorScheme-Text { color:#5c616c; } .ColorScheme-Highlight { color:#5294e2; }
  </style>
 </defs>
    <g transform="translate(-713.0004,564)" class="ColorScheme-Text" fill="currentColor">
        <path d="m721.8852-563c-3.70511 0-6.75428 2.43996-7.08756 6h-1.79723l2.65438 3.33334 2.65437-3.33334h-1.73271c0.32781-2.5955 2.58321-4.26086 5.30875-4.26086 2.95078 0 5.34562 2.35686 5.34562 5.26086s-2.39484 5.26087-5.34562 5.26087c-1.60094 0-3.03846-0.69497-4.01843-1.79347l-1.29954 1.18478c1.30362 1.4424 3.20325 2.34782 5.31797 2.34782 3.9276 0 7.11521-3.136 7.11521-7s-3.18762-7-7.11521-7z"/>
        <path d="m722.33374-560.33333h-0.66667l-0.66666 4.66667 3.33333 2.66666v-0.66666l-2-2.66667v-4z"/>
    </g>
</svg>
