<svg version="1.1" viewBox="0 0 16 16" xmlns="http://www.w3.org/2000/svg">
  <defs>
   <style id="current-color-scheme" type="text/css">
   .ColorScheme-Text { color:#5c616c; } .ColorScheme-Highlight { color:#5294e2; }
  </style>
 </defs>
    <g transform="translate(-713.00043,604)">
        <path d="m721.0002-593c-0.88378 0-1.75827 0.46314-2.11847 0.86083l2.11847 2.30366 2.13904-2.2831c-0.3602-0.41825-1.25525-0.88139-2.13904-0.88139zm0-4c-1.84788 0-3.50412 0.73648-4.86493 1.86115l1.32453 1.41372c0.90637-0.64917 2.31682-1.27487 3.48693-1.27487 1.19841 0 2.67602 0.63983 3.59526 1.31807l1.36463-1.47766c-1.36081-1.12467-3.05853-1.84041-4.90642-1.84041zm0-4c-2.85342 0-5.46832 1.09634-7.5 2.92278l1.29592 1.45936c1.81172-1.58845 3.71766-2.38214 6.20408-2.38214 2.48643 0 4.33439 0.7475 6.23286 2.41428l1.26714-1.4915c-2.03168-1.82644-4.64657-2.92278-7.5-2.92278z" class="ColorScheme-Text" fill="currentColor" opacity=".9"/>
    </g>
</svg>
