<svg version="1.1" viewBox="0 0 16 16.008213" xmlns="http://www.w3.org/2000/svg">
  <defs>
   <style id="current-color-scheme" type="text/css">
   .ColorScheme-Text { color:#5c616c; } .ColorScheme-Highlight { color:#5294e2; }
  </style>
 </defs>
    <g transform="translate(-713.0004,584)">
        <path d="m726.36939-584-7.375 1.90625c-0.554 0.14844-1 0.73896-1 1.3125v9.09375c-0.56177-0.29416-1.28326-0.4131-2.03125-0.21875-1.34976 0.35071-2.19558 1.48415-1.90625 2.53125s1.61899 1.63196 2.96875 1.28125c1.07683-0.2798 1.81912-1.07145 1.9375-1.90625l0.0312-8.59375 7-1.875v6.78125c-0.56177-0.29416-1.28326-0.4131-2.03125-0.21875-1.34976 0.35071-2.19558 1.48415-1.90625 2.53125s1.61899 1.63196 2.96875 1.28125c1.07683-0.2798 1.81912-1.07145 1.9375-1.90625l0.0312-11.1875c0-0.43016-0.26584-0.75199-0.625-0.8125z" class="ColorScheme-Text" fill="currentColor"/>
    </g>
</svg>
