<svg version="1.1" viewBox="0 0 16.003796 16.0037" xmlns="http://www.w3.org/2000/svg">
  <defs>
   <style id="current-color-scheme" type="text/css">
   .ColorScheme-Text { color:#5c616c; } .ColorScheme-Highlight { color:#5294e2; }
  </style>
 </defs>
    <g transform="translate(-772.99828,584)">
        <path d="m782.93958-583.99625c-0.0645 8e-3 -0.12753 0.0279-0.1875 0.0625l-5.0625 2.9375h3.96875l0.8125-0.46875 0.28125 0.46875h2.28125l-1.59375-2.75c-0.10388-0.17992-0.30663-0.27423-0.5-0.25zm-6.9375 3.96875-2.75 1.59375c-0.23989 0.1385-0.326 0.44761-0.1875 0.6875l2.9375 5.0625v-3.96875l-0.46875-0.8125 0.46875-0.28125v-2.28125zm1.5 0.0312c-0.277 0-0.5 0.223-0.5 0.5v11c0 0.277 0.223 0.5 0.5 0.5h11c0.277 0 0.5-0.223 0.5-0.5v-11c0-0.277-0.223-0.5-0.5-0.5h-11zm1.5 2h8v7h-8v-7z" class="ColorScheme-Text" fill="currentColor"/>
    </g>
</svg>
