<svg version="1.1" viewBox="0 0 16.000002 16" xmlns="http://www.w3.org/2000/svg">
  <defs>
   <style id="current-color-scheme" type="text/css">
   .ColorScheme-Text { color:#5c616c; } .ColorScheme-Highlight { color:#5294e2; }
  </style>
 </defs>
    <g transform="translate(-753.0004,604)" class="ColorScheme-Text" fill="currentColor">
        <path d="m759.0004-592v2h-5.53125c-0.26299 0-0.46875 0.2057-0.46875 0.4688v1.0624c0 0.263 0.20576 0.4688 0.46875 0.4688h13.0625c0.26299 0 0.46875-0.2058 0.46875-0.4688v-1.0624c0-0.263-0.20575-0.4688-0.46875-0.4688h-5.53125v-2z"/>
        <g>
            <path d="m757-604c-1.0907 0-2 0.9093-2 2v8c0 1.0907 0.9093 2 2 2h6c1.0907 0 2-0.9093 2-2v-8c0-1.0907-0.9093-2-2-2h-6zm0 2h6v8h-6v-8z" style="block-progression:tb;text-indent:0;text-transform:none"/>
            <rect x="758.00043" y="-601" width="4.0000014" height="1"/>
            <rect x="761.00043" y="-599" width=".99999839" height="1"/>
        </g>
    </g>
</svg>
