<?xml version="1.0" encoding="UTF-8" standalone="no"?>
<!-- Created with Inkscape (http://www.inkscape.org/) -->

<svg
   xmlns:dc="http://purl.org/dc/elements/1.1/"
   xmlns:cc="http://creativecommons.org/ns#"
   xmlns:rdf="http://www.w3.org/1999/02/22-rdf-syntax-ns#"
   xmlns:svg="http://www.w3.org/2000/svg"
   xmlns="http://www.w3.org/2000/svg"
   xmlns:xlink="http://www.w3.org/1999/xlink"
   xmlns:sodipodi="http://sodipodi.sourceforge.net/DTD/sodipodi-0.dtd"
   xmlns:inkscape="http://www.inkscape.org/namespaces/inkscape"
   width="32"
   version="1.1"
   height="32"
   id="svg26"
   sodipodi:docname="apport.svg"
   inkscape:version="0.92.3 (2405546, 2018-03-11)">
  <sodipodi:namedview
     pagecolor="#ffffff"
     bordercolor="#666666"
     borderopacity="1"
     objecttolerance="10"
     gridtolerance="10"
     guidetolerance="10"
     inkscape:pageopacity="0"
     inkscape:pageshadow="2"
     inkscape:window-width="1366"
     inkscape:window-height="701"
     id="namedview28"
     showgrid="false"
     inkscape:zoom="15.999999"
     inkscape:cx="22.554537"
     inkscape:cy="16.325713"
     inkscape:window-x="0"
     inkscape:window-y="0"
     inkscape:window-maximized="1"
     inkscape:current-layer="layer1" />
  <defs
     id="defs5455">
    <linearGradient
       id="linearGradient3052">
      <stop
         style="stop-color:#555753"
         id="stop3054" />
      <stop
         offset="1"
         style="stop-color:#2e3436"
         id="stop3056" />
    </linearGradient>
    <radialGradient
       cx="25.641"
       cy="3.6836"
       r="17.995"
       xlink:href="#linearGradient3052"
       id="radialGradient3082"
       gradientUnits="userSpaceOnUse"
       gradientTransform="matrix(0.63967865,-4.3571457e-7,0,0.27982525,386.11187,529.16409)" />
    <linearGradient
       x1="52.241066"
       y1="0"
       x2="52.241066"
       y2="104.13264"
       id="linearGradient851"
       gradientTransform="matrix(0.81353623,0,0,1.2292016,170.84746,-0.54237288)"
       gradientUnits="userSpaceOnUse">
      <stop
         style="stop-color:#006aff;stop-opacity:0.94117647"
         stop-color="#42BAE9"
         offset="0%"
         id="stop847" />
      <stop
         style="stop-color:#004ce1;stop-opacity:1"
         stop-color="#1F84CE"
         offset="100%"
         id="stop849" />
    </linearGradient>
    <linearGradient
       gradientUnits="userSpaceOnUse"
       gradientTransform="matrix(0.66667,0,0,0.63518,128.19,198.52)"
       y2="502.66"
       y1="543.79999"
       x2="0"
       id="f">
      <stop
         id="stop2"
         offset="0"
         stop-color="#c6cdd1"
         style="stop-color:#e5e5e5;stop-opacity:1" />
      <stop
         id="stop4"
         offset="1"
         stop-color="#e0e5e7"
         style="stop-color:#eeeeee;stop-opacity:1" />
    </linearGradient>
    <linearGradient
       gradientUnits="userSpaceOnUse"
       gradientTransform="matrix(0.66667,0,0,0.63518,128.19,198.52)"
       y2="502.66"
       y1="543.79999"
       x2="0"
       id="f-6">
      <stop
         id="stop2-7"
         offset="0"
         stop-color="#c6cdd1"
         style="stop-color:#e5e5e5;stop-opacity:1" />
      <stop
         id="stop4-5"
         offset="1"
         stop-color="#e0e5e7"
         style="stop-color:#eeeeee;stop-opacity:1" />
    </linearGradient>
    <linearGradient
       inkscape:collect="always"
       xlink:href="#linearGradient4560-1"
       id="linearGradient4562"
       x1="416.57001"
       y1="517.79999"
       x2="416.57001"
       y2="521.79999"
       gradientUnits="userSpaceOnUse"
       gradientTransform="matrix(0.12499999,0,0,1,336.49876,0)" />
    <linearGradient
       inkscape:collect="always"
       id="linearGradient4560-1">
      <stop
         style="stop-color:#eeeeee;stop-opacity:1"
         offset="0"
         id="stop4556" />
      <stop
         style="stop-color:#e5e5e5;stop-opacity:1"
         offset="1"
         id="stop4558" />
    </linearGradient>
  </defs>
  <metadata
     id="metadata5458">
    <rdf:RDF>
      <cc:Work
         rdf:about="">
        <dc:format>image/svg+xml</dc:format>
        <dc:type
           rdf:resource="http://purl.org/dc/dcmitype/StillImage" />
      </cc:Work>
    </rdf:RDF>
  </metadata>
  <g
     inkscape:label="Capa 1"
     inkscape:groupmode="layer"
     id="layer1"
     transform="translate(-384.57143,-515.798)">
    <rect
       style="fill:#e5e5e5;fill-opacity:1;stroke-width:0.99999982"
       id="rect24"
       rx="0"
       height="28"
       width="31.999989"
       y="517.79797"
       x="384.57144" />
    <g
       id="g915"
       transform="matrix(0.69614782,0,0,0.69614782,143.67051,160.04684)">
      <path
         sodipodi:nodetypes="ccccsccsssccccccccccscsscsccccccccc"
         inkscape:connector-curvature="0"
         id="path853-3"
         d="m 354.35282,549.76776 c -0.52495,-0.10946 -0.99928,-0.44553 -1.21825,-0.86311 -0.14478,-0.27608 -0.18964,-0.49016 -0.1684,-0.80358 0.0305,-0.45061 -0.0765,-0.2621 2.09819,-3.69458 0.44803,-0.70714 0.95668,-1.51182 1.13033,-1.78818 0.17366,-0.27636 0.70316,-1.11429 1.17667,-1.86207 0.47352,-0.74778 1.12587,-1.77856 1.44967,-2.29064 1.24541,-1.96951 1.77404,-2.80458 2.51653,-3.97537 0.42269,-0.66651 0.91036,-1.43793 1.08372,-1.71429 0.17335,-0.27635 0.55672,-0.88152 0.85194,-1.34482 0.29521,-0.4633 0.56037,-0.88227 0.58925,-0.93104 0.0289,-0.0488 0.33134,-0.52758 0.67214,-1.06404 0.34081,-0.53645 0.90993,-1.43424 1.26473,-1.99507 1.78849,-2.82716 1.80838,-2.85721 2.01022,-3.03735 0.22277,-0.1988 0.56461,-0.3689 0.84789,-0.42192 0.26824,-0.0502 0.71514,-0.0228 0.9674,0.0593 0.25596,0.0833 0.58003,0.28815 0.75118,0.4748 0.10136,0.11047 1.75123,2.64688 1.93117,2.96876 0.0184,0.033 0.38939,0.61849 0.82439,1.30124 0.435,0.68277 1.11121,1.7468 1.5027,2.36454 0.39147,0.61774 0.99503,1.56872 1.34122,2.1133 0.3462,0.54458 0.65693,1.0367 0.69052,1.09359 0.0336,0.0569 0.29903,0.47586 0.58988,0.93104 0.29084,0.45517 0.67035,1.0537 0.84334,1.33005 0.17299,0.27636 0.6814,1.08104 1.1298,1.78818 0.4484,0.70714 0.97837,1.54507 1.17771,1.86207 0.19934,0.31699 0.72885,1.15492 1.17666,1.86206 0.99942,1.57815 2.15757,3.41246 2.23007,3.53203 0.0296,0.0488 0.29932,0.47976 0.59943,0.95776 0.31623,0.50363 0.57526,0.95106 0.61602,1.06403 0.093,0.25784 0.0998,0.76389 0.0135,1.00167 -0.20765,0.57175 -0.65195,0.94691 -1.28081,1.08152 -0.20363,0.0435 -1.48095,0.0475 -14.71601,0.0448 -12.34539,-0.002 -14.52262,-0.009 -14.69277,-0.0447 z"
         style="fill:#fedd00;fill-opacity:1;stroke-width:0.03026048" />
      <path
         inkscape:connector-curvature="0"
         id="path853"
         d="m 354.35279,549.7678 c -0.52495,-0.10946 -0.99928,-0.44554 -1.21825,-0.86311 -0.14478,-0.27609 -0.18965,-0.49017 -0.16841,-0.80359 0.0305,-0.45061 -0.0765,-0.26209 2.0982,-3.69458 0.44803,-0.70714 0.95667,-1.51182 1.13033,-1.78818 0.17365,-0.27635 0.70316,-1.11429 1.17667,-1.86206 0.47351,-0.74779 1.12587,-1.77857 1.44966,-2.29065 1.24541,-1.9695 1.77405,-2.80458 2.51654,-3.97537 0.42268,-0.6665 0.91036,-1.43793 1.08371,-1.71428 0.17335,-0.27636 0.55673,-0.88153 0.85194,-1.34483 0.29521,-0.46329 0.56038,-0.88227 0.58925,-0.93104 0.0289,-0.0488 0.33135,-0.52758 0.67215,-1.06403 0.3408,-0.53646 0.90993,-1.43424 1.26472,-1.99508 1.78849,-2.82716 1.80838,-2.8572 2.01023,-3.03735 0.22276,-0.1988 0.5646,-0.3689 0.84789,-0.42192 0.26823,-0.0502 0.71514,-0.0228 0.9674,0.0593 0.25596,0.0833 0.58003,0.28814 0.75117,0.47479 0.10137,0.11048 1.75123,2.64688 1.93118,2.96876 0.0185,0.033 0.38938,0.6185 0.82439,1.30125 0.435,0.68276 1.1112,1.7468 1.50269,2.36453 0.39148,0.61774 0.99503,1.56873 1.34123,2.1133 0.34619,0.54458 0.65693,1.0367 0.69051,1.09359 0.0336,0.0569 0.29904,0.47587 0.58988,0.93104 0.29085,0.45518 0.67036,1.0537 0.84335,1.33006 0.17299,0.27635 0.6814,1.08103 1.12979,1.78817 0.4484,0.70714 0.97838,1.54508 1.17772,1.86207 0.19934,0.31699 0.72884,1.15492 1.17666,1.86207 0.99942,1.57815 2.15757,3.41246 2.23006,3.53202 0.0296,0.0488 0.29932,0.47976 0.59944,0.95776 0.31622,0.50363 0.57526,0.95106 0.61601,1.06404 0.093,0.25784 0.0998,0.76388 0.0135,1.00166 -0.20765,0.57175 -0.65194,0.94692 -1.28081,1.08152 -0.20362,0.0435 -1.48095,0.0475 -14.716,0.0448 -12.34539,-0.002 -14.52262,-0.009 -14.69277,-0.0447 z m 29.29479,-0.43669 c 0.39586,-0.0811 0.69462,-0.29789 0.86479,-0.62758 0.0822,-0.15945 0.0898,-0.20081 0.0905,-0.49898 6.5e-4,-0.28958 -0.008,-0.34128 -0.0774,-0.4729 -0.11919,-0.22546 -0.26401,-0.46556 -0.53053,-0.87959 -0.13351,-0.20742 -0.24275,-0.38362 -0.24275,-0.39156 0,-0.008 -0.20944,-0.34364 -0.46543,-0.74602 -0.25599,-0.40238 -0.47741,-0.75156 -0.49204,-0.77594 -0.0816,-0.13577 -1.84935,-2.9313 -2.82233,-4.46305 -0.34591,-0.54458 -0.66405,-1.05001 -0.70698,-1.12316 -0.0429,-0.0731 -0.34054,-0.54237 -0.66138,-1.0427 -0.32083,-0.50033 -0.58334,-0.91428 -0.58334,-0.91988 0,-0.006 -0.2641,-0.42361 -0.58689,-0.92892 -0.3228,-0.50531 -0.62039,-0.97585 -0.66133,-1.04565 -0.041,-0.0697 -0.3833,-0.60974 -0.76078,-1.19989 -0.3775,-0.59015 -0.68636,-1.07948 -0.68636,-1.0874 0,-0.008 -0.0262,-0.0504 -0.0583,-0.0945 -0.0657,-0.0902 -1.45132,-2.26955 -1.54493,-2.42983 -0.0332,-0.0569 -0.34552,-0.54902 -0.69399,-1.0936 -0.34846,-0.54458 -0.64345,-1.0101 -0.65554,-1.03449 -0.012,-0.0244 -0.0476,-0.0843 -0.079,-0.133 -0.0314,-0.0487 -0.42174,-0.66059 -0.86758,-1.3596 -0.44584,-0.69902 -0.82375,-1.29089 -0.8398,-1.31527 -0.0161,-0.0244 -0.12165,-0.19415 -0.23465,-0.37727 -0.27435,-0.44451 -0.4531,-0.62719 -0.75128,-0.76778 -0.22961,-0.10822 -0.24442,-0.11115 -0.57805,-0.11081 -0.32277,2.7e-4 -0.35393,0.006 -0.54376,0.0953 -0.27774,0.131 -0.48343,0.32772 -0.65722,0.62859 -0.0423,0.0731 -0.35285,0.56527 -0.69023,1.0936 -0.33738,0.52832 -0.64609,1.0161 -0.68603,1.08396 -0.0399,0.0678 -0.33764,0.53818 -0.66156,1.04516 -0.32394,0.50699 -0.58896,0.92598 -0.58896,0.93108 0,0.006 -0.28411,0.45339 -0.63136,0.99619 -0.34726,0.5428 -0.65436,1.02593 -0.68245,1.07363 -0.12897,0.21895 -1.2452,1.97994 -1.32351,2.08799 -0.0319,0.044 -0.058,0.0869 -0.058,0.0952 0,0.008 -0.26251,0.4245 -0.58334,0.92484 -0.32083,0.50034 -0.61846,0.96956 -0.66138,1.04271 -0.043,0.0731 -0.36106,0.57857 -0.70698,1.12315 -1.05887,1.66698 -1.75091,2.76098 -1.93214,3.05441 -0.0317,0.0513 -0.27718,0.43919 -0.5455,0.86185 -0.2683,0.42266 -0.75644,1.19408 -1.08472,1.71428 -0.3283,0.5202 -0.62306,0.98186 -0.65502,1.0259 -0.0319,0.0441 -0.0581,0.0866 -0.0581,0.0946 0,0.008 -0.26489,0.42918 -0.58865,0.936 -0.32375,0.50681 -0.58863,0.92581 -0.58863,0.93112 0,0.006 -0.23214,0.37269 -0.51588,0.81643 -0.28373,0.44373 -0.55042,0.86663 -0.59265,0.93979 -0.0422,0.0731 -0.0958,0.154 -0.11924,0.17966 -0.0234,0.0256 -0.0424,0.0553 -0.0424,0.0659 0,0.0101 -0.0528,0.10271 -0.11718,0.20457 -0.24072,0.38053 -0.31852,0.66474 -0.25502,0.93159 0.11398,0.47897 0.49068,0.83243 0.9996,0.9379 0.28361,0.0588 28.90907,0.0625 29.19571,0.003 z"
         style="fill:#000000;fill-opacity:1;stroke:none;stroke-width:0.80801803;stroke-linecap:square;stroke-linejoin:round;stroke-miterlimit:4;stroke-dasharray:none;stroke-opacity:1"
         sodipodi:nodetypes="ccccsccsssccccccccccscsscsccccccccccccccsccccsscccscccccccccccccccssccscccccccssscccsccccc" />
      <path
         inkscape:connector-curvature="0"
         id="path853-6"
         d="m 368.64892,546.86116 c -0.53171,-0.12336 -0.94216,-0.56976 -1.01112,-1.09971 -0.0635,-0.48803 0.0769,-0.91377 0.40476,-1.22647 0.29056,-0.27718 0.56655,-0.3808 1.01569,-0.3813 0.6283,-7e-4 1.08573,0.30253 1.30533,0.86532 0.0956,0.24507 0.0957,0.77188 2.2e-4,1.01749 -0.25105,0.64551 -0.97874,0.99545 -1.71488,0.82467 z m -0.39499,-4.79618 c -0.0298,-0.008 -0.0605,-0.0434 -0.0682,-0.0788 -0.008,-0.0354 -0.0211,-0.45671 -0.0298,-0.93626 -0.0152,-0.83985 -0.0399,-1.75737 -0.11025,-4.0936 -0.14242,-4.7315 -0.19087,-6.76165 -0.16199,-6.78919 0.0141,-0.0134 0.52657,-0.0209 1.13892,-0.0167 l 1.11338,0.008 -10e-4,0.19211 c -8.9e-4,0.10564 -0.0184,0.7973 -0.039,1.53696 -0.0838,3.01197 -0.10125,3.63873 -0.13104,4.6995 -0.0171,0.60961 -0.0446,1.60714 -0.0609,2.21675 -0.0163,0.6096 -0.0426,1.58489 -0.0585,2.1673 -0.0158,0.58241 -0.038,1.06787 -0.0495,1.07882 -0.024,0.0228 -1.45973,0.0371 -1.54154,0.0153 z"
         style="fill:#000000;fill-opacity:1;stroke-width:0.03026048"
         sodipodi:nodetypes="cccccccccccccccccscccc" />
    </g>
    <g
       id="g853"
       transform="matrix(8.0000031,0,0,1,-2691.9898,-0.00201416)">
      <rect
         style="fill:url(#linearGradient4562);fill-opacity:1;stroke-width:0.35355338"
         id="rect28"
         height="4"
         width="4"
         y="517.79999"
         x="384.57001" />
    </g>
    <g
       transform="translate(0.00141425,-0.00201416)"
       id="g853-7-9-8-6"
       style="stroke:#000000;stroke-opacity:1">
      <path
         style="fill:none;fill-opacity:1;fill-rule:evenodd;stroke:#000000;stroke-width:2.17859364;stroke-linecap:butt;stroke-linejoin:miter;stroke-miterlimit:4;stroke-dasharray:none;stroke-opacity:1"
         d="M 25.229751,14.770249 14.770249,25.229751 v 0"
         id="path4522-35-6-0-9"
         inkscape:connector-curvature="0"
         transform="matrix(0.16666666,0,0,0.16666666,411.23667,516.46667)" />
      <path
         style="fill:none;fill-opacity:1;fill-rule:evenodd;stroke:#000000;stroke-width:2.17859364;stroke-linecap:butt;stroke-linejoin:miter;stroke-miterlimit:4;stroke-dasharray:none;stroke-opacity:1"
         d="m 14.770249,14.770249 10.459502,10.459502 v 0"
         id="path4522-3-6-0-3-3"
         inkscape:connector-curvature="0"
         transform="matrix(0.16666666,0,0,0.16666666,411.23667,516.46667)" />
      <rect
         style="opacity:1;fill:none;fill-opacity:1;stroke:#000000;stroke-width:0.32941002;stroke-miterlimit:4;stroke-dasharray:none;stroke-opacity:1"
         id="rect817-2-6-6-7"
         width="1.67059"
         height="1.67059"
         x="410.5347"
         y="518.96472" />
      <path
         style="fill:none;fill-rule:evenodd;stroke:#000000;stroke-width:0.33333537;stroke-linecap:butt;stroke-linejoin:miter;stroke-miterlimit:4;stroke-dasharray:none;stroke-opacity:1"
         d="m 407.17,519.96633 1.99999,-10e-6"
         id="path817-9-2-1-4"
         inkscape:connector-curvature="0"
         sodipodi:nodetypes="cc" />
    </g>
  </g>
</svg>
