<?xml version="1.0" encoding="UTF-8" standalone="no"?>
<!-- Created with Inkscape (http://www.inkscape.org/) -->

<svg
   xmlns:dc="http://purl.org/dc/elements/1.1/"
   xmlns:cc="http://creativecommons.org/ns#"
   xmlns:rdf="http://www.w3.org/1999/02/22-rdf-syntax-ns#"
   xmlns:svg="http://www.w3.org/2000/svg"
   xmlns="http://www.w3.org/2000/svg"
   xmlns:sodipodi="http://sodipodi.sourceforge.net/DTD/sodipodi-0.dtd"
   xmlns:inkscape="http://www.inkscape.org/namespaces/inkscape"
   width="32"
   version="1.1"
   height="32"
   id="svg2"
   inkscape:version="0.92.3 (2405546, 2018-03-11)"
   sodipodi:docname="preferences-desktop-screensaver.svg">
  <sodipodi:namedview
     pagecolor="#ffffff"
     bordercolor="#666666"
     borderopacity="1"
     objecttolerance="10"
     gridtolerance="10"
     guidetolerance="10"
     inkscape:pageopacity="0"
     inkscape:pageshadow="2"
     inkscape:window-width="1366"
     inkscape:window-height="701"
     id="namedview61"
     showgrid="false"
     inkscape:zoom="10.429825"
     inkscape:cx="8.1426797"
     inkscape:cy="14.311331"
     inkscape:window-x="0"
     inkscape:window-y="0"
     inkscape:window-maximized="1"
     inkscape:current-layer="Group" />
  <defs
     id="defs5455">
    <linearGradient
       x1="105.52725"
       y1="0"
       x2="0"
       y2="105.52725"
       id="linearGradient-1"
       gradientTransform="scale(1.2129569,0.82443162)"
       gradientUnits="userSpaceOnUse">
      <stop
         stop-color="#B369F1"
         offset="0%"
         id="stop6" />
      <stop
         stop-color="#8F35D2"
         offset="100%"
         id="stop8" />
    </linearGradient>
  </defs>
  <metadata
     id="metadata5458">
    <rdf:RDF>
      <cc:Work
         rdf:about="">
        <dc:format>image/svg+xml</dc:format>
        <dc:type
           rdf:resource="http://purl.org/dc/dcmitype/StillImage" />
      </cc:Work>
    </rdf:RDF>
  </metadata>
  <g
     inkscape:label="Capa 1"
     inkscape:groupmode="layer"
     id="layer1"
     transform="translate(-384.57143,-515.798)">
    <g
       id="cs-screensaver"
       style="fill:none;fill-rule:evenodd;stroke:none;stroke-width:1"
       transform="matrix(0.25,0,0,0.25,384.57143,515.79804)">
      <g
         id="Group"
         transform="translate(0,21)">
        <g
           id="cs-screensaver-7"
           transform="translate(0,-21.50016)"
           style="fill:none;fill-rule:evenodd;stroke:none;stroke-width:1">
          <g
             id="Group-5"
             transform="translate(0,21)">
            <polygon
               id="Path"
               points="0,87 0,0 128,0 128,87 "
               style="fill:url(#linearGradient-1)" />
            <path
               d="M 65.5,29 C 59.159044,29 54,34.274623 54,40.758154 c 0,3.2155 1.307075,6.32455 3.588969,8.537101 V 59.91138 C 57.588969,64.371426 61.137876,68 65.5,68 c 4.362124,0 7.911031,-3.628574 7.911031,-8.08862 V 49.295255 C 75.692019,47.084092 77,43.974349 77,40.758154 77,34.274623 71.841183,29 65.5,29 Z m 4.069474,16.17238 c -1.097943,1.057794 -1.727602,2.536299 -1.727602,4.05669 v 10.68231 c 0,1.320218 -1.050187,2.39398 -2.341419,2.39398 -1.291232,0 -2.341419,-1.073762 -2.341419,-2.39398 V 49.22907 c 0,-1.520391 -0.62966,-2.999127 -1.726924,-4.055996 -1.200473,-1.157765 -1.861819,-2.725596 -1.861819,-4.41492 0,-3.34324 2.660549,-6.063514 5.930388,-6.063514 3.269839,0 5.930388,2.720274 5.930388,6.063514 -6.79e-4,1.689324 -0.662026,3.257155 -1.861593,4.414226 z"
               id="Shape"
               inkscape:connector-curvature="0"
               style="fill:#7d36b6;fill-rule:nonzero" />
            <path
               d="M 63.5,27 C 57.159044,27 52,32.274623 52,38.758154 c 0,3.2155 1.307075,6.32455 3.588969,8.537101 V 57.91138 C 55.588969,62.371426 59.137876,66 63.5,66 c 4.362124,0 7.911031,-3.628574 7.911031,-8.08862 V 47.295255 C 73.692019,45.084092 75,41.974349 75,38.758154 75,32.274623 69.841183,27 63.5,27 Z m 4.069474,16.17238 c -1.097943,1.057794 -1.727602,2.536299 -1.727602,4.05669 v 10.68231 c 0,1.320218 -1.050187,2.39398 -2.341419,2.39398 -1.291232,0 -2.341419,-1.073762 -2.341419,-2.39398 V 47.22907 c 0,-1.520391 -0.62966,-2.999127 -1.726924,-4.055996 -1.200473,-1.157765 -1.861819,-2.725596 -1.861819,-4.41492 0,-3.34324 2.660549,-6.063514 5.930388,-6.063514 3.269839,0 5.930388,2.720274 5.930388,6.063514 -6.79e-4,1.689324 -0.662026,3.257155 -1.861593,4.414226 z"
               id="path15"
               inkscape:connector-curvature="0"
               style="fill:#ffffff;fill-rule:nonzero" />
          </g>
        </g>
      </g>
    </g>
  </g>
</svg>
