<?xml version="1.0" encoding="UTF-8" standalone="no"?>
<!-- Created with Inkscape (http://www.inkscape.org/) -->

<svg
   xmlns:dc="http://purl.org/dc/elements/1.1/"
   xmlns:cc="http://creativecommons.org/ns#"
   xmlns:rdf="http://www.w3.org/1999/02/22-rdf-syntax-ns#"
   xmlns:svg="http://www.w3.org/2000/svg"
   xmlns="http://www.w3.org/2000/svg"
   xmlns:sodipodi="http://sodipodi.sourceforge.net/DTD/sodipodi-0.dtd"
   xmlns:inkscape="http://www.inkscape.org/namespaces/inkscape"
   id="svg2"
   version="1.1"
   inkscape:version="0.91 r13725"
   width="16"
   height="16"
   viewBox="0 0 16 16"
   sodipodi:docname="audio-volume-medium.svg">
  <metadata
     id="metadata8">
    <rdf:RDF>
      <cc:Work
         rdf:about="">
        <dc:format>image/svg+xml</dc:format>
        <dc:type
           rdf:resource="http://purl.org/dc/dcmitype/StillImage" />
        <dc:title></dc:title>
      </cc:Work>
    </rdf:RDF>
  </metadata>
  <defs
     id="defs6" />
  <sodipodi:namedview
     pagecolor="#4c0e3e"
     bordercolor="#666666"
     borderopacity="1"
     objecttolerance="10"
     gridtolerance="10"
     guidetolerance="10"
     inkscape:pageopacity="1"
     inkscape:pageshadow="2"
     inkscape:window-width="1366"
     inkscape:window-height="703"
     id="namedview4"
     showgrid="false"
     inkscape:zoom="11.866823"
     inkscape:cx="15.284181"
     inkscape:cy="6.5956838"
     inkscape:window-x="0"
     inkscape:window-y="0"
     inkscape:window-maximized="1"
     inkscape:current-layer="svg2" />
  <path
     style="fill:#bebebe;fill-opacity:1"
     d="M 7.6259197,14.479729 C 7.5536471,14.430685 7.240556,14.169612 6.9301609,13.89957 6.6197653,13.629526 6.1022967,13.180994 5.7802313,12.902833 5.4581651,12.62467 4.833173,12.08297 4.3913595,11.699058 L 3.5880619,11.001033 1.7940311,10.999833 0,10.998633 0,8.0532085 0,5.1077842 l 1.8121447,0 1.8121451,0 0.2162058,-0.1874364 C 3.9594085,4.8173293 4.6329209,4.2349386 5.3371884,3.6262183 6.0414568,3.0174962 6.8357053,2.3289671 7.1021868,2.0961531 7.3686682,1.8633403 7.6383962,1.6504653 7.7015835,1.6231001 c 0.1506714,-0.06525 0.5219584,-0.063812 0.6502293,0.00251 0.1398684,0.07233 0.2783166,0.2459288 0.3222291,0.4040408 0.047215,0.1699877 0.050208,11.8513711 0.00308,12.0545151 -0.039466,0.170161 -0.1298335,0.2976 -0.2867725,0.404412 -0.1767227,0.120277 -0.5810619,0.115596 -0.7644391,-0.0088 z m 3.8917343,-1.518794 c -0.133849,-0.04005 -0.302855,-0.200005 -0.365141,-0.345579 -0.06609,-0.154471 -0.06244,-0.487776 0.0068,-0.621716 0.03079,-0.05955 0.13524,-0.226239 0.2321,-0.370423 0.519357,-0.773103 0.864633,-1.6816367 1.01707,-2.6762375 0.0462,-0.3015529 0.05579,-0.5354457 0.04163,-1.0175104 -0.03653,-1.2461014 -0.373459,-2.3103581 -1.06278,-3.3571596 -0.122847,-0.1865424 -0.245024,-0.3908671 -0.271512,-0.454056 -0.13887,-0.3312801 0.0385,-0.7800132 0.355815,-0.9002456 0.17661,-0.066913 0.490899,-0.045699 0.648934,0.043806 0.315775,0.1788395 1.013898,1.4187302 1.311933,2.3300418 0.288507,0.8821734 0.384222,1.5123288 0.384222,2.5295828 0,1.2893294 -0.244771,2.3702195 -0.784962,3.4663385 -0.215089,0.436451 -0.646619,1.128723 -0.772509,1.239287 -0.172921,0.15187 -0.490106,0.209131 -0.74159,0.133874 z M 9.8321982,11.281412 c -0.244386,-0.07091 -0.4068418,-0.332428 -0.4068418,-0.654945 0,-0.169443 0.028983,-0.252345 0.2138088,-0.611717 C 10.310234,8.7099754 10.308824,7.4727233 9.6348652,6.1864223 9.4061811,5.7500409 9.3601016,5.5645407 9.4226543,5.3322329 9.5063335,5.0214846 9.7351322,4.8579263 10.086161,4.8579263 c 0.376133,0 0.532715,0.1398527 0.838531,0.7489385 0.204994,0.4082813 0.375009,0.8885252 0.471018,1.3304884 0.06804,0.3132365 0.07976,0.4771276 0.08105,1.1337625 0.0016,0.8570371 -0.02743,1.0810579 -0.220489,1.6958514 -0.139902,0.4455469 -0.455216,1.1255599 -0.603775,1.3021079 -0.182044,0.21635 -0.512014,0.301766 -0.8202578,0.212337 z"
     id="path4138"
     inkscape:connector-curvature="0" />
</svg>
