<?xml version="1.0" encoding="UTF-8" standalone="no"?>
<!-- Created with Inkscape (http://www.inkscape.org/) -->

<svg
   xmlns:dc="http://purl.org/dc/elements/1.1/"
   xmlns:cc="http://creativecommons.org/ns#"
   xmlns:rdf="http://www.w3.org/1999/02/22-rdf-syntax-ns#"
   xmlns:svg="http://www.w3.org/2000/svg"
   xmlns="http://www.w3.org/2000/svg"
   xmlns:sodipodi="http://sodipodi.sourceforge.net/DTD/sodipodi-0.dtd"
   xmlns:inkscape="http://www.inkscape.org/namespaces/inkscape"
   id="svg3216"
   version="1.1"
   inkscape:version="0.91 r13725"
   width="16"
   height="16"
   sodipodi:docname="audio-volume-low.svg">
  <metadata
     id="metadata3222">
    <rdf:RDF>
      <cc:Work
         rdf:about="">
        <dc:format>image/svg+xml</dc:format>
        <dc:type
           rdf:resource="http://purl.org/dc/dcmitype/StillImage" />
        <dc:title></dc:title>
      </cc:Work>
    </rdf:RDF>
  </metadata>
  <defs
     id="defs3220" />
  <sodipodi:namedview
     pagecolor="#ffffff"
     bordercolor="#666666"
     borderopacity="1"
     objecttolerance="10"
     gridtolerance="10"
     guidetolerance="10"
     inkscape:pageopacity="0"
     inkscape:pageshadow="2"
     inkscape:window-width="1366"
     inkscape:window-height="703"
     id="namedview3218"
     showgrid="false"
     inkscape:zoom="32.25"
     inkscape:cx="8"
     inkscape:cy="8"
     inkscape:window-x="0"
     inkscape:window-y="0"
     inkscape:window-maximized="1"
     inkscape:current-layer="svg3216" />
  <path
     style="fill:#bebebe;fill-opacity:1"
     d="M 7.625919,14.479809 C 7.553649,14.430769 7.240557,14.169692 6.930161,13.89965 6.619766,13.629607 6.102297,13.181075 5.780231,12.902914 5.458165,12.624751 4.833173,12.083052 4.39136,11.699139 L 3.588062,11.001112 1.794031,10.999912 0,10.998712 0,8.0532868 l 0,-2.945424 1.812145,0 1.812145,0 0.216206,-0.187436 c 0.118913,-0.10309 0.792425,-0.68548 1.496693,-1.294201 0.704268,-0.608721 1.498516,-1.29725 1.764998,-1.530064 0.266481,-0.232814 0.53621,-0.445688 0.599397,-0.473053 0.150671,-0.06525 0.521958,-0.06382 0.65023,0.0025 0.139867,0.07233 0.278316,0.245928 0.322228,0.404039 0.04721,0.169988 0.0502,11.8513732 0.0031,12.0545172 -0.03946,0.170161 -0.129833,0.2976 -0.286772,0.404412 -0.176724,0.120277 -0.581063,0.1156 -0.76444,-0.0088 z m 2.2062796,-3.198317 c -0.244387,-0.0709 -0.406842,-0.332427 -0.406842,-0.654945 0,-0.169443 0.02898,-0.252345 0.213807,-0.611717 0.6710694,-1.3047737 0.6696604,-2.5420262 -0.0044,-3.8283272 -0.228663,-0.436384 -0.274744,-0.621882 -0.21219,-0.85419 0.08368,-0.310748 0.312478,-0.474306 0.6635064,-0.474306 0.376132,0 0.532713,0.139851 0.83853,0.748937 0.204995,0.408282 0.37501,0.888526 0.471018,1.33049 0.06805,0.313237 0.07976,0.477125 0.08105,1.133762 0.0017,0.8570375 -0.02744,1.0810585 -0.220489,1.6958505 -0.139903,0.4455487 -0.455217,1.1255597 -0.603774,1.3021107 -0.182045,0.216348 -0.512014,0.301765 -0.8202584,0.212335 z"
     id="path4138"
     inkscape:connector-curvature="0" />
</svg>
