<?xml version="1.0" encoding="UTF-8" standalone="no"?>
<!-- Created with Inkscape (http://www.inkscape.org/) -->

<svg
   xmlns:dc="http://purl.org/dc/elements/1.1/"
   xmlns:cc="http://creativecommons.org/ns#"
   xmlns:rdf="http://www.w3.org/1999/02/22-rdf-syntax-ns#"
   xmlns:svg="http://www.w3.org/2000/svg"
   xmlns="http://www.w3.org/2000/svg"
   xmlns:xlink="http://www.w3.org/1999/xlink"
   xmlns:sodipodi="http://sodipodi.sourceforge.net/DTD/sodipodi-0.dtd"
   xmlns:inkscape="http://www.inkscape.org/namespaces/inkscape"
   width="32"
   version="1.1"
   height="32"
   id="svg26"
   sodipodi:docname="apport.svg"
   inkscape:version="0.92.3 (2405546, 2018-03-11)">
  <sodipodi:namedview
     pagecolor="#ffffff"
     bordercolor="#666666"
     borderopacity="1"
     objecttolerance="10"
     gridtolerance="10"
     guidetolerance="10"
     inkscape:pageopacity="0"
     inkscape:pageshadow="2"
     inkscape:window-width="1366"
     inkscape:window-height="701"
     id="namedview28"
     showgrid="false"
     inkscape:zoom="15.999999"
     inkscape:cx="16.420268"
     inkscape:cy="13.825713"
     inkscape:window-x="0"
     inkscape:window-y="0"
     inkscape:window-maximized="1"
     inkscape:current-layer="g915" />
  <defs
     id="defs5455">
    <linearGradient
       inkscape:collect="always"
       id="linearGradient843">
      <stop
         style="stop-color:#e5e5e5;stop-opacity:1"
         offset="0"
         id="stop839" />
      <stop
         style="stop-color:#eeeeee;stop-opacity:1"
         offset="1"
         id="stop841" />
    </linearGradient>
    <linearGradient
       id="linearGradient3052">
      <stop
         style="stop-color:#555753"
         id="stop3054" />
      <stop
         offset="1"
         style="stop-color:#2e3436"
         id="stop3056" />
    </linearGradient>
    <radialGradient
       cx="25.641"
       cy="3.6836"
       r="17.995"
       xlink:href="#linearGradient3052"
       id="radialGradient3082"
       gradientUnits="userSpaceOnUse"
       gradientTransform="matrix(0.63967865,-4.3571457e-7,0,0.27982525,386.11187,529.16409)" />
    <linearGradient
       x1="52.241066"
       y1="0"
       x2="52.241066"
       y2="104.13264"
       id="linearGradient851"
       gradientTransform="matrix(0.81353623,0,0,1.2292016,170.84746,-0.54237288)"
       gradientUnits="userSpaceOnUse">
      <stop
         style="stop-color:#006aff;stop-opacity:0.94117647"
         stop-color="#42BAE9"
         offset="0%"
         id="stop847" />
      <stop
         style="stop-color:#004ce1;stop-opacity:1"
         stop-color="#1F84CE"
         offset="100%"
         id="stop849" />
    </linearGradient>
    <linearGradient
       gradientUnits="userSpaceOnUse"
       gradientTransform="matrix(0.66667,0,0,0.63518,128.19,198.52)"
       y2="502.66"
       y1="543.79999"
       x2="0"
       id="f">
      <stop
         id="stop2"
         offset="0"
         stop-color="#c6cdd1"
         style="stop-color:#e5e5e5;stop-opacity:1" />
      <stop
         id="stop4"
         offset="1"
         stop-color="#e0e5e7"
         style="stop-color:#eeeeee;stop-opacity:1" />
    </linearGradient>
    <linearGradient
       gradientUnits="userSpaceOnUse"
       gradientTransform="matrix(0.66667,0,0,0.63518,128.19,198.52)"
       y2="502.66"
       y1="543.79999"
       x2="0"
       id="f-6">
      <stop
         id="stop2-7"
         offset="0"
         stop-color="#c6cdd1"
         style="stop-color:#e5e5e5;stop-opacity:1" />
      <stop
         id="stop4-5"
         offset="1"
         stop-color="#e0e5e7"
         style="stop-color:#eeeeee;stop-opacity:1" />
    </linearGradient>
    <linearGradient
       inkscape:collect="always"
       xlink:href="#linearGradient843"
       id="linearGradient845"
       x1="375.02548"
       y1="527.64545"
       x2="375.02548"
       y2="516.86206"
       gradientUnits="userSpaceOnUse"
       gradientTransform="matrix(1.35595,0,0,0.74188251,-91.944362,134.34705)" />
  </defs>
  <metadata
     id="metadata5458">
    <rdf:RDF>
      <cc:Work
         rdf:about="">
        <dc:format>image/svg+xml</dc:format>
        <dc:type
           rdf:resource="http://purl.org/dc/dcmitype/StillImage" />
      </cc:Work>
    </rdf:RDF>
  </metadata>
  <g
     inkscape:label="Capa 1"
     inkscape:groupmode="layer"
     id="layer1"
     transform="translate(-384.57143,-515.798)">
    <rect
       style="fill:#e5e5e5;fill-opacity:1;stroke-width:1.00000012"
       id="rect24"
       rx="0"
       height="28"
       width="32.000008"
       y="517.79797"
       x="384.57144" />
    <rect
       style="fill:url(#linearGradient845);fill-opacity:1;stroke:none;stroke-width:1.00297344;stroke-opacity:1"
       id="rect837"
       width="32"
       height="8"
       x="384.57144"
       y="517.79797" />
    <g
       transform="matrix(0.33333207,0,0,0.33333207,405.90274,515.13137)"
       id="g850"
       style="fill:none;fill-opacity:1;fill-rule:nonzero;stroke:#000000;stroke-width:1;stroke-opacity:1">
      <path
         style="fill:none;fill-opacity:1;fill-rule:evenodd;stroke:#000000;stroke-width:2.17859364;stroke-linecap:butt;stroke-linejoin:miter;stroke-miterlimit:4;stroke-dasharray:none;stroke-opacity:1"
         d="M 25.229751,14.770249 14.770249,25.229751 v 0"
         id="path4522"
         inkscape:connector-curvature="0" />
      <path
         style="fill:none;fill-opacity:1;fill-rule:evenodd;stroke:#000000;stroke-width:2.17859364;stroke-linecap:butt;stroke-linejoin:miter;stroke-miterlimit:4;stroke-dasharray:none;stroke-opacity:1"
         d="m 14.770249,14.770249 10.459502,10.459502 v 0"
         id="path4522-3"
         inkscape:connector-curvature="0" />
    </g>
    <rect
       style="opacity:1;fill:none;fill-opacity:1;stroke:#000000;stroke-width:0.65881753;stroke-miterlimit:4;stroke-dasharray:none;stroke-opacity:1"
       id="rect817"
       width="3.3411677"
       height="3.3411677"
       x="404.49884"
       y="520.12744" />
    <path
       style="fill:none;fill-rule:evenodd;stroke:#000000;stroke-width:0.66666818;stroke-linecap:butt;stroke-linejoin:miter;stroke-miterlimit:4;stroke-dasharray:none;stroke-opacity:1"
       d="m 397.76943,522.13065 3.99996,-2e-5"
       id="path817"
       inkscape:connector-curvature="0"
       sodipodi:nodetypes="cc" />
    <g
       id="g915"
       transform="matrix(0.69614782,0,0,0.69614782,144.91359,161.04682)">
      <path
         sodipodi:nodetypes="ccccsccsssccccccccccscsscsccccccccc"
         inkscape:connector-curvature="0"
         id="path853-3"
         d="m 354.19819,549.7728 c -0.46662,-0.0973 -0.88825,-0.39603 -1.08289,-0.76721 -0.12869,-0.24541 -0.16857,-0.4357 -0.14969,-0.7143 0.0271,-0.40054 -0.068,-0.23297 1.86506,-3.28407 0.39825,-0.62857 0.85038,-1.34384 1.00474,-1.58949 0.15436,-0.24565 0.62503,-0.99048 1.04593,-1.65517 0.4209,-0.6647 1.00077,-1.58095 1.28859,-2.03613 1.10703,-1.75067 1.57693,-2.49296 2.23692,-3.53366 0.37572,-0.59245 0.80921,-1.27816 0.9633,-1.52381 0.15409,-0.24565 0.49487,-0.78358 0.75728,-1.1954 0.26241,-0.41182 0.49811,-0.78424 0.52378,-0.82759 0.0257,-0.0434 0.29453,-0.46896 0.59746,-0.94581 0.30294,-0.47685 0.80883,-1.27488 1.1242,-1.7734 1.58977,-2.51303 1.60745,-2.53974 1.78687,-2.69987 0.19801,-0.17671 0.50187,-0.32791 0.75368,-0.37504 0.23843,-0.0446 0.63568,-0.0203 0.85991,0.0527 0.22752,0.074 0.51558,0.25613 0.66771,0.42204 0.0901,0.0982 1.55665,2.35278 1.7166,2.6389 0.0164,0.0293 0.34612,0.54977 0.73279,1.15666 0.38667,0.6069 0.98774,1.55271 1.33573,2.10181 0.34798,0.5491 0.88447,1.39442 1.1922,1.87849 0.30773,0.48407 0.58394,0.92151 0.61379,0.97208 0.0299,0.0506 0.26581,0.42299 0.52434,0.82759 0.25853,0.4046 0.59587,0.93662 0.74964,1.18227 0.15377,0.24565 0.60569,0.96092 1.00426,1.58949 0.39858,0.62857 0.86967,1.3734 1.04686,1.65517 0.17719,0.28177 0.64786,1.0266 1.04592,1.65517 0.88837,1.4028 1.91784,3.0333 1.98228,3.13958 0.0263,0.0434 0.26606,0.42645 0.53283,0.85134 0.28109,0.44767 0.51134,0.84539 0.54757,0.94581 0.0827,0.22919 0.0887,0.67901 0.012,0.89037 -0.18458,0.50822 -0.57951,0.8417 -1.1385,0.96135 -0.181,0.0387 -1.3164,0.0422 -13.08089,0.0398 -10.97368,-0.002 -12.909,-0.008 -13.06024,-0.0397 z"
         style="fill:#fedd00;fill-opacity:1;stroke-width:0.0268982" />
      <path
         inkscape:connector-curvature="0"
         id="path853"
         d="m 354.19816,549.77283 c -0.46662,-0.0973 -0.88825,-0.39603 -1.08289,-0.76721 -0.12869,-0.24541 -0.16857,-0.4357 -0.14969,-0.7143 0.0271,-0.40054 -0.068,-0.23297 1.86506,-3.28407 0.39825,-0.62857 0.85038,-1.34384 1.00474,-1.58949 0.15436,-0.24565 0.62503,-0.99048 1.04593,-1.65517 0.4209,-0.6647 1.00077,-1.58095 1.28859,-2.03613 1.10703,-1.75067 1.57693,-2.49296 2.23692,-3.53366 0.37572,-0.59245 0.80921,-1.27816 0.9633,-1.52381 0.15409,-0.24565 0.49487,-0.78358 0.75728,-1.1954 0.26241,-0.41182 0.49811,-0.78424 0.52378,-0.82759 0.0257,-0.0434 0.29453,-0.46896 0.59746,-0.94581 0.30294,-0.47685 0.80883,-1.27488 1.1242,-1.7734 1.58977,-2.51303 1.60745,-2.53974 1.78687,-2.69987 0.19801,-0.17671 0.50187,-0.32791 0.75368,-0.37504 0.23843,-0.0446 0.63568,-0.0203 0.85991,0.0527 0.22752,0.074 0.51558,0.25613 0.66771,0.42204 0.0901,0.0982 1.55665,2.35278 1.7166,2.6389 0.0164,0.0293 0.34612,0.54977 0.73279,1.15666 0.38667,0.6069 0.98774,1.55271 1.33573,2.10181 0.34798,0.5491 0.88447,1.39442 1.1922,1.87849 0.30773,0.48407 0.58394,0.92151 0.61379,0.97208 0.0299,0.0506 0.26581,0.42299 0.52434,0.82759 0.25853,0.4046 0.59587,0.93662 0.74964,1.18227 0.15377,0.24565 0.60569,0.96092 1.00426,1.58949 0.39858,0.62857 0.86967,1.3734 1.04686,1.65517 0.17719,0.28177 0.64786,1.0266 1.04592,1.65517 0.88837,1.4028 1.91784,3.0333 1.98228,3.13958 0.0263,0.0434 0.26606,0.42645 0.53283,0.85134 0.28109,0.44767 0.51134,0.84539 0.54757,0.94581 0.0827,0.22919 0.0887,0.67901 0.012,0.89037 -0.18458,0.50822 -0.57951,0.8417 -1.1385,0.96135 -0.181,0.0387 -1.3164,0.0422 -13.08089,0.0398 -10.97368,-0.002 -12.909,-0.008 -13.06024,-0.0397 z m 26.03982,-0.38817 c 0.35187,-0.0721 0.61744,-0.26479 0.7687,-0.55785 0.0731,-0.14173 0.0798,-0.17849 0.0804,-0.44353 5.8e-4,-0.25741 -0.007,-0.30336 -0.0688,-0.42036 -0.10595,-0.20041 -0.23468,-0.41383 -0.47158,-0.78186 -0.11868,-0.18437 -0.21578,-0.34099 -0.21578,-0.34805 0,-0.007 -0.18617,-0.30546 -0.41372,-0.66313 -0.22754,-0.35767 -0.42436,-0.66805 -0.43737,-0.68972 -0.0725,-0.12069 -1.64386,-2.6056 -2.50873,-3.96716 -0.30748,-0.48407 -0.59027,-0.93334 -0.62843,-0.99836 -0.0381,-0.065 -0.3027,-0.48211 -0.58789,-0.92685 -0.28519,-0.44474 -0.51853,-0.81269 -0.51853,-0.81767 0,-0.005 -0.23475,-0.37654 -0.52168,-0.82571 -0.28693,-0.44916 -0.55146,-0.86742 -0.58785,-0.92946 -0.0364,-0.062 -0.34071,-0.54199 -0.67625,-1.06657 -0.33555,-0.52458 -0.61009,-0.95954 -0.61009,-0.96658 0,-0.007 -0.0233,-0.0448 -0.0518,-0.084 -0.0584,-0.0802 -1.29006,-2.01738 -1.37327,-2.15985 -0.0295,-0.0506 -0.30713,-0.48802 -0.61688,-0.97209 -0.30974,-0.48407 -0.57196,-0.89786 -0.5827,-0.91954 -0.0107,-0.0217 -0.0423,-0.0749 -0.0702,-0.11823 -0.0279,-0.0433 -0.37488,-0.58719 -0.77118,-1.20853 -0.3963,-0.62135 -0.73222,-1.14746 -0.74649,-1.16913 -0.0143,-0.0217 -0.10813,-0.17258 -0.20858,-0.33535 -0.24386,-0.39512 -0.40275,-0.5575 -0.6678,-0.68247 -0.2041,-0.0962 -0.21726,-0.0988 -0.51382,-0.0985 -0.28691,2.4e-4 -0.31461,0.005 -0.48335,0.0847 -0.24688,0.11645 -0.42971,0.29131 -0.58419,0.55875 -0.0376,0.065 -0.31365,0.50246 -0.61354,0.97209 -0.29989,0.46962 -0.5743,0.9032 -0.6098,0.96352 -0.0355,0.0603 -0.30013,0.47838 -0.58806,0.92903 -0.28794,0.45066 -0.52352,0.82309 -0.52352,0.82763 0,0.005 -0.25254,0.40301 -0.56121,0.8855 -0.30867,0.48249 -0.58165,0.91194 -0.60662,0.95434 -0.11464,0.19462 -1.10684,1.75994 -1.17645,1.85599 -0.0284,0.0391 -0.0516,0.0772 -0.0516,0.0846 0,0.007 -0.23334,0.37734 -0.51853,0.82208 -0.28518,0.44475 -0.54974,0.86183 -0.58789,0.92686 -0.0382,0.065 -0.32094,0.51428 -0.62843,0.99835 -0.94121,1.48176 -1.55636,2.45421 -1.71745,2.71503 -0.0282,0.0456 -0.24639,0.39039 -0.48489,0.76609 -0.23849,0.3757 -0.67239,1.06141 -0.9642,1.52381 -0.29182,0.4624 -0.55383,0.87276 -0.58224,0.91191 -0.0284,0.0392 -0.0516,0.077 -0.0516,0.0841 0,0.007 -0.23546,0.3815 -0.52324,0.832 -0.28778,0.4505 -0.52323,0.82295 -0.52323,0.82767 0,0.005 -0.20635,0.33128 -0.45856,0.72571 -0.2522,0.39443 -0.48926,0.77034 -0.5268,0.83537 -0.0375,0.065 -0.0852,0.13689 -0.10599,0.1597 -0.0208,0.0228 -0.0377,0.0492 -0.0377,0.0586 0,0.009 -0.0469,0.0913 -0.10416,0.18184 -0.21397,0.33825 -0.28313,0.59088 -0.22668,0.82808 0.10131,0.42575 0.43616,0.73994 0.88853,0.83369 0.2521,0.0523 25.69695,0.0556 25.95174,0.003 z"
         style="fill:#000000;fill-opacity:1;stroke:#000000;stroke-width:0.71823823;stroke-linecap:square;stroke-linejoin:round;stroke-miterlimit:4;stroke-dasharray:none;stroke-opacity:1"
         sodipodi:nodetypes="ccccsccsssccccccccccscsscsccccccccccccccsccccsscccscccccccccccccccssccscccccccssscccsccccc" />
      <path
         inkscape:connector-curvature="0"
         id="path853-6"
         d="m 366.90583,547.18915 c -0.47263,-0.10965 -0.83747,-0.50645 -0.89877,-0.97752 -0.0564,-0.4338 0.0684,-0.81224 0.35979,-1.09019 0.25827,-0.24639 0.5036,-0.33849 0.90283,-0.33894 0.55849,-6.2e-4 0.9651,0.26892 1.1603,0.76918 0.085,0.21784 0.0851,0.68611 1.9e-4,0.90443 -0.22315,0.57379 -0.86999,0.88485 -1.52434,0.73304 z m -0.3511,-4.26327 c -0.0265,-0.007 -0.0538,-0.0386 -0.0606,-0.07 -0.007,-0.0315 -0.0188,-0.40596 -0.0265,-0.83223 -0.0135,-0.74653 -0.0355,-1.56211 -0.098,-3.63876 -0.1266,-4.20577 -0.16966,-6.01035 -0.14399,-6.03483 0.0125,-0.0119 0.46806,-0.0186 1.01237,-0.0148 l 0.98967,0.007 -0.001,0.17077 c -7.9e-4,0.0939 -0.0164,0.70871 -0.0347,1.36618 -0.0745,2.67731 -0.09,3.23443 -0.11648,4.17734 -0.0152,0.54187 -0.0396,1.42857 -0.0541,1.97044 -0.0145,0.54187 -0.0379,1.40879 -0.052,1.92649 -0.014,0.5177 -0.0338,0.94922 -0.044,0.95895 -0.0213,0.0203 -1.29754,0.033 -1.37026,0.0136 z"
         style="fill:#000000;fill-opacity:1;stroke-width:0.0268982"
         sodipodi:nodetypes="cccccccccccccccccscccc" />
    </g>
  </g>
</svg>
