<?xml version="1.0" encoding="UTF-8" standalone="no"?>
<svg
   xmlns:dc="http://purl.org/dc/elements/1.1/"
   xmlns:cc="http://creativecommons.org/ns#"
   xmlns:rdf="http://www.w3.org/1999/02/22-rdf-syntax-ns#"
   xmlns:svg="http://www.w3.org/2000/svg"
   xmlns="http://www.w3.org/2000/svg"
   xmlns:sodipodi="http://sodipodi.sourceforge.net/DTD/sodipodi-0.dtd"
   xmlns:inkscape="http://www.inkscape.org/namespaces/inkscape"
   width="32"
   height="32"
   viewBox="0 0 32 32"
   version="1.1"
   id="svg22"
   sodipodi:docname="cs-drivers.svg"
   inkscape:version="0.92.3 (2405546, 2018-03-11)">
  <metadata
     id="metadata26">
    <rdf:RDF>
      <cc:Work
         rdf:about="">
        <dc:format>image/svg+xml</dc:format>
        <dc:type
           rdf:resource="http://purl.org/dc/dcmitype/StillImage" />
        <dc:title>cs-drivers</dc:title>
      </cc:Work>
    </rdf:RDF>
  </metadata>
  <sodipodi:namedview
     pagecolor="#ffffff"
     bordercolor="#666666"
     borderopacity="1"
     objecttolerance="10"
     gridtolerance="10"
     guidetolerance="10"
     inkscape:pageopacity="0"
     inkscape:pageshadow="2"
     inkscape:window-width="1366"
     inkscape:window-height="701"
     id="namedview24"
     showgrid="false"
     inkscape:zoom="1.84375"
     inkscape:cx="9.220339"
     inkscape:cy="64"
     inkscape:window-x="0"
     inkscape:window-y="0"
     inkscape:window-maximized="1"
     inkscape:current-layer="svg22" />
  <!-- Generator: Sketch 49.3 (51167) - http://www.bohemiancoding.com/sketch -->
  <title
     id="title2">cs-drivers</title>
  <desc
     id="desc4">Created with Sketch.</desc>
  <defs
     id="defs16">
    <linearGradient
       x1="45"
       y1="0"
       x2="45"
       y2="90"
       id="linearGradient-1"
       gradientUnits="userSpaceOnUse">
      <stop
         stop-color="#C4C4C4"
         offset="0%"
         id="stop6" />
      <stop
         stop-color="#ADADAD"
         offset="100%"
         id="stop8" />
    </linearGradient>
    <linearGradient
       x1="96.5"
       y1="65"
       x2="96.5"
       y2="128"
       id="linearGradient-2"
       gradientUnits="userSpaceOnUse">
      <stop
         stop-color="#7FBEF0"
         offset="2.92178468%"
         id="stop11" />
      <stop
         stop-color="#5DA2E8"
         offset="100%"
         id="stop13" />
    </linearGradient>
  </defs>
  <g
     id="cs-drivers"
     style="fill:none;fill-rule:evenodd;stroke:none;stroke-width:1"
     transform="matrix(0.23671971,0,0,0.23671971,0.69983429,0.699877)">
    <path
       d="M 87.890449,37.142578 77.800606,35.138672 c -0.632813,-2.21502 -1.529473,-4.324219 -2.636719,-6.381035 l 5.590195,-8.384942 C 81.438926,19.318184 81.33416,17.94709 80.437324,17.050781 L 72.949394,9.5623242 C 72.052734,8.6660156 70.681465,8.5603711 69.626426,9.245918 l -8.383887,5.589844 C 59.185195,13.728516 57.076348,12.88459 54.861328,12.199043 L 52.857422,2.1091992 C 52.593398,0.89630859 51.539062,0 50.273437,0 H 39.726562 c -1.265625,0 -2.31996,0.89630859 -2.583984,2.1091992 L 35.138672,12.199043 c -2.21502,0.685547 -4.323867,1.529473 -6.381211,2.636719 L 20.373574,9.245918 C 19.318535,8.5603711 17.947441,8.6658398 17.050605,9.5623242 L 9.5626758,17.050781 C 8.6660156,17.94709 8.5610742,19.318359 9.245918,20.372695 l 5.590195,8.384942 c -1.107246,2.05664 -2.003906,4.16584 -2.636718,6.381035 L 2.1095508,37.142578 C 0.89613281,37.40625 0,38.460937 0,39.726562 v 10.546875 c 0,1.265625 0.89613281,2.320313 2.1095508,2.583985 l 10.0898442,2.003906 c 0.632812,2.214668 1.529472,4.324219 2.636718,6.380684 l -5.590195,8.384941 c -0.6848438,1.054688 -0.5800782,2.425957 0.3167578,3.322266 l 7.4879292,7.488105 c 0.896661,0.89666 2.26793,1.001953 3.322969,0.316407 l 8.383887,-5.589844 c 2.057344,1.107597 4.166191,1.951172 6.381211,2.636719 l 2.003906,10.089843 C 37.406602,89.10334 38.460937,90 39.726562,90 h 10.546875 c 1.265625,0 2.319961,-0.89666 2.583985,-2.109551 l 2.003906,-10.089843 c 2.21502,-0.685547 4.323867,-1.529122 6.381211,-2.636719 l 8.383887,5.589844 c 1.055039,0.685546 2.426133,0.580253 3.322968,-0.316407 l 7.48793,-7.488105 c 0.89666,-0.896309 1.001602,-2.267578 0.316758,-3.322266 l -5.590195,-8.384941 c 1.107246,-2.056465 2.003906,-4.16584 2.636719,-6.380684 L 87.890449,52.857422 C 89.103867,52.59375 90,51.539062 90,50.273437 V 39.726562 C 90,38.460937 89.103867,37.40625 87.890449,37.142578 Z M 45,67.058824 C 32.867402,67.058824 22.941176,57.132108 22.941176,45 22.941176,32.867402 32.867402,22.941176 45,22.941176 c 12.132598,0 22.058824,9.926226 22.058824,22.058824 0,12.132108 -9.926226,22.058824 -22.058824,22.058824 z"
       id="Shape"
       transform="rotate(23,45,45)"
       inkscape:connector-curvature="0"
       style="fill:url(#linearGradient-1);fill-rule:nonzero" />
    <path
       d="m 126.52331,90.999805 -7.06289,-1.402735 c -0.44297,-1.550513 -1.07063,-3.026953 -1.8457,-4.466724 l 3.91314,-5.869459 c 0.47939,-0.738159 0.40605,-1.697924 -0.22173,-2.32534 l -5.24155,-5.24192 c -0.62767,-0.627416 -1.58756,-0.701367 -2.32608,-0.221484 l -5.86872,3.91289 c -1.44014,-0.775072 -2.91634,-1.36582 -4.46685,-1.845703 L 102.0002,66.476439 C 101.81538,65.627416 101.07734,65 100.19141,65 h -7.382816 c -0.885938,0 -1.623973,0.627416 -1.808789,1.476439 L 89.59707,73.53933 c -1.550513,0.479883 -3.026707,1.070631 -4.466847,1.845703 l -5.868721,-3.91289 c -0.738527,-0.479883 -1.698293,-0.406055 -2.326078,0.221484 l -5.241551,5.24192 c -0.627662,0.627416 -0.701121,1.587305 -0.22173,2.32534 l 3.913136,5.869459 c -0.775072,1.439648 -1.402734,2.916088 -1.845703,4.466724 l -7.06289,1.402735 C 65.627293,91.184375 65,91.922656 65,92.808594 v 7.382816 c 0,0.88593 0.627293,1.62421 1.476686,1.80879 l 7.06289,1.40273 c 0.442969,1.55027 1.070631,3.02695 1.845703,4.46648 l -3.913136,5.86946 c -0.479391,0.73828 -0.406055,1.69817 0.22173,2.32558 l 5.241551,5.24168 c 0.627662,0.62766 1.587551,0.70136 2.326078,0.22148 l 5.868721,-3.91289 c 1.44014,0.77532 2.916334,1.36582 4.466847,1.8457 l 1.402735,7.06289 C 91.184621,127.37234 91.922656,128 92.808594,128 h 7.382816 c 0.88593,0 1.62397,-0.62766 1.80879,-1.47669 l 1.40273,-7.06289 c 1.55051,-0.47988 3.02671,-1.07038 4.46685,-1.8457 l 5.86872,3.91289 c 0.73852,0.47988 1.69829,0.40618 2.32608,-0.22148 l 5.24155,-5.24168 c 0.62766,-0.62741 0.70112,-1.5873 0.22173,-2.32558 l -3.91314,-5.86946 c 0.77507,-1.43953 1.40273,-2.91609 1.8457,-4.46648 l 7.06289,-1.40273 C 127.37271,101.81562 128,101.07734 128,100.19141 v -7.382816 c 0,-0.885938 -0.62729,-1.624219 -1.47669,-1.808789 z M 96.5,111.94118 c -8.492819,0 -15.441176,-6.9487 -15.441176,-15.44118 0,-8.492819 6.948357,-15.441176 15.441176,-15.441176 8.49282,0 15.44118,6.948357 15.44118,15.441176 0,8.49248 -6.94836,15.44118 -15.44118,15.44118 z"
       id="path19"
       inkscape:connector-curvature="0"
       style="fill:url(#linearGradient-2);fill-rule:nonzero" />
  </g>
</svg>
