<?xml version="1.0" encoding="UTF-8" standalone="no"?>
<svg
   xmlns:dc="http://purl.org/dc/elements/1.1/"
   xmlns:cc="http://creativecommons.org/ns#"
   xmlns:rdf="http://www.w3.org/1999/02/22-rdf-syntax-ns#"
   xmlns:svg="http://www.w3.org/2000/svg"
   xmlns="http://www.w3.org/2000/svg"
   xmlns:sodipodi="http://sodipodi.sourceforge.net/DTD/sodipodi-0.dtd"
   xmlns:inkscape="http://www.inkscape.org/namespaces/inkscape"
   width="32"
   height="32"
   viewBox="0 0 32 32"
   version="1.1"
   id="svg19"
   sodipodi:docname="cs-region.svg"
   inkscape:version="0.92.3 (2405546, 2018-03-11)">
  <metadata
     id="metadata23">
    <rdf:RDF>
      <cc:Work
         rdf:about="">
        <dc:format>image/svg+xml</dc:format>
        <dc:type
           rdf:resource="http://purl.org/dc/dcmitype/StillImage" />
        <dc:title>cs-region</dc:title>
      </cc:Work>
    </rdf:RDF>
  </metadata>
  <sodipodi:namedview
     pagecolor="#ffffff"
     bordercolor="#666666"
     borderopacity="1"
     objecttolerance="10"
     gridtolerance="10"
     guidetolerance="10"
     inkscape:pageopacity="0"
     inkscape:pageshadow="2"
     inkscape:window-width="1366"
     inkscape:window-height="701"
     id="namedview21"
     showgrid="false"
     inkscape:zoom="1.84375"
     inkscape:cx="9.220339"
     inkscape:cy="64"
     inkscape:window-x="0"
     inkscape:window-y="0"
     inkscape:window-maximized="1"
     inkscape:current-layer="svg19" />
  <!-- Generator: Sketch 49.3 (51167) - http://www.bohemiancoding.com/sketch -->
  <title
     id="title2">cs-region</title>
  <desc
     id="desc4">Created with Sketch.</desc>
  <defs
     id="defs6" />
  <g
     id="cs-region"
     style="fill:none;fill-rule:evenodd;stroke:none;stroke-width:1"
     transform="matrix(0.24840072,0,0,0.24840072,0.10082804,0.00639157)">
    <g
       id="earth-globe-(1)"
       transform="translate(13,4)"
       style="fill-rule:nonzero">
      <path
         d="M 85.528676,93.311846 C 84.774211,91.990669 82.982507,91.518889 81.662254,92.273881 57.426958,106.24016 26.401718,98.030366 12.445197,74.061105 -1.4169859,50.091844 6.9757465,19.233729 31.211042,5.2674535 32.531296,4.5124614 33.002746,2.719505 32.248282,1.3983287 31.493817,0.07715248 29.702113,-0.39462772 28.381859,0.36036436 1.4119577,15.930788 -7.9239155,50.280412 7.5415352,76.892026 17.160183,93.500653 34.040225,103.22043 51.957507,104.5416 v 7.73801 H 41.112944 c -2.357493,0 -4.243536,1.88736 -4.243536,4.24651 0,2.35914 1.886043,4.2465 4.243536,4.2465 h 27.347253 c 2.357493,0 4.243535,-1.88736 4.243535,-4.2465 0,-2.35915 -1.886042,-4.24651 -4.243535,-4.24651 h -11.599028 0.754465 v -7.54944 c 9.147197,-0.18881 18.388732,-2.64235 26.875803,-7.549439 1.320014,-0.849157 1.791704,-2.547709 1.037239,-3.868885 z"
         id="Shape"
         inkscape:connector-curvature="0"
         style="fill:#324d5b" />
      <path
         d="m 56.672493,3.7574693 c 24.989761,0 45.264537,20.2889447 45.264537,45.2961707 0,25.007225 -20.274776,45.29617 -45.264537,45.29617 -24.989761,0 -45.264535,-20.288705 -45.264535,-45.29617 0,-25.007466 20.274774,-45.2961707 45.264535,-45.2961707 z"
         id="path9"
         inkscape:connector-curvature="0"
         style="fill:#26a6d1" />
      <path
         d="m 90.432338,79.251166 c 3.111958,-12.078914 5.940901,-29.536938 -3.01762,-27.555174 -8.581408,1.88736 -19.237535,3.963529 -24.329634,4.718281 -5.092098,0.754753 -11.221915,-4.340905 -18.105718,-8.021222 -0.942901,-3.869124 -1.037239,-5.945053 4.337873,-9.908582 5.469451,-4.057693 8.01562,3.869125 10.184437,1.509984 3.583408,-4.340905 1.131578,-8.398598 5.752465,-17.8354 C 69.874789,12.911059 70.346479,14.32664 73.646873,7.0604099 68.460197,4.9842416 62.707972,3.7574693 56.672732,3.7574693 c -17.539929,0 -32.722605,10.0029857 -40.266535,24.5354457 1.225916,2.547948 2.923282,5.190301 5.280775,8.115626 7.261155,8.776213 14.899662,12.362126 26.875803,19.72276 11.976141,7.26623 10.184436,10.56917 7.261155,13.871871 -2.923282,3.302941 -7.449831,17.458024 1.131577,21.893093 l 3.866423,2.359141 C 72.515056,93.123038 82.982507,87.5556 90.432338,79.251166 Z"
         id="path11"
         inkscape:connector-curvature="0"
         style="fill:#aec225" />
      <path
         d="m 63.273521,87.744168 c -24.98976,0 -45.264535,-20.288944 -45.264535,-45.29617 0,-10.852143 3.772084,-20.760725 10.090338,-28.593139 -10.184437,8.398598 -16.691366,21.043937 -16.691366,35.19902 0,25.007226 20.274774,45.29617 45.264535,45.29617 14.145197,0 26.875803,-6.511237 35.174437,-16.703031 -7.827184,6.322429 -17.728846,10.09715 -28.573409,10.09715 z"
         id="path13"
         inkscape:connector-curvature="0"
         style="fill:#2295bc" />
      <path
         d="m 90.526676,78.590578 c -7.544169,5.756485 -16.974141,9.15359 -27.253155,9.15359 -3.677746,0 -7.261155,-0.47178 -10.656127,-1.321176 0.660127,2.264737 2.074719,4.152097 4.337874,5.378869 1.508929,0.943561 2.734845,1.698553 3.866422,2.359141 h 0.283014 l 1.603028,-0.188808 0.660127,-0.0944 1.603028,-0.283212 0.565789,-0.0944 c 1.791704,-0.377376 3.583409,-0.849396 5.280775,-1.41558 l 0.565788,-0.188808 c 0.471451,-0.188808 0.942902,-0.283212 1.320254,-0.47178 l 0.848803,-0.283212 1.225915,-0.566184 c 0.283014,-0.0944 0.565789,-0.283212 0.942902,-0.377376 l 1.131577,-0.566184 0.942901,-0.471781 1.03724,-0.566184 1.131578,-0.660588 c 0.377112,-0.188808 0.660126,-0.377376 1.037239,-0.660588 0.565789,-0.377376 1.037239,-0.754992 1.603028,-1.037964 l 0.754465,-0.566185 1.131577,-0.849396 0.754465,-0.566184 c 0.377113,-0.283212 0.754465,-0.566184 1.037239,-0.849396 0.188677,-0.188808 0.471451,-0.377376 0.660127,-0.660588 l 1.03724,-0.94356 c 0.188676,-0.188808 0.377112,-0.377377 0.660126,-0.566185 l 1.131578,-1.132368 0.471451,-0.47178 0.09434,-0.0944 c 0.09506,-0.471541 0.189155,-0.754513 0.189394,-0.943321 z M 19.046225,32.822628 c 1.50893,-6.983258 4.714986,-13.400091 9.052859,-18.873365 l -0.09434,0.0944 c -0.565788,0.471781 -1.037239,0.849396 -1.508929,1.321177 l -0.471451,0.47178 c -0.377112,0.377376 -0.848803,0.754992 -1.225915,1.226772 l -0.565789,0.566184 -1.131578,1.132368 c -0.188675,0.188808 -0.377112,0.377377 -0.565788,0.660589 l -1.131578,1.41558 c -0.188676,0.188808 -0.377112,0.47178 -0.565788,0.754992 l -0.754465,0.94356 -0.754465,1.037965 -0.754465,1.132368 c -0.188676,0.283212 -0.377113,0.566184 -0.565789,0.94356 l -0.565788,0.849396 -0.848803,1.509985 -0.283014,0.47178 c 0.849042,1.321176 1.697845,2.736517 2.735084,4.340905 z"
         id="path15"
         inkscape:connector-curvature="0"
         style="fill:#9cae21" />
    </g>
  </g>
</svg>
