<?xml version="1.0" encoding="UTF-8" standalone="no"?>
<!-- Created with Inkscape (http://www.inkscape.org/) -->

<svg
   xmlns:dc="http://purl.org/dc/elements/1.1/"
   xmlns:cc="http://creativecommons.org/ns#"
   xmlns:rdf="http://www.w3.org/1999/02/22-rdf-syntax-ns#"
   xmlns:svg="http://www.w3.org/2000/svg"
   xmlns="http://www.w3.org/2000/svg"
   xmlns:sodipodi="http://sodipodi.sourceforge.net/DTD/sodipodi-0.dtd"
   xmlns:inkscape="http://www.inkscape.org/namespaces/inkscape"
   width="32"
   version="1.1"
   height="32"
   id="svg20"
   sodipodi:docname="preferences-system-bluetooth.svg"
   inkscape:version="0.92.3 (2405546, 2018-03-11)">
  <sodipodi:namedview
     pagecolor="#ffffff"
     bordercolor="#666666"
     borderopacity="1"
     objecttolerance="10"
     gridtolerance="10"
     guidetolerance="10"
     inkscape:pageopacity="0"
     inkscape:pageshadow="2"
     inkscape:window-width="1366"
     inkscape:window-height="701"
     id="namedview22"
     showgrid="false"
     inkscape:zoom="7.375"
     inkscape:cx="0.13559322"
     inkscape:cy="16"
     inkscape:window-x="0"
     inkscape:window-y="0"
     inkscape:window-maximized="1"
     inkscape:current-layer="layer1" />
  <defs
     id="defs5455">
    <linearGradient
       gradientUnits="userSpaceOnUse"
       gradientTransform="matrix(0.81353623,0,0,1.2292016,22.142164,0)"
       x1="52.241066"
       y1="0"
       x2="52.241066"
       y2="104.13264"
       id="linearGradient-1">
      <stop
         stop-color="#42BAE9"
         offset="0%"
         id="stop6" />
      <stop
         stop-color="#1F84CE"
         offset="100%"
         id="stop8" />
    </linearGradient>
  </defs>
  <metadata
     id="metadata5458">
    <rdf:RDF>
      <cc:Work
         rdf:about="">
        <dc:format>image/svg+xml</dc:format>
        <dc:type
           rdf:resource="http://purl.org/dc/dcmitype/StillImage" />
      </cc:Work>
    </rdf:RDF>
  </metadata>
  <g
     inkscape:label="Capa 1"
     inkscape:groupmode="layer"
     id="layer1"
     transform="translate(-384.57143,-515.798)">
    <g
       transform="matrix(0.234375,0,0,0.234375,385.45424,516.798)"
       style="fill:none;fill-rule:evenodd;stroke:none;stroke-width:1"
       id="cs-bluetooth">
      <g
         style="fill-rule:nonzero"
         id="bluetooth"
         transform="translate(22)">
        <path
           style="fill:url(#linearGradient-1)"
           inkscape:connector-curvature="0"
           d="M 42.5,0 C 19.10636,0 0.14216374,19.07575 0.14216374,42.607 V 85.39325 C 0.14216374,108.92425 19.10636,128 42.5,128 65.89364,128 84.857836,108.92425 84.857836,85.393 V 42.607 C 84.857836,19.07575 65.89364,0 42.5,0 Z"
           id="Shape" />
        <path
           style="opacity:0.3;fill:#145587"
           inkscape:connector-curvature="0"
           d="M 48.30038,68.70325 65.429123,50.8185 c 1.539444,-1.60725 1.539444,-4.1515 0,-5.7585 L 45.542354,24.29575 c -1.16788,-1.21875 -2.954371,-1.60225 -4.514445,-0.9695 -1.56057,0.633 -2.582807,2.156 -2.582807,3.84875 V 58.41325 L 25.513172,44.91075 C 23.932471,43.261 21.320833,43.21125 19.67924,44.80125 18.038392,46.3915 17.989678,49.0185 19.570629,50.6695 L 36.842032,68.703 19.570629,86.7365 c -1.580702,1.651 -1.531989,4.27775 0.108611,5.86825 0.800292,0.77575 1.831725,1.16125 2.861915,1.16125 1.081886,0 2.161784,-0.42525 2.972017,-1.27075 l 12.93193,-13.5025 V 110.231 c 0,1.69275 1.021989,3.21575 2.582807,3.84875 0.500059,0.20275 1.02348,0.3015 1.542179,0.3015 1.099532,-2.5e-4 2.178932,-0.443 2.972266,-1.271 L 65.429123,92.346 c 1.539444,-1.60725 1.539444,-4.1515 0,-5.7585 z M 46.697061,37.46475 56.729298,47.9395 46.697061,58.41425 Z m 0,62.47725 V 78.9925 l 10.032237,10.47475 z"
           id="path14" />
        <path
           style="fill:#ffffff"
           inkscape:connector-curvature="0"
           d="M 48.30038,64 65.429123,46.11525 c 1.539444,-1.60725 1.539444,-4.1515 0,-5.7585 L 45.542354,19.5925 c -1.16788,-1.21875 -2.954371,-1.60225 -4.514445,-0.9695 -1.56057,0.633 -2.582807,2.156 -2.582807,3.84875 V 53.71 L 25.513172,40.2075 C 23.932471,38.55775 21.320833,38.508 19.67924,40.098 c -1.640848,1.59025 -1.689562,4.21725 -0.108611,5.86825 l 17.271403,18.0335 -17.271403,18.0335 c -1.580702,1.651 -1.531989,4.27775 0.108611,5.86825 0.800292,0.77575 1.831725,1.16125 2.861915,1.16125 1.081886,0 2.161784,-0.42525 2.972017,-1.27075 l 12.93193,-13.5025 v 31.238 c 0,1.69275 1.021989,3.21575 2.582807,3.84875 0.500059,0.20275 1.02348,0.3015 1.542179,0.3015 1.099532,-2.5e-4 2.178932,-0.443 2.972266,-1.271 L 65.429123,87.6425 c 1.539444,-1.60725 1.539444,-4.1515 0,-5.7585 z M 46.697061,32.7615 56.729298,43.23625 46.697061,53.711 Z m 0,62.477 V 74.289 l 10.032237,10.47475 z"
           id="path16" />
      </g>
    </g>
  </g>
</svg>
