<?xml version="1.0" encoding="UTF-8" standalone="no"?>
<!-- Created with Inkscape (http://www.inkscape.org/) -->

<svg
   xmlns:dc="http://purl.org/dc/elements/1.1/"
   xmlns:cc="http://creativecommons.org/ns#"
   xmlns:rdf="http://www.w3.org/1999/02/22-rdf-syntax-ns#"
   xmlns:svg="http://www.w3.org/2000/svg"
   xmlns="http://www.w3.org/2000/svg"
   xmlns:sodipodi="http://sodipodi.sourceforge.net/DTD/sodipodi-0.dtd"
   xmlns:inkscape="http://www.inkscape.org/namespaces/inkscape"
   width="32"
   version="1.1"
   height="32"
   id="svg40"
   sodipodi:docname="preferences-desktop-peripherals.svg"
   inkscape:version="0.92.3 (2405546, 2018-03-11)">
  <sodipodi:namedview
     pagecolor="#ffffff"
     bordercolor="#666666"
     borderopacity="1"
     objecttolerance="10"
     gridtolerance="10"
     guidetolerance="10"
     inkscape:pageopacity="0"
     inkscape:pageshadow="2"
     inkscape:window-width="1366"
     inkscape:window-height="701"
     id="namedview42"
     showgrid="false"
     inkscape:zoom="7.375"
     inkscape:cx="12.109589"
     inkscape:cy="10.576271"
     inkscape:window-x="0"
     inkscape:window-y="0"
     inkscape:window-maximized="1"
     inkscape:current-layer="g4283" />
  <defs
     id="defs5455" />
  <metadata
     id="metadata5458">
    <rdf:RDF>
      <cc:Work
         rdf:about="">
        <dc:format>image/svg+xml</dc:format>
        <dc:type
           rdf:resource="http://purl.org/dc/dcmitype/StillImage" />
        <dc:title></dc:title>
      </cc:Work>
    </rdf:RDF>
  </metadata>
  <g
     inkscape:label="Capa 1"
     inkscape:groupmode="layer"
     id="g4283"
     transform="translate(-384.57143,-515.798)">
    <g
       id="cs-mouse"
       style="fill:none;fill-rule:evenodd;stroke:none;stroke-width:1"
       transform="matrix(0.11735581,0,0,0.1201405,402.91916,524.17786)">
      <g
         id="speech-bubble" />
      <g
         id="mouse"
         transform="translate(22,1)"
         style="fill-rule:nonzero">
        <path
           d="M 42.411349,0 C 41.820177,0 41.313671,0 40.722747,0.08441765 V 13.763065 c 0,3.968376 3.293035,7.261411 7.261412,7.261411 h 30.565663 c 2.110939,0 3.883958,1.773269 3.883958,3.883959 0,2.11069 -1.773268,3.883959 -3.883958,3.883959 H 8.6370686 c -4.559549,0 -8.27467252,3.715124 -8.27467252,8.274673 0,4.559549 3.71512352,8.274672 8.27467252,8.274672 H 35.909945 c 2.701863,0 4.89722,2.195357 4.89722,4.89722 v 6.079315 h 3.377453 v -6.079315 c 0,-4.559549 -3.715124,-8.274673 -8.274673,-8.274673 H 8.6370686 c -2.7018627,0 -4.8972196,-2.195357 -4.8972196,-4.897219 0,-2.701863 2.1953569,-4.89722 4.8972196,-4.89722 H 78.549822 c 3.968376,0 7.261411,-3.293035 7.261411,-7.261412 0,-3.968376 -3.293035,-7.261412 -7.261411,-7.261412 H 47.984159 c -2.110939,0 -3.883959,-1.773268 -3.883959,-3.883958 V 0.08441765 C 43.509028,0 43.002272,0 42.411349,0 Z"
           id="Shape"
           inkscape:connector-curvature="0"
           style="fill:#dededf" />
        <path
           d="m 44.411349,52.408043 c -12.412133,0 -22.544243,10.047941 -22.544243,22.544243 v 27.357294 c 0,12.41213 10.047941,22.54424 22.544243,22.54424 12.412133,0 22.544243,-10.04794 22.544243,-22.54424 V 74.952286 c 0,-12.496302 -10.132359,-22.544243 -22.544243,-22.544243 z"
           id="path10"
           inkscape:connector-curvature="0"
           style="fill:#a6a6a6" />
        <path
           d="m 42.411349,50.408043 c -12.412133,0 -22.544243,10.047941 -22.544243,22.544243 v 27.357294 c 0,12.41213 10.047941,22.54424 22.544243,22.54424 12.412133,0 22.544243,-10.04794 22.544243,-22.54424 V 72.952286 c 0,-12.496302 -10.132359,-22.544243 -22.544243,-22.544243 z"
           id="path12"
           inkscape:connector-curvature="0"
           style="fill:#cccccc" />
        <path
           d="m 42.411349,63.157847 c -1.435349,0 -2.617445,1.182096 -2.617445,2.617445 v 9.119098 c 0,1.435349 1.182096,2.617445 2.617445,2.617445 1.435349,0 2.617445,-1.182096 2.617445,-2.617445 v -9.119098 c 0,-1.4351 -1.182096,-2.617445 -2.617445,-2.617445 z"
           id="path14"
           inkscape:connector-curvature="0"
           style="fill:#4d4d4d" />
      </g>
    </g>
    <g
       id="cs-keyboard"
       style="fill:none;fill-rule:evenodd;stroke:none;stroke-width:1"
       transform="matrix(0.15298971,0,0,0.15661996,385.57143,521.93094)">
      <g
         transform="translate(0,15)"
         id="keyboard"
         style="fill-rule:nonzero">
        <path
           id="Shape-3"
           d="M 122.3316,95.874258 H 5.6684037 C 2.5379817,95.874258 0,93.328785 0,90.188466 V 45.609129 C 0,42.46881 2.5379817,39.923337 5.6684037,39.923337 H 122.3316 c 3.13071,0 5.6684,2.545767 5.6684,5.685792 v 44.579337 c 0,3.140319 -2.53798,5.685792 -5.6684,5.685792 z"
           inkscape:connector-curvature="0"
           style="fill:#cccccc" />
        <g
           transform="translate(99.229358,48.883436)"
           id="Group"
           style="fill:#4d4d4d">
          <path
             id="path829"
             d="m 18.36389,13.763926 h -6.326018 c -0.721321,0 -1.305835,0.586307 -1.305835,1.309841 v 7.88319 c 0,0.723534 0.584514,1.30984 1.305835,1.30984 h 6.326018 c 0.721321,0 1.305835,-0.586601 1.305835,-1.30984 v -7.88319 c 0,-0.723239 -0.584514,-1.309841 -1.305835,-1.309841 z"
             inkscape:connector-curvature="0" />
          <path
             id="path831"
             d="M 19.669725,10.392736 V 1.4788712 c 0,-0.72353378 -0.584808,-1.30984053 -1.305835,-1.30984053 h -6.326018 c -0.721321,0 -1.305835,0.58660123 -1.305835,1.30984053 v 8.9138648 c 0,0.723534 0.584514,1.309841 1.305835,1.309841 h 6.326018 c 0.721321,0 1.305835,-0.586307 1.305835,-1.309841 z"
             inkscape:connector-curvature="0" />
          <path
             id="path833"
             d="M 1.3228624,24.267092 H 7.371156 c 0.7213211,0 1.3058348,-0.586601 1.3058348,-1.30984 v -7.883191 c 0,-0.723533 -0.5848073,-1.30984 -1.3058348,-1.30984 H 1.3228624 c -0.72132112,0 -1.30583488,0.586307 -1.30583488,1.30984 v 7.883191 c 0,0.723239 0.58451376,1.30984 1.30583488,1.30984 z"
             inkscape:connector-curvature="0" />
          <path
             id="path835"
             d="M 1.3228624,37.861988 H 7.371156 c 0.7213211,0 1.3058348,-0.586601 1.3058348,-1.309841 v -8.913865 c 0,-0.723533 -0.5848073,-1.30984 -1.3058348,-1.30984 H 1.3228624 c -0.72132112,0 -1.30583488,0.586307 -1.30583488,1.30984 v 8.913865 c 0,0.723534 0.58451376,1.309841 1.30583488,1.309841 z"
             inkscape:connector-curvature="0" />
          <path
             id="path837"
             d="M 1.3228624,11.702577 H 7.371156 c 0.7213211,0 1.3058348,-0.586602 1.3058348,-1.309841 V 1.4788712 c 0,-0.72353378 -0.5848073,-1.30984053 -1.3058348,-1.30984053 H 1.3228624 c -0.72132112,0 -1.30583488,0.58660123 -1.30583488,1.30984053 v 8.9138648 c 0,0.723534 0.58451376,1.309841 1.30583488,1.309841 z"
             inkscape:connector-curvature="0" />
          <path
             id="path839"
             d="m 10.732037,27.638282 v 8.913865 c 0,0.723534 0.584514,1.309841 1.305835,1.309841 h 6.326018 c 0.721321,0 1.305835,-0.586601 1.305835,-1.309841 v -8.913865 c 0,-0.723533 -0.584808,-1.30984 -1.305835,-1.30984 h -6.326018 c -0.721321,0 -1.305835,0.586307 -1.305835,1.30984 z"
             inkscape:connector-curvature="0" />
        </g>
        <g
           transform="translate(9.100917,48.883436)"
           id="g876"
           style="fill:#4d4d4d">
          <path
             id="path842"
             d="m 25.708037,36.603681 v -9.016933 c 0,-0.694969 -0.561615,-1.258306 -1.254459,-1.258306 h -9.086532 c -0.692844,0 -1.254459,0.563337 -1.254459,1.258306 v 9.016933 c 0,0.694969 0.561615,1.258307 1.254459,1.258307 h 9.086532 c 0.692844,0 1.254459,-0.563338 1.254459,-1.258307 z"
             inkscape:connector-curvature="0" />
          <path
             id="path844"
             d="m 31.939523,13.763926 h -9.086532 c -0.692844,0 -1.254459,0.563338 -1.254459,1.258307 v 7.986258 c 0,0.694969 0.561615,1.258306 1.254459,1.258306 h 9.086532 c 0.692844,0 1.254459,-0.563337 1.254459,-1.258306 v -7.986258 c 2.93e-4,-0.694969 -0.561615,-1.258307 -1.254459,-1.258307 z"
             inkscape:connector-curvature="0" />
          <path
             id="path846"
             d="M 51.754862,26.328442 H 29.017835 c -0.692844,0 -1.254459,0.563337 -1.254459,1.258306 v 9.016933 c 0,0.694969 0.561615,1.258307 1.254459,1.258307 h 22.737027 c 0.692844,0 1.254459,-0.563338 1.254459,-1.258307 v -9.016933 c 2.94e-4,-0.694969 -0.561615,-1.258306 -1.254459,-1.258306 z"
             inkscape:connector-curvature="0" />
          <path
             id="path848"
             d="m 8.8281835,15.022528 v 7.986257 c 0,0.69497 0.5616147,1.258307 1.2544585,1.258307 h 8.205798 c 0.692844,0 1.254459,-0.563337 1.254459,-1.258307 v -7.986257 c 0,-0.69497 -0.561615,-1.258307 -1.254459,-1.258307 h -8.205504 c -0.6928443,-2.95e-4 -1.2547525,0.563043 -1.2547525,1.258307 z"
             inkscape:connector-curvature="0" />
          <path
             id="path850"
             d="m 35.249321,15.022528 v 7.986257 c 0,0.69497 0.561615,1.258307 1.254459,1.258307 h 9.086238 c 0.692844,0 1.254459,-0.563337 1.254459,-1.258307 v -7.986257 c 0,-0.69497 -0.561615,-1.258307 -1.254459,-1.258307 H 36.50378 c -0.692844,-2.95e-4 -1.254459,0.563043 -1.254459,1.258307 z"
             inkscape:connector-curvature="0" />
          <path
             id="path852"
             d="M 79.704954,10.44427 V 1.4273374 c 0,-0.6949693 -0.561615,-1.25830673 -1.254459,-1.25830673 h -8.480293 c -0.692844,0 -1.254459,0.56333743 -1.254459,1.25830673 V 10.44427 c 0,0.694969 0.561615,1.258307 1.254459,1.258307 h 8.480293 c 0.692844,0 1.254459,-0.563338 1.254459,-1.258307 z"
             inkscape:connector-curvature="0" />
          <path
             id="path854"
             d="m 56.319119,37.861988 h 9.086532 c 0.692844,0 1.254459,-0.563338 1.254459,-1.258307 v -9.016933 c 0,-0.694969 -0.561615,-1.258306 -1.254459,-1.258306 h -9.086532 c -0.692844,0 -1.254458,0.563337 -1.254458,1.258306 v 9.016933 c 0,0.694969 0.561614,1.258307 1.254458,1.258307 z"
             inkscape:connector-curvature="0" />
          <path
             id="path856"
             d="M 25.708037,10.44427 V 1.4273374 c 0,-0.6949693 -0.561615,-1.25830673 -1.254459,-1.25830673 h -9.086532 c -0.692844,0 -1.254459,0.56333743 -1.254459,1.25830673 V 10.44427 c 0,0.694969 0.561615,1.258307 1.254459,1.258307 h 9.086532 c 0.692844,0 1.254459,-0.563338 1.254459,-1.258307 z"
             inkscape:connector-curvature="0" />
          <path
             id="path858"
             d="m 1.2547523,24.267092 h 4.2639266 c 0.692844,0 1.2544587,-0.563337 1.2544587,-1.258307 v -7.986257 c 0,-0.69497 -0.5616147,-1.258307 -1.2544587,-1.258307 H 1.2547523 c -0.69284404,0 -1.25445872202,0.563337 -1.25445872202,1.258307 v 7.986257 C 0,23.70346 0.56161468,24.267092 1.2547523,24.267092 Z"
             inkscape:connector-curvature="0" />
          <path
             id="path860"
             d="m 1.2547523,37.861988 h 9.5480367 c 0.692844,0 1.254459,-0.563338 1.254459,-1.258307 v -9.016933 c 0,-0.694969 -0.561615,-1.258306 -1.254459,-1.258306 H 1.2547523 c -0.69284404,0 -1.25445872202,0.563337 -1.25445872202,1.258306 v 9.016933 C 0,37.29865 0.56161468,37.861988 1.2547523,37.861988 Z"
             inkscape:connector-curvature="0" />
          <path
             id="path862"
             d="m 1.2547523,11.702577 h 9.5480367 c 0.692844,0 1.254459,-0.563338 1.254459,-1.258307 V 1.4273374 c 0,-0.6949693 -0.561615,-1.25830673 -1.254459,-1.25830673 H 1.2547523 c -0.69284404,0 -1.25445872202,0.56333743 -1.25445872202,1.25830673 V 10.44427 C 0,11.139239 0.56161468,11.702577 1.2547523,11.702577 Z"
             inkscape:connector-curvature="0" />
          <path
             id="path864"
             d="M 39.359119,10.44427 V 1.4273374 c 0,-0.6949693 -0.561614,-1.25830673 -1.254458,-1.25830673 h -9.086533 c -0.692844,0 -1.254458,0.56333743 -1.254458,1.25830673 V 10.44427 c 0,0.694969 0.561614,1.258307 1.254458,1.258307 h 9.086533 c 0.69255,0 1.254458,-0.563338 1.254458,-1.258307 z"
             inkscape:connector-curvature="0" />
          <path
             id="path866"
             d="m 68.71545,27.586748 v 9.016933 c 0,0.694969 0.561614,1.258307 1.254458,1.258307 h 8.480294 c 0.692844,0 1.254459,-0.563338 1.254459,-1.258307 v -9.016933 c 0,-0.694969 -0.561615,-1.258306 -1.254459,-1.258306 h -8.480294 c -0.692844,0 -1.254458,0.563337 -1.254458,1.258306 z"
             inkscape:connector-curvature="0" />
          <path
             id="path868"
             d="m 59.240807,13.763926 h -9.086532 c -0.692844,0 -1.254459,0.563338 -1.254459,1.258307 v 7.986258 c 0,0.694969 0.561615,1.258306 1.254459,1.258306 h 9.086532 c 0.692844,0 1.254459,-0.563337 1.254459,-1.258306 v -7.986258 c 2.94e-4,-0.694969 -0.561615,-1.258307 -1.254459,-1.258307 z"
             inkscape:connector-curvature="0" />
          <path
             id="path870"
             d="M 53.009615,10.44427 V 1.4273374 c 0,-0.6949693 -0.561615,-1.25830673 -1.254459,-1.25830673 h -9.086239 c -0.692844,0 -1.254458,0.56333743 -1.254458,1.25830673 V 10.44427 c 0,0.694969 0.561614,1.258307 1.254458,1.258307 h 9.086239 c 0.69255,0 1.254459,-0.563338 1.254459,-1.258307 z"
             inkscape:connector-curvature="0" />
          <path
             id="path872"
             d="M 78.450495,13.763926 H 63.805358 c -0.692844,0 -1.254459,0.563338 -1.254459,1.258307 v 7.986258 c 0,0.694969 0.561615,1.258306 1.254459,1.258306 h 14.645137 c 0.692844,0 1.254459,-0.563337 1.254459,-1.258306 v -7.986258 c 0,-0.694969 -0.561615,-1.258307 -1.254459,-1.258307 z"
             inkscape:connector-curvature="0" />
          <path
             id="path874"
             d="M 66.660404,10.44427 V 1.4273374 c 0,-0.6949693 -0.561615,-1.25830673 -1.254459,-1.25830673 h -9.086532 c -0.692844,0 -1.254459,0.56333743 -1.254459,1.25830673 V 10.44427 c 0,0.694969 0.561615,1.258307 1.254459,1.258307 h 9.086532 c 0.69255,0 1.254459,-0.563338 1.254459,-1.258307 z"
             inkscape:connector-curvature="0" />
        </g>
        <path
           id="path878"
           d="m 66.251953,39.923337 h -5.87156 v -7.112245 c 0,-5.277055 4.280073,-9.570258 9.540991,-9.570258 h 32.847346 c 2.02334,0 3.66943,-1.651141 3.66943,-3.680687 0,-2.029546 -1.64609,-3.680687 -3.66943,-3.680687 H 21.745321 c -5.260917,0 -9.540697,-4.293202 -9.540697,-9.5702576 V 0.12574233 h 5.871559 V 6.3094969 c 0,2.029546 1.645799,3.6806872 3.669138,3.6806872 h 81.023409 c 5.26092,0 9.541,4.2932029 9.541,9.5702579 0,5.277055 -4.28008,9.570257 -9.541,9.570257 H 69.921384 c -2.02334,0 -3.669431,1.651142 -3.669431,3.680687 z"
           inkscape:connector-curvature="0"
           style="fill:#66645d" />
      </g>
    </g>
  </g>
</svg>
