<?xml version="1.0" encoding="UTF-8" standalone="no"?>
<!-- Created with Inkscape (http://www.inkscape.org/) -->

<svg
   xmlns:dc="http://purl.org/dc/elements/1.1/"
   xmlns:cc="http://creativecommons.org/ns#"
   xmlns:rdf="http://www.w3.org/1999/02/22-rdf-syntax-ns#"
   xmlns:svg="http://www.w3.org/2000/svg"
   xmlns="http://www.w3.org/2000/svg"
   xmlns:sodipodi="http://sodipodi.sourceforge.net/DTD/sodipodi-0.dtd"
   xmlns:inkscape="http://www.inkscape.org/namespaces/inkscape"
   width="32"
   version="1.1"
   height="32"
   id="svg40"
   sodipodi:docname="preferences-desktop-sound.svg"
   inkscape:version="0.92.3 (2405546, 2018-03-11)">
  <sodipodi:namedview
     pagecolor="#ffffff"
     bordercolor="#666666"
     borderopacity="1"
     objecttolerance="10"
     gridtolerance="10"
     guidetolerance="10"
     inkscape:pageopacity="0"
     inkscape:pageshadow="2"
     inkscape:window-width="1366"
     inkscape:window-height="701"
     id="namedview42"
     showgrid="false"
     inkscape:zoom="14.75"
     inkscape:cx="14.626861"
     inkscape:cy="12.668314"
     inkscape:window-x="0"
     inkscape:window-y="0"
     inkscape:window-maximized="1"
     inkscape:current-layer="layer1" />
  <defs
     id="defs5455">
    <linearGradient
       gradientUnits="userSpaceOnUse"
       gradientTransform="matrix(1.000007,0,0,0.99999297,2,2)"
       x1="61.89465"
       y1="2.7643522"
       x2="61.89465"
       y2="121.85509"
       id="linearGradient-1">
      <stop
         stop-color="#E57487"
         offset="0%"
         id="stop6" />
      <stop
         stop-color="#D64454"
         offset="100%"
         id="stop8" />
    </linearGradient>
  </defs>
  <metadata
     id="metadata5458">
    <rdf:RDF>
      <cc:Work
         rdf:about="">
        <dc:format>image/svg+xml</dc:format>
        <dc:type
           rdf:resource="http://purl.org/dc/dcmitype/StillImage" />
      </cc:Work>
    </rdf:RDF>
  </metadata>
  <g
     inkscape:label="Capa 1"
     inkscape:groupmode="layer"
     id="layer1"
     transform="translate(-384.57143,-515.798)">
    <g
       transform="matrix(0.24234558,0,0,0.24234898,385.08674,516.3133)"
       style="fill:none;fill-rule:evenodd;stroke:none;stroke-width:1"
       id="cs-sound">
      <g
         style="fill-rule:nonzero"
         id="mute"
         transform="translate(2,2)">
        <path
           style="fill:url(#linearGradient-1)"
           inkscape:connector-curvature="0"
           d="M 123.79017,61.89571 C 123.79017,27.709135 96.078543,0 61.89596,0 27.711879,0 0,27.708885 0,61.89571 c 0,34.181336 27.71163,61.89272 61.89596,61.89272 34.182583,-2.5e-4 61.89421,-27.711633 61.89421,-61.89272 z"
           id="Shape" />
        <g
           id="Group"
           transform="translate(25.696177,31.686117)">
          <g
             id="Group-3">
            <g
               style="fill:#b73948"
               id="Group-2"
               transform="translate(2,2)">
              <path
                 inkscape:connector-curvature="0"
                 d="m 56.837961,14.347553 c -1.03598,-1.439202 -3.036494,-1.776792 -4.483294,-0.76402 -1.446799,1.030539 -1.786172,3.020546 -0.768054,4.459748 2.589951,3.642424 3.965304,7.942262 3.965304,12.455314 0,4.513053 -1.375353,8.812891 -3.965304,12.455315 -1.018118,1.439202 -0.678745,3.429209 0.768054,4.459748 C 52.926243,47.804553 53.569265,48 54.212287,48 55.212544,48 56.2128,47.538034 56.837961,46.649638 60.213827,41.92337 62,36.344242 62,30.498595 62,24.652949 60.213827,19.073998 56.837961,14.347553 Z"
                 id="path14"
                 transform="rotate(2,56.5,30.5)" />
              <path
                 inkscape:connector-curvature="0"
                 d="m 68.749618,3.3661508 c -1.020304,-1.4590642 -2.990544,-1.8013139 -4.41545,-0.774565 -1.424906,1.0447621 -1.759144,3.0622336 -0.756432,4.5212978 4.644139,6.7008874 7.089348,14.6086554 7.089348,22.8946994 0,8.286043 -2.445209,16.193811 -7.089348,22.876686 -1.002712,1.459064 -0.668474,3.494548 0.756432,4.521297 C 64.897094,57.801856 65.530385,58 66.163677,58 c 0.98512,0 1.97024,-0.468342 2.585941,-1.368998 C 74.150188,48.849326 77,39.644612 77,30.007583 77,20.370554 74.150188,11.16584 68.749618,3.3661508 Z"
                 id="path16"
                 transform="rotate(2,70,30)" />
              <path
                 inkscape:connector-curvature="0"
                 d="m 37.847944,0.31989847 c -0.850536,-0.46181891 -1.885948,-0.4211509 -2.697811,0.10603622 L 11.413738,15.842603 H 2.6404266 C 1.1821167,15.842603 0,17.024719 0,18.48278 v 23.135356 c 0,1.45831 1.1821167,2.640426 2.6404266,2.640426 h 8.7733114 l 23.736395,15.416419 c 0.43612,0.283179 0.936612,0.426141 1.43835,0.426141 0.432378,0 0.866004,-0.106286 1.25971,-0.320105 0.850785,-0.462068 1.380716,-1.352273 1.380716,-2.320571 V 2.6407194 C 39.22866,1.6726711 38.698728,0.78171738 37.847944,0.31989847 Z"
                 id="path18" />
            </g>
            <g
               style="fill:#ffffff"
               id="g27">
              <path
                 inkscape:connector-curvature="0"
                 d="m 56.837961,14.347553 c -1.03598,-1.439202 -3.036494,-1.776792 -4.483294,-0.76402 -1.446799,1.030539 -1.786172,3.020546 -0.768054,4.459748 2.589951,3.642424 3.965304,7.942262 3.965304,12.455314 0,4.513053 -1.375353,8.812891 -3.965304,12.455315 -1.018118,1.439202 -0.678745,3.429209 0.768054,4.459748 C 52.926243,47.804553 53.569265,48 54.212287,48 55.212544,48 56.2128,47.538034 56.837961,46.649638 60.213827,41.92337 62,36.344242 62,30.498595 62,24.652949 60.213827,19.073998 56.837961,14.347553 Z"
                 id="path21" />
              <path
                 inkscape:connector-curvature="0"
                 d="m 68.749618,3.3661508 c -1.020304,-1.4590642 -2.990544,-1.8013139 -4.41545,-0.774565 -1.424906,1.0447621 -1.759144,3.0622336 -0.756432,4.5212978 4.644139,6.7008874 7.089348,14.6086554 7.089348,22.8946994 0,8.286043 -2.445209,16.193811 -7.089348,22.876686 -1.002712,1.459064 -0.668474,3.494548 0.756432,4.521297 C 64.897094,57.801856 65.530385,58 66.163677,58 c 0.98512,0 1.97024,-0.468342 2.585941,-1.368998 C 74.150188,48.849326 77,39.644612 77,30.007583 77,20.370554 74.150188,11.16584 68.749618,3.3661508 Z"
                 id="path23" />
              <path
                 inkscape:connector-curvature="0"
                 d="m 37.847944,0.31989847 c -0.850536,-0.46181891 -1.885948,-0.4211509 -2.697811,0.10603622 L 11.413738,15.842603 H 2.6404266 C 1.1821167,15.842603 0,17.024719 0,18.48278 v 23.135356 c 0,1.45831 1.1821167,2.640426 2.6404266,2.640426 h 8.7733114 l 23.736395,15.416419 c 0.43612,0.283179 0.936612,0.426141 1.43835,0.426141 0.432378,0 0.866004,-0.106286 1.25971,-0.320105 0.850785,-0.462068 1.380716,-1.352273 1.380716,-2.320571 V 2.6407194 C 39.22866,1.6726711 38.698728,0.78171738 37.847944,0.31989847 Z"
                 id="path25" />
            </g>
          </g>
        </g>
      </g>
    </g>
  </g>
</svg>
