<?xml version="1.0" encoding="UTF-8" standalone="no"?>
<svg
   xmlns:dc="http://purl.org/dc/elements/1.1/"
   xmlns:cc="http://creativecommons.org/ns#"
   xmlns:rdf="http://www.w3.org/1999/02/22-rdf-syntax-ns#"
   xmlns:svg="http://www.w3.org/2000/svg"
   xmlns="http://www.w3.org/2000/svg"
   xmlns:sodipodi="http://sodipodi.sourceforge.net/DTD/sodipodi-0.dtd"
   xmlns:inkscape="http://www.inkscape.org/namespaces/inkscape"
   width="32"
   height="32"
   viewBox="0 0 32 32"
   version="1.1"
   id="svg57"
   sodipodi:docname="preferences-web-browser-cookies.svg"
   inkscape:version="0.92.3 (2405546, 2018-03-11)">
  <metadata
     id="metadata61">
    <rdf:RDF>
      <cc:Work
         rdf:about="">
        <dc:format>image/svg+xml</dc:format>
        <dc:type
           rdf:resource="http://purl.org/dc/dcmitype/StillImage" />
        <dc:title>cs-network</dc:title>
      </cc:Work>
    </rdf:RDF>
  </metadata>
  <sodipodi:namedview
     pagecolor="#ffffff"
     bordercolor="#666666"
     borderopacity="1"
     objecttolerance="10"
     gridtolerance="10"
     guidetolerance="10"
     inkscape:pageopacity="0"
     inkscape:pageshadow="2"
     inkscape:window-width="1366"
     inkscape:window-height="701"
     id="namedview59"
     showgrid="false"
     inkscape:zoom="8"
     inkscape:cx="1.5168839"
     inkscape:cy="16.828427"
     inkscape:window-x="0"
     inkscape:window-y="0"
     inkscape:window-maximized="1"
     inkscape:current-layer="layer1"
     inkscape:measure-start="0,0"
     inkscape:measure-end="0,0" />
  <!-- Generator: Sketch 49.3 (51167) - http://www.bohemiancoding.com/sketch -->
  <title
     id="title2">cs-network</title>
  <desc
     id="desc4">Created with Sketch.</desc>
  <defs
     id="defs6">
    <radialGradient
       id="radialGradient-1"
       r="128"
       fy="0"
       fx="64"
       cy="0"
       cx="64"
       gradientUnits="userSpaceOnUse">
      <stop
         id="stop1173"
         offset="0%"
         stop-color="#CBCBCB" />
      <stop
         id="stop1175"
         offset="100%"
         stop-color="#9B9B9B" />
    </radialGradient>
    <linearGradient
       id="linearGradient-2"
       y2="11.0345"
       x2="64"
       y1="116.9655"
       x1="64"
       gradientUnits="userSpaceOnUse">
      <stop
         id="stop1178"
         offset="0%"
         stop-color="#E8E8E8" />
      <stop
         id="stop1180"
         offset="100%"
         stop-color="#FFFFFF" />
    </linearGradient>
  </defs>
  <g
     id="cs-network"
     style="fill:none;fill-rule:evenodd;stroke:none;stroke-width:1"
     transform="matrix(0.23695856,0,0,0.2366237,0.99543069,0.999983)">
    <g
       id="world">
      <g
         id="Group"
         transform="translate(1.950037,54.844804)"
         style="fill:#ffffff;fill-rule:nonzero">
        <path
           d="m 64.828509,31.984027 2.949431,2.340045 c -1.681907,1.486904 -3.485692,3.095685 -5.581982,4.826343 l 1.340651,1.511279 -1.365026,-1.486903 c -0.21938,0.170628 -0.414383,0.316881 -0.609387,0.511884 L 61.318441,39.540423 C 60.904058,39.321043 60.709055,38.809159 60.904058,38.3704 l 2.486298,-6.020741 c 0.195004,-0.463134 0.706889,-0.706888 1.194398,-0.511885 0.07313,0.02438 0.170628,0.07313 0.243755,0.146253 z"
           id="Shape"
           inkscape:connector-curvature="0" />
        <path
           d="m 7.8630387,0.14966538 c 2.3156693,0 4.4850863,1.12127152 5.8257373,3.02255812 l 1.535654,2.1937921 c 0.853142,1.194398 1.316276,2.6569261 1.316276,4.1194543 l 2.876305,12.0171061 c 0.511885,2.120666 0.609387,4.314458 0.26813,6.459499 L 16.589456,48.973729 C 13.103764,45.293033 10.105582,41.197955 7.6680349,36.761619 7.3024029,36.127857 6.9855218,35.494095 6.6442652,34.835957 1.2085357,24.086375 -0.91213003,11.947392 0.59914902,0.00341257 Z"
           id="path9"
           inkscape:connector-curvature="0" />
      </g>
      <path
         d="m 122.769,62.404612 c 0,8.921422 -1.97442,17.745341 -5.77699,25.813621 -0.24375,0.48751 -0.48751,0.975019 -0.75564,1.486904 -5.41135,10.652083 -13.84526,19.451623 -24.253589,25.301733 -0.438759,-0.21938 -0.901893,-0.41438 -1.340651,-0.63376 -1.535654,-0.78001 -3.046934,-1.5844 -4.533837,-2.43755 -7.142013,-4.09507 -13.942768,-8.72641 -20.377892,-13.869637 0.365632,-0.316881 0.731264,-0.609387 1.072521,-0.926268 2.193792,-1.852536 4.070703,-3.534443 5.825737,-5.094473 3.363814,-3.046934 6.703254,-6.166994 9.945191,-9.433306 2.705677,-2.730053 5.313852,-5.411354 7.678272,-7.995154 l 2.705677,5.167599 c 0.243755,0.463134 0.804391,0.633762 1.267525,0.390008 0.292506,-0.170629 0.487509,-0.48751 0.487509,-0.828766 l -0.02438,-9.701437 c 0.780015,-0.901892 1.535654,-1.730658 2.242543,-2.559424 0.706888,-0.828766 1.340651,-1.681907 1.998788,-2.486298 0.706889,-0.853141 1.365036,-1.706282 2.023166,-2.559424 h 6.43513 c 2.21817,0 4.29008,-1.145647 5.48448,-3.022558 l 7.8489,-12.309612 c 1.36502,5.143224 2.07191,10.408325 2.04754,15.697802 z m -18.06223,32.443749 c 0.0244,-0.341257 -0.195,-0.658138 -0.4875,-0.804391 -0.0975,-0.04875 -0.19501,-0.121877 -0.26813,-0.195003 l -5.386983,-5.70386 C 98.393529,87.950103 98.149774,87.852601 97.90602,87.852601 h -8.921422 c -0.463134,0 -0.853141,0.316881 -0.926268,0.780015 l -0.780015,4.436336 c -0.07313,0.511885 0.243755,0.975018 0.75564,1.07252 l 8.385161,1.633157 h 7.385764 c 0.48751,0.02437 0.90189,-0.390008 0.90189,-0.926268 0,0.02438 0,0.02438 0,0 z"
         id="path12"
         inkscape:connector-curvature="0"
         style="fill:#62beff;fill-rule:nonzero" />
      <g
         id="g20"
         transform="translate(35.100675,15.844055)"
         style="fill:#ffffff;fill-rule:nonzero">
        <path
           d="m 85.620783,30.862756 -7.8489,12.333987 c -1.194398,1.876911 -3.241938,3.022558 -5.484481,3.022558 h -6.435124 c 6.191369,-7.702648 11.67585,-15.990307 16.35594,-24.667974 1.389402,2.973807 2.559424,6.118242 3.412565,9.311429 z"
           id="path14"
           inkscape:connector-curvature="0" />
        <path
           d="m 79.941299,17.01749 c -0.219379,0.438758 -0.414383,0.877516 -0.633762,1.316275 -5.240726,9.89644 -11.480846,19.232245 -18.622858,27.836785 -0.633762,0.780015 -1.2919,1.56003 -1.998788,2.36442 -1.681908,2.04754 -3.558819,4.168206 -5.508856,6.361998 l -1.779409,-3.363815 c -0.950644,-1.803785 -2.705677,-3.071309 -4.728841,-3.38819 l -9.555184,-1.56003 c -1.56003,-0.243755 -3.144435,0.07313 -4.485086,0.926268 l -2.169417,1.340651 c -5.43573,3.38819 -8.750793,9.335804 -8.750793,15.746552 v 1.77941 c 0,2.388795 -0.658138,4.704465 -1.901287,6.752004 C 16.565081,70.204762 13.225642,67.084702 10.00808,63.842765 7.0830237,60.917709 4.2554693,57.968277 1.5985432,55.018845 1.0866584,54.433834 0.55039808,53.848823 0.06288871,53.263811 V 28.74209 c 0,-1.657532 0.63376218,-3.266313 1.77940919,-4.460711 L 12.177497,13.361169 C 13.6644,11.801139 15.395058,10.50924 17.32072,9.5342208 L 31.750998,2.2215802 c 2.632551,-1.34065077 5.557607,-2.02316389 8.507038,-2.04753935 l 25.764871,0.0731264 C 71.629265,4.9516327 76.358105,10.631117 79.941299,17.01749 Z"
           id="path16"
           inkscape:connector-curvature="0" />
        <path
           d="m 69.118591,78.199916 c 0.316881,0.146253 0.511885,0.463134 0.48751,0.80439 0,0.511885 -0.414383,0.926268 -0.926268,0.926268 0,0 0,0 -0.02438,0 H 61.26969 l -8.385161,-1.633156 c -0.487509,-0.0975 -0.828766,-0.585012 -0.755639,-1.072521 l 0.780015,-4.436335 c 0.07313,-0.438759 0.463134,-0.780015 0.926267,-0.780015 h 8.921422 c 0.243755,0 0.487509,0.0975 0.658138,0.292505 l 5.386978,5.70386 c 0.121877,0.07313 0.219379,0.146253 0.316881,0.195004 z"
           id="path18"
           inkscape:connector-curvature="0" />
      </g>
      <path
         d="m 101.12358,16.091222 -25.716118,-0.07313 c -2.949432,0 -5.874488,0.706889 -8.507038,2.04754 l -14.430278,7.31264 c -1.925662,0.975019 -3.65632,2.266919 -5.143224,3.826949 l -10.335198,10.92021 c -1.145647,1.194398 -1.803785,2.778803 -1.77941,4.460711 v 24.5461 C 25.535253,58.577664 17.247594,46.828688 10.519965,34.202195 10.300586,33.763437 10.081206,33.324678 9.8618271,32.88592 10.641842,31.447767 11.494984,30.082741 12.396876,28.717715 l 0.146253,0.0975 11.310217,-1.584405 c 0.0975,0 0.195004,-0.04875 0.26813,-0.07313 l 8.726418,-3.997577 c 2.925056,-1.340651 5.411354,-3.436941 7.215139,-6.093867 l 3.315063,-4.875094 c 0.04875,-0.07313 0.07313,-0.146253 0.0975,-0.219379 L 45.986271,4.3666214 C 60.587177,0.22279178 76.187477,1.7340708 89.715862,8.5835775 93.786565,10.631117 97.613514,13.14179 101.12358,16.091222 Z"
         id="path22"
         inkscape:connector-curvature="0"
         style="fill:#62beff;fill-rule:nonzero" />
      <path
         d="m 94.712833,73.397948 v 5.947615 c 0,0.511885 -0.438758,0.926268 -0.950643,0.926268 -0.341257,0 -0.658138,-0.195004 -0.828766,-0.48751 l -2.705677,-5.143224 c 0.195004,-0.195003 0.390008,-0.341256 0.560636,-0.53626 1.365026,-1.486903 2.656926,-3.022558 3.900075,-4.460711 z"
         id="path24"
         inkscape:connector-curvature="0"
         style="fill:#ffffff;fill-rule:nonzero" />
      <path
         d="m 86.473925,67.401583 1.779409,3.363815 c -0.195004,0.195004 -0.365632,0.365632 -0.511885,0.560636 -2.461922,2.730052 -5.167599,5.533231 -8.019529,8.385161 -3.193186,3.193186 -6.483875,6.337622 -9.823314,9.311429 -0.07313,0.04875 -0.0975,0.0975 -0.170628,0.146253 l -2.949432,-2.340045 c -0.390007,-0.316881 -0.975018,-0.268131 -1.2919,0.121877 -0.07313,0.07313 -0.121877,0.170628 -0.146252,0.243755 l -2.486298,6.02074 c -0.195004,0.438759 0,0.950644 0.414383,1.170023 l 0.243754,0.146253 c -0.365632,0.292505 -0.731264,0.609387 -1.096896,0.901892 -2.486297,-2.071915 -4.899469,-4.119454 -7.31264,-6.288871 -0.07313,-0.04875 -0.0975,-0.0975 -0.170629,-0.146253 1.243149,-2.023164 1.901287,-4.363208 1.901287,-6.752004 v -1.77941 c 0,-6.410748 3.315064,-12.358362 8.750793,-15.746552 l 2.169417,-1.340651 c 1.340651,-0.828766 2.925056,-1.170023 4.485086,-0.926268 l 9.555184,1.56003 c 1.974413,0.316881 3.729447,1.56003 4.68009,3.38819 z"
         id="path26"
         inkscape:connector-curvature="0"
         style="fill:#ffffff;fill-rule:nonzero" />
      <path
         d="m 84.060754,115.56751 c 1.07252,0.63376 2.193792,1.21877 3.339439,1.77941 -15.86843,7.21514 -34.05253,7.21514 -49.92096,0 1.340651,-0.68251 2.705677,-1.43815 4.070703,-2.21817 l -1.023769,-1.80378 1.462528,-0.85315 1.07252,1.77941 c 2.973807,-1.77941 5.996366,-3.72944 9.09205,-5.87448 1.2919,-0.21938 2.608175,-0.34126 3.900075,-0.34126 h 8.628916 c 2.681301,0 5.362603,0.43876 7.897652,1.34065 l 3.339439,1.17002 c 2.754428,1.82816 5.48448,3.51007 8.141407,5.02135 z"
         id="path28"
         inkscape:connector-curvature="0"
         style="fill:#ffffff;fill-rule:nonzero" />
      <g
         id="g34"
         transform="translate(2.437547,37.294467)"
         style="fill:#62beff;fill-rule:nonzero">
        <path
           d="m 73.4818,73.251696 -3.339439,-1.170023 c -2.535049,-0.877517 -5.191975,-1.340651 -7.897652,-1.340651 h -8.628916 c -1.316275,0 -2.608175,0.0975 -3.900075,0.341257 3.38819,-2.340045 6.825131,-4.875094 10.286448,-7.629522 4.558213,3.656321 9.09205,6.922633 13.479634,9.798939 z"
           id="path30"
           inkscape:connector-curvature="0" />
        <path
           d="m 49.886347,54.945719 c 2.193792,1.974413 4.485086,3.948826 6.752004,5.850112 C 50.861365,65.378419 44.791874,69.571 38.478627,73.373573 l 1.072521,1.779409 -1.462528,0.853142 -1.02377,-1.803785 c -1.803785,1.02377 -3.607569,1.998788 -5.313852,2.876305 -0.438759,0.219379 -0.901893,0.438759 -1.340651,0.633762 -5.313852,-2.973807 -10.140195,-6.752004 -14.3084,-11.18834 l 3.095684,-21.036029 c 0.316882,-2.145041 0.243755,-4.338834 -0.26813,-6.459499 L 16.053196,27.011432 c 0,-1.486904 -0.463134,-2.925057 -1.316275,-4.119454 L 13.201266,20.698185 C 11.860616,18.796899 9.6911988,17.675627 7.3755293,17.675627 L 0.11163965,17.55375 C 0.8429037,11.533009 2.5004356,5.6585213 5.0111088,0.12528991 12.201872,13.239292 21.001416,25.402651 31.165987,36.347236 c 0.633762,0.682513 1.243148,1.365027 1.901286,2.071915 0.48751,2.09629 1.486904,4.070703 2.925056,5.679484 l 10.603329,11.992731 c 0.316881,0.316881 0.804391,0.390007 1.194398,0.170628 l 0.243755,-0.146253 c 0.633762,-0.365632 1.218773,-0.80439 1.779409,-1.267524 0,0.04875 0.04875,0.07313 0.07313,0.0975 z"
           id="path32"
           inkscape:connector-curvature="0" />
      </g>
      <g
         id="g40"
         transform="translate(12.187734,4.14383)"
         style="fill:#ffffff;fill-rule:nonzero">
        <path
           d="m 40.038657,87.998854 c -0.560636,0.487509 -1.145647,0.901892 -1.779409,1.267525 l -0.243755,0.146252 c -0.390007,0.243755 -0.877517,0.170629 -1.194398,-0.170628 L 26.242142,77.273648 c -1.438153,-1.608781 -2.437547,-3.583194 -2.925056,-5.679484 2.120665,2.315669 4.363209,4.631339 6.630127,6.922633 3.38819,3.339439 6.752005,6.50825 10.091444,9.482057 z"
           id="path36"
           inkscape:connector-curvature="0" />
        <path
           d="M 33.798537,0.19841631 31.287864,7.8035625 c -0.02438,0.073126 -0.04875,0.1462528 -0.0975,0.2193792 L 27.8753,12.898035 c -1.803784,2.656926 -4.314458,4.753217 -7.215138,6.093868 l -8.750794,4.021952 c -0.07313,0.04875 -0.170628,0.07313 -0.26813,0.07313 L 0.33101886,24.671387 0.18476605,24.573885 C 5.3523654,16.944363 12.177497,10.582366 20.17265,5.9754024 21.098918,5.4391421 22.049561,4.9028817 23.000205,4.4397478 26.41277,2.6603386 30.044715,1.2465615 33.798537,0.19841631 Z"
           id="path38"
           inkscape:connector-curvature="0" />
      </g>
      <circle
         id="Oval-3"
         cx="62.523075"
         cy="62.523075"
         r="58.60923"
         style="stroke:#56729b;stroke-width:3.92000008" />
      <g
         id="g47"
         transform="translate(0.953846,0.953846)"
         style="fill:#2e7caf;fill-rule:nonzero">
        <path
           d="m 117.48526,87.150701 -2.23224,4.704214 c 5.48447,11.822105 7.95534,23.445075 4.00652,27.393895 -4.09508,4.11945 -13.65027,2.92506 -26.276759,-3.21756 -0.414383,0.24375 -0.828766,0.48751 -1.243149,0.70689 l -5.630733,-1.97442 -9.165177,-3.19318 c 2.754428,1.82816 5.484481,3.48569 8.141407,5.02135 1.072521,0.63376 2.193792,1.21877 3.339439,1.7794 0.780015,-0.36563 1.56003,-0.73126 2.340045,-1.12127 -0.292505,-0.14625 -0.560636,-0.2925 -0.853141,-0.43876 0.292505,0.14626 0.560636,0.29251 0.853141,0.43876 -0.780015,0.39001 -1.535654,0.78002 -2.340045,1.12127 0.463134,0.24376 0.926268,0.48751 1.389402,0.73127 8.799544,4.46071 16.38031,6.70325 22.27918,6.70325 3.72945,0.21938 7.38577,-1.07252 10.16457,-3.58319 5.63073,-5.72824 2.93019,-19.886 -4.77246,-35.071919 z"
           id="path43"
           inkscape:connector-curvature="0" />
        <path
           d="m 85.621389,114.47122 c 0.146253,0.0975 0.292506,0.17063 0.463134,0.26813 l 5.630733,1.97441 c 0.414383,-0.21938 0.828766,-0.46313 1.243149,-0.70689 -0.438758,-0.21938 -0.901892,-0.41438 -1.34065,-0.63376 -1.535655,-0.78001 -3.046934,-1.5844 -4.533838,-2.43755 -7.142012,-4.09507 -13.942768,-8.72641 -20.377891,-13.869637 0.365632,-0.316881 0.731264,-0.609387 1.07252,-0.926268 2.193792,-1.852536 4.046328,-3.461317 5.801362,-5.021347 3.363814,-3.046933 6.752005,-6.191369 9.993942,-9.457681 2.705677,-2.730053 5.265101,-5.411354 7.605146,-7.995154 0.195004,-0.195004 0.365632,-0.365632 0.511885,-0.560636 1.365026,-1.486903 2.681301,-2.973807 3.900075,-4.41196 0.780015,-0.901892 1.486904,-1.779409 2.193792,-2.608175 0.706889,-0.80439 1.389402,-1.633156 2.071915,-2.461922 0.706887,-0.853142 1.389407,-1.730658 2.047537,-2.5838 6.167,-7.702648 11.65148,-15.941556 16.33157,-24.619223 -0.36564,-0.780015 -0.73127,-1.56003 -1.12127,-2.340045 -5.28948,10.042693 -11.6271,19.500375 -18.866618,28.226793 7.263888,-8.726418 13.577138,-18.1841 18.866618,-28.226793 0.39,0.780015 0.78001,1.535654 1.12127,2.340045 0.24375,-0.463134 0.48751,-0.926268 0.73126,-1.389402 7.70265,-15.234668 8.79954,-26.739889 3.12006,-32.4437486 -5.67948,-5.6551087 -16.24751,-5.04497709 -31.457799,2.6820464 l 1.671644,0.8502429 2.291153,1.371654 C 106.48732,3.9573184 115.21321,3.6359632 119.18641,7.6091645 c 4.11945,4.0950785 2.92506,13.6502625 -3.21756,26.3011305 -0.21938,0.438759 -0.41439,0.877517 -0.63376,1.316275 -5.24073,9.896441 -11.48085,19.232245 -18.622863,27.836786 -0.633762,0.780015 -1.291899,1.56003 -1.998788,2.36442 -1.681907,2.047539 -3.558818,4.168205 -5.508856,6.361997 l 1.02377,1.950038 -1.02377,-1.950038 c -0.195004,0.195004 -0.365632,0.365632 -0.511885,0.560636 -2.461922,2.730053 -5.167599,5.533231 -8.019529,8.385161 -3.193186,3.193187 -6.483874,6.337622 -9.823314,9.311429 -1.852535,1.633157 -3.65632,3.266313 -5.728235,4.996971 -0.195004,0.146253 -0.414383,0.341257 -0.585011,0.48751 l 1.755034,0.975019 c 0.04875,0.01625 -0.536261,-0.308756 -1.755034,-0.975019 -0.365632,0.292505 -0.731264,0.609387 -1.096896,0.901892 -2.486298,-2.071915 -4.899469,-4.119454 -7.312641,-6.288871 -3.412565,-3.071309 -6.752005,-6.191369 -9.969566,-9.433306 -2.925057,-2.925056 -5.752611,-5.874488 -8.409537,-8.82392 C 37.236084,71.302264 36.699824,70.717253 36.212314,70.132242 26.535253,59.577664 18.247594,47.828688 11.519965,35.202195 11.300586,34.763437 11.081206,34.324678 10.861827,33.88592 4.6460826,21.235051 3.4273092,11.679868 7.5711388,7.5604136 11.568716,3.5384613 18.103411,3.0315306 30.242395,8.7353902 L 34.212463,6.2942185 C 18.977795,-1.432805 10.325567,-1.1172532 4.6217071,4.6109819 -1.0821525,10.339217 0.01474356,21.868814 7.7661426,37.079106 c 0.2193792,0.463134 0.4631339,0.926268 0.7068886,1.365026 7.1907628,13.114002 15.9903078,25.277361 26.1548778,36.221947 0.633762,0.682513 1.243149,1.365026 1.901286,2.071915 2.120666,2.315669 4.363209,4.631338 6.630128,6.922633 3.339439,3.339439 6.727629,6.50825 10.067068,9.482057 2.266919,2.047539 4.558213,4.021952 6.825132,5.923239 -5.776986,4.582587 -11.846478,8.775167 -18.159724,12.577737 -1.803785,1.02377 -5.021347,2.82756 -6.72763,3.70508 -0.438758,0.21938 -0.901892,0.43875 -1.340651,0.63376 0.365632,0.21938 0.75564,0.41438 1.121272,0.60939 0.365632,0.195 0.75564,0.39 1.145647,0.58501 0.877517,-0.43876 1.755034,-0.92627 2.656926,-1.41378 -0.901892,0.48751 -1.779409,0.95064 -2.656926,1.41378 -0.390007,-0.19501 -0.75564,-0.39001 -1.145647,-0.58501 -0.365632,-0.19501 -0.75564,-0.41439 -1.121272,-0.60939 -12.626492,6.16699 -22.181676,7.33701 -26.2767547,3.21756 -3.9975768,-3.9732 -3.4929426,-12.43192 2.1621661,-24.449023 L 9.0481752,93.646055 7.1747717,90.382659 c -7.70264805,15.259041 -8.2569242,26.111721 -2.5530646,31.815581 2.754428,2.51068 6.4107479,3.80258 10.1401949,3.5832 5.923239,0 13.50401,-2.24255 22.303554,-6.70326 0.463134,-0.21938 0.926268,-0.48751 1.389402,-0.73126 -0.195004,-0.0975 -0.365633,-0.17063 -0.560636,-0.26813 0.195003,0.0975 0.365632,0.17063 0.560636,0.26813 1.34065,-0.68251 4.19258,-2.31567 5.581982,-3.09569 2.973807,-1.77941 6.020741,-3.72944 9.09205,-5.87448 -2.876306,0.46313 -5.679485,1.46252 -8.190158,2.92505 2.535049,-1.4869 5.313852,-2.46192 8.190158,-2.92505 3.38819,-2.31567 6.825131,-4.8751 10.286447,-7.62953 0.21938,-0.17062 0.438759,-0.34125 0.633762,-0.51188 -0.219379,0.17063 -0.438758,0.34126 -0.633762,0.51188 4.606964,3.65632 9.116426,6.92264 13.50401,9.79894 l 9.165176,3.19319 c -0.146253,-0.0731 -0.292506,-0.17063 -0.463134,-0.26813 z M 101.95295,63.087731 c -1.31627,0.04875 -2.583797,0.487509 -3.631942,1.267524 1.048145,-0.780015 2.315672,-1.218773 3.631942,-1.267524 z m -3.656317,1.267524 c -0.853142,0.609387 -1.535655,1.413778 -1.974413,2.364421 0.438758,-0.950643 1.121271,-1.755034 1.974413,-2.364421 z M 72.214882,91.582654 c -0.07313,-0.146253 -0.146253,-0.243755 -0.268131,-0.365632 0.121878,0.0975 0.21938,0.219379 0.268131,0.365632 0.07313,0.146253 0.0975,0.292505 0.07313,0.438758 0.02437,-0.146253 0,-0.292505 -0.07313,-0.438758 -0.48751,0.438758 -0.975019,0.877517 -1.462529,1.2919 0.511885,-0.438759 0.975019,-0.853142 1.462529,-1.2919 z"
           id="path45"
           inkscape:connector-curvature="0" />
      </g>
      <g
         id="g53"
         style="fill:#3c92ca;fill-rule:nonzero">
        <path
           d="m 118.11328,88.803245 -2.29129,4.777592 c 5.48448,11.822103 6.38637,20.719153 2.43755,24.667973 -4.09508,4.11945 -13.65027,2.92506 -26.276759,-3.21756 -0.414383,0.24375 -0.828766,0.48751 -1.243149,0.70689 l -5.630733,-1.97442 -9.165177,-3.19318 c 2.754428,1.82816 5.484481,3.48569 8.141407,5.02135 1.072521,0.63376 2.193792,1.21877 3.339439,1.7794 0.780015,-0.36563 1.56003,-0.73126 2.340045,-1.12127 -0.292505,-0.14625 -0.560636,-0.2925 -0.853141,-0.43876 0.292505,0.14626 0.560636,0.29251 0.853141,0.43876 -0.780015,0.39001 -1.535654,0.78002 -2.340045,1.12127 0.463134,0.24376 0.926268,0.48751 1.389402,0.73127 8.799544,4.46071 16.38031,6.70325 22.27918,6.70325 3.72945,0.21938 7.38577,-1.07252 10.16457,-3.58319 5.63073,-5.72824 4.55821,-17.23346 -3.14444,-32.419375 z"
           id="path49"
           inkscape:connector-curvature="0" />
        <path
           d="m 84.621389,113.47122 c 0.146253,0.0975 0.292506,0.17063 0.463134,0.26813 l 5.630733,1.97441 c 0.414383,-0.21938 0.828766,-0.46313 1.243149,-0.70689 -0.438758,-0.21938 -0.901892,-0.41438 -1.34065,-0.63376 -1.535655,-0.78001 -3.046934,-1.5844 -4.533838,-2.43755 -7.142012,-4.09507 -13.942768,-8.72641 -20.377891,-13.869637 0.365632,-0.316881 0.731264,-0.609387 1.07252,-0.926268 2.193792,-1.852536 4.046328,-3.461317 5.801362,-5.021347 3.363814,-3.046933 6.752005,-6.191369 9.993942,-9.457681 2.705677,-2.730053 5.265101,-5.411354 7.605146,-7.995154 0.195004,-0.195004 0.365632,-0.365632 0.511885,-0.560636 1.365026,-1.486903 2.681301,-2.973807 3.900075,-4.41196 0.780015,-0.901892 1.486904,-1.779409 2.193792,-2.608175 0.706889,-0.80439 1.389402,-1.633156 2.071915,-2.461922 0.706889,-0.853142 1.389407,-1.730658 2.047537,-2.5838 6.167,-7.702648 11.65148,-15.941556 16.33157,-24.619223 -0.36564,-0.780015 -0.73127,-1.56003 -1.12127,-2.340045 -5.28948,10.042693 -11.6271,19.500375 -18.866618,28.226793 7.263888,-8.726418 13.577138,-18.1841 18.866618,-28.226793 0.39,0.780015 0.78001,1.535654 1.12127,2.340045 0.24375,-0.463134 0.48751,-0.926268 0.73126,-1.389402 7.70265,-15.234668 8.79954,-26.7398889 3.12006,-32.4437485 -5.67948,-5.6551088 -17.18471,-4.55821268 -32.394998,3.1688109 l 1.486904,0.7556395 3.193186,1.5844055 C 105.26741,3.562231 114.21321,2.6359632 118.18641,6.6091645 c 4.11945,4.0950785 2.92506,13.6502625 -3.21756,26.3011305 -0.21938,0.438759 -0.41439,0.877517 -0.63376,1.316275 -5.24073,9.896441 -11.48085,19.232245 -18.622863,27.836786 -0.633762,0.780015 -1.291899,1.56003 -1.998788,2.36442 -1.681907,2.047539 -3.558818,4.168205 -5.508856,6.361997 l 1.02377,1.950038 -1.02377,-1.950038 c -0.195004,0.195004 -0.365632,0.365632 -0.511885,0.560636 -2.461922,2.730053 -5.167599,5.533231 -8.019529,8.385161 -3.193186,3.193187 -6.483874,6.337622 -9.823314,9.311429 -0.07313,0.04875 -0.0975,0.0975 -0.170628,0.146253 -1.681907,1.486904 -3.485692,3.12006 -5.557607,4.850718 -0.195004,0.146253 -0.414383,0.341257 -0.585011,0.48751 l 1.755034,0.975019 c 0.02438,0.02437 0.07313,0.02437 0.0975,0.04875 -0.02438,-0.02438 -0.07313,-0.02438 -0.0975,-0.04875 L 63.536609,94.53148 c -0.365632,0.292505 -0.731264,0.609387 -1.096896,0.901892 -2.486298,-2.071915 -4.899469,-4.119454 -7.312641,-6.288871 -0.07313,-0.04875 -0.0975,-0.0975 -0.170628,-0.146253 -3.241937,-2.925056 -6.581377,-6.045116 -9.798938,-9.287053 -2.925057,-2.925056 -5.752611,-5.874488 -8.409537,-8.82392 C 36.236084,70.302264 35.699824,69.717253 35.212314,69.132242 25.535253,58.577664 17.247594,46.828688 10.519965,34.202195 10.300586,33.763437 10.081206,33.324678 9.8618271,32.88592 3.6460826,20.235051 2.4273092,10.679868 6.5711388,6.5604136 10.568716,2.5384613 19.709516,3.562231 31.8485,9.2660906 L 36.089831,6.7310419 C 20.855163,-0.99598165 9.3255668,-2.1172532 3.6217071,3.6109819 -2.0821525,9.339217 -0.98525644,20.868814 6.7661426,36.079106 c 0.2193792,0.463134 0.4631339,0.926268 0.7068886,1.365026 7.1907628,13.114002 15.9903078,25.277361 26.1548778,36.221947 0.633762,0.682513 1.243149,1.365026 1.901286,2.071915 2.120666,2.315669 4.363209,4.631338 6.630128,6.922633 3.339439,3.339439 6.727629,6.50825 10.067068,9.482057 0.02438,0.04875 0.07313,0.07313 0.07313,0.07313 2.193792,1.974413 4.485086,3.948826 6.752005,5.850113 -5.776986,4.582583 -11.846478,8.775163 -18.159724,12.577733 -1.803785,1.02377 -5.021347,2.82756 -6.72763,3.70508 -0.438758,0.21938 -0.901892,0.43875 -1.340651,0.63376 0.365632,0.21938 0.75564,0.41438 1.121272,0.60939 0.365632,0.195 0.75564,0.39 1.145647,0.58501 0.877517,-0.43876 1.755034,-0.92627 2.656926,-1.41378 -0.901892,0.48751 -1.779409,0.95064 -2.656926,1.41378 -0.390007,-0.19501 -0.75564,-0.39001 -1.145647,-0.58501 -0.365632,-0.19501 -0.75564,-0.41439 -1.121272,-0.60939 -12.626492,6.16699 -22.181676,7.33701 -26.2767547,3.21756 -3.9975768,-3.9732 -3.022558,-13.04088 2.6325507,-25.057978 L 8.5943027,92.093933 6.7173916,88.705743 c -7.70264804,15.259047 -8.7995441,26.788637 -3.0956845,32.492497 2.754428,2.51068 6.4107479,3.80258 10.1401949,3.5832 5.923239,0 13.50401,-2.24255 22.303554,-6.70326 0.463134,-0.21938 0.926268,-0.48751 1.389402,-0.73126 -0.195004,-0.0975 -0.365633,-0.17063 -0.560636,-0.26813 0.195003,0.0975 0.365632,0.17063 0.560636,0.26813 1.34065,-0.68251 4.19258,-2.31567 5.581982,-3.09569 2.973807,-1.77941 6.020741,-3.72944 9.09205,-5.87448 -2.876306,0.46313 -5.679485,1.46252 -8.190158,2.92505 2.535049,-1.4869 5.313852,-2.46192 8.190158,-2.92505 3.38819,-2.31567 6.825131,-4.8751 10.286447,-7.62953 0.21938,-0.17062 0.438759,-0.34125 0.633762,-0.51188 -0.219379,0.17063 -0.438758,0.34126 -0.633762,0.51188 4.606964,3.65632 9.116426,6.92264 13.50401,9.79894 l 9.165176,3.19319 c -0.146253,-0.0731 -0.292506,-0.17063 -0.463134,-0.26813 z M 100.95295,62.087731 c -1.316272,0.04875 -2.583797,0.487509 -3.631942,1.267524 1.048145,-0.780015 2.31567,-1.218773 3.631942,-1.267524 z m -3.656317,1.267524 c -0.853142,0.609387 -1.535655,1.413778 -1.974413,2.364421 0.438758,-0.950643 1.121271,-1.755034 1.974413,-2.364421 z M 71.214882,90.582654 c -0.07313,-0.146253 -0.146253,-0.243755 -0.268131,-0.365632 0.121878,0.0975 0.21938,0.219379 0.268131,0.365632 0.07313,0.146253 0.0975,0.292505 0.07313,0.438758 0.02437,-0.146253 0,-0.292505 -0.07313,-0.438758 -0.48751,0.438758 -0.975019,0.877517 -1.462529,1.2919 0.511885,-0.438759 0.975019,-0.853142 1.462529,-1.2919 z"
           id="path51"
           inkscape:connector-curvature="0" />
      </g>
    </g>
  </g>
  <g
     transform="translate(-349.82143,-510.173)"
     id="layer1"
     inkscape:label="Capa 1">
    <g
       id="cs-date-time"
       style="fill:none;fill-rule:evenodd;stroke:none;stroke-width:1"
       transform="matrix(0.1875,0,0,0.1875,356.82143,517.173)">
      <g
         id="circular-clock"
         style="fill-rule:nonzero">
        <circle
           r="64"
           cy="64"
           cx="64"
           id="Oval"
           style="fill:url(#radialGradient-1)" />
        <circle
           r="52.9655"
           cy="64"
           cx="64"
           id="circle1186"
           style="fill:url(#linearGradient-2)" />
        <path
           id="Shape-3"
           d="m 39.72425,90.48275 c -0.56475,0 -1.1295,-0.2155 -1.56025,-0.6465 -0.862,-0.8615 -0.862,-2.259 0,-3.12075 l 29.793,-29.793 c 0.862,-0.862 2.25875,-0.862 3.12075,0 0.862,0.8615 0.862,2.259 0,3.12075 l -29.793,29.793 c -0.43125,0.431 -0.996,0.6465 -1.5605,0.6465 z"
           inkscape:connector-curvature="0"
           style="fill:#d0021b" />
        <path
           id="path1189"
           d="M 94.8965,61.793 H 66.207 V 37.51725 c 0,-1.21875 -0.98825,-2.207 -2.207,-2.207 -1.21875,0 -2.207,0.98825 -2.207,2.207 V 61.793 h -4.41375 c -1.21875,0 -2.207,0.98825 -2.207,2.207 0,1.21875 0.98825,2.207 2.207,2.207 H 61.793 v 4.41375 c 0,1.21875 0.98825,2.207 2.207,2.207 1.21875,0 2.207,-0.98825 2.207,-2.207 V 66.207 h 28.68975 c 1.21875,0 2.207,-0.98825 2.207,-2.207 0,-1.21875 -0.9885,-2.207 -2.20725,-2.207 z"
           inkscape:connector-curvature="0"
           style="fill:#4a4a4a" />
        <circle
           r="4.4137502"
           cy="64"
           cx="64"
           id="circle1191"
           style="fill:#4a4a4a" />
      </g>
    </g>
  </g>
</svg>
