<?xml version="1.0" encoding="UTF-8" standalone="no"?>
<!-- Created with Inkscape (http://www.inkscape.org/) -->

<svg
   xmlns:dc="http://purl.org/dc/elements/1.1/"
   xmlns:cc="http://creativecommons.org/ns#"
   xmlns:rdf="http://www.w3.org/1999/02/22-rdf-syntax-ns#"
   xmlns:svg="http://www.w3.org/2000/svg"
   xmlns="http://www.w3.org/2000/svg"
   xmlns:sodipodi="http://sodipodi.sourceforge.net/DTD/sodipodi-0.dtd"
   xmlns:inkscape="http://www.inkscape.org/namespaces/inkscape"
   width="32"
   version="1.1"
   height="32"
   id="svg2"
   inkscape:version="0.92.3 (2405546, 2018-03-11)"
   sodipodi:docname="preferences-desktop-screensaver.svg">
  <sodipodi:namedview
     pagecolor="#ffffff"
     bordercolor="#666666"
     borderopacity="1"
     objecttolerance="10"
     gridtolerance="10"
     guidetolerance="10"
     inkscape:pageopacity="0"
     inkscape:pageshadow="2"
     inkscape:window-width="1366"
     inkscape:window-height="712"
     id="namedview61"
     showgrid="false"
     inkscape:zoom="10.429825"
     inkscape:cx="25.928213"
     inkscape:cy="14.311331"
     inkscape:window-x="0"
     inkscape:window-y="27"
     inkscape:window-maximized="1"
     inkscape:current-layer="Group" />
  <defs
     id="defs5455">
    <linearGradient
       x1="105.52725"
       y1="0"
       x2="0"
       y2="105.52725"
       id="linearGradient-1"
       gradientTransform="scale(1.2129569,0.82443162)"
       gradientUnits="userSpaceOnUse">
      <stop
         stop-color="#B369F1"
         offset="0%"
         id="stop6" />
      <stop
         stop-color="#8F35D2"
         offset="100%"
         id="stop8" />
    </linearGradient>
  </defs>
  <metadata
     id="metadata5458">
    <rdf:RDF>
      <cc:Work
         rdf:about="">
        <dc:format>image/svg+xml</dc:format>
        <dc:type
           rdf:resource="http://purl.org/dc/dcmitype/StillImage" />
      </cc:Work>
    </rdf:RDF>
  </metadata>
  <g
     inkscape:label="Capa 1"
     inkscape:groupmode="layer"
     id="layer1"
     transform="translate(-384.57143,-515.798)">
    <g
       id="cs-screensaver"
       style="fill:none;fill-rule:evenodd;stroke:none;stroke-width:1"
       transform="matrix(0.25,0,0,0.25,384.57143,515.79804)">
      <g
         id="Group"
         transform="translate(0,21)">
        <polygon
           id="Path"
           points="128,87 0,87 0,0 128,0 "
           style="fill:url(#linearGradient-1)"
           transform="matrix(1,0,0,1.137931,0,-6.500157)" />
        <path
           d="m 67.560585,11.84084 c -11.289994,0 -20.475609,9.391 -20.475609,20.935 0,5.725 2.327231,11.261 6.390115,15.2 v 18.902 c 0,7.941 6.318786,14.402 14.085494,14.402 7.766709,0 14.085495,-6.461 14.085495,-14.402 v -18.902 c 4.061271,-3.937 6.390115,-9.474 6.390115,-15.2 0,-11.544 -9.185211,-20.935 -20.47561,-20.935 z m 7.245649,28.795 c -1.954874,1.883 -3.075974,4.515 -3.075974,7.222 v 19.02 c 0,2.351 -1.869845,4.263 -4.168868,4.263 -2.299023,0 -4.168868,-1.912 -4.168868,-4.263 v -19.02 c 0,-2.707 -1.121102,-5.339 -3.074767,-7.221 -2.137428,-2.062 -3.314946,-4.853 -3.314946,-7.861 0,-5.953 4.737075,-10.796 10.558983,-10.796 5.821909,0 10.558984,4.843 10.558984,10.796 -0.0012,3.008 -1.178729,5.799 -3.314544,7.86 z"
           id="Shape"
           inkscape:connector-curvature="0"
           style="fill:#7d36b6;fill-rule:nonzero;stroke-width:1.78048778" />
        <path
           d="m 63.99961,8.27984 c -11.289995,0 -20.47561,9.391 -20.47561,20.935 0,5.725 2.327231,11.261 6.390116,15.2 v 18.902 c 0,7.941 6.318785,14.402 14.085494,14.402 7.766708,0 14.085494,-6.461 14.085494,-14.402 v -18.902 c 4.061271,-3.937 6.390116,-9.474 6.390116,-15.2 0,-11.544 -9.185211,-20.935 -20.47561,-20.935 z m 7.245649,28.795 c -1.954875,1.883 -3.075975,4.515 -3.075975,7.222 v 19.02 c 0,2.351 -1.869845,4.263 -4.168868,4.263 -2.299023,0 -4.168868,-1.912 -4.168868,-4.263 v -19.02 c 0,-2.707 -1.121102,-5.339 -3.074767,-7.221 -2.137427,-2.062 -3.314946,-4.853 -3.314946,-7.861 0,-5.953 4.737075,-10.796 10.558984,-10.796 5.821908,0 10.558983,4.843 10.558983,10.796 -0.0012,3.008 -1.178729,5.799 -3.314543,7.86 z"
           id="path15"
           inkscape:connector-curvature="0"
           style="fill:#ffffff;fill-rule:nonzero;stroke-width:1.78048778" />
      </g>
    </g>
  </g>
</svg>
