<?xml version="1.0" encoding="UTF-8" standalone="no"?>
<!-- Created with Inkscape (http://www.inkscape.org/) -->

<svg
   xmlns:dc="http://purl.org/dc/elements/1.1/"
   xmlns:cc="http://creativecommons.org/ns#"
   xmlns:rdf="http://www.w3.org/1999/02/22-rdf-syntax-ns#"
   xmlns:svg="http://www.w3.org/2000/svg"
   xmlns="http://www.w3.org/2000/svg"
   xmlns:sodipodi="http://sodipodi.sourceforge.net/DTD/sodipodi-0.dtd"
   xmlns:inkscape="http://www.inkscape.org/namespaces/inkscape"
   width="32"
   version="1.1"
   height="32"
   id="svg16"
   sodipodi:docname="preferences-desktop-keyboard.svg"
   inkscape:version="0.92.3 (2405546, 2018-03-11)">
  <sodipodi:namedview
     pagecolor="#ffffff"
     bordercolor="#666666"
     borderopacity="1"
     objecttolerance="10"
     gridtolerance="10"
     guidetolerance="10"
     inkscape:pageopacity="0"
     inkscape:pageshadow="2"
     inkscape:window-width="1366"
     inkscape:window-height="701"
     id="namedview18"
     showgrid="false"
     inkscape:zoom="7.375"
     inkscape:cx="2.3050847"
     inkscape:cy="16"
     inkscape:window-x="0"
     inkscape:window-y="0"
     inkscape:window-maximized="1"
     inkscape:current-layer="layer1" />
  <defs
     id="defs5455" />
  <metadata
     id="metadata5458">
    <rdf:RDF>
      <cc:Work
         rdf:about="">
        <dc:format>image/svg+xml</dc:format>
        <dc:type
           rdf:resource="http://purl.org/dc/dcmitype/StillImage" />
      </cc:Work>
    </rdf:RDF>
  </metadata>
  <g
     inkscape:label="Capa 1"
     inkscape:groupmode="layer"
     id="layer1"
     transform="translate(-384.57143,-515.798)">
    <g
       id="cs-keyboard"
       style="fill:none;fill-rule:evenodd;stroke:none;stroke-width:1"
       transform="matrix(0.25,0,0,0.25,384.57144,515.79798)">
      <g
         id="keyboard"
         transform="translate(0,15)"
         style="fill-rule:nonzero">
        <path
           d="M 122.3316,95.874258 H 5.6684037 C 2.5379817,95.874258 0,93.328785 0,90.188466 V 45.609129 C 0,42.46881 2.5379817,39.923337 5.6684037,39.923337 H 122.3316 c 3.13071,0 5.6684,2.545767 5.6684,5.685792 v 44.579337 c 0,3.140319 -2.53798,5.685792 -5.6684,5.685792 z"
           id="Shape"
           inkscape:connector-curvature="0"
           style="fill:#cccccc" />
        <g
           id="Group"
           transform="translate(99.229358,48.883436)"
           style="fill:#4d4d4d">
          <path
             d="m 18.36389,13.763926 h -6.326018 c -0.721321,0 -1.305835,0.586307 -1.305835,1.309841 v 7.88319 c 0,0.723534 0.584514,1.30984 1.305835,1.30984 h 6.326018 c 0.721321,0 1.305835,-0.586601 1.305835,-1.30984 v -7.88319 c 0,-0.723239 -0.584514,-1.309841 -1.305835,-1.309841 z"
             id="path9"
             inkscape:connector-curvature="0" />
          <path
             d="M 19.669725,10.392736 V 1.4788712 c 0,-0.72353378 -0.584808,-1.30984053 -1.305835,-1.30984053 h -6.326018 c -0.721321,0 -1.305835,0.58660123 -1.305835,1.30984053 v 8.9138648 c 0,0.723534 0.584514,1.309841 1.305835,1.309841 h 6.326018 c 0.721321,0 1.305835,-0.586307 1.305835,-1.309841 z"
             id="path11"
             inkscape:connector-curvature="0" />
          <path
             d="M 1.3228624,24.267092 H 7.371156 c 0.7213211,0 1.3058348,-0.586601 1.3058348,-1.30984 v -7.883191 c 0,-0.723533 -0.5848073,-1.30984 -1.3058348,-1.30984 H 1.3228624 c -0.72132112,0 -1.30583488,0.586307 -1.30583488,1.30984 v 7.883191 c 0,0.723239 0.58451376,1.30984 1.30583488,1.30984 z"
             id="path13"
             inkscape:connector-curvature="0" />
          <path
             d="M 1.3228624,37.861988 H 7.371156 c 0.7213211,0 1.3058348,-0.586601 1.3058348,-1.309841 v -8.913865 c 0,-0.723533 -0.5848073,-1.30984 -1.3058348,-1.30984 H 1.3228624 c -0.72132112,0 -1.30583488,0.586307 -1.30583488,1.30984 v 8.913865 c 0,0.723534 0.58451376,1.309841 1.30583488,1.309841 z"
             id="path15"
             inkscape:connector-curvature="0" />
          <path
             d="M 1.3228624,11.702577 H 7.371156 c 0.7213211,0 1.3058348,-0.586602 1.3058348,-1.309841 V 1.4788712 c 0,-0.72353378 -0.5848073,-1.30984053 -1.3058348,-1.30984053 H 1.3228624 c -0.72132112,0 -1.30583488,0.58660123 -1.30583488,1.30984053 v 8.9138648 c 0,0.723534 0.58451376,1.309841 1.30583488,1.309841 z"
             id="path17"
             inkscape:connector-curvature="0" />
          <path
             d="m 10.732037,27.638282 v 8.913865 c 0,0.723534 0.584514,1.309841 1.305835,1.309841 h 6.326018 c 0.721321,0 1.305835,-0.586601 1.305835,-1.309841 v -8.913865 c 0,-0.723533 -0.584808,-1.30984 -1.305835,-1.30984 h -6.326018 c -0.721321,0 -1.305835,0.586307 -1.305835,1.30984 z"
             id="path19"
             inkscape:connector-curvature="0" />
        </g>
        <g
           id="g56"
           transform="translate(9.100917,48.883436)"
           style="fill:#4d4d4d">
          <path
             d="m 25.708037,36.603681 v -9.016933 c 0,-0.694969 -0.561615,-1.258306 -1.254459,-1.258306 h -9.086532 c -0.692844,0 -1.254459,0.563337 -1.254459,1.258306 v 9.016933 c 0,0.694969 0.561615,1.258307 1.254459,1.258307 h 9.086532 c 0.692844,0 1.254459,-0.563338 1.254459,-1.258307 z"
             id="path22"
             inkscape:connector-curvature="0" />
          <path
             d="m 31.939523,13.763926 h -9.086532 c -0.692844,0 -1.254459,0.563338 -1.254459,1.258307 v 7.986258 c 0,0.694969 0.561615,1.258306 1.254459,1.258306 h 9.086532 c 0.692844,0 1.254459,-0.563337 1.254459,-1.258306 v -7.986258 c 2.93e-4,-0.694969 -0.561615,-1.258307 -1.254459,-1.258307 z"
             id="path24"
             inkscape:connector-curvature="0" />
          <path
             d="M 51.754862,26.328442 H 29.017835 c -0.692844,0 -1.254459,0.563337 -1.254459,1.258306 v 9.016933 c 0,0.694969 0.561615,1.258307 1.254459,1.258307 h 22.737027 c 0.692844,0 1.254459,-0.563338 1.254459,-1.258307 v -9.016933 c 2.94e-4,-0.694969 -0.561615,-1.258306 -1.254459,-1.258306 z"
             id="path26"
             inkscape:connector-curvature="0" />
          <path
             d="m 8.8281835,15.022528 v 7.986257 c 0,0.69497 0.5616147,1.258307 1.2544585,1.258307 h 8.205798 c 0.692844,0 1.254459,-0.563337 1.254459,-1.258307 v -7.986257 c 0,-0.69497 -0.561615,-1.258307 -1.254459,-1.258307 h -8.205504 c -0.6928443,-2.95e-4 -1.2547525,0.563043 -1.2547525,1.258307 z"
             id="path28"
             inkscape:connector-curvature="0" />
          <path
             d="m 35.249321,15.022528 v 7.986257 c 0,0.69497 0.561615,1.258307 1.254459,1.258307 h 9.086238 c 0.692844,0 1.254459,-0.563337 1.254459,-1.258307 v -7.986257 c 0,-0.69497 -0.561615,-1.258307 -1.254459,-1.258307 H 36.50378 c -0.692844,-2.95e-4 -1.254459,0.563043 -1.254459,1.258307 z"
             id="path30"
             inkscape:connector-curvature="0" />
          <path
             d="M 79.704954,10.44427 V 1.4273374 c 0,-0.6949693 -0.561615,-1.25830673 -1.254459,-1.25830673 h -8.480293 c -0.692844,0 -1.254459,0.56333743 -1.254459,1.25830673 V 10.44427 c 0,0.694969 0.561615,1.258307 1.254459,1.258307 h 8.480293 c 0.692844,0 1.254459,-0.563338 1.254459,-1.258307 z"
             id="path32"
             inkscape:connector-curvature="0" />
          <path
             d="m 56.319119,37.861988 h 9.086532 c 0.692844,0 1.254459,-0.563338 1.254459,-1.258307 v -9.016933 c 0,-0.694969 -0.561615,-1.258306 -1.254459,-1.258306 h -9.086532 c -0.692844,0 -1.254458,0.563337 -1.254458,1.258306 v 9.016933 c 0,0.694969 0.561614,1.258307 1.254458,1.258307 z"
             id="path34"
             inkscape:connector-curvature="0" />
          <path
             d="M 25.708037,10.44427 V 1.4273374 c 0,-0.6949693 -0.561615,-1.25830673 -1.254459,-1.25830673 h -9.086532 c -0.692844,0 -1.254459,0.56333743 -1.254459,1.25830673 V 10.44427 c 0,0.694969 0.561615,1.258307 1.254459,1.258307 h 9.086532 c 0.692844,0 1.254459,-0.563338 1.254459,-1.258307 z"
             id="path36"
             inkscape:connector-curvature="0" />
          <path
             d="m 1.2547523,24.267092 h 4.2639266 c 0.692844,0 1.2544587,-0.563337 1.2544587,-1.258307 v -7.986257 c 0,-0.69497 -0.5616147,-1.258307 -1.2544587,-1.258307 H 1.2547523 c -0.69284404,0 -1.25445872202,0.563337 -1.25445872202,1.258307 v 7.986257 C 0,23.70346 0.56161468,24.267092 1.2547523,24.267092 Z"
             id="path38"
             inkscape:connector-curvature="0" />
          <path
             d="m 1.2547523,37.861988 h 9.5480367 c 0.692844,0 1.254459,-0.563338 1.254459,-1.258307 v -9.016933 c 0,-0.694969 -0.561615,-1.258306 -1.254459,-1.258306 H 1.2547523 c -0.69284404,0 -1.25445872202,0.563337 -1.25445872202,1.258306 v 9.016933 C 0,37.29865 0.56161468,37.861988 1.2547523,37.861988 Z"
             id="path40"
             inkscape:connector-curvature="0" />
          <path
             d="m 1.2547523,11.702577 h 9.5480367 c 0.692844,0 1.254459,-0.563338 1.254459,-1.258307 V 1.4273374 c 0,-0.6949693 -0.561615,-1.25830673 -1.254459,-1.25830673 H 1.2547523 c -0.69284404,0 -1.25445872202,0.56333743 -1.25445872202,1.25830673 V 10.44427 C 0,11.139239 0.56161468,11.702577 1.2547523,11.702577 Z"
             id="path42"
             inkscape:connector-curvature="0" />
          <path
             d="M 39.359119,10.44427 V 1.4273374 c 0,-0.6949693 -0.561614,-1.25830673 -1.254458,-1.25830673 h -9.086533 c -0.692844,0 -1.254458,0.56333743 -1.254458,1.25830673 V 10.44427 c 0,0.694969 0.561614,1.258307 1.254458,1.258307 h 9.086533 c 0.69255,0 1.254458,-0.563338 1.254458,-1.258307 z"
             id="path44"
             inkscape:connector-curvature="0" />
          <path
             d="m 68.71545,27.586748 v 9.016933 c 0,0.694969 0.561614,1.258307 1.254458,1.258307 h 8.480294 c 0.692844,0 1.254459,-0.563338 1.254459,-1.258307 v -9.016933 c 0,-0.694969 -0.561615,-1.258306 -1.254459,-1.258306 h -8.480294 c -0.692844,0 -1.254458,0.563337 -1.254458,1.258306 z"
             id="path46"
             inkscape:connector-curvature="0" />
          <path
             d="m 59.240807,13.763926 h -9.086532 c -0.692844,0 -1.254459,0.563338 -1.254459,1.258307 v 7.986258 c 0,0.694969 0.561615,1.258306 1.254459,1.258306 h 9.086532 c 0.692844,0 1.254459,-0.563337 1.254459,-1.258306 v -7.986258 c 2.94e-4,-0.694969 -0.561615,-1.258307 -1.254459,-1.258307 z"
             id="path48"
             inkscape:connector-curvature="0" />
          <path
             d="M 53.009615,10.44427 V 1.4273374 c 0,-0.6949693 -0.561615,-1.25830673 -1.254459,-1.25830673 h -9.086239 c -0.692844,0 -1.254458,0.56333743 -1.254458,1.25830673 V 10.44427 c 0,0.694969 0.561614,1.258307 1.254458,1.258307 h 9.086239 c 0.69255,0 1.254459,-0.563338 1.254459,-1.258307 z"
             id="path50"
             inkscape:connector-curvature="0" />
          <path
             d="M 78.450495,13.763926 H 63.805358 c -0.692844,0 -1.254459,0.563338 -1.254459,1.258307 v 7.986258 c 0,0.694969 0.561615,1.258306 1.254459,1.258306 h 14.645137 c 0.692844,0 1.254459,-0.563337 1.254459,-1.258306 v -7.986258 c 0,-0.694969 -0.561615,-1.258307 -1.254459,-1.258307 z"
             id="path52"
             inkscape:connector-curvature="0" />
          <path
             d="M 66.660404,10.44427 V 1.4273374 c 0,-0.6949693 -0.561615,-1.25830673 -1.254459,-1.25830673 h -9.086532 c -0.692844,0 -1.254459,0.56333743 -1.254459,1.25830673 V 10.44427 c 0,0.694969 0.561615,1.258307 1.254459,1.258307 h 9.086532 c 0.69255,0 1.254459,-0.563338 1.254459,-1.258307 z"
             id="path54"
             inkscape:connector-curvature="0" />
        </g>
        <path
           d="m 66.251953,39.923337 h -5.87156 v -7.112245 c 0,-5.277055 4.280073,-9.570258 9.540991,-9.570258 h 32.847346 c 2.02334,0 3.66943,-1.651141 3.66943,-3.680687 0,-2.029546 -1.64609,-3.680687 -3.66943,-3.680687 H 21.745321 c -5.260917,0 -9.540697,-4.293202 -9.540697,-9.5702576 V 0.12574233 h 5.871559 V 6.3094969 c 0,2.029546 1.645799,3.6806872 3.669138,3.6806872 h 81.023409 c 5.26092,0 9.541,4.2932029 9.541,9.5702579 0,5.277055 -4.28008,9.570257 -9.541,9.570257 H 69.921384 c -2.02334,0 -3.669431,1.651142 -3.669431,3.680687 z"
           id="path58"
           inkscape:connector-curvature="0"
           style="fill:#66645d" />
      </g>
    </g>
  </g>
</svg>
