<?xml version="1.0" encoding="UTF-8" standalone="no"?>
<!-- Created with Inkscape (http://www.inkscape.org/) -->

<svg
   xmlns:dc="http://purl.org/dc/elements/1.1/"
   xmlns:cc="http://creativecommons.org/ns#"
   xmlns:rdf="http://www.w3.org/1999/02/22-rdf-syntax-ns#"
   xmlns:svg="http://www.w3.org/2000/svg"
   xmlns="http://www.w3.org/2000/svg"
   xmlns:sodipodi="http://sodipodi.sourceforge.net/DTD/sodipodi-0.dtd"
   xmlns:inkscape="http://www.inkscape.org/namespaces/inkscape"
   width="32"
   version="1.1"
   height="32"
   id="svg40"
   sodipodi:docname="preferences-desktop-mouse.svg"
   inkscape:version="0.92.3 (2405546, 2018-03-11)">
  <sodipodi:namedview
     pagecolor="#ffffff"
     bordercolor="#666666"
     borderopacity="1"
     objecttolerance="10"
     gridtolerance="10"
     guidetolerance="10"
     inkscape:pageopacity="0"
     inkscape:pageshadow="2"
     inkscape:window-width="1366"
     inkscape:window-height="701"
     id="namedview42"
     showgrid="false"
     inkscape:zoom="7.375"
     inkscape:cx="2.3050847"
     inkscape:cy="16"
     inkscape:window-x="0"
     inkscape:window-y="0"
     inkscape:window-maximized="1"
     inkscape:current-layer="g4283" />
  <defs
     id="defs5455" />
  <metadata
     id="metadata5458">
    <rdf:RDF>
      <cc:Work
         rdf:about="">
        <dc:format>image/svg+xml</dc:format>
        <dc:type
           rdf:resource="http://purl.org/dc/dcmitype/StillImage" />
      </cc:Work>
    </rdf:RDF>
  </metadata>
  <g
     inkscape:label="Capa 1"
     inkscape:groupmode="layer"
     id="g4283"
     transform="translate(-384.57143,-515.798)">
    <g
       id="cs-mouse"
       style="fill:none;fill-rule:evenodd;stroke:none;stroke-width:1"
       transform="matrix(0.24028099,0,0,0.24028099,384.93217,516.55772)">
      <g
         id="speech-bubble" />
      <g
         id="mouse"
         transform="translate(22,1)"
         style="fill-rule:nonzero">
        <path
           d="M 42.411349,0 C 41.820177,0 41.313671,0 40.722747,0.08441765 V 13.763065 c 0,3.968376 3.293035,7.261411 7.261412,7.261411 h 30.565663 c 2.110939,0 3.883958,1.773269 3.883958,3.883959 0,2.11069 -1.773268,3.883959 -3.883958,3.883959 H 8.6370686 c -4.559549,0 -8.27467252,3.715124 -8.27467252,8.274673 0,4.559549 3.71512352,8.274672 8.27467252,8.274672 H 35.909945 c 2.701863,0 4.89722,2.195357 4.89722,4.89722 v 6.079315 h 3.377453 v -6.079315 c 0,-4.559549 -3.715124,-8.274673 -8.274673,-8.274673 H 8.6370686 c -2.7018627,0 -4.8972196,-2.195357 -4.8972196,-4.897219 0,-2.701863 2.1953569,-4.89722 4.8972196,-4.89722 H 78.549822 c 3.968376,0 7.261411,-3.293035 7.261411,-7.261412 0,-3.968376 -3.293035,-7.261412 -7.261411,-7.261412 H 47.984159 c -2.110939,0 -3.883959,-1.773268 -3.883959,-3.883958 V 0.08441765 C 43.509028,0 43.002272,0 42.411349,0 Z"
           id="Shape"
           inkscape:connector-curvature="0"
           style="fill:#dededf" />
        <path
           d="m 44.411349,52.408043 c -12.412133,0 -22.544243,10.047941 -22.544243,22.544243 v 27.357294 c 0,12.41213 10.047941,22.54424 22.544243,22.54424 12.412133,0 22.544243,-10.04794 22.544243,-22.54424 V 74.952286 c 0,-12.496302 -10.132359,-22.544243 -22.544243,-22.544243 z"
           id="path10"
           inkscape:connector-curvature="0"
           style="fill:#a6a6a6" />
        <path
           d="m 42.411349,50.408043 c -12.412133,0 -22.544243,10.047941 -22.544243,22.544243 v 27.357294 c 0,12.41213 10.047941,22.54424 22.544243,22.54424 12.412133,0 22.544243,-10.04794 22.544243,-22.54424 V 72.952286 c 0,-12.496302 -10.132359,-22.544243 -22.544243,-22.544243 z"
           id="path12"
           inkscape:connector-curvature="0"
           style="fill:#cccccc" />
        <path
           d="m 42.411349,63.157847 c -1.435349,0 -2.617445,1.182096 -2.617445,2.617445 v 9.119098 c 0,1.435349 1.182096,2.617445 2.617445,2.617445 1.435349,0 2.617445,-1.182096 2.617445,-2.617445 v -9.119098 c 0,-1.4351 -1.182096,-2.617445 -2.617445,-2.617445 z"
           id="path14"
           inkscape:connector-curvature="0"
           style="fill:#4d4d4d" />
      </g>
    </g>
  </g>
</svg>
