<?xml version="1.0" encoding="UTF-8" standalone="no"?>
<svg
   xmlns:dc="http://purl.org/dc/elements/1.1/"
   xmlns:cc="http://creativecommons.org/ns#"
   xmlns:rdf="http://www.w3.org/1999/02/22-rdf-syntax-ns#"
   xmlns:svg="http://www.w3.org/2000/svg"
   xmlns="http://www.w3.org/2000/svg"
   xmlns:xlink="http://www.w3.org/1999/xlink"
   xmlns:sodipodi="http://sodipodi.sourceforge.net/DTD/sodipodi-0.dtd"
   xmlns:inkscape="http://www.inkscape.org/namespaces/inkscape"
   height="32"
   width="32"
   version="1.1"
   id="svg86"
   sodipodi:docname="preferences-system-splash.svg"
   inkscape:version="0.92.3 (2405546, 2018-03-11)">
  <metadata
     id="metadata92">
    <rdf:RDF>
      <cc:Work
         rdf:about="">
        <dc:format>image/svg+xml</dc:format>
        <dc:type
           rdf:resource="http://purl.org/dc/dcmitype/StillImage" />
        <dc:title />
      </cc:Work>
    </rdf:RDF>
  </metadata>
  <defs
     id="defs90">
    <style
       id="style2"
       type="text/css">.ColorScheme-Text {
            color:#232629;
        }</style>
  </defs>
  <sodipodi:namedview
     pagecolor="#ffffff"
     bordercolor="#666666"
     borderopacity="1"
     objecttolerance="10"
     gridtolerance="10"
     guidetolerance="10"
     inkscape:pageopacity="0"
     inkscape:pageshadow="2"
     inkscape:window-width="1366"
     inkscape:window-height="701"
     id="namedview88"
     showgrid="false"
     inkscape:zoom="7.375"
     inkscape:cx="-28"
     inkscape:cy="0.98219878"
     inkscape:window-x="0"
     inkscape:window-y="0"
     inkscape:window-maximized="1"
     inkscape:current-layer="g923" />
  <linearGradient
     id="a">
    <stop
       offset="0"
       stop-color="#c6cdd1"
       id="stop2" />
    <stop
       offset="1"
       stop-color="#e0e5e7"
       id="stop4" />
  </linearGradient>
  <linearGradient
     id="c"
     gradientTransform="matrix(1,0,0,1.21053,-350.01168,-635.63678)"
     gradientUnits="userSpaceOnUse"
     x1="403.571"
     x2="403.571"
     y1="538.798"
     y2="519.798">
    <stop
       offset="0"
       stop-color="#2a2c2f"
       id="stop7" />
    <stop
       offset="1"
       stop-color="#424649"
       id="stop9" />
  </linearGradient>
  <linearGradient
     id="d"
     gradientUnits="userSpaceOnUse"
     x1="400.571"
     x2="400.571"
     xlink:href="#a"
     y1="544.798"
     y2="540.798"
     gradientTransform="translate(-347.01168,-524.20478)" />
  <linearGradient
     id="e"
     gradientTransform="matrix(1.25,0,0,1.13333,-447.15468,-595.64478)"
     gradientUnits="userSpaceOnUse"
     x1="400.571"
     x2="400.571"
     y1="535.798"
     y2="520.798">
    <stop
       offset="0"
       stop-color="#232629"
       id="stop13" />
    <stop
       offset="1"
       stop-color="#292c30"
       id="stop15" />
  </linearGradient>
  <linearGradient
     id="n"
     gradientUnits="userSpaceOnUse"
     x1="389.571"
     x2="389.571"
     xlink:href="#a"
     y1="534.798"
     y2="519.798"
     gradientTransform="matrix(2,0,0,1,-735.58368,-524.20478)" />
  <linearGradient
     id="b">
    <stop
       offset="0"
       id="stop19" />
    <stop
       offset="1"
       stop-opacity="0"
       id="stop21" />
  </linearGradient>
  <linearGradient
     id="o"
     gradientUnits="userSpaceOnUse"
     x1="386.571"
     x2="389.571"
     xlink:href="#b"
     y1="520.798"
     y2="523.798"
     gradientTransform="translate(-347.01168,-524.20478)" />
  <linearGradient
     id="p"
     gradientUnits="userSpaceOnUse"
     x1="386.571"
     x2="389.571"
     xlink:href="#b"
     y1="522.798"
     y2="525.798"
     gradientTransform="translate(-347.01168,-524.20478)" />
  <linearGradient
     id="q"
     gradientUnits="userSpaceOnUse"
     x1="386.571"
     x2="389.571"
     xlink:href="#b"
     y1="524.798"
     y2="527.798"
     gradientTransform="translate(-347.01168,-524.20478)" />
  <linearGradient
     id="r"
     gradientUnits="userSpaceOnUse"
     x1="386.571"
     x2="389.571"
     xlink:href="#b"
     y1="526.798"
     y2="529.798"
     gradientTransform="translate(-347.01168,-524.20478)" />
  <linearGradient
     id="s"
     gradientUnits="userSpaceOnUse"
     x1="386.571"
     x2="389.571"
     xlink:href="#b"
     y1="528.798"
     y2="531.798"
     gradientTransform="translate(-347.01168,-524.20478)" />
  <linearGradient
     id="t"
     gradientUnits="userSpaceOnUse"
     x1="386.571"
     x2="389.571"
     xlink:href="#b"
     y1="530.798"
     y2="533.798"
     gradientTransform="translate(-347.01168,-524.20478)" />
  <linearGradient
     id="u"
     gradientUnits="userSpaceOnUse"
     x1="386.571"
     x2="389.571"
     xlink:href="#b"
     y1="532.798"
     y2="535.798"
     gradientTransform="translate(-347.01168,-524.20478)" />
  <linearGradient
     id="v"
     gradientUnits="userSpaceOnUse"
     x1="386.571"
     x2="389.571"
     xlink:href="#b"
     y1="534.798"
     y2="537.798"
     gradientTransform="translate(-347.01168,-524.20478)" />
  <linearGradient
     id="f"
     gradientUnits="userSpaceOnUse"
     x1="390.571"
     x2="397.071"
     xlink:href="#b"
     y1="520.798"
     y2="527.298"
     gradientTransform="translate(-347.01168,-524.20478)" />
  <linearGradient
     id="g"
     gradientUnits="userSpaceOnUse"
     x1="390.571"
     x2="397.071"
     xlink:href="#b"
     y1="532.798"
     y2="539.298"
     gradientTransform="translate(-347.01168,-524.20478)" />
  <linearGradient
     id="h"
     gradientUnits="userSpaceOnUse"
     x1="390.571"
     x2="396.025"
     xlink:href="#b"
     y1="522.798"
     y2="528.251"
     gradientTransform="translate(-347.01168,-524.20478)" />
  <linearGradient
     id="i"
     gradientUnits="userSpaceOnUse"
     x1="390.571"
     x2="396.025"
     xlink:href="#b"
     y1="526.798"
     y2="532.251"
     gradientTransform="translate(-347.01168,-524.20478)" />
  <linearGradient
     id="j"
     gradientUnits="userSpaceOnUse"
     x1="390.571"
     x2="396.025"
     xlink:href="#b"
     y1="528.798"
     y2="534.251"
     gradientTransform="translate(-347.01168,-524.20478)" />
  <linearGradient
     id="k"
     gradientUnits="userSpaceOnUse"
     x1="390.571"
     x2="395.071"
     xlink:href="#b"
     y1="524.798"
     y2="529.298"
     gradientTransform="translate(-347.01168,-524.20478)" />
  <linearGradient
     id="l"
     gradientUnits="userSpaceOnUse"
     x1="390.571"
     x2="395.071"
     xlink:href="#b"
     y1="530.798"
     y2="535.298"
     gradientTransform="translate(-347.01168,-524.20478)" />
  <linearGradient
     id="m"
     gradientUnits="userSpaceOnUse"
     x1="390.571"
     x2="395.071"
     xlink:href="#b"
     y1="534.798"
     y2="539.298"
     gradientTransform="translate(-347.01168,-524.20478)" />
  <g
     id="g923"
     transform="translate(1.6129017e-4,-1.6117096e-4)">
    <rect
       y="5.5053225"
       x="0.505"
       height="20.989677"
       width="30.989677"
       id="rect4608"
       style="opacity:1;fill:#272a2d;fill-opacity:1;stroke:#000000;stroke-width:1.00999999;stroke-linecap:round;stroke-linejoin:round;stroke-miterlimit:1.41420996;stroke-dasharray:none;stroke-opacity:1;paint-order:normal" />
    <g
       style="fill:#ffffff;fill-opacity:1;stroke:#fffff7;stroke-width:2.05002713;stroke-miterlimit:4;stroke-dasharray:none;stroke-opacity:1"
       id="g12"
       transform="matrix(0.29267476,0,0,0.29268333,-94.355954,-135.76689)">
      <g
         style="fill:#ffffff;fill-opacity:1;fill-rule:evenodd;stroke:#fffff7;stroke-width:8.20010853;stroke-miterlimit:4;stroke-dasharray:none;stroke-opacity:1"
         id="g10"
         transform="matrix(0.25,0,0,0.25,350.27744,517.28529)">
        <g
           style="fill:#ffffff;fill-opacity:1;stroke:#fffff7;stroke-width:2.63452911;stroke-miterlimit:4;stroke-dasharray:none;stroke-opacity:1"
           id="g8"
           transform="matrix(3.1125521,0,0,3.1125521,32.352429,-774.14179)">
          <path
             style="color:#232629;fill:#ffffff;fill-opacity:1;stroke:#fffff7;stroke-width:2.63452911;stroke-miterlimit:4;stroke-dasharray:none;stroke-opacity:1"
             inkscape:connector-curvature="0"
             id="path6"
             d="m 54.934957,250.66021 a 17.40192,16.707129 0 0 0 -17.401921,16.70713 17.40192,16.707129 0 0 0 14.977064,16.52739 17.40192,16.707129 0 0 0 0.01783,0 17.40192,16.707129 0 0 0 0.03566,0.008 17.40192,16.707129 0 0 0 0.989555,0.11127 17.40192,16.707129 0 0 0 0.383341,0.0256 17.40192,16.707129 0 0 0 0.0089,0 c 0.04475,0.003 0.08895,0.007 0.133725,0.008 a 17.40192,16.707129 0 0 0 0.855818,0.0256 c 0.0444,-2e-4 0.08933,-0.008 0.133723,-0.008 a 17.40192,16.707129 0 0 0 1.194598,-0.0599 c 0.05946,-0.006 0.118916,-0.003 0.1783,-0.008 3.662513,-0.35762 7.192274,-1.94947 9.797495,-4.45067 2.977395,-2.85852 4.707074,-6.8787 4.707076,-10.92126 0,-1.51595 -0.242573,-3.0272 -0.704277,-4.47634 a 15.690253,15.063802 0 0 1 0.383342,3.2182 15.690253,15.063802 0 0 1 -15.690257,15.06381 15.690253,15.063801 0 0 1 -15.690257,-15.06381 15.690253,15.063801 0 0 1 0.704279,-4.45067 15.690253,15.063801 0 0 1 14.985978,-10.61313 h 0.285277 c 0.316083,0 0.570555,-0.24432 0.570555,-0.54777 v -0.54777 c 0,-0.30346 -0.254472,-0.54779 -0.570555,-0.54779 z"
             class="ColorScheme-Text" />
        </g>
      </g>
    </g>
  </g>
</svg>
