<?xml version="1.0" encoding="UTF-8" standalone="no"?>
<!-- Created with Inkscape (http://www.inkscape.org/) -->

<svg
   xmlns:dc="http://purl.org/dc/elements/1.1/"
   xmlns:cc="http://creativecommons.org/ns#"
   xmlns:rdf="http://www.w3.org/1999/02/22-rdf-syntax-ns#"
   xmlns:svg="http://www.w3.org/2000/svg"
   xmlns="http://www.w3.org/2000/svg"
   xmlns:xlink="http://www.w3.org/1999/xlink"
   xmlns:sodipodi="http://sodipodi.sourceforge.net/DTD/sodipodi-0.dtd"
   xmlns:inkscape="http://www.inkscape.org/namespaces/inkscape"
   width="32"
   version="1.1"
   height="32"
   id="svg26"
   sodipodi:docname="preferences-desktop-launch-feedback.svg"
   inkscape:version="0.92.3 (2405546, 2018-03-11)">
  <sodipodi:namedview
     pagecolor="#ffffff"
     bordercolor="#666666"
     borderopacity="1"
     objecttolerance="10"
     gridtolerance="10"
     guidetolerance="10"
     inkscape:pageopacity="0"
     inkscape:pageshadow="2"
     inkscape:window-width="1366"
     inkscape:window-height="701"
     id="namedview28"
     showgrid="false"
     inkscape:zoom="11.313708"
     inkscape:cx="-3.1010522"
     inkscape:cy="21.766344"
     inkscape:window-x="0"
     inkscape:window-y="0"
     inkscape:window-maximized="1"
     inkscape:current-layer="layer1" />
  <defs
     id="defs5455">
    <linearGradient
       inkscape:collect="always"
       id="linearGradient843">
      <stop
         style="stop-color:#e5e5e5;stop-opacity:1"
         offset="0"
         id="stop839" />
      <stop
         style="stop-color:#eeeeee;stop-opacity:1"
         offset="1"
         id="stop841" />
    </linearGradient>
    <linearGradient
       id="linearGradient3052">
      <stop
         style="stop-color:#555753"
         id="stop3054" />
      <stop
         offset="1"
         style="stop-color:#2e3436"
         id="stop3056" />
    </linearGradient>
    <radialGradient
       cx="25.641"
       cy="3.6836"
       r="17.995"
       xlink:href="#linearGradient3052"
       id="radialGradient3082"
       gradientUnits="userSpaceOnUse"
       gradientTransform="matrix(0.63967865,-4.3571457e-7,0,0.27982525,386.11187,529.16409)" />
    <linearGradient
       x1="52.241066"
       y1="0"
       x2="52.241066"
       y2="104.13264"
       id="linearGradient851"
       gradientTransform="matrix(0.81353623,0,0,1.2292016,170.84746,-0.54237288)"
       gradientUnits="userSpaceOnUse">
      <stop
         style="stop-color:#006aff;stop-opacity:0.94117647"
         stop-color="#42BAE9"
         offset="0%"
         id="stop847" />
      <stop
         style="stop-color:#004ce1;stop-opacity:1"
         stop-color="#1F84CE"
         offset="100%"
         id="stop849" />
    </linearGradient>
    <linearGradient
       gradientUnits="userSpaceOnUse"
       gradientTransform="matrix(0.66667,0,0,0.63518,128.19,198.52)"
       y2="502.66"
       y1="543.79999"
       x2="0"
       id="f">
      <stop
         id="stop2"
         offset="0"
         stop-color="#c6cdd1"
         style="stop-color:#e5e5e5;stop-opacity:1" />
      <stop
         id="stop4"
         offset="1"
         stop-color="#e0e5e7"
         style="stop-color:#eeeeee;stop-opacity:1" />
    </linearGradient>
    <linearGradient
       gradientUnits="userSpaceOnUse"
       gradientTransform="matrix(0.66667,0,0,0.63518,128.19,198.52)"
       y2="502.66"
       y1="543.79999"
       x2="0"
       id="f-6">
      <stop
         id="stop2-7"
         offset="0"
         stop-color="#c6cdd1"
         style="stop-color:#e5e5e5;stop-opacity:1" />
      <stop
         id="stop4-5"
         offset="1"
         stop-color="#e0e5e7"
         style="stop-color:#eeeeee;stop-opacity:1" />
    </linearGradient>
    <linearGradient
       inkscape:collect="always"
       xlink:href="#linearGradient843"
       id="linearGradient845"
       x1="375.02548"
       y1="527.64545"
       x2="375.02548"
       y2="516.86206"
       gradientUnits="userSpaceOnUse"
       gradientTransform="matrix(1.35595,0,0,0.74188251,-91.944362,134.34705)" />
  </defs>
  <metadata
     id="metadata5458">
    <rdf:RDF>
      <cc:Work
         rdf:about="">
        <dc:format>image/svg+xml</dc:format>
        <dc:type
           rdf:resource="http://purl.org/dc/dcmitype/StillImage" />
      </cc:Work>
    </rdf:RDF>
  </metadata>
  <g
     inkscape:label="Capa 1"
     inkscape:groupmode="layer"
     id="layer1"
     transform="translate(-384.57143,-515.798)">
    <rect
       style="fill:#e5e5e5;fill-opacity:1;stroke-width:0.99999994"
       id="rect24"
       rx="0"
       height="28"
       width="32"
       y="517.79797"
       x="384.57144" />
    <rect
       style="fill:url(#linearGradient845);fill-opacity:1;stroke:none;stroke-width:1.00297344;stroke-opacity:1"
       id="rect837"
       width="32"
       height="8"
       x="384.57144"
       y="517.79797" />
    <g
       transform="matrix(0.33333207,0,0,0.33333207,405.90274,515.13137)"
       id="g850"
       style="fill:none;fill-opacity:1;fill-rule:nonzero;stroke:#000000;stroke-width:1;stroke-opacity:1">
      <path
         style="fill:none;fill-opacity:1;fill-rule:evenodd;stroke:#000000;stroke-width:2.17859364;stroke-linecap:butt;stroke-linejoin:miter;stroke-miterlimit:4;stroke-dasharray:none;stroke-opacity:1"
         d="M 25.229751,14.770249 14.770249,25.229751 v 0"
         id="path4522"
         inkscape:connector-curvature="0" />
      <path
         style="fill:none;fill-opacity:1;fill-rule:evenodd;stroke:#000000;stroke-width:2.17859364;stroke-linecap:butt;stroke-linejoin:miter;stroke-miterlimit:4;stroke-dasharray:none;stroke-opacity:1"
         d="m 14.770249,14.770249 10.459502,10.459502 v 0"
         id="path4522-3"
         inkscape:connector-curvature="0" />
    </g>
    <rect
       style="opacity:1;fill:none;fill-opacity:1;stroke:#000000;stroke-width:0.65881753;stroke-miterlimit:4;stroke-dasharray:none;stroke-opacity:1"
       id="rect817"
       width="3.3411677"
       height="3.3411677"
       x="404.49884"
       y="520.12744" />
    <path
       style="fill:none;fill-rule:evenodd;stroke:#000000;stroke-width:0.66666818;stroke-linecap:butt;stroke-linejoin:miter;stroke-miterlimit:4;stroke-dasharray:none;stroke-opacity:1"
       d="m 397.76943,522.13065 3.99996,-2e-5"
       id="path817"
       inkscape:connector-curvature="0"
       sodipodi:nodetypes="cc" />
    <g
       style="fill:#006aff;fill-opacity:1;stroke:#006aff;stroke-width:1.43565109;stroke-miterlimit:4;stroke-dasharray:none;stroke-opacity:1"
       id="g12"
       transform="matrix(0.5572303,0,0,0.55724662,177.36089,239.45536)">
      <g
         style="fill:#006aff;fill-opacity:1;fill-rule:evenodd;stroke:#006aff;stroke-width:5.74260434;stroke-miterlimit:4;stroke-dasharray:none;stroke-opacity:1"
         id="g10"
         transform="matrix(0.25,0,0,0.25,350.27744,517.28529)">
        <g
           style="fill:#006aff;fill-opacity:1;stroke:#006aff;stroke-width:1.84498256;stroke-miterlimit:4;stroke-dasharray:none;stroke-opacity:1"
           id="g8"
           transform="matrix(3.1125521,0,0,3.1125521,32.352429,-774.14179)">
          <path
             style="color:#232629;fill:#006aff;fill-opacity:1;stroke:#006aff;stroke-width:1.84498256;stroke-miterlimit:4;stroke-dasharray:none;stroke-opacity:1"
             inkscape:connector-curvature="0"
             id="path6"
             d="m 54.934957,250.66021 a 17.40192,16.707129 0 0 0 -17.401921,16.70713 17.40192,16.707129 0 0 0 14.977064,16.52739 17.40192,16.707129 0 0 0 0.01783,0 17.40192,16.707129 0 0 0 0.03566,0.008 17.40192,16.707129 0 0 0 0.989555,0.11127 17.40192,16.707129 0 0 0 0.383341,0.0256 17.40192,16.707129 0 0 0 0.0089,0 c 0.04475,0.003 0.08895,0.007 0.133725,0.008 a 17.40192,16.707129 0 0 0 0.855818,0.0256 c 0.0444,-2e-4 0.08933,-0.008 0.133723,-0.008 a 17.40192,16.707129 0 0 0 1.194598,-0.0599 c 0.05946,-0.006 0.118916,-0.003 0.1783,-0.008 3.662513,-0.35762 7.192274,-1.94947 9.797495,-4.45067 2.977395,-2.85852 4.707074,-6.8787 4.707076,-10.92126 0,-1.51595 -0.242573,-3.0272 -0.704277,-4.47634 a 15.690253,15.063802 0 0 1 0.383342,3.2182 15.690253,15.063802 0 0 1 -15.690257,15.06381 15.690253,15.063801 0 0 1 -15.690257,-15.06381 15.690253,15.063801 0 0 1 0.704279,-4.45067 15.690253,15.063801 0 0 1 14.985978,-10.61313 h 0.285277 c 0.316083,0 0.570555,-0.24432 0.570555,-0.54777 v -0.54777 c 0,-0.30346 -0.254472,-0.54779 -0.570555,-0.54779 z"
             class="ColorScheme-Text" />
        </g>
      </g>
    </g>
  </g>
</svg>
