<?xml version="1.0" encoding="UTF-8" standalone="no"?>
<svg
   xmlns:dc="http://purl.org/dc/elements/1.1/"
   xmlns:cc="http://creativecommons.org/ns#"
   xmlns:rdf="http://www.w3.org/1999/02/22-rdf-syntax-ns#"
   xmlns:svg="http://www.w3.org/2000/svg"
   xmlns="http://www.w3.org/2000/svg"
   xmlns:xlink="http://www.w3.org/1999/xlink"
   xmlns:sodipodi="http://sodipodi.sourceforge.net/DTD/sodipodi-0.dtd"
   xmlns:inkscape="http://www.inkscape.org/namespaces/inkscape"
   width="32"
   height="32"
   viewBox="0 0 32 32"
   version="1.1"
   id="svg26"
   sodipodi:docname="preferences-system-users.svg"
   inkscape:version="0.92.3 (2405546, 2018-03-11)">
  <metadata
     id="metadata30">
    <rdf:RDF>
      <cc:Work
         rdf:about="">
        <dc:format>image/svg+xml</dc:format>
        <dc:type
           rdf:resource="http://purl.org/dc/dcmitype/StillImage" />
        <dc:title>cs-login</dc:title>
      </cc:Work>
    </rdf:RDF>
  </metadata>
  <sodipodi:namedview
     pagecolor="#ffffff"
     bordercolor="#666666"
     borderopacity="1"
     objecttolerance="10"
     gridtolerance="10"
     guidetolerance="10"
     inkscape:pageopacity="0"
     inkscape:pageshadow="2"
     inkscape:window-width="1366"
     inkscape:window-height="712"
     id="namedview28"
     showgrid="false"
     inkscape:zoom="3.6875001"
     inkscape:cx="56.952805"
     inkscape:cy="40.934942"
     inkscape:window-x="0"
     inkscape:window-y="27"
     inkscape:window-maximized="1"
     inkscape:current-layer="Group" />
  <!-- Generator: Sketch 49.3 (51167) - http://www.bohemiancoding.com/sketch -->
  <title
     id="title2">cs-login</title>
  <desc
     id="desc4">Created with Sketch.</desc>
  <defs
     id="defs12">
    <linearGradient
       x1="64"
       y1="0"
       x2="64"
       y2="128"
       id="linearGradient-1"
       gradientUnits="userSpaceOnUse">
      <stop
         stop-color="#698692"
         offset="0%"
         id="stop6" />
      <stop
         stop-color="#455A64"
         offset="100%"
         id="stop8" />
    </linearGradient>
    <circle
       id="path-2"
       cx="64"
       cy="64"
       r="64" />
  </defs>
  <g
     id="cs-login"
     style="fill:none;fill-rule:evenodd;stroke:none;stroke-width:1"
     transform="translate(0,-96)">
    <g
       id="Group">
      <use
         id="Oval"
         xlink:href="#path-2"
         style="fill:url(#linearGradient-1)"
         x="0"
         y="0"
         width="100%"
         height="100%"
         transform="matrix(0.234375,0,0,0.23429803,1,97)" />
      <path
         d="m 17.801354,122.78877 -3.975778,2.20076 c -0.233308,0.12909 -0.442983,0.28778 -0.638076,0.46076 2.317989,1.98338 2.00693,0.79874 5.27625,0.79874 3.245185,0 5.225287,-1.11615 7.536741,-3.07249 -0.213195,-0.18267 0,0 -0.661901,-0.31786 v 0 c -0.550083,-0.27911 -0.89753,-0.84958 -0.89753,-1.47363 v -1.69509 c 0.119672,-0.13828 0.256437,-0.31585 0.402757,-0.52557 0.580252,-0.83172 1.019213,-1.74662 1.323417,-2.70642 0.546059,-0.17093 0.948314,-0.68273 0.948314,-1.29096 v -1.80938 c 0,-0.398 -0.174478,-0.75365 -0.445497,-1.00266 v -2.6156 c 0,0 0.529467,-4.07034 -4.902471,-4.07034 -5.431939,0 -4.902472,4.07034 -4.902472,4.07034 v 2.6156 c -0.271521,0.24901 -0.445496,0.60466 -0.445496,1.00266 v 1.80938 c 0,0.47659 0.246883,0.89602 0.616454,1.13839 0.445496,1.96808 1.612033,3.38456 1.612033,3.38456 v 1.65324 c -4.92e-4,0.60211 -0.325323,1.15677 -0.846745,1.44557 z"
         id="Shape"
         mask="none"
         inkscape:connector-curvature="0"
         style="fill:#b0bec5;fill-opacity:0.62449048;fill-rule:nonzero;stroke-width:0.23433653"
         sodipodi:nodetypes="cccscccscccssccsccsscccc" />
      <use
         height="100%"
         width="100%"
         y="0"
         x="0"
         id="use15"
         xlink:href="#path-2"
         transform="matrix(0.234375,0,0,0.23429803,1,97)" />
      <path
         d="m 8.9951859,122.60169 -2.2284411,1.1352 c -0.2620713,0.14359 0.2191458,-0.1924 0,0 3.5475762,1.73425 2.3140812,1.20606 5.9864682,1.20606 3.645276,0 3.794022,1.83398 6.390448,-0.34194 -0.239479,-0.20318 3.388298,0.62496 3.100246,0.48081 l -4.782237,-2.40237 c -0.617901,-0.31044 -1.008184,-0.94495 -1.008184,-1.63904 v -1.88535 c 0.134425,-0.1538 0.288053,-0.35131 0.452412,-0.58456 0.65179,-0.92508 1.144868,-1.94267 1.486577,-3.01021 0.613382,-0.19012 1.06523,-0.75936 1.06523,-1.43586 v -2.01248 c 0,-0.44267 -0.195989,-0.83824 -0.500421,-1.1152 v -2.90918 c 0,0 0.594744,-4.52723 -5.506886,-4.52723 -6.10163,0 -5.5068863,4.52723 -5.5068863,4.52723 v 2.90918 c -0.3049966,0.27696 -0.5004206,0.67253 -0.5004206,1.1152 v 2.01248 c 0,0.53008 0.2773212,0.99659 0.6924558,1.26617 0.5004206,2.18898 1.810777,3.76446 1.810777,3.76446 v 1.83881 c -5.625e-4,0.66969 -0.3654314,1.2866 -0.951138,1.60782 z"
         id="path20"
         mask="none"
         inkscape:connector-curvature="0"
         style="fill:#425761;fill-rule:nonzero;stroke-width:0.23433653"
         sodipodi:nodetypes="cccscccscccssccsccsscccc" />
      <use
         height="100%"
         width="100%"
         y="0"
         x="0"
         id="use842"
         xlink:href="#path-2"
         transform="matrix(0.234375,0,0,0.23429803,1,97)" />
      <path
         d="m 8.7608109,122.3674 -1.9940661,1.36949 c -0.2830003,0.20635 2.8833917,1.97825 2.92131,1.86453 C 10.921055,126.10014 12.419438,127 16.091825,127 c 3.645276,0 6.041183,-1.24361 6.592692,-1.6224 -0.239479,-0.20318 -0.386933,-0.38592 -0.674985,-0.53008 l -4.782237,-2.40237 c -0.617901,-0.31044 -1.008184,-0.94494 -1.008184,-1.63904 v -1.88535 c 0.134425,-0.1538 0.288053,-0.3513 0.452412,-0.58456 0.65179,-0.92508 1.144868,-1.94267 1.486577,-3.0102 0.613382,-0.19013 1.06523,-0.75936 1.06523,-1.43587 v -2.01247 c 0,-0.44268 -0.195989,-0.83825 -0.500421,-1.11521 v -2.90918 c 0,0 0.594744,-4.52722 -5.506886,-4.52722 -6.10163,0 -5.5068863,4.52722 -5.5068863,4.52722 v 2.90918 c -0.3049966,0.27696 -0.5004206,0.67253 -0.5004206,1.11521 v 2.01247 c 0,0.53008 0.2773212,0.99659 0.6924558,1.26617 0.5004204,2.18898 1.810777,3.76446 1.810777,3.76446 v 1.83881 c -5.625e-4,0.66969 -0.3654314,1.2866 -0.951138,1.60783 z"
         id="path22"
         mask="none"
         inkscape:connector-curvature="0"
         style="fill:#b0bec5;fill-rule:nonzero;stroke-width:0.23433653"
         clip-path="none"
         sodipodi:nodetypes="cccscccscccssccsccsscccc" />
      <use
         height="100%"
         width="100%"
         y="0"
         x="0"
         id="use840"
         xlink:href="#path-2"
         transform="matrix(0.234375,0,0,0.23429803,1,97)" />
    </g>
  </g>
</svg>
