<svg version="1.1" viewBox="0 0 16 16" xmlns="http://www.w3.org/2000/svg">
  <defs>
   <style id="current-color-scheme" type="text/css">
   .ColorScheme-Text { color:#5c616c; } .ColorScheme-Highlight { color:#5294e2; }
  </style>
 </defs>
    <g transform="translate(-201,-567)" class="ColorScheme-Text" fill="currentColor">
        <path transform="translate(201,567)" d="m4 0v0.8828125 1.1171875h-1v1h-1.0507812-0.9492188v2h0.9492188 1.0507812v2h-1.0546875-0.9453125v2h0.9453125 1.0546875v2h-1.1152344-0.94921872v2h0.94921872 1.1152344v1h1v1.011719 0.882812h2v-0.882812-1.011719h2v1.011719 0.882812h2v-0.882812-1.011719h2v1.078125 0.882813h2v-0.882813-2.078125h1.050781 0.949219v-2h-0.949219-1.050781v-2h1.054688 0.945312v-2h-0.945312-1.054688v-2h1.115234 0.949219v-2h-0.949219-1.115234v-2.0488281-0.8828125h-2v0.8828125 1.0488281h-2v-1.1171875-0.8828125h-2v0.8828125 1.1171875h-2v-1.1171875-0.8828125h-2zm1 4h7v8h-7v-8z" enable-background="new"/>
        <rect x="206.0002" y="571" width="7" height="8" fill-opacity=".44252872"/>
    </g>
</svg>
