<svg version="1.1" viewBox="0 0 16.000004 16" xmlns="http://www.w3.org/2000/svg">
  <defs>
   <style id="current-color-scheme" type="text/css">
   .ColorScheme-Text { color:#5c616c; } .ColorScheme-Highlight { color:#5294e2; }
  </style>
 </defs>
    <g transform="translate(-853.02702,396.97987)" class="ColorScheme-Text" fill="currentColor">
        <g>
            <path d="m860.0282-389.04047a2.96875 2.96875 0 0 1-5.9375 0 2.96875 2.96875 0 1 1 5.9375 0z" enable-background="new"/>
            <path d="m869.02702-384.01112a2.96875 2.96875 0 0 1-5.9375 0 2.96875 2.96875 0 1 1 5.9375 0z" enable-background="new"/>
            <path d="m869.02702-394.01112a2.96875 2.96875 0 0 1-5.9375 0 2.96875 2.96875 0 1 1 5.9375 0z" enable-background="new"/>
        </g>
        <path d="m865.653-394.82172-9.03125 4.90625-1.59375 0.875 1.5625 0.875 9.0625 5.0625 0.96875-1.75-7.46875-4.1875 7.46875-4-0.96875-1.78125z" style="block-progression:tb;text-indent:0;text-transform:none"/>
    </g>
</svg>
