<svg version="1.1" viewBox="0 0 16 16" xmlns="http://www.w3.org/2000/svg">
  <defs>
   <style id="current-color-scheme" type="text/css">
   .ColorScheme-Text { color:#5c616c; } .ColorScheme-Highlight { color:#5294e2; }
  </style>
 </defs>
    <g transform="translate(-813.02678,397.97987)">
        <path d="m814.77679-396.97987c-0.4155 0-0.75 0.3345-0.75 0.75v13.5c0 0.4155 0.3345 0.75 0.75 0.75h12.5c0.4155 0 0.75-0.3345 0.75-0.75v-13.5c0-0.4155-0.3345-0.75-0.75-0.75h-12.5zm0.25 1h1v1h-1v-1zm2.5 0h7c0.277 0 0.5 0.223 0.5 0.5v5c0 0.277-0.223 0.5-0.5 0.5h-7c-0.277 0-0.5-0.223-0.5-0.5v-5c0-0.277 0.223-0.5 0.5-0.5zm8.5 0h1v1h-1v-1zm-11 2h1v1h-1v-1zm11 0h1v1h-1v-1zm-11 2h1v1h-1v-1zm11 0h1v1h-1v-1zm-11 2h1v1h-1v-1zm11 0h1v1h-1v-1zm-8.5 1h7c0.277 0 0.5 0.223 0.5 0.5v5c0 0.277-0.223 0.5-0.5 0.5h-7c-0.277 0-0.5-0.223-0.5-0.5v-5c0-0.277 0.223-0.5 0.5-0.5zm-2.5 1h1v1h-1v-1zm11 0h1v1h-1v-1zm-11 2h1v1h-1v-1zm11 0h1v1h-1v-1zm-11 2h1v1h-1v-1zm11 0h1v1h-1v-1z" class="ColorScheme-Text" fill="currentColor"/>
    </g>
</svg>
