<svg version="1.1" viewBox="0 0 16 16" xmlns="http://www.w3.org/2000/svg">
  <defs>
   <style id="current-color-scheme" type="text/css">
   .ColorScheme-Text { color:#5c616c; } .ColorScheme-Highlight { color:#5294e2; }
  </style>
 </defs>
    <g transform="translate(-713.0004,398)">
        <path d="m721.0004-397c-3.86599 0-7 3.13401-7 7s3.13401 7 7 7 7-3.13401 7-7-3.13401-7-7-7zm-0.0937 1.96875a1.0001 1.0001 0 0 1 1.0937 1.03125v5a1.0001 1.0001 0 1 1-2 0v-5a1.0001 1.0001 0 0 1 0.78125-1 1.0001 1.0001 0 0 1 0.125-0.0313zm0.0937 8.03125c0.55228 0 1 0.44772 1 1s-0.44772 1-1 1-1-0.44772-1-1 0.44772-1 1-1z" class="ColorScheme-Text" fill="currentColor"/>
    </g>
</svg>
