<svg version="1.1" viewBox="0 0 16 16" xmlns="http://www.w3.org/2000/svg">
  <defs>
   <style id="current-color-scheme" type="text/css">
   .ColorScheme-Text { color:#5c616c; } .ColorScheme-Highlight { color:#5294e2; }
  </style>
 </defs>
    <g transform="translate(-473.0004,-28)">
        <path d="m477.88188 32.008292c-0.22524 0-0.45186 0.07763-0.62371 0.249482-0.34369 0.343699-0.34369 0.90371 0 1.247409l2.49482 2.494817-2.49482 2.494817c-0.34369 0.3437-0.34369 0.903709 0 1.247409 0.3437 0.343698 0.90371 0.343698 1.24741 0l2.49482-2.494818 2.49482 2.494818c0.3437 0.343698 0.90371 0.343698 1.24741 0 0.34369-0.3437 0.34369-0.903709 0-1.247409l-2.49482-2.494817 2.49482-2.494817c0.34369-0.343699 0.34369-0.90371 0-1.247409-0.3437-0.343699-0.90371-0.343699-1.24741 0l-2.49482 2.494817-2.49482-2.494817c-0.17185-0.171849-0.39847-0.249482-0.6237-0.249482z" class="ColorScheme-Text" fill="currentColor"/>
    </g>
</svg>
