<svg version="1.1" viewBox="0 0 16 16" xmlns="http://www.w3.org/2000/svg">
  <defs>
   <style id="current-color-scheme" type="text/css">
   .ColorScheme-Text { color:#5c616c; } .ColorScheme-Highlight { color:#5294e2; }
  </style>
 </defs>
    <g transform="translate(-373.0006,-108)">
        <path d="m381.03145 111.03125c-1.56419-0.0167-3.13815 0.13788-4.6875 0.5-1.20207 0.2879-1.99303 1.09829-2.1875 2.4375-0.0536 0.5628-0.28002 1.34482 0.25 1.71875 0.70817 0.42322 1.57418 0.35362 2.34375 0.21875 0.56137-0.14838 0.80163-0.2025 1.25-0.625 0 0-0.0518-1.07046 0.1875-1.65625 1.931-0.81073 3.81009-0.75064 5.6875 0 0.23926 0.58579 0.1875 1.65625 0.1875 1.65625 0.44837 0.4225 0.68863 0.47662 1.25 0.625 0.76957 0.13487 1.63558 0.20447 2.34375-0.21875 0.53002-0.37393 0.30355-1.15595 0.25-1.71875-0.19447-1.33921-0.98543-2.1496-2.1875-2.4375-1.56891-0.29551-3.12331-0.48335-4.6875-0.5zm-3.03125 7.96875 3 4.40625 3-4.40625h-6z" enable-background="new" class="ColorScheme-Text" fill="currentColor"/>
    </g>
</svg>
