<svg version="1.1" viewBox="0 0 16 16" xmlns="http://www.w3.org/2000/svg">
  <defs>
   <style id="current-color-scheme" type="text/css">
   .ColorScheme-Text { color:#5c616c; } .ColorScheme-Highlight { color:#5294e2; }
  </style>
 </defs>
    <g transform="translate(-273.0004,-208)">
        <path d="m277.88188 212.00829c-0.22524 0-0.45186 0.0776-0.62371 0.24948-0.34369 0.3437-0.34369 0.90371 0 1.24741l2.49482 2.49482-2.49482 2.49482c-0.34369 0.3437-0.34369 0.90371 0 1.24741 0.3437 0.34369 0.90371 0.34369 1.24741 0l2.49482-2.49482 2.49482 2.49482c0.3437 0.34369 0.90371 0.34369 1.24741 0 0.34369-0.3437 0.34369-0.90371 0-1.24741l-2.49482-2.49482 2.49482-2.49482c0.34369-0.3437 0.34369-0.90371 0-1.24741-0.3437-0.34369-0.90371-0.34369-1.24741 0l-2.49482 2.49482-2.49482-2.49482c-0.17185-0.17185-0.39847-0.24948-0.6237-0.24948z" class="ColorScheme-Text" fill="currentColor"/>
    </g>
</svg>
