<svg version="1.1" viewBox="0 0 16 16" xmlns="http://www.w3.org/2000/svg">
  <defs>
   <style id="current-color-scheme" type="text/css">
   .ColorScheme-Text { color:#5c616c; } .ColorScheme-Highlight { color:#5294e2; }
  </style>
 </defs>
    <g transform="translate(-493.0004,12)">
        <path d="m504.2504-12c-1.03398 0-1.90534 0.59396-2.375 1.4375l-0.15625-0.15625-1.15625-0.25-0.96875 0.96875 0.6875 0.71875 1 1-4.28125 4.28125-1 2.4375 0.5 0.5625 2.5-1 4.28125-4.28125 1 1 0.71875 0.6875 1.125-1.125-0.40625-1-0.15625-0.15625c0.84354-0.46966 1.4375-1.34102 1.4375-2.375 0-1.51878-1.23122-2.75-2.75-2.75zm-2.46875 4.21875 1 1-2.78125 2.78125h-2l3.78125-3.78125zm-6.125 6.875s-1.8125 2.4758-1.8125 3.34375c0 0.86794 0.7258 1.5625 1.59375 1.5625s1.5625-0.69456 1.5625-1.5625c0-0.86795-1.34375-3.34375-1.34375-3.34375z" enable-background="new" class="ColorScheme-Text" fill="currentColor"/>
    </g>
</svg>
