<svg version="1.1" viewBox="0 0 16 16.000336" xmlns="http://www.w3.org/2000/svg">
  <defs>
   <style id="current-color-scheme" type="text/css">
   .ColorScheme-Text { color:#5c616c; } .ColorScheme-Highlight { color:#5294e2; }
  </style>
 </defs>
    <g transform="translate(-513.00043,52.000337)">
        <path d="m520.6877-52c-0.6136-0.0128-1.25 0.34375-1.25 0.34375l-0.75 0.375s-0.77274 0.6733-0.78125 0.90625c-0.44776 0.78268-0.23585 1.73752-0.28125 2.59375 0.0436 0.73511-0.4784 1.28585-0.21875 2.03125-0.0379 0.71962 0.55155 1.13575 0.9375 1.65625 0.43436 0.65848 1.02705 1.52445 0.5625 2.3125-0.85875 1.22945-2.2903 1.89268-3.59375 2.5625-0.4428 0.0448-0.28285 0.45066-0.3125 0.75-7.1e-4 0.23806-0.0724 0.54897 0.28125 0.4375h6.75v-1.96875a0.96395183 0.96395183 0 0 1 0.96875-0.96875h1.03125v-0.1875c-0.17522-0.16868-0.34788-0.33821-0.5-0.53125-0.53138-0.75179 0.0179-1.6441 0.4375-2.3125 0.32651-0.55677 0.99025-0.91506 1-1.625 0.25095-0.72027-0.11682-1.31303-0.1875-2-0.0924-0.91078 0.15912-1.93386-0.28125-2.78125-0.59708-0.86712-1.69503-1.2362-2.6875-1.46875-0.28789-0.0574-0.581-0.0915-0.875-0.0937-0.0853-0.0197-0.16234-0.0294-0.25-0.0312zm4.3125 10v2h-2v2h2v2h2v-2h2v-2h-2v-2h-2z" class="ColorScheme-Text" fill="currentColor"/>
    </g>
</svg>
