<svg version="1.1" viewBox="0 0 16.000004 16" xmlns="http://www.w3.org/2000/svg">
  <defs>
   <style id="current-color-scheme" type="text/css">
   .ColorScheme-Text { color:#5c616c; } .ColorScheme-Highlight { color:#5294e2; }
  </style>
 </defs>
    <g transform="translate(-273.0004,-28)" class="ColorScheme-Text" fill="currentColor">
        <path d="m281.88519 29.000001c-3.70511 0-6.75428 2.439951-7.08756 5.999999h-1.79723l2.65438 3.333333 2.65437-3.333333h-1.73271c0.32781-2.595507 2.58321-4.260869 5.30875-4.260869 2.95078 0 5.34562 2.35687 5.34562 5.260869 0 2.904-2.39484 5.26087-5.34562 5.26087-1.60094 0-3.03846-0.694972-4.01843-1.793479l-1.29954 1.184783c1.30362 1.442402 3.20325 2.347825 5.31797 2.347826 3.9276 0 7.11521-3.136 7.11521-7s-3.18762-6.999999-7.11521-6.999999z"/>
        <path d="m282.33373 31.666667h-0.66667l-0.66666 4.666666 3.33333 2.666667v-0.666667l-2-2.666666v-4z"/>
    </g>
</svg>
