<svg version="1.1" viewBox="0 0 16 16.017595" xmlns="http://www.w3.org/2000/svg">
  <defs>
   <style id="current-color-scheme" type="text/css">
   .ColorScheme-Text { color:#5c616c; } .ColorScheme-Highlight { color:#5294e2; }
  </style>
 </defs>
    <g transform="translate(-612.0002,13.008795)" class="ColorScheme-Text" fill="currentColor">
        <path d="m615.0002-12v14h5v-1h-4v-12c3.33334-3e-3 5.66666 3e-3 9 0v10h1v-11c-3.99997 3e-3 -7.00031-3e-3 -11 0z"/>
        <path d="m622.02032-5.14604c-0.32486-0.059-0.6669-0.0455-0.99404-3e-3l0.9759 1.72872c0.20088 0.35507-0.0237 0.76283-0.45022 1.00909l-0.76991 0.44451c-0.43052 0.23932-0.91014 0.20778-1.11067-0.14747l-0.97565-1.72885c-0.20685 0.25617-0.39602 0.54042-0.51415 0.84765-0.56538 1.4706 0.23676 2.8917 1.79162 3.17415 0.32485 0.0591 0.66688 0.0455 0.99402 3e-3 0.0263-4e-3 1.5184 2.76504 1.5184 2.76504l3.50484 0.062-2.66726-4.12967c0.20681-0.25617 0.37073-0.54378 0.48887-0.85103 0.56534-1.47056-0.23679-2.89167-1.79161-3.17413z" style="block-progression:tb;text-indent:0;text-transform:none"/>
    </g>
</svg>
