<svg version="1.1" viewBox="0 0 16 16" xmlns="http://www.w3.org/2000/svg">
  <defs>
   <style id="current-color-scheme" type="text/css">
   .ColorScheme-Text { color:#5c616c; } .ColorScheme-Highlight { color:#5294e2; }
  </style>
 </defs>
    <g transform="translate(-435.00039,-168)" class="ColorScheme-Text" fill="currentColor">
        <path d="m440.00059 172 5 3.5-5 3.5v-2-0.0312c-2.82477-0.1089-3.9667 2.8943-1.53125 4.625 0.21034 0.1494 0.41983 0.30561 0.6875 0.4375 0 0 4.42166 1.89308-0.5625 0.0625-0.48612-0.20985-0.8851-0.42215-1.25-0.6875-3.55412-2.58451-1.70432-7.44583 2.65625-7.4063v-2z"/>
        <path d="m448.50059 169c0.831 0 1.5 0.669 1.5 1.5v11c0 0.831-0.669 1.5-1.5 1.5h-7.50039v-1h7.00039c0.554 0 1-0.446 1-1v-10c0-0.554-0.446-1-1-1h-10c-0.554 0-1 0.446-1 1v3h-1v-3.5c0-0.831 0.669-1.5 1.5-1.5z"/>
    </g>
</svg>
