<svg version="1.1" viewBox="0 0 16.000166 16.006947" xmlns="http://www.w3.org/2000/svg">
  <defs>
   <style id="current-color-scheme" type="text/css">
   .ColorScheme-Text { color:#5c616c; } .ColorScheme-Highlight { color:#5294e2; }
  </style>
 </defs>
    <g transform="translate(-533.0002,52.006947)" class="ColorScheme-Text" fill="currentColor">
        <path d="m536.9377-52c-0.36035 0.0469-0.9375 0.25-0.9375 1v2s-1 0-1 1v3h-1s-1 0-1 1v5.5c0 0.5 0.5 0.5 0.5 0.5h0.5c0 1 1 1 1 1s0 1 1 1h10c0.2 0 0.372-0.0298 0.5-0.0937-0.0652-0.0488-0.127-0.0976-0.1875-0.15625l-0.75-0.75h-9.5625v-1h6.0625c-0.48294-0.23469-0.9097-0.5905-1.25-1h-6.8125v-4.4375c0-0.42188 0.37793-0.53613 0.5625-0.5625 0.0615-9e-3 0.0937 0 0.0937 0h1.34375 5.0625c0.50141-0.49014 1.13467-0.8534 1.84375-1l-5.9062-5e-5v-6h8v6h-0.59375c0.70908 0.1466 1.34234 0.50986 1.84375 1h1.09375s0.65625 0 0.65625 0.5625v3.9375l0.75 0.75h0.0312c0.0823 0.0823 0.15562 0.15868 0.21875 0.25v-5.5c0-1-1-1-1-1h-1v-3c0-1-1-1-1-1v-2c0-1-1-1-1.1875-1h-7.625c-0.0469 0-0.12988-0.0156-0.25 0z" style="block-progression:tb;text-indent:0;text-transform:none"/>
        <path d="m543.65665-44.0625c-1.4956 0-2.71875 1.22315-2.71875 2.71875s1.22315 2.71875 2.71875 2.71875c0.4871 0 0.94729-0.14835 1.34375-0.375a0.750075 0.750075 0 0 0 0.15625 0.21875l1.84375 1.8125a0.75130096 0.75130096 0 1 0 1.0625-1.0625l-1.84375-1.8125a0.750075 0.750075 0 0 0-0.21875-0.15625c0.22665-0.39646 0.375-0.85664 0.375-1.34375 0-1.4956-1.22315-2.71875-2.71875-2.71875zm0 1c0.95516 0 1.71875 0.76359 1.71875 1.71875s-0.76359 1.71875-1.71875 1.71875-1.71875-0.76359-1.71875-1.71875 0.76359-1.71875 1.71875-1.71875z" enable-background="new" style="block-progression:tb;text-indent:0;text-transform:none"/>
        <path d="m536.0002-44v4h4.1875c-0.16539-0.4193-0.25-0.86848-0.25-1.34375 0-1.03575 0.43253-1.97935 1.125-2.65625z" opacity=".5"/>
    </g>
</svg>
