<svg version="1.1" viewBox="0 0 16 16" xmlns="http://www.w3.org/2000/svg">
  <defs>
   <style id="current-color-scheme" type="text/css">
   .ColorScheme-Text { color:#5c616c; } .ColorScheme-Highlight { color:#5294e2; }
  </style>
 </defs>
    <g transform="translate(-353.0004,-168)">
        <path d="m355.5002 169c-0.831 0-1.5 0.669-1.5 1.5v11c0 0.831 0.669 1.5 1.5 1.5h11c0.831 0 1.5-0.669 1.5-1.5v-3.5h-1v3c0 0.554-0.446 1-1 1h-10c-0.554 0-1-0.446-1-1v-10c0-0.554 0.446-1 1-1h10c0.554 0 1 0.446 1 1v3h1v-3.5c0-0.831-0.669-1.5-1.5-1.5h-11zm8.5 3-5 4 5 4v-3h4v-2h-4v-3z" class="ColorScheme-Text" fill="currentColor"/>
    </g>
</svg>
