<svg version="1.1" viewBox="0 0 16 16" xmlns="http://www.w3.org/2000/svg">
  <defs>
   <style id="current-color-scheme" type="text/css">
   .ColorScheme-Text { color:#5c616c; } .ColorScheme-Highlight { color:#5294e2; }
  </style>
 </defs>
    <path d="m9.4226354 2.999999a0.51931882 0.52641945 0 0 1 0.25 0.15625l5.1874996 5.3125a0.51931882 0.52641945 0 0 1-0.03125 0.75l-5.0312496 4.625001a0.51931882 0.52641945 0 0 1-0.34375 0.15625h-7.90625a0.51931882 0.52641945 0 0 1-0.53125-0.53125v-9.937501a0.51931882 0.52641945 0 0 1 0.53125-0.53125h7.75a0.51931882 0.52641945 0 0 1 0.0625 0 0.51931882 0.52641945 0 0 1 0.0625 0zm-1.34375 2.25-1.8125 1.75-1.78125-1.75-1.46875 1.46875 1.75 1.78125-1.75 1.84375 1.46875 1.406251 1.78125-1.750001 1.8125 1.750001 1.4375-1.437501-1.75-1.8125 1.75-1.78125-1.4375-1.46875z" class="ColorScheme-Text" fill="currentColor"/>
</svg>
