<svg version="1.1" viewBox="0 0 16 16" xmlns="http://www.w3.org/2000/svg">
  <defs>
   <style id="current-color-scheme" type="text/css">
   .ColorScheme-Text { color:#5c616c; } .ColorScheme-Highlight { color:#5294e2; }
  </style>
 </defs>
    <g transform="translate(-453.0004,12)">
        <path d="m459.59393-10.000139a0.51931882 0.52641945 0 0 0-0.25 0.1562495l-5.1875 5.3125a0.51931882 0.52641945 0 0 0 0.0312 0.75l5.03125 4.625a0.51931882 0.52641945 0 0 0 0.3438 0.15625h7.90625a0.51931882 0.52641945 0 0 0 0.53125-0.53124997v-9.9375a0.51931882 0.52641945 0 0 0-0.53125-0.5312495h-7.75a0.51931882 0.52641945 0 0 0-0.0625 0 0.51931882 0.52641945 0 0 0-0.0625 0zm1.34375 2.2499995 1.8125 1.75 1.78125-1.75 1.46875 1.46875-1.75 1.78125 1.75 1.84375-1.46875 1.40625-1.78125-1.75-1.8125 1.75-1.4375-1.4375 1.75-1.8125-1.75-1.78125 1.4375-1.46875z" class="ColorScheme-Text" fill="currentColor"/>
    </g>
</svg>
