<svg version="1.1" viewBox="0 0 16 16" xmlns="http://www.w3.org/2000/svg">
  <defs>
   <style id="current-color-scheme" type="text/css">
   .ColorScheme-Text { color:#5c616c; } .ColorScheme-Highlight { color:#5294e2; }
  </style>
 </defs>
    <g transform="translate(-293.0004,-8)">
        <path d="m301.00038 8c-1.10457 0-2 0.89543-2 2l-3.0002 3e-3c-1 0-1 1-1 1v11c0 1 1 1 1 1h10s1 0 1-1v-11c0-1-1-1-1-1l-2.9998-3e-3c0-0.13807-5e-3 -0.27605-0.0312-0.40625-0.18654-0.91137-1.0023-1.59375-1.9688-1.59375zm0 1c0.41421 0 0.75444 0.26608 0.90625 0.625 0.0506 0.11964 0.0937 0.23693 0.0937 0.375 0 0.55228-0.44771 1-1 1s-1-0.44772-1-1 0.44771-1 1-1zm-2.00018 2-2e-5 2.00336s-1 0-1 1h1 4 1c0-0.75-0.5625-0.95312-0.84375-1h-0.15625l2e-5 -2.00336h3l-1e-4 11.002-9.9999-2e-3 -1e-4 -10.99864z" class="ColorScheme-Text" fill="currentColor"/>
    </g>
</svg>
