<svg version="1.1" viewBox="0 0 16 16.013161" xmlns="http://www.w3.org/2000/svg">
  <defs>
   <style id="current-color-scheme" type="text/css">
   .ColorScheme-Text { color:#5c616c; } .ColorScheme-Highlight { color:#5294e2; }
  </style>
 </defs>
    <g transform="translate(-273.0004,-8)" class="ColorScheme-Text" fill="currentColor">
        <path d="m276.5004 16.986844c-1.90452 0-3.49227 1.57485-3.49227 3.513157s1.58775 3.513158 3.49227 3.513158c1.90453 0 3.49227-1.574851 3.49227-3.513158s-1.58774-3.513157-3.49227-3.513157zm0 2.026315c0.8569 0 1.50773 0.663727 1.50773 1.486842 0 0.823116-0.65083 1.486842-1.50773 1.486842s-1.50773-0.663726-1.50773-1.486842c0-0.823115 0.65083-1.486842 1.50773-1.486842z" style="block-progression:tb;text-indent:0;text-transform:none"/>
        <path d="m285.5004 16.986846c-1.90452 0-3.49227 1.57485-3.49227 3.513157 0 1.938308 1.58775 3.513158 3.49227 3.513158 1.90453 0 3.49227-1.57485 3.49227-3.513158 0-1.938307-1.58774-3.513157-3.49227-3.513157zm0 2.026315c0.8569 0 1.50773 0.663727 1.50773 1.486842 0 0.823116-0.65083 1.486842-1.50773 1.486842s-1.50773-0.663726-1.50773-1.486842c0-0.823115 0.65083-1.486842 1.50773-1.486842z" style="block-progression:tb;text-indent:0;text-transform:none"/>
        <path d="m276.09651 8c-1.06041 0.554-1.40652 1.7592-0.79429 2.71875l4.42041 7.28125-1.74629 2.36796 1.41408 2.08517 1.60998-2.48438 1.57873 2.48438 1.40114-1.99679-1.7021-2.45634 4.42041-7.28125c0.61223-0.95955 0.26612-2.16475-0.79429-2.71875l-4.90389 8-4.90389-8z"/>
    </g>
</svg>
