<svg version="1.1" viewBox="0 0 16.000002 16" xmlns="http://www.w3.org/2000/svg">
  <defs>
   <style id="current-color-scheme" type="text/css">
   .ColorScheme-Text { color:#5c616c; } .ColorScheme-Highlight { color:#5294e2; }
  </style>
 </defs>
    <g transform="translate(-373.0006,12)">
        <path d="m379.25019-11.00354c-2.89949 0-5.25 2.35051-5.25 5.25s2.35051 5.25 5.25 5.25c1.12797 0 2.17551-0.36336 3.03125-0.96875l4.21875 4.21875c0.34277 0.34277 0.90723 0.34277 1.25 0s0.34277-0.90723 0-1.25l-4.21875-4.21875c0.60539-0.85574 0.96875-1.90328 0.96875-3.03125 0-2.89949-2.35051-5.25-5.25-5.25zm0 1.375c2.1401 0 3.875 1.7349 3.875 3.875s-1.7349 3.875-3.875 3.875-3.875-1.7349-3.875-3.875 1.7349-3.875 3.875-3.875z" class="ColorScheme-Text" fill="currentColor"/>
    </g>
</svg>
