<svg version="1.1" viewBox="0 0 16.000002 16" xmlns="http://www.w3.org/2000/svg">
  <defs>
   <style id="current-color-scheme" type="text/css">
   .ColorScheme-Text { color:#5c616c; } .ColorScheme-Highlight { color:#5294e2; }
  </style>
 </defs>
    <g transform="translate(-413.00061,12)" class="ColorScheme-Text" fill="currentColor">
        <path d="m419.2502-11c-2.89949 0-5.25 2.35051-5.25 5.25 0 1.10322 0.35616 2.12372 0.9375 2.96875l1-1c-0.34815-0.58128-0.5625-1.2419-0.5625-1.96875 0-2.1401 1.7349-3.875 3.875-3.875 0.72685 0 1.38747 0.21435 1.96875 0.5625l0.6875-0.6875 0.28125-0.28125 0.0312-0.0312c-0.84498-0.58139-1.86548-0.93755-2.9687-0.93755zm3.78125 4.5c0.0477 0.24298 0.0937 0.49304 0.0937 0.75 0 0.0856-0.0258 0.16573-0.0312 0.25l0.46875-0.46875-0.53125-0.53125zm1.03125 4.3125-1.25 1.25 3.6875 3.6875c0.34277 0.34277 0.90723 0.34277 1.25 0s0.34277-0.90723 0-1.25l-3.6875-3.6875zm-5.65625 0.1875-1.125 1.125c0.29408 0.11965 0.58841 0.18496 0.90625 0.25h0.0312l1.28125-1.28125c-0.0843 5e-3 -0.16435 0.0312-0.25 0.0312-0.29204 0-0.57018-0.0638-0.84375-0.125z"/>
        <path d="m415.48879-1.20998-1.48506 4.20727 4.20186-1.49048 7.47119-7.47119-2.7168-2.7168zm8.82959-8.8296 2.7168 2.7168 0.67919-0.6792c0.37136-0.37135 0.39258-0.96582 0.0212-1.33717l-1.37962-1.37963c-0.37135-0.37135-0.98705-0.37135-1.3584 0z"/>
    </g>
</svg>
