<svg version="1.1" viewBox="0 0 16 15.999995" xmlns="http://www.w3.org/2000/svg">
  <defs>
   <style id="current-color-scheme" type="text/css">
   .ColorScheme-Text { color:#5c616c; } .ColorScheme-Highlight { color:#5294e2; }
  </style>
 </defs>
    <g transform="translate(-513.0004,12)">
        <path d="m515.93316-10.99926c-0.50766 0.0395-0.94152 0.51729-0.93263 1.02692v12.94533c-8e-3 0.5398 0.48663 1.03477 1.02589 1.02691h9.948c0.53926 8e-3 1.03373-0.48711 1.02589-1.02691v-9.95795c-4e-3 -0.26704-0.1184-0.53079-0.31088-0.71573l-2.9844-2.98738c-0.18475-0.19267-0.44824-0.30734-0.71501-0.31119h-6.9636c-0.0311-9.9e-4 -0.0622-9.9e-4 -0.0933 0zm1.08806 2.05393h5.9688v1.99159h-5.9688zm0 3.98318h7.9584v1.99159h-7.9584zm0 3.98317h7.9584v1.99159h-7.9584z" class="ColorScheme-Text" fill="currentColor"/>
    </g>
</svg>
