<svg version="1.1" viewBox="0 0 16 16" xmlns="http://www.w3.org/2000/svg">
  <defs>
   <style id="current-color-scheme" type="text/css">
   .ColorScheme-Text { color:#5c616c; } .ColorScheme-Highlight { color:#5294e2; }
  </style>
 </defs>
    <g transform="translate(-553.00043,52)" class="ColorScheme-Text" fill="currentColor">
        <path d="m555.5002-50c-0.277 0-0.5 0.223-0.5 0.5v0.5h-0.5c-0.277 0-0.5 0.223-0.5 0.5v2c0-0.277 0.223-0.5 0.5-0.5h13c0.277 0 0.5 0.223 0.5 0.5v-2c0-0.277-0.223-0.5-0.5-0.5h-6.5v-0.5c0-0.277-0.223-0.5-0.5-0.5zm-1 4c-0.277 0-0.5 0.223-0.5 0.5v7c0 0.277 0.223 0.5 0.5 0.5h7.5v-4h2v-2h4v-1.5c0-0.277-0.223-0.5-0.5-0.5z"/>
        <path d="m565.0002-43v2h-2v2h2v2h2v-2h2v-2h-2v-2z"/>
    </g>
</svg>
