<svg version="1.1" viewBox="0 0 16 16" xmlns="http://www.w3.org/2000/svg">
  <defs>
   <style id="current-color-scheme" type="text/css">
   .ColorScheme-Text { color:#5c616c; } .ColorScheme-Highlight { color:#5294e2; }
  </style>
 </defs>
    <g transform="translate(-413.0006,-48)" class="ColorScheme-Text" fill="currentColor">
        <path d="m417 50v2h6c0.42816 0 1 0.614142 1 1v1h-5c-0.91927 0-1.7356 0.383964-2.25 0.96875s-0.75639 1.310628-0.75 2.03125c6e-3 0.720622 0.26893 1.452713 0.78125 2.03125s1.31047 0.96875 2.21875 0.96875h6 1v-1-6c0-1.634342-1.3198-3-3-3h-6zm2 6h5v2h-5c-0.39787 0-0.56691-0.109787-0.71875-0.28125s-0.27877-0.439372-0.28125-0.71875c-2e-3 -0.279378 0.10467-0.553536 0.25-0.71875s0.32764-0.28125 0.75-0.28125z" style="block-progression:tb;text-indent:0;text-transform:none"/>
        <path d="m415 61v2h12v-2h-12z" style="block-progression:tb;text-indent:0;text-transform:none"/>
    </g>
</svg>
