<svg version="1.1" viewBox="0 0 16 16" xmlns="http://www.w3.org/2000/svg">
  <defs>
   <style id="current-color-scheme" type="text/css">
   .ColorScheme-Text { color:#5c616c; } .ColorScheme-Highlight { color:#5294e2; }
  </style>
 </defs>
    <g transform="translate(-453.0006,-48)">
        <path d="m457.5 51v2h6c0.42816 0 0.59383 0.267329 0.46875 0.71875l-0.34375 1.28125h-5.25c-1.83854 0-3.12514 1.352373-3.5 2.75-0.18743 0.698813-0.16219 1.478825 0.25 2.15625s1.24797 1.09375 2.15625 1.09375h6 0.75l0.21875-0.71875 1.65625-6c0.43468-1.568779-0.72605-3.28125-2.40625-3.28125h-6zm0.875 6h4.6875l-0.5625 2h-5.21875c-0.39787 0-0.42459-0.08367-0.46875-0.15625-0.0442-0.07258-0.0808-0.292563 0-0.59375 0.16157-0.602373 0.71778-1.25 1.5625-1.25z" class="ColorScheme-Text" fill="currentColor" style="block-progression:tb;text-indent:0;text-transform:none"/>
    </g>
</svg>
