<svg version="1.1" viewBox="0 0 16 16" xmlns="http://www.w3.org/2000/svg">
  <defs>
   <style id="current-color-scheme" type="text/css">
   .ColorScheme-Text { color:#5c616c; } .ColorScheme-Highlight { color:#5294e2; }
  </style>
 </defs>
    <g transform="translate(-352.00039,32)">
        <path d="m358.16098-19.668634c-0.0883-0.0917-0.16059-0.445878-0.16059-0.787073 0-0.566366 0.0904-0.746138 1.03831-2.065636l1.03832-1.44528-1.03832-1.466147c-0.95567-1.349456-1.03831-1.517052-1.03831-2.105735 0-0.696692 0.16058-0.961495 0.58307-0.961495 0.30326 0 0.63972 0.348386 1.48965 1.542469 0.31505 0.442621 0.87874 1.203764 1.25266 1.691429 0.47528 0.619865 0.67826 1.003277 0.67457 1.274213-4e-3 0.286264-0.40079 0.913359-1.51864 2.399465-1.54177 2.049664-1.90746 2.352809-2.32072 1.92379z" class="ColorScheme-Text" fill="currentColor" stroke-width=".13164124"/>
    </g>
</svg>
