<svg version="1.1" viewBox="0 0 16 16" xmlns="http://www.w3.org/2000/svg">
  <defs>
   <style id="current-color-scheme" type="text/css">
   .ColorScheme-Text { color:#5c616c; } .ColorScheme-Highlight { color:#5294e2; }
  </style>
 </defs>
    <g transform="translate(-435.0004,-148)">
        <path class="error" d="m443.0004 152c-2.20914 0-4 1.79086-4 4 0 0.35656 0.0687 0.70226 0.15625 1.03125l4.875-4.875c-0.32899-0.08753-0.67469-0.15625-1.03125-0.15625zm3.84375 2.96875-4.875 4.875c0.32899 0.0875 0.67469 0.15625 1.03125 0.15625 2.20914 0 4-1.79086 4-4 0-0.35656-0.0687-0.70226-0.15625-1.03125z" enable-background="new" fill="#ef2929"/>
        <path d="m448.65665 148.9375-12.71875 12.71875 1.40625 1.40625 12.71875-12.71875-1.40625-1.40625zm-5.65625 1.0625c-3.31371 0-6 2.68629-6 6 0 0.92699 0.21838 1.81003 0.59375 2.59375l1.5625-1.5625c-0.0875-0.32899-0.15625-0.67469-0.15625-1.03125 0-2.20914 1.79086-4 4-4 0.35656 0 0.70226 0.0687 1.03125 0.15625l1.5625-1.5625c-0.78372-0.37537-1.66676-0.59375-2.59375-0.59375zm5.40625 3.40625-1.5625 1.5625c0.0875 0.32899 0.15625 0.67469 0.15625 1.03125 0 2.20914-1.79086 4-4 4-0.35656 0-0.70226-0.0687-1.03125-0.15625l-1.5625 1.5625c0.78372 0.37537 1.66676 0.59375 2.59375 0.59375 3.31371 0 6-2.68629 6-6 0-0.92699-0.21838-1.81003-0.59375-2.59375z" class="ColorScheme-Text" fill="currentColor"/>
    </g>
</svg>
