<svg version="1.1" viewBox="0 0 16 16" xmlns="http://www.w3.org/2000/svg">
  <defs>
   <style id="current-color-scheme" type="text/css">
   .ColorScheme-Text { color:#5c616c; } .ColorScheme-Highlight { color:#5294e2; }
  </style>
 </defs>
    <g transform="translate(-592.00041,-7)" class="ColorScheme-Text" fill="currentColor">
        <path d="m593.0004 7v2c0.55228 0 1 0.44772 1 1s-0.44772 1-1 1v1c0.55229 0 1 0.44772 1 1s-0.44771 1-1 1v1c0.55228 0 1 0.44772 1 1s-0.44772 1-1 1v1c0.55228 0 1 0.44772 1 1s-0.44772 1-1 1v2h2c0-0.55228 0.44772-1 1-1s1 0.44772 1 1h1c0-0.55228 0.44772-1 1-1s1 0.44772 1 1h1c0-0.55228 0.44772-1 1-1 0.55229 0 1 0.44772 1 1h1c0-0.55228 0.44771-1 1-1s1 0.44772 1 1h2v-2c-0.55229 0-1-0.44772-1-1s0.44771-1 1-1v-1c-0.55229 0-1-0.44772-1-1s0.44771-1 1-1v-1c-0.55229 0-1-0.44772-1-1s0.44771-1 1-1v-1c-0.55229 0-1-0.44772-1-1s0.44771-1 1-1v-2h-2c0 0.55228-0.44771 1-1 1s-1-0.44772-1-1h-1c0 0.55228-0.44771 1-1 1-0.55228 0-1-0.44772-1-1h-1c0 0.55228-0.44772 1-1 1s-1-0.44772-1-1h-1c0 0.55228-0.44772 1-1 1s-1-0.44772-1-1h-2zm2 2h11v11h-2v-2.0625c0-1.0667-0.77865-1.98042-1.71875-2.25-0.49379 0.47964-1.07039 0.6875-1.78125 0.6875s-1.28746-0.20786-1.78125-0.6875c-0.77657 0.27945-1.71772 0.97676-1.71875 2.21875v2.09375h-2v-11z"/>
        <path transform="matrix(.92307481 0 0 .92307481 554.80819 -302.84544)" d="m52 342.5a2.5 2.5 0 1 1-5 0 2.5 2.5 0 1 1 5 0z"/>
    </g>
</svg>
