<svg version="1.1" viewBox="0 0 16 16" xmlns="http://www.w3.org/2000/svg">
  <defs>
   <style id="current-color-scheme" type="text/css">
   .ColorScheme-Text { color:#5c616c; } .ColorScheme-Highlight { color:#5294e2; }
  </style>
 </defs>
    <g transform="translate(-573.0004,12)">
        <path d="m574.78113-10.280821a1.0000999 1.0000318 0 0 0-0.40625 1.7811331l5 3.9997225 0.625 0.4999691 0.625-0.4999691 5-3.9997225a1.0004905 1.0004223 0 1 0-1.25-1.5623991l-4.375 3.499763-4.375-3.499763a1.0000999 1.0000318 0 0 0-0.84375-0.218734z" class="ColorScheme-Text" fill="currentColor" style="block-progression:tb;text-indent:0;text-transform:none"/>
        <path d="m573.81304-10.999246c-0.4584 0.08753-0.82073 0.533367-0.8125 0.9999285v8.9993932c5e-5 0.52354248 0.47641 0.9998786 1 0.99992817h5.99986v-1.9998662h-4.99986v-6.999517h10l-1.4e-4 3.9997226h2l1.4e-4 -4.9996607c-5e-5 -0.5235425-0.47642-0.9998785-1-0.9999285h-12c-0.0312-9.91e-4 -0.0625-9.91e-4 -0.0937 0-0.0312-9.91e-4 -0.0625-9.91e-4 -0.0937 0z" class="ColorScheme-Text" fill="currentColor" style="block-progression:tb;text-indent:0;text-transform:none"/>
        <path class="warning" d="m581.8754-3.9308125c-0.49245 0-0.875 0.3792369-0.875 0.8673994v6.1957103c0 0.4881625 0.38255 0.8673995 0.875 0.8673995h6.25c0.49245 0 0.875-0.379237 0.875-0.8673995v-6.1957103c0-0.4881625-0.38255-0.8673994-0.875-0.8673994h-6.25zm2.125 0.9913136h2v3.9652546h-2v-3.9652546zm0 4.9565683h2v0.9913136h-2v-0.9913136z" fill="#f57900"/>
    </g>
</svg>
