<svg version="1.1" viewBox="0 0 16 16" xmlns="http://www.w3.org/2000/svg">
  <defs>
   <style id="current-color-scheme" type="text/css">
   .ColorScheme-Text { color:#5c616c; } .ColorScheme-Highlight { color:#5294e2; }
  </style>
 </defs>
    <g transform="translate(-533.00039,-8)" class="ColorScheme-Text" fill="currentColor">
        <path d="m541.00059 9c2.19049 0 4.12471 1.02108 5.40625 2.59375l1.59375-1.59375v5h-5l1.96875-1.96875c-0.90234-1.223495-2.33013-2.03125-3.96875-2.03125-2.76142 0-5 2.238576-5 5s2.23858 5 5 5c1.92889 0 3.57233-1.119007 4.40625-2.71875l1.875 0.78125c-1.13668 2.329356-3.51487 3.9375-6.28125 3.9375-3.86599 0-7-3.134007-7-7s3.13401-7 7-7z"/>
        <path transform="matrix(-.75 0 0 .75 547.00059 10)" d="m10 8a2 2 0 1 1-4 0 2 2 0 1 1 4 0z"/>
    </g>
</svg>
