<svg version="1.1" viewBox="0 0 16 16" xmlns="http://www.w3.org/2000/svg">
  <defs>
   <style id="current-color-scheme" type="text/css">
   .ColorScheme-Text { color:#5c616c; } .ColorScheme-Highlight { color:#5294e2; }
  </style>
 </defs>
    <g transform="translate(-493.00035,-8)" class="ColorScheme-Text" fill="currentColor">
        <path d="m500 11v10h2v-10h-2z" style="block-progression:tb;text-indent:0;text-transform:none"/>
        <path d="m497.0004 18v1c0 0.26528 0.093 0.53057 0.28125 0.71875l3.71875 3.71875 3.71875-3.71875c0.18814-0.18817 0.28122-0.45344 0.28125-0.71875v-1h-1c-0.2653 0-0.53058 0.0931-0.71875 0.28125l-2.28125 2.28125-2.28125-2.28125c-0.18818-0.18811-0.45344-0.28129-0.71875-0.28125z" style="block-progression:tb;text-indent:0;text-transform:none"/>
        <path d="m497.00061 13.99999v-1c0-0.26528 0.093-0.53057 0.28125-0.71875l3.71875-3.71875 3.71875 3.71875c0.18814 0.18817 0.28122 0.45344 0.28125 0.71875v1h-1c-0.2653 0-0.53058-0.0931-0.71875-0.28125l-2.28125-2.28125-2.28125 2.28125c-0.18818 0.18811-0.45344 0.28129-0.71875 0.28125z" style="block-progression:tb;text-indent:0;text-transform:none"/>
    </g>
</svg>
