<svg version="1.1" viewBox="0 0 16 16" xmlns="http://www.w3.org/2000/svg">
  <defs>
   <style id="current-color-scheme" type="text/css">
   .ColorScheme-Text { color:#5c616c; } .ColorScheme-Highlight { color:#5294e2; }
  </style>
 </defs>
    <g transform="translate(-293.0002,-170)">
        <path d="m300.0002 171v1.59375c-0.73915 0.21303-1.45816 0.48865-2.125 0.875-0.38485-0.35443-0.75742-0.72152-1.125-1.09375l-1.375 1.375c0.37225 0.36756 0.73934 0.74013 1.09375 1.125-0.38654 0.66676-0.66178 1.38589-0.875 2.125h-1.59375v2h1.59375c0.21303 0.73915 0.48865 1.45816 0.875 2.125-0.35443 0.38485-0.72152 0.75742-1.09375 1.125l1.375 1.375c0.36756-0.37225 0.74013-0.73934 1.125-1.09375 0.66676 0.38654 1.38589 0.66178 2.125 0.875v1.59375h2v-1.59375c0.73915-0.21303 1.45816-0.48865 2.125-0.875 0.38485 0.35443 0.75742 0.72152 1.125 1.09375l1.375-1.375c-0.37225-0.36756-0.73934-0.74013-1.09375-1.125 0.38654-0.66676 0.66178-1.38589 0.875-2.125h1.59375v-2h-1.59375c-0.21303-0.73915-0.48865-1.45816-0.875-2.125 0.35443-0.38485 0.72152-0.75742 1.09375-1.125l-1.375-1.375c-0.36756 0.37225-0.74013 0.73934-1.125 1.09375-0.66676-0.38654-1.38589-0.66178-2.125-0.875v-1.59375h-2zm1 4.5625c1.44226-0.0478 2.67514 1.39104 2.40946 2.8091-0.17311 1.42909-1.77502 2.42691-3.13494 1.95646-1.38477-0.38389-2.13402-2.11088-1.47195-3.38556 0.39086-0.83168 1.27761-1.39091 2.19743-1.38z" display="block" class="ColorScheme-Text" fill="currentColor" style="block-progression:tb;text-indent:0;text-transform:none"/>
    </g>
</svg>
