<svg version="1.1" viewBox="0 0 16 16" xmlns="http://www.w3.org/2000/svg">
  <defs>
   <style id="current-color-scheme" type="text/css">
   .ColorScheme-Text { color:#5c616c; } .ColorScheme-Highlight { color:#5294e2; }
  </style>
 </defs>
    <g transform="translate(-514.00041,-169)" class="ColorScheme-Text" fill="currentColor">
        <path d="m516.0002 170v1.625c0.22643-0.13032 0.47097-0.23331 0.71875-0.3125 0.4307-0.1377 0.87508-0.1946 1.34375-0.125 0.4594 0.0683 0.92934 0.24683 1.34375 0.53125v0.0312c0.70683 0.49615 0.90391 1.35179 0.40625 2.0625-0.49677 0.70951-1.3869 0.86508-2.09375 0.375-0.0372-0.0262-0.0222 0.0113-0.0312 0-0.0287-0.0362 6e-3 -0.0631-0.0937-0.0312-8e-3 3e-3 -0.20338 0.13973-0.3125 0.3125-0.1092 0.17289-0.1367 0.3447-0.125 0.4375 0.0207 0.16423-2.4e-4 0.13728 0.25 0.3125 1.80732 1.2655 2.42547 3.3468 1.8125 5l3.78115 3.78125 7-7-7-7h-7z"/>
        <path d="m515.88302 172.98821c0.30112-0.34375 0.68838-0.59712 1.12654-0.73715 0.58421-0.18672 1.24821-0.11788 1.84835 0.30234 0.21868 0.14824 0.28015 0.48405 0.12862 0.70045-0.15152 0.21641-0.48795 0.27329-0.70219 0.11871-0.36789-0.2576-0.67505-0.26314-0.9933-0.16143-0.31826 0.10171-0.62665 0.37152-0.83981 0.70903-0.21315 0.33753-0.32362 0.73083-0.27665 1.10337 0.047 0.37253 0.20993 0.71923 0.65269 1.02925 1.77371 1.24196 2.03486 3.21182 1.1207 4.44705-0.50983 0.68888-1.35904 1.10936-2.36568 1.09027l-0.49652-1.03435c0.9654 0.21774 1.67363-0.13171 2.06097-0.6551 0.57154-0.77231 0.53145-2.03127-0.89305-3.02872-0.64874-0.45426-0.98957-1.10408-1.06988-1.74102-0.0803-0.63693 0.10614-1.24538 0.43034-1.75873 0.0812-0.12821 0.16849-0.26939 0.26887-0.38397zm-1.61392 7.26275c0.0816 0.0403 0.16193 0.0592 0.24064 0.0922l0.54513 1.18285c-0.0667-0.0109-0.13961-0.0161-0.20733-0.0308zm0.41212 0.17418c0.0864 0.0316 0.17589 0.0434 0.25854 0.0666l0.50419 1.07787c-0.0763-4e-3 -0.1473 4e-3 -0.22529-5e-3z" style="block-progression:tb;text-indent:0;text-transform:none"/>
    </g>
</svg>
