<svg version="1.1" viewBox="0 0 16 16" xmlns="http://www.w3.org/2000/svg">
  <defs>
   <style id="current-color-scheme" type="text/css">
   .ColorScheme-Text { color:#5c616c; } .ColorScheme-Highlight { color:#5294e2; }
  </style>
 </defs>
    <g transform="translate(-493.0004,-48)" class="ColorScheme-Text" fill="currentColor">
        <path d="m496 51v2h1.90625c-0.05518 0 0.09375 0.171037 0.09375 0.09375v0.9375h-1c-1.71588 0-3.03787 1.10986-3.0625 2.46875-0.0123 0.679445 0.3195 1.353231 0.875 1.8125s1.30959 0.71875 2.1875 0.71875h2 1v-1-4.9375c0-1.171187-0.89691-2.09375-2.09375-2.09375h-1.90625zm1 5.03125h1v1h-1c-0.51941 0-0.78011-0.145714-0.90625-0.25s-0.15755-0.178037-0.15625-0.25c3e-3 -0.143925 0.0927-0.5 1.0625-0.5z" style="block-progression:tb;text-indent:0;text-transform:none"/>
        <path d="m501 50v8.03125 1h1 2c0.93855 0 1.78249-0.382302 2.3125-0.96875s0.75988-1.33268 0.75-2.0625c-0.01-0.72982-0.28566-1.454073-0.8125-2.03125s-1.32895-0.96875-2.25-0.96875h-1v-3h-2zm2 5h1c0.42179 0 0.61965 0.135455 0.78125 0.3125s0.27751 0.44294 0.28125 0.71875c4e-3 0.27581-0.0984 0.519725-0.25 0.6875-0.15163 0.167775-0.35374 0.3125-0.8125 0.3125h-1v-2.03125z" style="block-progression:tb;text-indent:0;text-transform:none"/>
        <path d="m496 59.28125-0.34375 0.375-2 2a0.50005 0.50005 0 1 0 0.6875 0.6875l1.65625-1.65625 1.65625 1.65625 0.34375 0.375 0.34375-0.375 1.65625-1.65625 1.65625 1.65625 0.34375 0.375 0.34375-0.375 1.65625-1.65625 1.65625 1.65625 0.34375 0.375 0.34375-0.375 2-2a0.50005 0.50005 0 1 0-0.6875-0.6875l-1.65625 1.65625-1.65625-1.65625-0.34375-0.375-0.34375 0.375-1.65625 1.65625-1.65625-1.65625-0.34375-0.375-0.34375 0.375-1.65625 1.65625-1.65625-1.65625-0.34375-0.375z" style="block-progression:tb;text-indent:0;text-transform:none"/>
    </g>
</svg>
