<svg version="1.1" viewBox="0 0 16 16" xmlns="http://www.w3.org/2000/svg">
  <defs>
   <style id="current-color-scheme" type="text/css">
   .ColorScheme-Text { color:#5c616c; } .ColorScheme-Highlight { color:#5294e2; }
  </style>
 </defs>
    <g transform="translate(-393.00061,-88)">
        <path d="m398.50061 90c-1.4533 0.5019-1.25317 1.37659-2.5 2h-1c-1.108 0-2 0.892-2 2v6c0 1.108 0.892 2 2 2h12c1.108 0 2-0.892 2-2v-6c0-1.108-0.892-2-2-2h-1c-1.24683-0.62341-1.0467-1.4981-2.5-2h-5zm2.5 3.5c1.65685 0 3 1.34315 3 3s-1.34315 3-3 3-3-1.34315-3-3 1.34315-3 3-3z" class="ColorScheme-Text" fill="currentColor"/>
    </g>
</svg>
