<svg version="1.1" viewBox="0 0 16 16" xmlns="http://www.w3.org/2000/svg">
  <defs>
   <style id="current-color-scheme" type="text/css">
   .ColorScheme-Text { color:#5c616c; } .ColorScheme-Highlight { color:#5294e2; }
  </style>
 </defs>
    <g transform="translate(-293.0004,12)" class="ColorScheme-Text" fill="currentColor">
        <path d="m307.0004-4-2.25-2.223214 1.71429-1.714286c0.0129-0.01287 0.0147-0.01344 0.0268-0.02679 0.38059-0.420576 0.37876-1.067669-0.0268-1.473214-0.40535-0.405343-1.05263-0.433584-1.47322-0.05357l-0.21428 0.214288-1.55358 1.526786-2.22321-2.25v6z"/>
        <path d="m301.0004 2v-6h-6l2.25 2.25-1.71429 1.714286c-0.0129 0.01287-0.0147 0.01344-0.0268 0.02679-0.38058 0.420572-0.37875 1.067665 0.0268 1.47321 0.40535 0.405343 1.07941 0.433581 1.5 0.05357l0.1875-0.214285 1.55358-1.553571z"/>
    </g>
</svg>
