<svg version="1.1" viewBox="0 0 16 16" xmlns="http://www.w3.org/2000/svg">
  <defs>
   <style id="current-color-scheme" type="text/css">
   .ColorScheme-Text { color:#5c616c; } .ColorScheme-Highlight { color:#5294e2; }
  </style>
 </defs>
    <g transform="translate(-273.0004,12)">
        <path d="m281.0004-9.9999971 2.25 2.2232143-1.71428 1.7142857c-0.0129 0.012874-0.0147 0.01344-0.0268 0.026786-0.38059 0.420576-0.37876 1.0676691 0.0268 1.4732143 0.40534 0.4053428 1.05262 0.433584 1.47321 0.053571l0.21429-0.2142857 1.55357-1.5267857 2.22321 2.25v-6zm-6 6v6h6l-2.25-2.25 1.71429-1.7142857c0.0129-0.012874 0.0147-0.01344 0.0268-0.026786 0.38059-0.4205768 0.37876-1.0676699-0.0268-1.4732143-0.40534-0.4053433-1.07941-0.4335809-1.5-0.053572l-0.1875 0.2142858-1.55357 1.5535714z" class="ColorScheme-Text" fill="currentColor"/>
    </g>
</svg>
