<svg version="1.1" viewBox="0 0 16 16" xmlns="http://www.w3.org/2000/svg">
  <defs>
   <style id="current-color-scheme" type="text/css">
   .ColorScheme-Text { color:#5c616c; } .ColorScheme-Highlight { color:#5294e2; }
  </style>
 </defs>
    <g transform="translate(-373.00039,-188)">
        <path d="m381.00039 190-2.25 2.22322 1.71428 1.71428c0.0129 0.0129 0.0147 0.0134 0.0268 0.0268 0.38059 0.42057 0.37876 1.06767-0.0268 1.47321-0.40534 0.40535-1.05262 0.43359-1.47321 0.0536l-0.21429-0.21428-1.55357-1.52679-2.22321 2.25v-6zm6 6v6h-6l2.25-2.25-1.71429-1.71428c-0.0129-0.0129-0.0147-0.0134-0.0268-0.0268-0.38059-0.42058-0.37876-1.06767 0.0268-1.47321 0.40534-0.40535 1.07941-0.43358 1.5-0.0536l0.1875 0.21428 1.55357 1.55357z" class="ColorScheme-Text" fill="currentColor"/>
    </g>
</svg>
