<?xml version="1.0" encoding="UTF-8" standalone="no"?>
<!-- Created with Inkscape (http://www.inkscape.org/) -->

<svg
   xmlns:dc="http://purl.org/dc/elements/1.1/"
   xmlns:cc="http://creativecommons.org/ns#"
   xmlns:rdf="http://www.w3.org/1999/02/22-rdf-syntax-ns#"
   xmlns:svg="http://www.w3.org/2000/svg"
   xmlns="http://www.w3.org/2000/svg"
   xmlns:sodipodi="http://sodipodi.sourceforge.net/DTD/sodipodi-0.dtd"
   xmlns:inkscape="http://www.inkscape.org/namespaces/inkscape"
   width="1024"
   height="1024"
   viewBox="0 0 1024 1024"
   id="svg4764"
   version="1.1"
   inkscape:version="0.91 r13725"
   sodipodi:docname="Battery 080.svg">
  <defs
     id="defs4766" />
  <sodipodi:namedview
     id="base"
     pagecolor="#ffffff"
     bordercolor="#666666"
     borderopacity="1.0"
     inkscape:pageopacity="0.0"
     inkscape:pageshadow="2"
     inkscape:zoom="0.030935922"
     inkscape:cx="580.47627"
     inkscape:cy="660.0396"
     inkscape:document-units="px"
     inkscape:current-layer="layer1"
     showgrid="false"
     units="px"
     inkscape:window-width="1366"
     inkscape:window-height="701"
     inkscape:window-x="0"
     inkscape:window-y="0"
     inkscape:window-maximized="1" />
  <metadata
     id="metadata4769">
    <rdf:RDF>
      <cc:Work
         rdf:about="">
        <dc:format>image/svg+xml</dc:format>
        <dc:type
           rdf:resource="http://purl.org/dc/dcmitype/StillImage" />
        <dc:title></dc:title>
      </cc:Work>
    </rdf:RDF>
  </metadata>
  <g
     inkscape:label="Layer 1"
     inkscape:groupmode="layer"
     id="layer1"
     transform="translate(0,-28.362114)">
    <path
       style="fill:#bebebe;fill-opacity:1;stroke:none"
       d="m 269.57544,1047.0664 c -6.30029,-6.9617 -6.86115,-46.3898 -6.86115,-482.33718 0,-454.67056 0.32075,-475.045993 7.58149,-481.616893 6.5748,-5.9501 19.78656,-6.86117 99.49798,-6.86117 l 91.91647,0 0,-22.8016 0,-22.80163 68.40487,0 68.40486,0 0,22.80163 0,22.8016 96.78255,0 c 88.49632,0 97.37,0.64912 103.64372,7.58151 6.30034,6.96176 6.86117,46.389833 6.86117,482.337203 0,454.67053 -0.32087,475.04603 -7.58149,481.61683 -6.88311,6.2292 -31.26534,6.8612 -264.6854,6.8612 -243.813,0 -257.45858,-0.3919 -263.96507,-7.5815 z m 486.48298,-481.61686 0,-439.44938 -221.79758,0 -221.79757,0 0,439.44938 0,439.44936 221.79757,0 221.79758,0 0,-439.44936 z"
       id="path5376"
       inkscape:connector-curvature="0" />
    <path
       style="fill:#bebebe;fill-opacity:1"
       d="m 534.14294,992.3989 -214.55961,0 0,-427.67911 0,-427.6791 214.55961,0 214.55943,0 0,427.6791 0,427.67911 -214.55943,0 z M 456.3831,802.3193 c 2.376,-1.97199 4.31999,-5.32707 4.31999,-7.45579 l 0,-3.87036 9.35987,-10.61008 c 5.14804,-5.83544 12.77732,-14.116 16.95389,-18.40108 4.17674,-4.28509 8.38216,-10.27415 9.34535,-13.30886 0.96249,-3.03471 5.64588,-9.78184 10.40599,-14.99348 4.76011,-5.21163 8.65467,-10.6918 8.65467,-12.17805 0,-1.48608 2.03299,-4.97024 4.51768,-7.74212 2.48468,-2.77205 9.78616,-13.14003 16.22554,-23.04006 l 11.70769,-17.99985 2.66457,0 2.6644,0 -1.51027,-2.44391 -1.51027,-2.4439 5.6604,-6.07564 c 3.11316,-3.3416 5.6604,-6.64086 5.6604,-7.33154 0,-0.6912 3.77463,-5.29665 8.38804,-10.23527 4.6134,-4.93878 13.30661,-17.38779 19.3183,-27.66453 6.0117,-10.27691 11.95705,-18.68517 13.21192,-18.68517 1.25453,0 2.28165,-1.70035 2.28165,-3.77688 0,-2.0774 2.59199,-6.55913 5.75993,-9.95965 3.1681,-3.40036 5.7601,-6.87 5.7601,-7.70998 0,-0.8398 2.26799,-4.29718 5.03987,-7.68232 2.77206,-3.38515 7.63205,-8.908 10.79998,-12.27293 3.16811,-3.36492 7.63135,-9.74227 9.91835,-14.17199 2.28701,-4.42954 8.54408,-13.17752 13.90433,-19.43996 l 9.74624,-11.38611 5.53547,0 5.53563,0 0,-5.75993 0,-5.75993 4.31999,0 4.31999,0 0,-2.97336 0,-2.97337 -74.88185,0.81389 -74.88186,0.81389 0.0173,-2.87988 c 0.0114,-1.58458 1.99929,-6.67612 4.41866,-11.31579 2.41954,-4.63967 4.743,-10.47165 5.16308,-12.95997 0.4199,-2.48831 2.193,-7.11623 3.93931,-10.28417 1.74631,-3.16811 3.47828,-7.0561 3.84894,-8.63998 0.37152,-1.58457 2.09208,-6.12005 3.82544,-10.0801 1.73335,-3.95987 3.89248,-7.84786 4.79795,-8.63998 0.90547,-0.79142 4.05319,-7.91992 6.99459,-15.83985 2.94139,-7.9201 6.19849,-15.04808 7.23805,-15.84002 1.04026,-0.79143 6.66644,-11.31924 12.50413,-23.39379 5.83769,-12.07472 10.61387,-22.90321 10.61387,-24.06356 0,-1.15949 6.47999,-15.44431 14.40009,-31.74243 7.91992,-16.29812 14.39991,-30.37265 14.39991,-31.27656 0,-0.90374 3.92601,-7.83405 8.72431,-15.40025 l 8.72448,-13.75693 -4.56468,-3.33779 -4.56484,-3.3378 -61.0394,-0.34215 -61.03957,-0.34214 -10.0801,5.29631 -10.07992,5.29648 -0.94003,4.1211 c -0.51667,2.26661 -4.81938,12.54508 -9.56152,22.84117 -4.74231,10.29593 -9.80085,21.3119 -11.24131,24.47984 -1.44115,3.16811 -4.0328,9.64809 -5.76079,14.40008 -1.728,4.75199 -3.1453,9.28798 -3.14945,10.07992 -0.003,0.79143 -2.50508,5.48104 -5.55758,10.42 l -5.55033,8.97987 0,5.56398 0,5.56415 -3.45599,3.45599 c -1.90079,1.9008 -2.66059,3.45599 -1.68825,3.45599 0.97286,0 -0.85363,6.80399 -4.05578,15.11997 -3.20284,8.31599 -7.24687,19.97996 -8.98662,25.91995 l -3.16327,10.79998 -2.19455,0 -2.19456,0 1.65715,4.31999 1.65715,4.31999 -3.05769,0 -3.05769,0 -1.897,10.11171 c -1.04371,5.56156 -3.04594,10.82193 -4.45045,11.6899 l -2.55346,1.57766 0,6.6775 0,6.67732 -4.22789,3.50887 c -2.32537,1.92983 -4.05682,4.35662 -3.84756,5.39256 0.20909,1.0368 -0.58924,5.77185 -1.77275,10.52384 -1.18368,4.75199 -2.90476,10.58398 -3.82354,12.95997 -0.91929,2.376 -1.89457,4.96799 -2.16829,5.75993 -0.27302,0.79143 -1.49644,3.70811 -2.71675,6.47999 l -2.21944,5.04005 -4.01189,0 -4.01189,0 0,9.04243 0,9.04243 -5.03987,4.13112 c -2.77206,2.27215 -3.50956,3.3658 -1.63987,2.4306 l 3.40087,-1.70034 1.68825,2.73092 1.68825,2.73093 -7.96883,1.20441 c -4.38271,0.66182 30.56239,1.39795 77.65599,1.63641 l 85.62464,0.432 -1.84481,13.68003 -1.84481,13.67986 -6.30027,10.08009 -6.30028,10.07992 -1.9929,10.70736 -1.99289,10.70753 -3.76479,3.76478 -3.76479,3.76479 -2.10608,11.4478 -2.10591,11.44763 -8.11294,17.27997 c -4.46203,9.50398 -11.3106,25.70394 -15.21898,35.99986 -3.90839,10.2961 -8.66314,23.25607 -10.56636,28.8 -1.90304,5.54393 -5.5816,16.55991 -8.17463,24.48001 -2.59286,7.91992 -6.07442,15.35204 -7.73676,16.51584 l -3.02243,2.11593 2.23395,0.0346 2.23395,0.0346 -4.39395,8.49691 c -2.4166,4.67336 -4.39395,10.66415 -4.39395,13.31265 l 0,4.81576 4.32,-3.58542 z"
       id="path4197"
       inkscape:connector-curvature="0" />
  </g>
</svg>
