<?xml version="1.0" encoding="UTF-8" standalone="no"?>
<!-- Created with Inkscape (http://www.inkscape.org/) -->
<svg id="svg4479" xmlns:rdf="http://www.w3.org/1999/02/22-rdf-syntax-ns#" xmlns="http://www.w3.org/2000/svg" height="90" viewBox="0 0 90 90.000001" width="90" version="1.1" xmlns:cc="http://creativecommons.org/ns#" xmlns:dc="http://purl.org/dc/elements/1.1/">
 <metadata id="metadata4484">
  <rdf:RDF>
   <cc:Work rdf:about="">
    <dc:format>image/svg+xml</dc:format>
    <dc:type rdf:resource="http://purl.org/dc/dcmitype/StillImage"/>
    <dc:title/>
   </cc:Work>
  </rdf:RDF>
 </metadata>
 <g id="layer1" transform="translate(833.57 -695.93)">
  <rect id="rect4969" style="fill:none" height="90" width="90" y="695.93" x="-833.57"/>
  <path id="path4971" style="fill:#808080" d="m21 6c-10 0-15-0.0002-15 11.627v27.941c0-7.041 4.584-9.377 10.086-9.377 7.343 0 9.451 4.843 9.516 8.086v-14.904h3.976v9.803s1.686-2.93 7.111-2.93c5.794 0 9.225 4.092 9.225 9.18 0 0.632-0.052 1.241-0.148 1.826 0.925-2.648 4.171-3.957 9.525-3.957h4.83v-0.852c0-2.394-2.109-3.64-4.83-3.64-4.188 0-4.404 2.646-4.404 2.646h-4.119c0-0.724 0.53-5.258 8.806-5.258 2.829 0 5.924 0.596 7.49 2.936l-1.185-2.225h4.635l6.652 13.327 6.635-13.327h4.199v-19.275c0-11.627-5-11.627-15-11.627h-48zm63 30.902l-12.088 23.725h-4.404l3.488-6.613-7.424-13.934c0.334 0.804 0.526 1.763 0.526 2.908v8.565c0 0.99 0.142 2.539 0.142 2.539h-3.662s-0.098-1.25-0.098-2.518c0 0-1.858 3.188-7.626 3.188-4.233 0-7.366-2.039-7.366-5.785 0-0.216 0.014-0.424 0.035-0.627-1.092 3.858-4.388 6.363-8.841 6.363-5.222 0-7.143-3.004-7.143-3.004 0 1.138-0.139 2.383-0.139 2.383h-3.886s0.088-1.734 0.088-2.969v-4.635h-15.573c0 3.277 2.491 5.614 5.951 5.614 4.25 0 5.122-2.983 5.122-2.983h4.076s-0.539 5.541-8.949 5.541c-7.1458 0-10.229-3.513-10.229-9.092v26.805c0 11.627 5 11.627 15 11.627h48c10 0 15 0 15-11.627v-35.471zm-68.057 1.918c-2.893 0-5.824 1.832-5.824 5.043h11.365c0-3.024-2.246-5.043-5.541-5.043zm19.745 0.116c-4.18 0-6.11 3.311-6.11 6.525 0 3.449 2.15 6.562 6.135 6.562 3.339 0 6.082-2.609 6.082-6.597 0-3.719-2.373-6.49-6.107-6.49zm24.433 6.916c-6.255 0-10.514 0.019-10.514 3.125 0 1.706 1.265 3.179 4.213 3.179 5.385 0 6.301-3.685 6.301-5.168v-1.136z" transform="translate(-833.57 695.93)"/>
 </g>
</svg>
