<?xml version="1.0" encoding="UTF-8" standalone="no"?>
<!-- Created with Inkscape (http://www.inkscape.org/) -->
<svg id="svg4479" xmlns:rdf="http://www.w3.org/1999/02/22-rdf-syntax-ns#" xmlns="http://www.w3.org/2000/svg" height="90" viewBox="0 0 90 90.000001" width="90" version="1.1" xmlns:cc="http://creativecommons.org/ns#" xmlns:dc="http://purl.org/dc/elements/1.1/">
 <metadata id="metadata4484">
  <rdf:RDF>
   <cc:Work rdf:about="">
    <dc:format>image/svg+xml</dc:format>
    <dc:type rdf:resource="http://purl.org/dc/dcmitype/StillImage"/>
    <dc:title/>
   </cc:Work>
  </rdf:RDF>
 </metadata>
 <g id="layer1" transform="translate(833.57 -695.93)">
  <g id="g4496" transform="translate(-863.57 -110.43)">
   <rect id="rect4498" style="opacity:.21171;fill:none" height="90" width="90" y="806.36" x="30"/>
   <path id="path4500" d="m75 894.36 13-10.099-2.0588-4.208h-21.882l-2.0588 4.208z" style="fill:#808080"/>
   <path id="path4502" style="fill:#808080" d="m21 6c-10 0-15-0.0002-15 11.627v48.746c0 11.627 5 11.627 15 11.627h48c10 0 15 0 15-11.627v-48.746c0-11.627-5-11.627-15-11.627h-48zm24 12a4 4 0 0 1 4 4 4 4 0 0 1 -0.744 2.318c1.079 0.188 2.073 0.47 2.973 0.858 1.774 0.75 3.229 1.768 4.365 3.054 1.171 1.323 2.022 2.878 2.554 4.665 0.568 1.786 0.852 3.716 0.852 5.789v10.316c0 1.183 0.111 2.265 0.334 3.246 0.223 0.982 0.614 1.82 1.172 2.512 0.535 0.714 1.261 1.261 2.176 1.64 0.891 0.392 2.01 0.587 3.347 0.596v0.006h-7.029-28-7v-0.006c1.331-0.009 2.446-0.204 3.334-0.594 0.911-0.377 1.633-0.923 2.166-1.634 0.556-0.689 0.946-1.521 1.168-2.498 0.222-0.978 0.332-2.057 0.332-3.235v-10.349c0-2.073 0.267-4.003 0.799-5.789 0.568-1.787 1.419-3.342 2.555-4.665 1.135-1.286 2.59-2.304 4.365-3.054 0.921-0.39 1.932-0.672 3.025-0.86a4 4 0 0 1 -0.744 -2.316 4 4 0 0 1 4 -4zm-6 42h6 6a6 6 0 0 1 -12 0z" transform="translate(30 806.36)"/>
  </g>
 </g>
</svg>
