<?xml version="1.0" encoding="UTF-8" standalone="no"?>
<!-- Created with Inkscape (http://www.inkscape.org/) -->
<svg id="svg4479" xmlns:rdf="http://www.w3.org/1999/02/22-rdf-syntax-ns#" xmlns="http://www.w3.org/2000/svg" height="90" viewBox="0 0 90 90.000001" width="90" version="1.1" xmlns:cc="http://creativecommons.org/ns#" xmlns:dc="http://purl.org/dc/elements/1.1/">
 <metadata id="metadata4484">
  <rdf:RDF>
   <cc:Work rdf:about="">
    <dc:format>image/svg+xml</dc:format>
    <dc:type rdf:resource="http://purl.org/dc/dcmitype/StillImage"/>
    <dc:title/>
   </cc:Work>
  </rdf:RDF>
 </metadata>
 <g id="layer1" transform="translate(833.57 -695.93)">
  <g id="g4519" transform="translate(-893.57 753.57)">
   <rect id="rect4521" style="opacity:.1;color:#000000;fill:none" height="90" width="90" y="-57.638" x="60"/>
   <path id="path4525" d="m105-40.638c2.1379 0.00019 4.2044 0.90295 5.7158 2.494 1.5116 1.5913 2.3691 3.766 2.3691 6.0164v0.0069c-0.003 0.86655-0.0813 1.8645-0.48969 2.8756-0.99115 2.4543-2.4409 4.3786-3.8128 5.9117h19.971v5.5065h-4.4122c-1.9946 0-3.6504 0.29054-4.9695 0.86962-1.319 0.54692-2.3652 1.3345-3.1374 2.364-0.80428 0.99733-1.3668 2.2031-1.6886 3.6186-0.32171 1.4156-0.48294 2.9773-0.48294 4.6824v21.654h-5.8898v-13.826h0.005c0-0.51041-0.063-0.97856-0.18912-1.4049-0.13211-0.42633-0.32774-0.79301-0.58593-1.0993-0.26421-0.30624-0.59489-0.54277-0.9912-0.7109-0.40231-0.16816-0.87292-0.25159-1.4133-0.25159-0.54042 0-1.0086 0.083516-1.4049 0.25159-0.40232 0.16813-0.73299 0.40465-0.99119 0.7109-0.26421 0.30625-0.45984 0.67292-0.58594 1.0993-0.13211 0.42634-0.19756 0.89449-0.19756 1.4049v13.826h-5.883v-21.654c-0.10605-1.7018-0.16123-3.2669-0.48294-4.6824-0.32174-1.4156-0.88429-2.6213-1.6886-3.6186-0.77213-1.0295-1.8184-1.8171-3.1374-2.364-1.3191-0.57908-2.9748-0.86962-4.9695-0.86962h-4.4139v-5.5065h19.973c-1.3717-1.5332-2.8202-3.4579-3.8111-5.9117-0.40837-1.0112-0.48623-2.0093-0.48969-2.8756v-0.0069c0-2.2501 0.85557-4.4249 2.3674-6.0164 1.5116-1.5913 3.5796-2.4938 5.7175-2.494z" style="fill:#808080"/>
   <path id="path4098" style="fill:#808080" d="m81-51.638c-10 0-15-0.0002-15 11.627v54.746c0 11.627 5 11.627 15 11.627h48c10 0 15 0.000207 15-11.627v-54.746c0-11.627-5-11.627-15-11.627h-48zm1.8672 6h44.266c7.9327 0 10.867-0.00064 10.867 8.1914v49.617c0 8.192-2.9345 8.1914-10.867 8.1914h-44.266c-7.9327 0-10.867 0.000644-10.867-8.1914v-49.617c0-8.192 2.9345-8.1914 10.867-8.1914z"/>
  </g>
 </g>
</svg>
