<?xml version="1.0" encoding="UTF-8" standalone="no"?>
<!-- Created with Inkscape (http://www.inkscape.org/) -->
<svg id="svg4479" xmlns:rdf="http://www.w3.org/1999/02/22-rdf-syntax-ns#" xmlns="http://www.w3.org/2000/svg" height="90" viewBox="0 0 90 90.000001" width="90" version="1.1" xmlns:cc="http://creativecommons.org/ns#" xmlns:dc="http://purl.org/dc/elements/1.1/">
 <metadata id="metadata4484">
  <rdf:RDF>
   <cc:Work rdf:about="">
    <dc:format>image/svg+xml</dc:format>
    <dc:type rdf:resource="http://purl.org/dc/dcmitype/StillImage"/>
    <dc:title/>
   </cc:Work>
  </rdf:RDF>
 </metadata>
 <g id="layer1" transform="translate(833.57 -695.93)">
  <rect id="rect4638" style="fill:none" height="90" width="90" y="695.93" x="-833.57"/>
  <path id="path4640" d="m-815.57 704.93c-10 0-15-0.0002-15 11.627v48.746c0 11.627 5 11.627 15 11.627h54c10 0 15 0.0003 15-11.627v-48.746c0-11.627-5-11.627-15-11.627zm1.8672 6h50.266c7.9327 0 10.867-0.0006 10.867 8.1914v43.617c0 8.1921-2.9345 8.1914-10.867 8.1914h-50.266c-7.9327 0-10.867 0.0007-10.867-8.1914v-43.617c0-8.192 2.9345-8.1914 10.867-8.1914z" style="fill:#808080"/>
  <rect id="rect4642" style="color:#000000;fill:#808080" height="9" width="42" y="716.93" x="-809.57"/>
  <rect id="rect4644" style="color:#000000;fill:#808080" height="4" width="60" y="729.93" x="-818.57"/>
  <rect id="rect4646" style="color:#000000;fill:#808080" height="27" width="27" y="737.93" x="-818.57"/>
  <rect id="rect4648" style="color:#000000;fill:#808080" height="3" width="27" y="737.93" x="-785.57"/>
  <rect id="rect4650" style="color:#000000;fill:#808080" height="3" width="27" y="743.93" x="-785.57"/>
  <rect id="rect4652" style="color:#000000;fill:#808080" height="3" width="27" y="749.93" x="-785.57"/>
  <rect id="rect4654" style="color:#000000;fill:#808080" height="3" width="27" y="755.93" x="-785.57"/>
  <rect id="rect4656" style="color:#000000;fill:#808080" height="3" width="18" y="761.93" x="-785.57"/>
 </g>
</svg>
