<?xml version="1.0" encoding="UTF-8" standalone="no"?>
<!-- Created with Inkscape (http://www.inkscape.org/) -->
<svg id="svg4479" xmlns:rdf="http://www.w3.org/1999/02/22-rdf-syntax-ns#" xmlns="http://www.w3.org/2000/svg" height="90" viewBox="0 0 90 90.000001" width="90" version="1.1" xmlns:cc="http://creativecommons.org/ns#" xmlns:dc="http://purl.org/dc/elements/1.1/">
 <metadata id="metadata4484">
  <rdf:RDF>
   <cc:Work rdf:about="">
    <dc:format>image/svg+xml</dc:format>
    <dc:type rdf:resource="http://purl.org/dc/dcmitype/StillImage"/>
    <dc:title/>
   </cc:Work>
  </rdf:RDF>
 </metadata>
 <g id="layer1" transform="translate(833.57 -695.93)">
  <rect id="rect4811" style="fill:none" height="90" width="90" y="695.93" x="-833.57"/>
  <path id="path3818" style="fill:#808080" d="m-806.38 701.93c-11.712 0-21.227 9.5075-21.227 21.209 0 3.6142 0.88967 7.0043 2.4882 9.9831-0.53367 2.51-0.77756 5.1396-0.77756 7.8078 0 20.594 16.711 37.291 37.323 37.291 2.6705 0 5.3023-0.2436 7.8145-0.7769 2.9915 1.6115 6.357 2.4861 9.9917 2.4861 11.712 0 21.227-9.5077 21.227-21.209 0-3.6316-0.8753-6.994-2.4882-9.9831 0.5337-2.5099 0.7776-5.1395 0.7776-7.8076 0-20.595-16.711-37.291-37.323-37.291-2.6712 0-5.3017 0.3211-7.8145 0.8543-2.9816-1.5973-6.3739-2.5635-9.9917-2.5635zm17.068 14.334c12.211 0 18.506 6.4451 18.506 10.216 0 3.771-1.8237 4.3894-4.8209 4.3894-5.8177 0-3.4282-6.9921-14.346-6.9921-3.6161 0-8.0866 1.6176-8.0866 5.8269 0 3.3772 3.9438 4.6193 11.002 6.3316 10.612 2.841 18.623 5.7159 18.623 15.421 0 9.4274-7.7727 14.139-19.983 14.139-12.211 0-19.983-7.2998-19.983-11.071 0-3.7708 1.4738-4.7388 4.471-4.7388 5.8176 0 4.9833 7.9242 15.901 7.9242 3.6161 0 8.942-1.6176 8.942-5.8267 0-3.3772-0.23185-4.5708-7.97-6.6425-8.2671-1.1263-21.655-3.8063-21.655-14.062 0-9.4275 7.1895-14.916 19.4-14.916z"/>
 </g>
</svg>
