<?xml version="1.0" encoding="UTF-8" standalone="no"?>
<!-- Created with Inkscape (http://www.inkscape.org/) -->
<svg id="svg4479" xmlns:rdf="http://www.w3.org/1999/02/22-rdf-syntax-ns#" xmlns="http://www.w3.org/2000/svg" height="90" viewBox="0 0 90 90.000001" width="90" version="1.1" xmlns:cc="http://creativecommons.org/ns#" xmlns:dc="http://purl.org/dc/elements/1.1/">
 <metadata id="metadata4484">
  <rdf:RDF>
   <cc:Work rdf:about="">
    <dc:format>image/svg+xml</dc:format>
    <dc:type rdf:resource="http://purl.org/dc/dcmitype/StillImage"/>
    <dc:title/>
   </cc:Work>
  </rdf:RDF>
 </metadata>
 <g id="layer1" transform="translate(833.57 -695.93)">
  <rect id="rect4431" style="fill:none" height="90" width="90" y="695.93" x="-833.57"/>
  <path id="path4453" style="color:#000000;fill:#808080" d="m-793.24 701.93a34.329 34.472 0 0 0 -34.328 34.473 34.329 34.472 0 0 0 18.82 30.713c-0.014-0.30752-0.045-0.6115-0.045-0.92188 0-3.1232 0.7448-6.0915 2.0469-8.7383a25.195 25.195 0 0 1 -11.728 -21.236 25.195 25.195 0 0 1 25.195 -25.195 25.195 25.195 0 0 1 25.195 25.195 25.195 25.195 0 0 1 -0.012 0.2207c3.2719 0.88036 6.2468 2.471 8.8085 4.5742a34.329 34.472 0 0 0 0.375 -4.6113 34.329 34.472 0 0 0 -34.328 -34.473z"/>
  <path id="path4446" style="color:#000000;fill:#808080" d="m-774.13 741.59c-7.3025 0-13.505 4.5268-16.453 10.952-6.858 0.50163-12.266 6.4508-12.266 13.652 0 7.5239 5.8848 13.737 13.181 13.737h15.539 14.484c5.5795 0 10.072-4.7527 10.072-10.476 0-4.3426-2.6043-8.0105-6.2996-9.5868-0.4562-10.108-8.394-18.278-18.256-18.278z"/>
 </g>
</svg>
