<?xml version="1.0" encoding="UTF-8" standalone="no"?>
<!-- Created with Inkscape (http://www.inkscape.org/) -->
<svg id="svg4479" xmlns:rdf="http://www.w3.org/1999/02/22-rdf-syntax-ns#" xmlns="http://www.w3.org/2000/svg" height="90" viewBox="0 0 90 90.000001" width="90" version="1.1" xmlns:cc="http://creativecommons.org/ns#" xmlns:dc="http://purl.org/dc/elements/1.1/">
 <metadata id="metadata4484">
  <rdf:RDF>
   <cc:Work rdf:about="">
    <dc:format>image/svg+xml</dc:format>
    <dc:type rdf:resource="http://purl.org/dc/dcmitype/StillImage"/>
    <dc:title/>
   </cc:Work>
  </rdf:RDF>
 </metadata>
 <g id="layer1" transform="translate(833.57 -695.93)">
  <rect id="rect4817" style="fill:none" height="90" width="90" y="695.93" x="-833.57"/>
  <path id="path3898" style="fill:#808080" d="m-762.94 713.1-0.231 0.1623v1.5906c0 0.1884 0.083 0.3434 0.2494 0.4616 0.1694 0.1277 0.345 0.1932 0.5303 0.1932l1.5095 0.075c1.8649 0.077 2.3782 0.4502 3.1 1.0729 0.7186 0.642 0.8022 1.7353 0.2434 3.2747l-16.099 38.199-0.6174-0.1682-10.217-20.908c0.011-0.019 0.237-0.4927 0.237-0.4927l8.3584-15.638c0.974-1.6542 1.9131-3.1278 2.389-3.8113 0.8718-1.255 1.3602-1.4911 3.7425-1.6031 0.4855 0 0.7299-0.2173 0.7299-0.6549v-1.5843l-0.1809-0.1622s-10.229-0.032-14.783 0l-0.2243 0.1622v1.5843c0 0.1949 0.083 0.3436 0.2493 0.4616 0.1693 0.1247 0.3387 0.1932 0.524 0.1932l0.7297 0.075c1.862 0.074 2.7199 0.5699 2.9754 0.8734 0.4439 0.5429 0.6646 1.1269-0.4117 3.4743l-6.431 12.831-5.8135-11.895c-1.9097-3.8035-2.3815-4.9785 0.4928-5.202l1.1351-0.1623c0.5526 0 0.8234-0.1999 0.8234-0.5801v-1.6591l-0.4117-0.1375s-10.824-0.0001-15.688 0.011l-0.231 0.1623v1.6716c0 0.3737 0.3942 0.4686 1.1479 0.5677 2.6921 0.3577 2.6323 0.6372 5.2958 5.9133 0.3992 0.7919 1.5717 3.1749 1.5717 3.1749l6.0631 11.914s1.3076 2.8856 1.765 3.8985l-8.8196 17.59-0.4991-0.1309s-13.68-28.841-17.64-38.492c-0.4121-0.9964-0.599-1.7391-0.599-2.1958 0-0.9805 0.8879-1.5107 2.6572-1.5843l2.0648-0.087c0.5462 0 0.8233-0.2113 0.8233-0.6487v-1.5844l-0.187-0.1624s-16.382-0.018-19.767 0l-0.1871 0.1624v1.6654c0 0.3001 0.378 0.4846 1.1413 0.5677 2.0792 0.112 3.4464 0.4455 4.1044 0.9979 0.6548 0.5589 1.3506 1.9725 2.2706 4.173 4.9725 11.944 15.533 33.258 20.678 45.397 1.4819 3.3149 3.3466 3.8253 5.6075-0.1062 2.5329-4.6959 6.9825-13.824 10.436-20.965 3.2339 7.1291 7.3828 16.22 9.6684 20.927 1.6767 3.4587 3.5816 3.798 5.5203 0.1062 5.0651-11.264 19.867-45.148 19.867-45.148 0.642-1.667 1.5358-2.9441 2.6822-3.8736 1.1434-0.9228 2.907-1.4352 5.2896-1.5406 0.4854 0 0.7359-0.2175 0.7359-0.6487v-1.5905l-0.1871-0.1623h-18.183z"/>
 </g>
</svg>
