<?xml version="1.0" encoding="UTF-8" standalone="no"?>
<!-- Created with Inkscape (http://www.inkscape.org/) -->

<svg
   xmlns:dc="http://purl.org/dc/elements/1.1/"
   xmlns:cc="http://creativecommons.org/ns#"
   xmlns:rdf="http://www.w3.org/1999/02/22-rdf-syntax-ns#"
   xmlns:svg="http://www.w3.org/2000/svg"
   xmlns="http://www.w3.org/2000/svg"
   xmlns:xlink="http://www.w3.org/1999/xlink"
   xmlns:sodipodi="http://sodipodi.sourceforge.net/DTD/sodipodi-0.dtd"
   xmlns:inkscape="http://www.inkscape.org/namespaces/inkscape"
   width="512"
   height="512"
   viewBox="0 0 135.46667 135.46667"
   version="1.1"
   id="svg8"
   inkscape:version="0.92.3 (2405546, 2018-03-11)"
   sodipodi:docname="mintupdate-checking.svg">
  <defs
     id="defs2">
    <linearGradient
       inkscape:collect="always"
       id="linearGradient821">
      <stop
         style="stop-color:#d1d1d1;stop-opacity:1"
         offset="0"
         id="stop817" />
      <stop
         style="stop-color:#eaeaea;stop-opacity:1"
         offset="1"
         id="stop819" />
    </linearGradient>
    <linearGradient
       inkscape:collect="always"
       xlink:href="#linearGradient821"
       id="linearGradient823"
       x1="0"
       y1="296.20157"
       x2="-1.4241537e-05"
       y2="26.332802"
       gradientUnits="userSpaceOnUse" />
    <linearGradient
       gradientTransform="matrix(4,0,0,4,0,131.17878)"
       gradientUnits="userSpaceOnUse"
       xlink:href="#linearGradient3904"
       id="linearGradient3760"
       y2="18"
       x2="10"
       y1="4"
       x1="10" />
    <clipPath
       id="clipPath3720">
      <path
         style="color:#000000;display:inline;overflow:visible;visibility:visible;opacity:0.3;fill:#ff0000;fill-opacity:1;fill-rule:nonzero;stroke:none;stroke-width:4;marker:none;enable-background:accumulate"
         id="path3722"
         inkscape:connector-curvature="0"
         d="m -100,-74 v 96 h 96 v -96 z m 48.25,20.375 c 5.310324,0 10.282712,1.532132 14.5,4.125 l -4.75,7.875 c -2.817244,-1.742827 -6.188048,-2.749999 -9.75,-2.75 -9.630238,0 -17.522742,7.344919 -18.375,16.75 h 9.875 L -74.125,-6.875 -88,-27.625 h 8.625 c 0.894193,-14.496311 12.90481,-26.000003 27.625,-26 z m 21.875,8 13.875,20.75 h -8.625 c -0.894192,14.496312 -12.904808,26.000004 -27.625,26 -5.310324,0 -10.282712,-1.532132 -14.5,-4.125 l 4.75,-7.875 c 2.817244,1.742828 6.188048,2.75 9.75,2.75 9.63024,0 17.52274,-7.34492 18.375,-16.75 h -9.875 z" />
    </clipPath>
    <filter
       id="filter3724"
       style="color-interpolation-filters:sRGB">
      <feGaussianBlur
         stdDeviation="0.950625"
         id="feGaussianBlur3726" />
    </filter>
    <linearGradient
       gradientUnits="userSpaceOnUse"
       id="linearGradient3904"
       y2="18.083122"
       x2="11"
       y1="3.9374998"
       x1="11">
      <stop
         offset="0"
         style="stop-color:#323232;stop-opacity:1"
         id="stop3906" />
      <stop
         offset="1"
         style="stop-color:#787878;stop-opacity:1"
         id="stop3908" />
    </linearGradient>
    <clipPath
       id="clipPath3266">
      <path
         style="color:#000000;display:inline;overflow:visible;visibility:visible;opacity:0.3;fill:#ff0000;fill-opacity:1;fill-rule:nonzero;stroke:none;stroke-width:4;marker:none;enable-background:accumulate"
         id="path3268"
         inkscape:connector-curvature="0"
         d="M 0,0 V 96 H 96 V 0 Z m 12,6 h 72 c 3.324,0 6,2.676 6,6 v 72 c 0,3.324 -2.676,6 -6,6 H 12 C 8.676,90 6,87.324 6,84 V 12 C 6,8.676 8.676,6 12,6 Z" />
    </clipPath>
    <linearGradient
       gradientTransform="matrix(1.0238095,0,0,1.0119048,-1.1428571,-98.071429)"
       gradientUnits="userSpaceOnUse"
       xlink:href="#ButtonShadow-0"
       id="linearGradient3101"
       y2="90.238609"
       x2="32.251034"
       y1="6.1317081"
       x1="32.251034" />
    <linearGradient
       gradientTransform="matrix(1.0058652,0,0,0.994169,100,0)"
       gradientUnits="userSpaceOnUse"
       id="ButtonShadow-0"
       y2="7.0165396"
       x2="45.447727"
       y1="92.539597"
       x1="45.447727">
      <stop
         offset="0"
         style="stop-color:#000000;stop-opacity:1"
         id="stop3750-8" />
      <stop
         offset="1"
         style="stop-color:#000000;stop-opacity:0.58823532"
         id="stop3752-5" />
    </linearGradient>
    <linearGradient
       gradientUnits="userSpaceOnUse"
       xlink:href="#ButtonColor-6"
       id="linearGradient3052"
       y2="5.9877172"
       x2="48"
       y1="90"
       x1="48" />
    <linearGradient
       gradientUnits="userSpaceOnUse"
       id="ButtonColor-6"
       y2="0.99929649"
       x2="10.31979"
       y1="21"
       x1="10.31979">
      <stop
         offset="0"
         style="stop-color:#c8c8c8;stop-opacity:1"
         id="stop3189-4" />
      <stop
         offset="1"
         style="stop-color:#e6e6e6;stop-opacity:1"
         id="stop3191-0" />
    </linearGradient>
    <linearGradient
       gradientUnits="userSpaceOnUse"
       xlink:href="#linearGradient3737"
       id="linearGradient3188"
       y2="63.893143"
       x2="36.357143"
       y1="6"
       x1="36.357143" />
    <linearGradient
       id="linearGradient3737">
      <stop
         offset="0"
         style="stop-color:#ffffff;stop-opacity:1"
         id="stop3739" />
      <stop
         offset="1"
         style="stop-color:#ffffff;stop-opacity:0"
         id="stop3741" />
    </linearGradient>
    <radialGradient
       gradientTransform="matrix(1.1573129,0,0,0.99590774,-7.551021,0.1971319)"
       gradientUnits="userSpaceOnUse"
       xlink:href="#linearGradient3737"
       id="radialGradient3619"
       fy="90.171875"
       fx="48"
       r="42"
       cy="90.171875"
       cx="48" />
    <linearGradient
       gradientTransform="translate(0,-97)"
       gradientUnits="userSpaceOnUse"
       xlink:href="#ButtonShadow-0"
       id="linearGradient4256"
       y2="90.238609"
       x2="32.251034"
       y1="6.1317081"
       x1="32.251034" />
    <linearGradient
       gradientTransform="scale(0.9219544,1.0846523)"
       gradientUnits="userSpaceOnUse"
       id="linearGradient5520"
       y2="19.387045"
       x2="11.998966"
       y1="0.92195445"
       x1="11.998966">
      <stop
         offset="0"
         style="stop-color:#323232;stop-opacity:1"
         id="stop5522" />
      <stop
         offset="1"
         style="stop-color:#787878;stop-opacity:1"
         id="stop5524" />
    </linearGradient>
    <linearGradient
       gradientTransform="matrix(3.6988916,0,0,4.3488388,2.3986449,-55.30429)"
       gradientUnits="userSpaceOnUse"
       xlink:href="#linearGradient5520"
       id="linearGradient2956"
       y2="21.617134"
       x2="26.018665"
       y1="6.9005618"
       x1="26.018665" />
    <clipPath
       id="clipPath3266-6">
      <path
         style="color:#000000;display:inline;overflow:visible;visibility:visible;opacity:0.3;fill:#ff0000;fill-opacity:1;fill-rule:nonzero;stroke:none;stroke-width:4;marker:none;enable-background:accumulate"
         id="path3268-7"
         inkscape:connector-curvature="0"
         d="M 0,0 V 96 H 96 V 0 Z m 12,6 h 72 c 3.324,0 6,2.676 6,6 v 72 c 0,3.324 -2.676,6 -6,6 H 12 C 8.676,90 6,87.324 6,84 V 12 C 6,8.676 8.676,6 12,6 Z" />
    </clipPath>
    <radialGradient
       gradientTransform="matrix(1.1573129,0,0,0.99590774,-7.551021,0.1971319)"
       gradientUnits="userSpaceOnUse"
       xlink:href="#linearGradient3737"
       id="radialGradient3619-1"
       fy="90.171875"
       fx="48"
       r="42"
       cy="90.171875"
       cx="48" />
    <filter
       id="filter3983"
       style="color-interpolation-filters:sRGB">
      <feGaussianBlur
         stdDeviation="0.8690625"
         id="feGaussianBlur3985" />
    </filter>
  </defs>
  <sodipodi:namedview
     id="base"
     pagecolor="#ffffff"
     bordercolor="#666666"
     borderopacity="1.0"
     inkscape:pageopacity="0.0"
     inkscape:pageshadow="2"
     inkscape:zoom="0.49707031"
     inkscape:cx="87.999642"
     inkscape:cy="265.50637"
     inkscape:document-units="mm"
     inkscape:current-layer="g951"
     showgrid="false"
     units="px"
     inkscape:window-width="1366"
     inkscape:window-height="699"
     inkscape:window-x="0"
     inkscape:window-y="0"
     inkscape:window-maximized="1"
     showguides="false" />
  <metadata
     id="metadata5">
    <rdf:RDF>
      <cc:Work
         rdf:about="">
        <dc:format>image/svg+xml</dc:format>
        <dc:type
           rdf:resource="http://purl.org/dc/dcmitype/StillImage" />
        <dc:title />
      </cc:Work>
    </rdf:RDF>
  </metadata>
  <g
     inkscape:label="Layer 1"
     inkscape:groupmode="layer"
     id="layer1"
     transform="translate(0,-161.53332)">
    <g
       style="display:inline"
       id="g951"
       transform="matrix(0.26458333,0,0,0.26458333,-68.407502,82.598073)">
      <g
         id="g58"
         transform="matrix(0.40039065,0,0,0.40039065,206.02783,434.88622)">
        <circle
           r="135.46666"
           cy="161.53333"
           cx="135.46666"
           id="path815"
           style="opacity:1;fill:url(#linearGradient823);fill-opacity:1;stroke:none;stroke-width:4.77717733;stroke-linecap:round;stroke-linejoin:miter;stroke-miterlimit:4;stroke-dasharray:none;stroke-opacity:1"
           transform="matrix(3.7795276,0,0,3.7795276,258.54804,-312.1817)" />
        <g
           style="fill:#b4b4b4;fill-opacity:1"
           transform="matrix(11.17836,0,0,11.17836,233.94613,-1657.1993)"
           id="layer1-3">
          <path
             d="m 48.25,147.55378 c -14.72019,0 -26.730807,11.50369 -27.625,26 H 12 l 13.875,20.75 13.875,-20.75 h -9.875 c 0.852258,-9.40508 8.744762,-16.75 18.375,-16.75 3.561952,1e-5 6.932756,1.00718 9.75,2.75 l 4.75,-7.875 c -4.217288,-2.59286 -9.189676,-4.125 -14.5,-4.125 z m 21.875,8 -13.875,20.75 h 9.875 c -0.85226,9.40508 -8.74476,16.75 -18.375,16.75 -3.561952,0 -6.932756,-1.00717 -9.75,-2.75 l -4.75,7.875 c 4.217288,2.59287 9.189676,4.125 14.5,4.125 14.720192,1e-5 26.730808,-11.50368 27.625,-26 H 84 Z"
             inkscape:connector-curvature="0"
             id="Symbol"
             style="display:inline;fill:#b4b4b4;fill-opacity:1;stroke:none" />
        </g>
        <g
           transform="matrix(12.622943,0,0,12.622943,-1149.25,-712.32612)"
           id="g1069"
           style="display:inline">
          <g
             transform="translate(53.240364,73.68607)"
             id="layer1-2"
             style="display:inline">
            <path
               d="m 88.219567,-20.891925 v 5.251465 H 109.2254 v -5.251465 z m 0,8.752442 v 8.7524363 H 109.2254 v -8.7524363 z m 0,12.25341318 V 12.257946 H 75.966148 L 98.722498,35.0143 121.47882,12.257946 H 109.2254 V 0.11393018 Z"
               inkscape:connector-curvature="0"
               id="Symbol-7"
               style="display:inline;fill:#323232;fill-opacity:1;stroke:none;stroke-width:0.8752442" />
          </g>
        </g>
      </g>
    </g>
  </g>
</svg>
