<svg version="1.1" viewBox="0 0 16 16" xmlns="http://www.w3.org/2000/svg">
  <defs>
   <style id="current-color-scheme" type="text/css">
   .ColorScheme-Text { color:#5c616c; } .ColorScheme-Highlight { color:#5294e2; }
  </style>
 </defs>
    <path d="m2 3c-0.5543 0-1 0.4396-1 0.9863v8.0277c0 0.546 0.4457 0.986 1 0.986h1.9258l-0.3242 2.264 2.6543-2.264h7.7441c0.554 0 1-0.44 1-0.986v-8.0277c0-0.5467-0.446-0.9863-1-0.9863h-12zm5.5 1h1c0.277 0 0.5 0.223 0.5 0.5v4c0 0.277-0.223 0.5-0.5 0.5h-1c-0.277 0-0.5-0.223-0.5-0.5v-4c0-0.277 0.223-0.5 0.5-0.5zm0 6h1c0.277 0 0.5 0.223 0.5 0.5v1c0 0.277-0.223 0.5-0.5 0.5h-1c-0.277 0-0.5-0.223-0.5-0.5v-1c0-0.277 0.223-0.5 0.5-0.5z" class="ColorScheme-Text" fill="currentColor"/>
</svg>
