<svg version="1.1" viewBox="0 0 16 16" xmlns="http://www.w3.org/2000/svg">
  <defs>
   <style id="current-color-scheme" type="text/css">
   .ColorScheme-Text { color:#5c616c; } .ColorScheme-Highlight { color:#5294e2; }
  </style>
 </defs>
    <g transform="translate(-501,-462)" class="ColorScheme-Text" fill="currentColor">
        <path d="m505.91 462.09a1.0001 1.0001 0 0 0-0.375 1.875l0.46875 0.25v2.75c-0.12616 0.19922-0.25575 0.37424-0.4375 0.6875-0.27262 0.46989-0.60717 1.0405-0.96875 1.6875-0.72316 1.294-1.5404 2.8161-2.1875 4-0.57062 1.044-0.56219 2.4414 0.28125 3.5 0.01 0.0131 0.0215 0.0184 0.0312 0.0312 0.67388 0.8899 1.7165 1.125 2.5938 1.125h7.375c0.87723 0 1.9199-0.2351 2.5938-1.125 9e-3 -0.0115 0.0221-0.0197 0.0312-0.0312 0.83629-1.0496 0.83721-2.4276 0.28125-3.4688-4e-3 -9e-3 4e-3 -0.0224 0-0.0312-1.1677-2.3779-2.4718-4.2179-3.5625-6.4062v-2.6875l0.5-0.28125a1.0001 1.0001 0 0 0-0.5-1.875h-6.0312a1.0001 1.0001 0 0 0-0.0937 0zm2.0938 2h2.0312v3.125a1.0001 1.0001 0 0 0 0.0937 0.4375c1.2016 2.4572 2.5757 4.3202 3.6875 6.5938a1.0001 1.0001 0 0 0 0.0312 0.0625c0.23971 0.43859 0.25996 0.88106-0.0937 1.3125a1.0001 1.0001 0 0 0-0.0625 0.0312c-0.14445 0.19822-0.45965 0.34375-1 0.34375h-7.375c-0.54035 0-0.85555-0.14553-1-0.34375a1.0001 1.0001 0 0 0-0.07-0.03c-0.35372-0.43145-0.33346-0.87393-0.0937-1.3125 0.64576-1.1815 1.4703-2.7167 2.1875-4 0.35859-0.64163 0.70549-1.2025 0.96875-1.6562 0.26326-0.45377 0.47348-0.83862 0.5-0.875a1.0001 1.0001 0 0 0 0.19-0.56v-3.125z" style="block-progression:tb;text-indent:0;text-transform:none"/>
        <path d="m507.22 471-2.2188 3.999h8l-2.2188-3.999h-3.5625z" opacity=".25"/>
    </g>
</svg>
