<svg version="1.1" viewBox="0 0 16 16" xmlns="http://www.w3.org/2000/svg">
  <defs>
   <style id="current-color-scheme" type="text/css">
   .ColorScheme-Text { color:#5c616c; } .ColorScheme-Highlight { color:#5294e2; }
  </style>
 </defs>
    <g transform="translate(-601,-461)" class="ColorScheme-Text" fill="currentColor">
        <path d="m602.97 461s-0.96875 1-0.96875 2v12c0 1.0096-1 2-1 2h1s0.42287-0.42699 0.71875-1h1c-0.29588 0.57301-0.71875 1-0.71875 1h1s1-1.0214 1-2v-2h1v-1h-1v-5h8v1h3v-5c0-1 0.96875-2 0.96875-2h-3s-0.96875 1-0.96875 2v3h-8v-3c0-1 0.96875-2 0.96875-2zm0.3125 1h1c-0.15291 0.30578-0.28125 0.65211-0.28125 1h-1c0-0.34789 0.12834-0.69422 0.28125-1zm11 0h1c-0.15291 0.30578-0.28125 0.65211-0.28125 1h-1c0-0.34789 0.12834-0.69422 0.28125-1zm-11.281 2h1v1h-1zm11 0h1v1h-1zm-11 2h1v1h-1zm11 0h1v1h-1zm-11 2h1v1h-1zm0 2h1v1h-1zm0 2h1v1h-1zm0 2h1v1h-1z" enable-background="new"/>
        <rect x="610" y="469" width="6" height="1" enable-background="new"/>
        <path d="m610 469v3.725c-0.33464-0.11442-0.58208-0.18904-0.96274-0.18904-1.0847 0-1.964 0.87933-1.964 1.964s0.87933 1.964 1.964 1.964 1.964-0.87933 1.964-1.964c0-0.0269 1e-3 -0.0552 0-0.0818v-5.41z" enable-background="new"/>
        <path d="m615 469v3.725c-0.33464-0.11442-0.58208-0.18904-0.96274-0.18904-1.0847 0-1.964 0.87933-1.964 1.964s0.87933 1.964 1.964 1.964 1.964-0.87933 1.964-1.964c0-0.0269 1e-3 -0.0552 0-0.0818v-5.41z" enable-background="new"/>
    </g>
</svg>
