<svg version="1.1" viewBox="0 0 16 16" xmlns="http://www.w3.org/2000/svg">
  <defs>
   <style id="current-color-scheme" type="text/css">
   .ColorScheme-Text { color:#5c616c; } .ColorScheme-Highlight { color:#5294e2; }
  </style>
 </defs>
    <g transform="translate(-482,-462)" class="ColorScheme-Text" fill="currentColor">
        <rect x="482" y="462" width="6" height="16" rx="2.9337001" ry="2.9860001"/>
        <path d="m487.41 462c0.87799 0.71298 1.4688 1.7921 1.4688 3v1h2.125c-0.0742-1.0926 1.2487-2 2-2 0.68073 0 1 0.0117 1 1v1h1.2188c1.2287-0.60001 1.7812-1.9691 1.7812-2.6875 0-0.73589-2.3854-1.3125-3.6875-1.3125z"/>
        <path d="m489 467v4.3125c2.7662 2.6616 6.125 2.4062 6.125 2.4062s0.35286-1.5209-1.9062-4.0312l-2.38-2.68h-1.7812c-0.0213 2e-3 -0.0412-2e-3 -0.0625 0zm2.975 2.5318 1.6834 1.7368c-1.799 0.16548-2.1508-0.85626-1.6834-1.7368z"/>
    </g>
</svg>
