<svg version="1.1" viewBox="0 0 16 16" xmlns="http://www.w3.org/2000/svg">
  <defs>
   <style id="current-color-scheme" type="text/css">
   .ColorScheme-Text { color:#5c616c; } .ColorScheme-Highlight { color:#5294e2; }
  </style>
 </defs>
    <path d="m9.361706 2.130435c-1.51558 0-2.828128 0.886803-3.478724 2.173918-0.421675-0.273767-0.920845-0.434775-1.457447-0.434775-1.50409 0-2.723401 1.24579-2.723401 2.782606 0 0.244331 0.03782 0.480713 0.09574 0.706505-1.086305 0.748613-1.797874 2.022181-1.797874 3.467382 0 2.312345 1.821958 4.173929 4.085104 4.173929h7.829795c2.263148 0 4.085101-1.861584 4.085101-4.173929 0-1.846502-1.166687-3.403276-2.787238-3.956519 0.04397-0.239981 0.06383-0.48608 0.06383-0.739105 0-2.209162-1.752749-4.000013-3.914885-4.000013z" class="ColorScheme-Text" fill="currentColor"/>
</svg>
