<svg version="1.1" viewBox="0 0 16 16.000193" xmlns="http://www.w3.org/2000/svg">
  <defs>
   <style id="current-color-scheme" type="text/css">
   .ColorScheme-Text { color:#5c616c; } .ColorScheme-Highlight { color:#5294e2; }
  </style>
 </defs>
    <g transform="translate(-773.0039,318)" class="ColorScheme-Text" fill="currentColor">
        <path d="m781.00078-310c-3.99844 0-5.99766 3-5.99766 6h-1.74932c-0.2499 0-0.2499 0.15712-0.2499 0.25v1.5c0 0.25 0.13814 0.25 0.2499 0.25h15.49396c0.19535 6e-3 0.2499-0.12948 0.2499-0.25v-1.5c0.0212-0.14605 0-0.25-0.2499-0.25h-1.74932c0-3-1.99922-6-5.99766-6zm0 3c2.3501 0 2.99883 1.76177 2.99883 3h-5.99766c0-1.19769 0.70253-3 2.99883-3z" enable-background="new" fill-rule="evenodd"/>
        <path d="m787.99281-317.40017c-0.28315-0.24009-0.6238-0.41924-0.96653-0.5613l-0.0217 2.23198c-5e-3 0.45867-0.4519 0.72949-1.00572 0.72949h-0.99961c-0.55376-7e-3 -1.00306-0.30935-0.9986-0.76802l0.0217-2.23198c-0.34541 0.13322-0.68945 0.3036-0.9772 0.53638-1.37728 1.11412-1.39514 2.94888-0.0399 4.09805 0.28315 0.24009 0.6238 0.41924 0.96652 0.56131 0.0278 0.0113 0.0278 2.05426 0.0278 2.05426 1.48949 0.75 2.35093 1.75 2.99883 2.75v-4.74827c0.3454-0.13322 0.66671-0.32107 0.95447-0.55384 1.37727-1.11412 1.39514-2.94889 0.0399-4.09806z" style="block-progression:tb;text-indent:0;text-transform:none"/>
    </g>
</svg>
