<svg version="1.1" viewBox="0 0 16 16" xmlns="http://www.w3.org/2000/svg">
  <defs>
   <style id="current-color-scheme" type="text/css">
   .ColorScheme-Text { color:#5c616c; } .ColorScheme-Highlight { color:#5294e2; }
  </style>
 </defs>
    <g transform="translate(-561,-461)">
        <path d="m564.78 463.02c-0.24234 1e-3 -0.52104 0.0664-0.80589 0.21875-1.0374 0.54647-1.992 2.336-2.5107 4.6562-0.44216 1.9709-0.60455 4.666-0.34095 5.75 0.22958 0.93169 0.62706 1.3438 1.3328 1.3438 1.0459-0.0179 2.3593-1.1822 3.1926-2.75 0.6027-0.86787 2.0005-1.2625 3.3476-1.2188 1.347-0.0471 2.7448 0.35088 3.3476 1.2188 0.8333 1.5678 2.1467 2.7321 3.1926 2.75 0.70576 0 1.1032-0.41206 1.3328-1.3438 0.2636-1.084 0.10121-3.7791-0.34095-5.75-0.51869-2.3203-1.4733-4.1098-2.5107-4.6562-0.5697-0.30459-1.0402-0.29563-1.4568 0-0.52719 0.37626-1.6258 0.77958-3.5645 0.78125-1.9387 2e-3 -3.0373-0.40499-3.5645-0.78125-0.20832-0.14782-0.40857-0.21987-0.65091-0.21875zm0.24797 3h0.99186v1h0.99187v1h-0.99187v1h-0.99186v-1h-0.99187v-1h0.99187v-1zm7.439 0c0.2739 0 0.49593 0.22386 0.49593 0.5s-0.22203 0.5-0.49593 0.5-0.49593-0.22386-0.49593-0.5 0.22203-0.5 0.49593-0.5zm-0.99187 1c0.2739 0 0.49594 0.22386 0.49594 0.5s-0.22204 0.5-0.49594 0.5c-0.27389 0-0.49593-0.22386-0.49593-0.5s0.22204-0.5 0.49593-0.5zm1.9837 0c0.27389 0 0.49593 0.22386 0.49593 0.5s-0.22204 0.5-0.49593 0.5c-0.2739 0-0.49594-0.22386-0.49594-0.5s0.22204-0.5 0.49594-0.5zm-0.99187 1c0.2739 0 0.49593 0.22386 0.49593 0.5s-0.22203 0.5-0.49593 0.5-0.49593-0.22386-0.49593-0.5 0.22203-0.5 0.49593-0.5z" class="ColorScheme-Text" fill="currentColor"/>
    </g>
</svg>
