<svg version="1.1" viewBox="0 0 16 16" xmlns="http://www.w3.org/2000/svg">
  <defs>
   <style id="current-color-scheme" type="text/css">
   .ColorScheme-Text { color:#5c616c; } .ColorScheme-Highlight { color:#5294e2; }
  </style>
 </defs>
    <path d="m6.0625 0.03125c-0.3048143 0.0220185-0.5970993 0.12177441-0.84375 0.3125-0.6588318 0.5094492-0.8504503 1.5230596-0.3125 2.21875 0.2391081 0.30922 0.5598753 0.5956786 0.96875 0.9375 0.2044374 0.1709107 0.4060332 0.3301299 0.65625 0.46875 0.0208514 0.0115517 0.0408424 0.0196556 0.0625 0.03125h-5.09375c-0.277 0-0.5 0.223-0.5 0.5v3c0 0.277 0.223 0.5 0.5 0.5h0.5v7.5c0 0.277 0.223 0.5 0.5 0.5h11c0.277 0 0.5-0.223 0.5-0.5v-7.5h0.5c0.277 0 0.5-0.223 0.5-0.5v-3c0-0.277-0.223-0.5-0.5-0.5h-4.84375c0.1322863-0.082673 0.261251-0.1594106 0.375-0.25 0.30631-0.2439444 0.513326-0.3814288 0.75-0.6875 0.508393-0.6574671 0.318674-1.5673521-0.28125-2.03125-0.278306-0.21520382-0.6634827-0.2912426-1.03125-0.25s-0.7417871 0.20648627-0.96875 0.5c-0.1868757 0.241672-0.2755538 0.4496086-0.375 0.6875-0.0182937-0.0430894-0.044789-0.0821824-0.0625-0.125-0.1032121-0.2495233-0.2047147-0.4814332-0.3125-0.6875-0.1077853-0.20606681-0.1645303-0.33989219-0.3125-0.53125-0.266072-0.34409062-0.6593188-0.54916067-1.0625-0.59375-0.1007953-0.01114733-0.2108952-0.0073395-0.3125 0zm0.125 0.9375c0.1713026 0.006545 0.3538315 0.1013846 0.46875 0.25 0.2042998 0.2642051 0.9517051 1.7644505 0.6875 1.96875-0.2642052 0.2042998-1.4519503-0.954545-1.65625-1.21875-0.2042996-0.2642052-0.1392051-0.6394504 0.125-0.84375 0.0660513-0.0510749 0.1442412-0.1047668 0.21875-0.125 0.0558816-0.01517491 0.0991491-0.03343175 0.15625-0.03125zm3.40625 0.78125c0.1035329-0.0132383 0.1898656 0.0230859 0.28125 0.09375 0.182769 0.1413282 0.235078 0.410981 0.09375 0.59375-0.1413284 0.1827689-0.973481 0.9538283-1.15625 0.8125-0.182769-0.1413281 0.3586717-1.160981 0.5-1.34375 0.0706641-0.0913845 0.1777171-0.1430117 0.28125-0.15625zm-7.59375 3.25h5v2h-5zm7 0h5v2h-5zm-6 3h4v7h-4zm6 0h4v7h-4z" class="ColorScheme-Text" fill="currentColor"/>
</svg>
