<svg version="1.1" viewBox="0 0 16 16" xmlns="http://www.w3.org/2000/svg" xmlns:osb="http://www.openswatchbook.org/uri/2009/osb">
  <defs>
   <style id="current-color-scheme" type="text/css">
   .ColorScheme-Text { color:#5c616c; } .ColorScheme-Highlight { color:#5294e2; }
  </style>
 </defs>
    <g transform="translate(0,-1036.3622)">
        <path transform="translate(0,1036.3622)" d="m4.6640625 4c-1.6138949 0-2.9140625 1.3001676-2.9140625 2.9140625v0.171875c0 1.2047696 0.7249628 2.2329723 1.7636719 2.6777344 0.0144836-0.3699705 0.0857773-0.7230948 0.1972656-1.0605469-0.5745503-0.3506307-0.9609375-0.9780397-0.9609375-1.703125 0-1.108 0.892-2 2-2h3.75c1.108 0 2 0.892 2 2s-0.892 2-2 2h-0.4492188a1.0021209 1.0021209 0 0 1-0.0703124 0.0019531h-0.4804688c-0.5702127 0-0.9980469 0.4278342-0.9980469 0.9980469h2.0839844c1.6138945 0 2.9140625-1.3001676 2.9140625-2.9140625v-0.171875c0-1.6138949-1.300168-2.9140625-2.9140625-2.9140625h-3.921875zm2.75 3c-1.6138949 0-2.9140625 1.3001625-2.9140625 2.9140625v0.1718755c0 1.613899 1.3001676 2.914062 2.9140625 2.914062h3.9218755c1.613894 0 2.914062-1.300162 2.914062-2.914062v-0.1718755c0-1.2063404-0.726701-2.2358625-1.767578-2.6796875-0.014343 0.3701182-0.085714 0.7229657-0.197266 1.0605469 0.576623 0.3501668 0.964844 0.9784276 0.964844 1.7050781 0 1.108-0.892 2-2 2h-3.75c-1.108 0-2-0.892-2-2s0.892-2 2-2h1.0097656c0.5673995-0.0052263 0.9921875-0.4308404 0.9921875-1h-2.0878906z" color-rendering="auto" class="ColorScheme-Text" fill="currentColor" image-rendering="auto" shape-rendering="auto" solid-color="#000000" style="filter-blend-mode:normal;filter-gaussianBlur-deviation:0;isolation:auto;mix-blend-mode:normal"/>
    </g>
</svg>
