<svg version="1.1" viewBox="0 0 16 16" xmlns="http://www.w3.org/2000/svg">
  <defs>
   <style id="current-color-scheme" type="text/css">
   .ColorScheme-Text { color:#5c616c; } .ColorScheme-Highlight { color:#5294e2; }
  </style>
 </defs>
    <g class="ColorScheme-Text" fill="currentColor">
        <path d="m8 0c-4.418278 0-8 3.581722-8 8s3.581722 8 8 8 8-3.581722 8-8-3.581722-8-8-8zm0 2c3.313708 0 6 2.686291 6 6 0 3.313708-2.686292 6-6 6-3.3137085 0-6-2.686292-6-6 0-3.313709 2.6862915-6 6-6z"/>
        <path d="m8.0625 2.5c-0.713022 0-1.28125 0.5547082-1.28125 1.25 0 0.695291 0.568228 1.28125 1.28125 1.28125s1.28125-0.585959 1.28125-1.28125c0-0.6952918-0.568228-1.25-1.28125-1.25z"/>
        <path d="m3.40625 5.09375c-0.0699-0.0086-0.1241199 0.0015-0.1875 0.03125-0.12676 0.059567-0.2170023 0.178153-0.21875 0.3125-0.0016 0.134366 0.0935658 0.249978 0.21875 0.3125l3.4375 1.0625-0.03125 2.46875-1.21875 3.65625c-0.1168676 0.166544-0.081547 0.357719 0.09375 0.46875 0.1753044 0.111048 0.44562 0.072808 0.5625-0.09375l1.9375-3.9375 1.9375 3.9375c0.103888 0.172743 0.318204 0.223706 0.5 0.125 0.181797-0.09871 0.260134-0.296006 0.15625-0.46875l-1.1875-3.6875-0.0625-2.28125 3.5-1.25c0.140894-0.09388 0.186025-0.284647 0.125-0.4375-0.06103-0.15287-0.23528-0.237273-0.40625-0.21875-0.05974 0.0094-0.107867 0.02789-0.15625 0.0625l-4.40625 0.6875-4.375-0.6875c-0.056722-0.04012-0.1488502-0.05391-0.21875-0.0625z"/>
    </g>
</svg>
