<svg version="1.1" viewBox="0 0 16.000004 16" xmlns="http://www.w3.org/2000/svg">
  <defs>
   <style id="current-color-scheme" type="text/css">
   .ColorScheme-Text { color:#5c616c; } .ColorScheme-Highlight { color:#5294e2; }
  </style>
 </defs>
    <g transform="translate(-713.00388,318)" class="ColorScheme-Text" fill="currentColor">
        <path d="m714.97263-318c-1.0912 0-1.96875 0.87755-1.96875 1.96875v12.0625c0 1.0912 0.87755 1.96875 1.96875 1.96875h12.03125c0.554 0 1-0.446 1-1v-11c0-0.554-0.446-1-1-1h-12c-0.554 0-1-0.446-1-1s0.446-1 1-1h12c0-0.55856-0.44144-1-1-1zm6.03125 4.0625c2.72669 0 4.9375 2.20786 4.9375 4.9375s-2.21081 4.9375-4.9375 4.9375-4.9375-2.20786-4.9375-4.9375 2.21081-4.9375 4.9375-4.9375zm0 1c-0.63685 0-1.21995 0.17421-1.75 0.4375l0.71875 1.5c0.31325-0.1625 0.65582-0.28125 1.03125-0.28125s0.718 0.11875 1.03125 0.28125l0.71875-1.5c-0.53005-0.26329-1.11315-0.4375-1.75-0.4375zm-3.5 2.1875c-0.26373 0.53017-0.4375 1.11182-0.4375 1.75 0 0.64816 0.16599 1.24503 0.4375 1.78125l1.5-0.75c-0.16256-0.31326-0.28125-0.65563-0.28125-1.03125 0-0.36123 0.0989-0.69568 0.25-1zm7.03125 0-1.5 0.75c0.1511 0.30432 0.25 0.63877 0.25 1 0 0.37562-0.11869 0.71799-0.28125 1.03125l1.5 0.75c0.27151-0.53622 0.4375-1.13309 0.4375-1.78125 0-0.6332-0.14638-1.22289-0.40625-1.75zm-3.53125 0.46875c-0.71682 0-1.28125 0.56221-1.28125 1.28125s0.56443 1.28125 1.28125 1.28125 1.28125-0.56221 1.28125-1.28125-0.56443-1.28125-1.28125-1.28125zm1.03125 3.28125c-0.31325 0.1625-0.65582 0.28125-1.03125 0.28125-0.36105 0-0.6957-0.099-1-0.25l-0.75 1.5c0.52698 0.25944 1.11813 0.40625 1.75 0.40625 0.63685 0 1.21995-0.17421 1.75-0.4375z"/>
        <path d="m721.00387-312.96875c-0.64211 0-1.24505 0.13662-1.78125 0.40625l0.74229 1.53246c0.39027-0.17861 0.54899-0.21178 1.0422-0.24611 0.54638-2e-3 0.71942 0.13487 1.02655 0.23344l0.72021-1.51979c-0.53621-0.26958-1.10789-0.40625-1.75-0.40625zm-3.5625 2.21875c-0.26553 0.53901-0.4375 1.13563-0.4375 1.78125 0 0.65895 0.19284 1.26532 0.46875 1.8125l1.52678-0.77591c-0.15799-0.27948-0.23673-0.49585-0.27949-1.05679 0.0432-0.4966 0.0616-0.47071 0.23058-0.98785zm7.125 0-1.49679 0.74459c0.15043 0.37094 0.19879 0.4814 0.22336 1.00931-6e-3 0.22936 0.0148 0.52961-0.26718 1.08514l1.50931 0.75466c0.27592-0.54718 0.4375-1.15355 0.4375-1.8125 0-0.64562-0.14071-1.24223-0.40625-1.78125zm-3.53488 4.03948c-0.47463-0.0401-0.61731-0.0296-1.01202-0.23332l-0.79685 1.56879c0.5362 0.26963 1.13914 0.4375 1.78125 0.4375s1.21381-0.16787 1.75-0.4375l-0.74598-1.56656c-0.39575 0.19501-0.43347 0.17321-0.9764 0.23109z"/>
        <path transform="matrix(.36662946 0 0 .3275 637.55736 -398.71636)" d="m231.125 273.96875a3.5 3.90625 0 1 1-7 0 3.5 3.90625 0 1 1 7 0z"/>
    </g>
</svg>
