<svg version="1.1" viewBox="0 0 16 16" xmlns="http://www.w3.org/2000/svg">
  <defs>
   <style id="current-color-scheme" type="text/css">
   .ColorScheme-Text { color:#5c616c; } .ColorScheme-Highlight { color:#5294e2; }
  </style>
 </defs>
    <g transform="translate(-793.0004,458.00001)">
        <path d="m801.0004-457.03125c-0.25562 0-0.52288 0.0854-0.71875 0.28125l-6.03125 6.03125c-0.39174 0.39174-0.39174 1.04576 0 1.4375l4.34375 4.34375 1-0.53125c-0.017-0.16809-0.0312-0.3274-0.0312-0.5s0.0141-0.33191 0.0312-0.5l-1.84375-1c0.0975-0.44488 0.22853-0.87248 0.40625-1.28125l2.09375 0.28125c0.1695-0.29 0.37133-0.56351 0.59375-0.8125l-0.90625-1.90625c0.33555-0.29842 0.67387-0.58239 1.0625-0.8125l1.53125 1.46875c0.3057-0.13661 0.63429-0.2392 0.96875-0.3125l0.40625-2.09375c0.21544-0.0199 0.4356-0.0312 0.65625-0.0312s0.44081 0.0113 0.65625 0.0312l0.40625 2.09375c0.33446 0.0733 0.66305 0.17589 0.96875 0.3125l0.6875-0.65625-5.5625-5.5625c-0.19587-0.19587-0.46313-0.28125-0.71875-0.28125zm3.5625 8.0625c-1.65685 0-3 1.34315-3 3 0 0.79675 0.30578 1.52531 0.8125 2.0625l4.25-4.25c-0.53719-0.50672-1.26575-0.8125-2.0625-0.8125zm-4.3125 5.5-0.15625 0.0312 0.1875 0.1875c0.0605 0.0605 0.14862 0.0832 0.21875 0.125-0.0839-0.11796-0.17712-0.21905-0.25-0.34375z" enable-background="new" class="ColorScheme-Text" fill="currentColor"/>
    </g>
</svg>
