<svg version="1.1" viewBox="0 0 16 16" xmlns="http://www.w3.org/2000/svg">
  <defs>
   <style id="current-color-scheme" type="text/css">
   .ColorScheme-Text { color:#5c616c; } .ColorScheme-Highlight { color:#5294e2; }
  </style>
 </defs>
    <g transform="translate(-813.0002,477.99988)" class="ColorScheme-Text" fill="currentColor">
        <path transform="matrix(1.0000007 0 0 .61803426 493.93767 -526.06521)" d="m325.0625 97.1875a2 3.236068 0 1 1-4 0 2 3.236068 0 1 1 4 0z" enable-background="new"/>
        <path d="m815.0004-476v1c0 0.55016 0.45347 1 1 1 4.97056 0 9 4.02944 9 9 0 0.55016 0.45347 1 1 1h1v-1c0-6.07513-4.92487-11-11-11h-1zm0 4v1c0 0.55016 0.45347 1 1 1 2.76143 0 5 2.23857 5 5 0 0.55016 0.45347 1 1 1h1v-1c0-3.866-3.134-7-7-7h-1z" enable-background="new"/>
    </g>
</svg>
