<svg version="1.1" viewBox="0 0 16 16" xmlns="http://www.w3.org/2000/svg">
  <defs>
   <style id="current-color-scheme" type="text/css">
   .ColorScheme-Text { color:#5c616c; } .ColorScheme-Highlight { color:#5294e2; }
  </style>
 </defs>
    <g transform="translate(-833.00043,456)">
        <path d="m835.5002-454c-0.277 0-0.5 0.223-0.5 0.5v0.5h-0.5c-0.277 0-0.5 0.223-0.5 0.5v2c0-0.277 0.223-0.5 0.5-0.5h13c0.277 0 0.5 0.223 0.5 0.5v-2c0-0.277-0.223-0.5-0.5-0.5h-6.5v-0.5c0-0.277-0.223-0.5-0.5-0.5h-5zm-1 4c-0.277 0-0.5 0.223-0.5 0.5v7c0 0.277 0.223 0.5 0.5 0.5h13c0.277 0 0.5-0.223 0.5-0.5v-7c0-0.277-0.223-0.5-0.5-0.5h-13z" class="ColorScheme-Text" fill="currentColor"/>
    </g>
</svg>
