<svg version="1.1" viewBox="0 0 16 16" xmlns="http://www.w3.org/2000/svg">
  <defs>
   <style id="current-color-scheme" type="text/css">
   .ColorScheme-Text { color:#5c616c; } .ColorScheme-Highlight { color:#5294e2; }
  </style>
 </defs>
    <g transform="translate(-733.0002,477.99988)" class="ColorScheme-Text" fill="currentColor">
        <path d="m736.0004-469.99988h10v7.05898c0 0.4922-0.47266 0.9375-0.99609 0.9375h-8.00391c-0.53906 0-1-0.42964-1-1z"/>
        <path d="m739.6875-475.03125a1.0001 1.0001 0 0 0-0.65625 0.375l-2.8125 3.46875a1.0001 1.0001 0 0 0-0.21875 0.625v1a1.0001 1.0001 0 1 0 2 0v-0.65625l2.59375-3.15625a1.0001 1.0001 0 0 0-0.90625-1.65625z" style="block-progression:tb;text-indent:0;text-transform:none"/>
        <path d="m741.90625-472.03125a1.0001221 1.0001221 0 1 0-0.0312 2l2.15625 0.375v0.15625a1.0001 1.0001 0 1 0 2 0v-1a1.0001 1.0001 0 0 0-0.8125-1l-3-0.5a1.0001 1.0001 0 0 0-0.3125-0.0312z" style="block-progression:tb;text-indent:0;text-transform:none"/>
    </g>
</svg>
