<svg version="1.1" viewBox="0 0 16 16" xmlns="http://www.w3.org/2000/svg">
  <defs>
   <style id="current-color-scheme" type="text/css">
   .ColorScheme-Text { color:#5c616c; } .ColorScheme-Highlight { color:#5294e2; }
  </style>
 </defs>
    <path d="m8 0c-4.418278 0-8 3.581722-8 8s3.581722 8 8 8 8-3.581722 8-8-3.581722-8-8-8zm0.5625 1.03125c1.2663346 0.1006075 2.419439 0.53383 3.40625 1.21875l-0.28125-0.0625-0.34375-0.125-0.5 0.125-0.3125 0.21875v0.1875l-0.53125 0.34375 0.125 0.5 0.28125-0.21875 0.1875 0.21875 0.21875 0.125 0.125-0.375-0.0625-0.21875 0.0625-0.15625 0.3125-0.28125h0.125l-0.125 0.3125v0.28125c0.122979-0.03415 0.249148-0.04653 0.375-0.0625l-0.34375 0.25-0.03125 0.15625-0.40625 0.34375-0.40625-0.09375v-0.25l-0.1875 0.125 0.09375 0.21875h-0.3125l-0.15625 0.28125-0.1875 0.21875-0.375 0.0625 0.21875 0.21875 0.0625 0.21875h-0.28125l-0.34375 0.1875v0.5625h0.15625l0.15625 0.15625 0.34375-0.15625 0.125-0.34375 0.25-0.15625 0.03125-0.125 0.40625-0.09375 0.21875 0.25 0.25 0.125-0.15625 0.28125 0.21875-0.0625 0.125-0.28125-0.28125-0.3125h0.125l0.25 0.21875 0.0625 0.3125 0.21875 0.28125 0.0625-0.40625 0.125-0.0625c0.132333 0.140168 0.232294 0.311 0.34375 0.46875l0.4375 0.03125 0.21875 0.15625-0.09375 0.15625-0.25 0.21875h-0.34375l-0.46875-0.15625-0.21875 0.03125-0.1875 0.1875-0.5-0.5-0.34375-0.09375-0.5 0.0625-0.46875 0.125c-0.2553115 0.295326-0.5083486 0.599542-0.75 0.90625l-0.28125 0.71875 0.125 0.125-0.25 0.375 0.28125 0.65625c0.2275857 0.26268 0.4602459 0.518385 0.6875 0.78125l0.34375-0.28125 0.125 0.15625 0.375-0.21875 0.125 0.125h0.34375l0.21875 0.25-0.125 0.4375 0.25 0.28125-0.03125 0.5 0.21875 0.375-0.15625 0.3125c-0.01333 0.227439-0.03125 0.460024-0.03125 0.6875 0.109688 0.308174 0.240174 0.595859 0.34375 0.90625l0.0625 0.5v0.25h0.1875l0.3125-0.1875h0.34375l0.5-0.59375-0.0625-0.21875 0.375-0.3125-0.28125-0.28125 0.3125-0.25 0.3125-0.1875 0.125-0.15625-0.09375-0.34375v-0.875l0.25-0.53125 0.28125-0.3125 0.34375-0.8125v-0.21875c-0.160849 0.02068-0.311361 0.05107-0.46875 0.0625l0.3125-0.34375 0.4375-0.3125 0.25-0.28125v-0.28125c-0.05358-0.103087-0.102309-0.240663-0.15625-0.34375l-0.21875 0.28125-0.15625-0.21875-0.25-0.1875v-0.375l0.28125 0.3125 0.3125-0.03125c0.140211 0.129874 0.283271 0.227131 0.40625 0.375l0.09375-0.125c0.050095 0.3378721 0.09375 0.6794446 0.09375 1.03125 0 3.865993-3.134007 7-7 7-1.1342792 0-2.2086612-0.271097-3.15625-0.75 0.051459-0.03988 0.125-0.09375 0.125-0.09375l-0.0625-0.125 0.21875-0.21875 0.0625-0.21875 0.34375-0.09375 0.25-0.6875-0.0625-0.15625 0.15625-0.28125 0.40625-0.09375 0.1875-0.46875-0.03125-0.625 0.3125-0.4375 0.03125-0.4375c-0.4264344-0.21575-0.826745-0.434105-1.25-0.65625l-0.21875-0.4375-0.375-0.09375-0.21875-0.5625-0.5 0.0625-0.46875-0.34375-0.46875 0.4375v0.0625c-0.1414989-0.041668-0.3115061-0.045958-0.4375-0.125l-0.09375-0.3125v-0.3125l-0.3125 0.03125c0.026014-0.210076 0.067561-0.446211 0.09375-0.65625h-0.1875l-0.1875 0.25-0.1875 0.09375-0.25-0.15625-0.03125-0.3125 0.03125-0.375 0.40625-0.28125h0.3125l0.0625-0.1875 0.375 0.09375 0.28125 0.34375 0.0625-0.59375 0.5-0.40625 0.15625-0.46875 0.375-0.15625 0.21875-0.28125 0.46875-0.09375 0.21875-0.375h-0.6875l0.4375-0.1875h0.3125l0.40625-0.15625 0.0625 0.40625 0.1875-0.28125-0.21875-0.15625 0.0625-0.15625-0.15625-0.15625-0.1875-0.03125 0.0625-0.1875-0.15625-0.28125-0.3125 0.125 0.0625-0.25-0.375-0.21875-0.28125 0.53125 0.03125 0.15625-0.28125 0.125-0.1875 0.40625-0.0625-0.375-0.5-0.1875-0.09375-0.28125 0.65625-0.375 0.28125-0.28125 0.03125-0.34375-0.15625-0.09375h-0.0625c0.2274903-0.1578952 0.4414865-0.3069897 0.6875-0.4375v0.09375l-0.21875 0.1875-0.15625 0.375h0.3125l0.09375-0.25 0.03125-0.0625c0.1257227-0.090718 0.246949-0.19393 0.375-0.28125l0.3125 0.09375c0.1942605 0.134661 0.3680785 0.271792 0.5625 0.40625l0.3125-0.28125-0.34375-0.125-0.125-0.3125-0.5625-0.0625v-0.03125-0.03125c0.00905-0.00377 0.022179 0.00373 0.03125 0l0.1875 0.0625 0.15625-0.15625 0.28125-0.0625c0.070613-0.03504 0.1474725-0.06523 0.21875-0.09375l-0.1875 0.1875 0.65625 0.46875v0.28125l-0.25 0.28125 0.34375 0.6875 0.25-0.125 0.28125-0.46875c0.4194855-0.132328 0.822823-0.285725 1.21875-0.46875l-0.03125 0.1875 0.1875 0.125 0.34375-0.25-0.15625-0.1875-0.25 0.125-0.03125-0.03125 0.34375-0.9375zm-3.8125 1.1875 0.28125 0.21875h0.25v-0.25l-0.28125-0.125zm-0.9375 0.1875-0.0625 0.15625s-0.1027341 0.014953-0.1875 0.03125c0.080768-0.066656 0.1662507-0.1244571 0.25-0.1875zm8.4375 0.03125c0.06485 0.049824 0.124471 0.1042336 0.1875 0.15625l-0.25 0.28125-0.34375-0.375h0.34375zm-3.03125 0.40625v0.1875l0.125 0.15625v0.28125l-0.0625 0.40625 0.3125-0.0625 0.25-0.21875-0.21875-0.21875c-0.068539-0.18622-0.1329685-0.352643-0.21875-0.53125zm-0.28125 0.40625-0.1875 0.0625 0.03125 0.375 0.28125-0.15625zm3.65625 3.34375 0.28125 0.34375 0.375 0.78125 0.21875 0.25-0.125 0.28125 0.21875 0.25c-0.09128 0.0061-0.187428 0-0.28125 0-0.170441-0.365428-0.307707-0.742703-0.4375-1.125l-0.21875-0.25-0.125-0.46875zm-11.5625 0.90625c0.0417357 0.1004243 0.21875 0.40625 0.21875 0.40625l0.53125 0.3125 0.5625 0.15625 0.21875 0.3125 0.375 0.28125 0.1875-0.0625 0.15625 0.09375v0.03125l-0.1875 0.59375-0.15625 0.21875 0.03125 0.125-0.125 0.46875 0.46875 0.84375 0.46875 0.4375 0.21875 0.28125-0.03125 0.65625 0.15625 0.34375-0.15625 0.6875s0.00249 0.0238 0 0.03125c-1.7890938-1.268058-2.96875-3.358954-2.96875-5.71875 0-0.1682254 0.0195795-0.3347445 0.03125-0.5z" class="ColorScheme-Text" fill="currentColor"/>
</svg>
