<svg version="1.1" viewBox="0 0 16.000004 16" xmlns="http://www.w3.org/2000/svg">
  <defs>
   <style id="current-color-scheme" type="text/css">
   .ColorScheme-Text { color:#5c616c; } .ColorScheme-Highlight { color:#5294e2; }
  </style>
 </defs>
    <g transform="translate(-813.00018,458)">
        <path d="m821.00018-458c-4.41828 0-8 3.58172-8 8s3.58172 8 8 8 8-3.58172 8-8-3.58172-8-8-8zm0.5625 1.03125c1.26633 0.10061 2.41944 0.53383 3.40625 1.21875l-0.28125-0.0625-0.34375-0.125-0.5 0.125-0.3125 0.21875v0.1875l-0.53125 0.34375 0.125 0.5 0.28125-0.21875 0.1875 0.21875 0.21875 0.125 0.125-0.375-0.0625-0.21875 0.0625-0.15625 0.3125-0.28125h0.125l-0.125 0.3125v0.28125c0.12298-0.0342 0.24915-0.0465 0.375-0.0625l-0.34375 0.25-0.0312 0.15625-0.40625 0.34375-0.40625-0.0937v-0.25l-0.1875 0.125 0.0937 0.21875h-0.3125l-0.15625 0.28125-0.1875 0.21875-0.375 0.0625 0.21875 0.21875 0.0625 0.21875h-0.28125l-0.34375 0.1875v0.5625h0.15625l0.15625 0.15625 0.34375-0.15625 0.125-0.34375 0.25-0.15625 0.0312-0.125 0.40625-0.0937 0.21875 0.25 0.25 0.125-0.15625 0.28125 0.21875-0.0625 0.125-0.28125-0.28125-0.3125h0.125l0.25 0.21875 0.0625 0.3125 0.21875 0.28125 0.0625-0.40625 0.125-0.0625c0.13233 0.14017 0.23229 0.311 0.34375 0.46875l0.4375 0.0312 0.21875 0.15625-0.0937 0.15625-0.25 0.21875h-0.34375l-0.46875-0.15625-0.21875 0.0312-0.1875 0.1875-0.5-0.5-0.34375-0.0937-0.5 0.0625-0.46875 0.125c-0.25531 0.29533-0.50835 0.59954-0.75 0.90625l-0.28125 0.71875 0.125 0.125-0.25 0.375 0.28125 0.65625c0.22759 0.26268 0.46025 0.51839 0.6875 0.78125l0.34375-0.28125 0.125 0.15625 0.375-0.21875 0.125 0.125h0.34375l0.21875 0.25-0.125 0.4375 0.25 0.28125-0.0312 0.5 0.21875 0.375-0.15625 0.3125c-0.0133 0.22744-0.0312 0.46002-0.0312 0.6875 0.10969 0.30817 0.24017 0.59586 0.34375 0.90625l0.0625 0.5v0.25h0.1875l0.3125-0.1875h0.34375l0.5-0.59375-0.0625-0.21875 0.375-0.3125-0.28125-0.28125 0.3125-0.25 0.3125-0.1875 0.125-0.15625-0.0937-0.34375v-0.875l0.25-0.53125 0.28125-0.3125 0.34375-0.8125v-0.21875c-0.16085 0.0207-0.31136 0.0511-0.46875 0.0625l0.3125-0.34375 0.4375-0.3125 0.25-0.28125v-0.28125c-0.0536-0.10309-0.10231-0.24066-0.15625-0.34375l-0.21875 0.28125-0.15625-0.21875-0.25-0.1875v-0.375l0.28125 0.3125 0.3125-0.0312c0.14021 0.12987 0.28327 0.22713 0.40625 0.375l0.0937-0.125c0.0501 0.33787 0.0937 0.67944 0.0937 1.03125 0 3.86599-3.13401 7-7 7-1.13428 0-2.20866-0.2711-3.15625-0.75 0.0515-0.0399 0.125-0.0937 0.125-0.0937l-0.0625-0.125 0.21875-0.21875 0.0625-0.21875 0.34375-0.0937 0.25-0.6875-0.0625-0.15625 0.15625-0.28125 0.40625-0.0937 0.1875-0.46875-0.0312-0.625 0.3125-0.4375 0.0312-0.4375c-0.42643-0.21575-0.82674-0.4341-1.25-0.65625l-0.21875-0.4375-0.375-0.0937-0.21875-0.5625-0.5 0.0625-0.46875-0.34375-0.46875 0.4375v0.0625c-0.1415-0.0417-0.31151-0.046-0.4375-0.125l-0.0937-0.3125v-0.3125l-0.3125 0.0312c0.026-0.21008 0.0676-0.44621 0.0937-0.65625h-0.1875l-0.1875 0.25-0.1875 0.0937-0.25-0.15625-0.0312-0.3125 0.0312-0.375 0.40625-0.28125h0.3125l0.0625-0.1875 0.375 0.0937 0.28125 0.34375 0.0625-0.59375 0.5-0.40625 0.15625-0.46875 0.375-0.15625 0.21875-0.28125 0.46875-0.0937 0.21875-0.375h-0.6875l0.4375-0.1875h0.3125l0.40625-0.15625 0.0625 0.40625 0.1875-0.28125-0.21875-0.15625 0.0625-0.15625-0.15625-0.15625-0.1875-0.0312 0.0625-0.1875-0.15625-0.28125-0.3125 0.125 0.0625-0.25-0.375-0.21875-0.28125 0.53125 0.0312 0.15625-0.28125 0.125-0.1875 0.40625-0.0625-0.375-0.5-0.1875-0.0937-0.28125 0.65625-0.375 0.28125-0.28125 0.0312-0.34375-0.15625-0.0937h-0.0625c0.22749-0.1579 0.44149-0.30699 0.6875-0.4375v0.0937l-0.21875 0.1875-0.15625 0.375h0.3125l0.0937-0.25 0.0312-0.0625c0.12572-0.0907 0.24695-0.19393 0.375-0.28125l0.3125 0.0937c0.19426 0.13466 0.36808 0.27179 0.5625 0.40625l0.3125-0.28125-0.34375-0.125-0.125-0.3125-0.5625-0.0625v-0.0312-0.0312c9e-3 -4e-3 0.0222 4e-3 0.0312 0l0.1875 0.0625 0.15625-0.15625 0.28125-0.0625c0.0706-0.035 0.14747-0.0652 0.21875-0.0937l-0.1875 0.1875 0.65625 0.46875v0.28125l-0.25 0.28125 0.34375 0.6875 0.25-0.125 0.28125-0.46875c0.41949-0.13233 0.82282-0.28573 1.21875-0.46875l-0.0312 0.1875 0.1875 0.125 0.34375-0.25-0.15625-0.1875-0.25 0.125-0.0312-0.0312 0.34375-0.9375zm-3.8125 1.1875 0.28125 0.21875h0.25v-0.25l-0.28125-0.125zm-0.9375 0.1875-0.0625 0.15625s-0.10273 0.0149-0.1875 0.0312c0.0808-0.0667 0.16625-0.12446 0.25-0.1875zm8.4375 0.0312c0.0648 0.0498 0.12447 0.10423 0.1875 0.15625l-0.25 0.28125-0.34375-0.375h0.34375zm-3.03125 0.40625v0.1875l0.125 0.15625v0.28125l-0.0625 0.40625 0.3125-0.0625 0.25-0.21875-0.21875-0.21875c-0.0685-0.18622-0.13297-0.35264-0.21875-0.53125zm-0.28125 0.40625-0.1875 0.0625 0.0312 0.375 0.28125-0.15625zm3.65625 3.34375 0.28125 0.34375 0.375 0.78125 0.21875 0.25-0.125 0.28125 0.21875 0.25c-0.0913 6e-3 -0.18743 0-0.28125 0-0.17044-0.36543-0.30771-0.7427-0.4375-1.125l-0.21875-0.25-0.125-0.46875zm-11.5625 0.90625c0.0417 0.10042 0.21875 0.40625 0.21875 0.40625l0.53125 0.3125 0.5625 0.15625 0.21875 0.3125 0.375 0.28125 0.1875-0.0625 0.15625 0.0937v0.0312l-0.1875 0.59375-0.15625 0.21875 0.0312 0.125-0.125 0.46875 0.46875 0.84375 0.46875 0.4375 0.21875 0.28125-0.0312 0.65625 0.15625 0.34375-0.15625 0.6875s2e-3 0.0238 0 0.0312c-1.78909-1.26806-2.96875-3.35895-2.96875-5.71875 0-0.16823 0.0196-0.33474 0.0312-0.5z" class="ColorScheme-Text" fill="currentColor"/>
    </g>
</svg>
