<svg version="1.1" viewBox="0 0 16 16" xmlns="http://www.w3.org/2000/svg">
  <defs>
   <style id="current-color-scheme" type="text/css">
   .ColorScheme-Text { color:#5c616c; } .ColorScheme-Highlight { color:#5294e2; }
  </style>
 </defs>
    <g transform="translate(-693.00018,458)" class="ColorScheme-Text" fill="currentColor">
        <path d="m696.00018-458c-0.554 0-1 0.446-1 1v14c0 0.554 0.446 1 1 1h10c0.554 0 1-0.446 1-1v-10c0-0.554-4.446-5-5-5zm0.5 1h5.5v4h4v9.5c0 0.277-0.223 0.5-0.5 0.5h-9c-0.277 0-0.5-0.223-0.5-0.5v-13c0-0.277 0.223-0.5 0.5-0.5z"/>
        <path d="m701.5625-447.65625c-0.46643-0.0643-1.04585-0.1297-1.53125 0.25-0.40319 0.3154-0.7654 0.72703-1.09375 1.03125s-0.65996 0.4375-0.59375 0.4375h-2.34375v1h2.34375c0.58207 0 0.88604-0.38153 1.25-0.71875s0.75079-0.69367 1.0625-0.9375c0.10629-0.0831 0.40859-0.14514 0.78125-0.0937 0.37266 0.0514 0.69959 0.1875 1.09375 0.1875 0.14648 0 0.20407 0.0328 0.3125 0.125s0.24045 0.24389 0.375 0.4375 0.28193 0.42119 0.5 0.625 0.56155 0.375 0.9375 0.375h1.84375v-1h-1.84375c-0.0991 0-0.15147-2e-3 -0.25-0.0937-0.0985-0.0921-0.23537-0.26783-0.375-0.46875s-0.29184-0.42134-0.53125-0.625-0.57764-0.375-0.96875-0.375c-0.0328 0-0.50232-0.0919-0.96875-0.15625z" style="block-progression:tb;text-indent:0;text-transform:none"/>
        <path d="m699.41889-452.13782c-0.86024 0-1.55632 0.72246-1.55632 1.58269 0 0.86024 0.69608 1.55632 1.55632 1.55632s1.5827-0.69608 1.5827-1.55632c0-0.86023-0.72246-1.58269-1.5827-1.58269zm0 1.00237c0.3198 0 0.58032 0.26053 0.58032 0.58032 0 0.3198-0.26052 0.55395-0.58032 0.55395s-0.55394-0.23415-0.55394-0.55395c0-0.31979 0.23414-0.58032 0.55394-0.58032z" style="block-progression:tb;text-indent:0;text-transform:none"/>
    </g>
</svg>
