<svg version="1.1" viewBox="0 0 16 16" xmlns="http://www.w3.org/2000/svg">
  <defs>
   <style id="current-color-scheme" type="text/css">
   .ColorScheme-Text { color:#5c616c; } .ColorScheme-Highlight { color:#5294e2; }
  </style>
 </defs>
    <g transform="translate(-773.0004,458)" class="ColorScheme-Text" fill="currentColor">
        <path d="m776.1877-457c-1.09069 0-1.99999 0.90929-2 2h0.8125c0-0.554 0.446-1 1-1h9c0.554 0 1 0.446 1 1v11c0 0.554-0.446 1-1 1h-9c-0.554 0-1-0.446-1-1h-0.8125c0 1.0907 0.90929 2 2 2h8.8125c1.09069 0 2-0.90929 2-2v-11c0-1.09069-0.9093-2-2-2h-8.8125z" enable-background="new" style="block-progression:tb;text-indent:0;text-transform:none"/>
        <path d="m773.59375-446a0.50219246 0.50219246 0 1 0 0.0937 1h1.8125a0.50005 0.50005 0 1 0 0-1h-1.8125a0.50005 0.50005 0 0 0-0.0937 0z" style="block-progression:tb;text-indent:0;text-transform:none"/>
        <path d="m773.59375-448a0.50219246 0.50219246 0 1 0 0.0937 1h1.8125a0.50005 0.50005 0 1 0 0-1h-1.8125a0.50005 0.50005 0 0 0-0.0937 0z" style="block-progression:tb;text-indent:0;text-transform:none"/>
        <path d="m773.59375-450a0.50219246 0.50219246 0 1 0 0.0937 1h1.8125a0.50005 0.50005 0 1 0 0-1h-1.8125a0.50005 0.50005 0 0 0-0.0937 0z" style="block-progression:tb;text-indent:0;text-transform:none"/>
        <path d="m773.59375-452a0.50219246 0.50219246 0 1 0 0.0937 1h1.8125a0.50005 0.50005 0 1 0 0-1h-1.8125a0.50005 0.50005 0 0 0-0.0937 0z" style="block-progression:tb;text-indent:0;text-transform:none"/>
        <path d="m773.59375-454a0.50219246 0.50219246 0 1 0 0.0937 1h1.8125a0.50005 0.50005 0 1 0 0-1h-1.8125a0.50005 0.50005 0 0 0-0.0937 0z" style="block-progression:tb;text-indent:0;text-transform:none"/>
        <path d="m780.0004-448c0.32762 0.0664 0.66579 7e-3 1 0 0.33355-7e-3 0.66868 0.0392 1 0 0.62377-0.0737 1.19577-0.46158 1.52274-0.99787s0.41177-1.20749 0.26-1.81699c-0.15177-0.60949-0.53175-1.15378-1.03205-1.53354s-1.11579-0.59773-1.74158-0.6516c-0.90784-0.0782-1.84201 0.19208-2.56548 0.74605-0.72346 0.55397-1.22846 1.38688-1.38113 2.2852-0.10756 0.63289-0.0431 1.29417 0.18467 1.89437 0.22777 0.60021 0.61825 1.13777 1.11861 1.53996 0.50037 0.40219 1.10931 0.66796 1.74444 0.76136 0.63514 0.0934 1.29481 0.0142 1.88978-0.22694v-1c-0.45327 0.29856-0.99976 0.45332-1.54228 0.43675-0.54251-0.0166-1.07854-0.20438-1.51276-0.53004-0.43421-0.32566-0.7646-0.78766-0.93241-1.30383-0.1678-0.51618-0.17225-1.08414-0.0126-1.60288 0.19034-0.61825 0.6121-1.15862 1.15428-1.51147 0.54219-0.35284 1.19956-0.51929 1.84572-0.48853 0.53715 0.0256 1.08173 0.19329 1.48295 0.55136 0.20061 0.17903 0.36214 0.40374 0.45639 0.65556 0.0943 0.25182 0.11974 0.53077 0.0607 0.79308-0.0542 0.24043-0.17919 0.46445-0.35541 0.63674s-0.403 0.29225-0.64459 0.34096v-0.9777c-0.1194-0.2972-0.32939-0.55729-0.59474-0.73665s-0.58498-0.27726-0.90526-0.27726-0.63991 0.0979-0.90526 0.27726-0.47534 0.43945-0.59474 0.73665c-0.15846 0.39444-0.15178 0.85562 0.0334 1.23826 0.18515 0.38263 0.55001 0.67735 0.96663 0.76174m1.03589-0.97703c-0.10348 0.10419-0.24042 0.17463-0.38536 0.19821-0.14494 0.0236-0.29714 1.9e-4 -0.42831-0.0658-0.13117-0.066-0.24063-0.17433-0.30804-0.30479-0.0674-0.13046-0.0924-0.28241-0.0704-0.42759 0.0188-0.1237 0.0714-0.2421 0.15056-0.33896 0.0792-0.0969 0.18478-0.17193 0.30228-0.21491 0.11751-0.043 0.24661-0.0538 0.36961-0.0309s0.23958 0.0794 0.33375 0.16178" style="block-progression:tb;text-indent:0;text-transform:none"/>
    </g>
</svg>
