<svg version="1.1" viewBox="0 0 16 16" xmlns="http://www.w3.org/2000/svg">
  <defs>
   <style id="current-color-scheme" type="text/css">
   .ColorScheme-Text { color:#5c616c; } .ColorScheme-Highlight { color:#5294e2; }
  </style>
 </defs>
    <g transform="translate(-713.00043,458)" class="ColorScheme-Text" fill="currentColor">
        <path d="m716.00043-458c-0.554 0-1 0.446-1 1v14c0 0.554 0.446 1 1 1h10c0.554 0 1-0.446 1-1v-10c0-0.554-4.446-5-5-5zm0.5 1h5.5v4h4v9.5c0 0.277-0.223 0.5-0.5 0.5h-9c-0.277 0-0.5-0.223-0.5-0.5v-13c0-0.277 0.223-0.5 0.5-0.5z"/>
        <path d="m719.41889-455.00118c-0.86024 0-1.55632 0.72246-1.55632 1.58269 0 0.86024 0.69608 1.55632 1.55632 1.55632s1.5827-0.69608 1.5827-1.55632c0-0.86023-0.72246-1.58269-1.5827-1.58269zm0 1.00237c0.3198 0 0.58032 0.26053 0.58032 0.58032 0 0.3198-0.26052 0.55395-0.58032 0.55395s-0.55394-0.23415-0.55394-0.55395c0-0.31979 0.23414-0.58032 0.55394-0.58032z" style="block-progression:tb;text-indent:0;text-transform:none"/>
        <g>
            <path d="m722.00037-452h1.99983v1h-1.99983z"/>
            <path d="m718.00043-450h5.99984v1h-5.99984z"/>
            <path d="m718.00043-446h3.99984v1h-3.99984z"/>
            <path d="m718.00043-448h5.99984v1h-5.99984z"/>
        </g>
    </g>
</svg>
