<svg version="1.1" viewBox="0 0 16 16" xmlns="http://www.w3.org/2000/svg" xmlns:xlink="http://www.w3.org/1999/xlink">
  <defs>
   <style id="current-color-scheme" type="text/css">
   .ColorScheme-Text { color:#5c616c; } .ColorScheme-Highlight { color:#5294e2; }
  </style>
 </defs>
    <path d="m1.5 0c-0.831 0-1.5 0.669-1.5 1.5v13c0 0.831 0.669 1.5 1.5 1.5h11c0.831 0 1.5-0.669 1.5-1.5v-7l-1 1v6c0 0.30217-0.19783 0.5-0.5 0.5h-11c-0.3021703 0-0.5-0.19783-0.5-0.5v-13c0-0.3021703 0.1978297-0.5 0.5-0.5h11c0.30217 0 0.5 0.1978297 0.5 0.5l0.849074-0.61833808c-0.231143-0.52197975-0.737639-0.88166192-1.349074-0.88166192z" class="ColorScheme-Text" fill="currentColor"/>
    <path d="m6.1589087 9.7017742-1.1677264 3.3082508 3.3039895-1.171988 5.8747252-5.8747234-2.136264-2.1362633zm6.9428563-6.9428558 2.136263 2.1362632 0.534065-0.5340653c0.292002-0.2920014 0.308692-0.7594417 0.0167-1.0514425l-1.084828-1.0848214c-0.292-0.2920007-0.77613-0.2920007-1.068131 0z" class="ColorScheme-Text" fill="currentColor"/>
</svg>
