<svg version="1.1" viewBox="0 0 16 16" xmlns="http://www.w3.org/2000/svg">
  <defs>
   <style id="current-color-scheme" type="text/css">
   .ColorScheme-Text { color:#5c616c; } .ColorScheme-Highlight { color:#5294e2; }
  </style>
 </defs>
    <path d="m2.031 0c-0.54216 0-1 0.32904-1 0.9375v14.125c0 0.58636 0.37667 0.9375 1 0.9375h13.031c0.521 0 0.938-0.35 0.938-0.94v-14.125c0-0.54-0.395-0.94-0.938-0.94h-13.031zm0.969 2.03h11.031v2.9688h-11.031v-2.97zm0.188 3.97h1.625c0.11 0 0.187 0.08 0.187 0.19v1.625c0 0.1-0.077 0.18-0.188 0.18h-1.625c-0.11 0-0.187-0.08-0.187-0.19v-1.625c0-0.1 0.077-0.18 0.188-0.18zm3 0h1.625c0.11 0 0.187 0.08 0.187 0.19v1.625c0 0.1-0.077 0.18-0.188 0.18h-1.625c-0.11 0-0.187-0.08-0.187-0.19v-1.625c0-0.1 0.077-0.18 0.188-0.18zm3 0h1.625c0.11 0 0.187 0.08 0.187 0.19v1.625c0 0.1-0.077 0.18-0.188 0.18h-1.625c-0.11 0-0.187-0.08-0.187-0.19v-1.625c0-0.1 0.077-0.18 0.188-0.18zm3 0h1.625c0.11 0 0.187 0.08 0.187 0.19v1.625c0 0.1-0.077 0.18-0.188 0.18h-1.625c-0.11 0-0.187-0.08-0.187-0.19v-1.625c0-0.1 0.077-0.18 0.188-0.18zm-9 3h1.625c0.11 0 0.187 0.08 0.187 0.19v1.625c0 0.1-0.077 0.18-0.188 0.18h-1.625c-0.11 0-0.187-0.08-0.187-0.19v-1.625c0-0.1 0.077-0.18 0.188-0.18zm3 0h1.625c0.11 0 0.187 0.08 0.187 0.19v1.625c0 0.1-0.077 0.18-0.188 0.18h-1.625c-0.11 0-0.187-0.08-0.187-0.19v-1.625c0-0.1 0.077-0.18 0.188-0.18zm3 0h1.625c0.11 0 0.187 0.08 0.187 0.19v1.625c0 0.1-0.077 0.18-0.188 0.18h-1.625c-0.11 0-0.187-0.08-0.187-0.19v-1.625c0-0.1 0.077-0.18 0.188-0.18zm3 0h1.625c0.11 0 0.187 0.08 0.187 0.19v1.625c0 0.1-0.077 0.18-0.188 0.18h-1.625c-0.11 0-0.187-0.08-0.187-0.19v-1.625c0-0.1 0.077-0.18 0.188-0.18zm-9 3h1.625c0.11 0 0.187 0.08 0.187 0.19v1.625c0 0.1-0.077 0.18-0.188 0.18h-1.625c-0.11 0-0.187-0.08-0.187-0.19v-1.625c0-0.1 0.077-0.18 0.188-0.18zm3 0h1.625c0.11 0 0.187 0.08 0.187 0.19v1.625c0 0.1-0.077 0.18-0.188 0.18h-1.625c-0.11 0-0.187-0.08-0.187-0.19v-1.625c0-0.1 0.077-0.18 0.188-0.18zm3 0h1.625c0.11 0 0.187 0.08 0.187 0.19v1.625c0 0.1-0.077 0.18-0.188 0.18h-1.625c-0.11 0-0.187-0.08-0.187-0.19v-1.625c0-0.1 0.077-0.18 0.188-0.18zm3 0h1.625c0.11 0 0.187 0.08 0.187 0.19v1.625c0 0.1-0.077 0.18-0.188 0.18h-1.625c-0.11 0-0.187-0.08-0.187-0.19v-1.625c0-0.1 0.077-0.18 0.188-0.18z" class="ColorScheme-Text" fill="currentColor"/>
</svg>
