<svg version="1.1" viewBox="0 0 16 16" xmlns="http://www.w3.org/2000/svg">
  <defs>
   <style id="current-color-scheme" type="text/css">
   .ColorScheme-Text { color:#5c616c; } .ColorScheme-Highlight { color:#5294e2; }
  </style>
 </defs>
    <path d="m5.5 2c-1.3807119 0-2.5 1.1192881-2.5 2.5v1c-0.277 0-0.5 0.223-0.5 0.5v0.5c0 0.5522848 0.2238576 1 0.5 1 0.036819 0 0.059197-0.047395 0.09375-0.0625 0.1487461 0.7587857 0.4696921 1.4179146 0.90625 1.875-0.0206437 0.700943-0.1054367 0.740091-0.15625 0.96875-1.144226 1.00876-2.4115698 1.566916-3.65625 2.34375-0.10967205 0.091575-0.1875 0.220299-0.1875 0.375v1.5c0 0.277 0.22300002 0.5 0.5 0.5h10c0.277 0 0.5-0.223 0.5-0.5v-1.5c0-0.1385-0.065875-0.253375-0.15625-0.34375-1.2638301-0.779653-2.5637802-1.324448-3.6875-2.375-0.0508133-0.228659-0.1356063-0.267807-0.15625-0.96875 0.4365579-0.4570854 0.7575039-1.1162143 0.90625-1.875 0.0345533 0.0151054 0.056931 0.0625 0.09375 0.0625 0.2761424 0 0.5-0.4477152 0.5-1v-0.5c0-0.277-0.223-0.5-0.5-0.5v-1c0-1.3807119-1.1192881-2.5-2.5-2.5zm6.25 2c-1.066914 0-1.9375 0.875414-1.9375 1.9375v0.75c-0.1605342 0-0.2852521 0.111863-0.34375 0.25-0.00455 0.031606-0.025571 0.062473-0.03125 0.09375-0.00117 0.01222 0 0.018716 0 0.03125v0.03125 0.375c0 0.4248344 0.1616172 0.75 0.375 0.75 0.028451 0 0.067049-0.019629 0.09375-0.03125 0.114941 0.5836806 0.35016 1.085896 0.6875 1.4375-0.01595 0.539187-0.08574 0.574109-0.125 0.75-0.221043 0.193992-0.455725 0.373195-0.6875 0.53125 0.500961 0.290278 1.032058 0.559744 1.59375 0.90625a1.0017315 1.0017315 0 0 1 0.1875 0.125c0.218378 0.218378 0.4375 0.606395 0.4375 1.0625v1.5c0 0.177143-0.03464 0.340794-0.09375 0.5h3.71875c0.214046 0 0.375-0.161923 0.375-0.375v-2.15625c0-0.106538-0.05515-0.21173-0.125-0.28125-0.976596-0.599733-1.975421-1.004383-2.84375-1.8125-0.03927-0.175891-0.109049-0.210813-0.125-0.75 0.33734-0.351604 0.60381-0.8538193 0.71875-1.4375 0.0267 0.011621 0.03404 0.03125 0.0625 0.03125 0.213383 0 0.375-0.3251656 0.375-0.75v-0.40625c0-0.2130769-0.160955-0.375-0.375-0.375v-0.75c-4e-6 -1.0620862-0.870586-1.9375-1.9375-1.9375z" enable-background="new" class="ColorScheme-Text" fill="currentColor"/>
</svg>
