<svg version="1.1" viewBox="0 0 16 16" xmlns="http://www.w3.org/2000/svg">
  <defs>
   <style id="current-color-scheme" type="text/css">
   .ColorScheme-Text { color:#5c616c; } .ColorScheme-Highlight { color:#5294e2; }
  </style>
 </defs>
    <path d="m2.5 1c-0.8310001 0-1.5 0.669-1.5 1.5v11c0 0.831 0.6689998 1.5 1.5 1.5h11c0.831 0 1.5-0.669 1.5-1.5v-11c0-0.831-0.669-1.5-1.5-1.5zm1.3125 1.6875h0.65625v0.65625c0.4456341 0.0183113 0.8099963 0.1061395 1.21875 0.28125l-0.3125 0.71875c-0.3201049-0.1269135-0.561217-0.22194-0.90625-0.25v0.875c0.4351723 0.175448 0.8678132 0.333859 1.15625 0.71875 0.1078193 0.1504047 0.157656 0.3809653 0.15625 0.5625 0.0153642 0.3754707-0.2482608 0.7053818-0.59375 0.875-0.2486965 0.1326383-0.4378767 0.2247581-0.71875 0.25v0.65625h-0.65625v-0.65625c-0.4588543-0.0089737-0.7966505-0.1021407-1.21875-0.28125v-0.78125c0.4217101 0.1902767 0.7546501 0.2745923 1.21875 0.3125v-0.9375c-0.4162275-0.1571998-0.7132101-0.2770318-1-0.625-0.2966048-0.3883565-0.3099424-1.0317477 0.09375-1.34375 0.2812664-0.233532 0.5441266-0.3091545 0.90625-0.34375zm0 1.4375c-0.1778455 0.0200322-0.2894478 0.1041889-0.28125 0.3125-0.0079913 0.2206808 0.1055755 0.2977383 0.28125 0.375zm0.65625 1.71875v0.75c0.1972346-0.0262841 0.35374-0.0863995 0.34375-0.3125-0.0039265-0.2215746-0.1695213-0.352477-0.34375-0.4375zm2.53125 2.15625h4v1h-4z" class="ColorScheme-Text" fill="currentColor"/>
</svg>
